M48
; DRILL file KiCad 10.0.6 date 2026-09-07T03:23:20
; FORMAT={-:-/ absolute / metric / decimal}
; #@! TF.CreationDate,2026-09-07T03:23:20+08:00
; #@! TF.GenerationSoftware,Kicad,Pcbnew,10.0.6
; #@! TF.FileFunction,Plated,1,4,PTH
FMAT,2
METRIC
; #@! TA.AperFunction,Plated,PTH,ViaDrill
T1C0.300
%
G90
G05
T1
X45.55Y-80.95
X46.098Y-74.017
X46.48Y-78.047
X46.543Y-81.245
X47.286Y-91.892
X47.586Y-72.166
X48.209Y-96.327
X51.264Y-101.133
X53.063Y-63.715
X53.529Y-62.204
X53.75Y-102.9
X54.802Y-62.207
X55.356Y-65.302
X56.065Y-62.2
X56.851Y-58.307
X57.335Y-62.2
X58.556Y-61.0
X59.404Y-57.764
X60.25Y-105.55
X60.897Y-106.28
X61.636Y-60.679
X62.069Y-61.367
X62.532Y-65.845
X63.1Y-62.55
X63.2Y-105.45
X64.139Y-58.817
X65.141Y-65.581
X65.442Y-62.525
X66.05Y-64.2
X66.6Y-66.55
X67.285Y-65.069
X68.152Y-107.872
X68.537Y-62.559
X68.717Y-59.45
X68.72Y-61.176
X71.028Y-61.06
X71.063Y-57.812
X71.652Y-65.581
X71.783Y-60.954
X72.892Y-64.833
X73.374Y-64.232
X73.869Y-65.128
X75.7Y-59.1
X75.779Y-62.43
X76.167Y-59.631
X76.882Y-61.116
X76.962Y-58.548
X77.411Y-64.226
X77.5Y-61.4
X77.65Y-58.7
X78.725Y-58.698
X79.173Y-107.425
X79.195Y-61.114
X79.45Y-108.1
X79.959Y-64.944
X80.496Y-66.545
X81.4Y-61.8
X82.65Y-66.9
X82.8Y-64.9
X83.121Y-62.114
X83.75Y-107.45
X83.827Y-61.221
X83.846Y-57.829
X83.85Y-64.9
X84.684Y-66.42
X84.7Y-107.45
X84.758Y-60.234
X85.25Y-66.8
X86.944Y-106.993
X87.09Y-59.035
X87.261Y-66.686
X88.915Y-66.327
X89.281Y-58.756
X90.033Y-58.773
X90.424Y-63.077
X90.539Y-62.418
X90.984Y-61.942
X90.996Y-60.375
X90.997Y-59.593
X91.531Y-65.025
X92.992Y-67.473
X93.943Y-65.073
X93.943Y-58.255
X94.942Y-65.852
X96.578Y-98.668
X96.702Y-60.502
X96.72Y-61.198
X96.862Y-59.033
X96.946Y-57.812
X97.85Y-99.05
X98.299Y-95.096
X98.549Y-64.92
X98.6Y-98.1
X99.439Y-94.654
X99.499Y-63.969
X100.287Y-64.609
X100.7Y-86.5
X100.945Y-61.152
X101.294Y-64.84
X101.595Y-57.96
X101.65Y-74.5
X101.692Y-63.879
X102.25Y-74.2
X102.3Y-76.25
X102.314Y-60.664
X102.773Y-73.302
X102.85Y-79.35
X102.969Y-59.659
X103.25Y-77.25
X103.345Y-76.554
X103.699Y-72.754
X104.482Y-60.374
X104.5Y-70.55
X104.78Y-72.285
X106.35Y-71.0
X106.37Y-66.632
X106.37Y-67.71
X106.784Y-71.529
X106.787Y-72.864
X107.042Y-64.093
X107.324Y-65.047
X108.25Y-59.998
X108.592Y-65.98
X108.624Y-68.838
X108.921Y-60.017
X108.969Y-69.858
X109.244Y-65.755
X109.695Y-65.285
X109.929Y-68.966
X110.0Y-71.2
X110.197Y-65.816
X110.25Y-59.983
X110.637Y-68.304
X110.849Y-65.926
X111.577Y-68.928
X111.85Y-65.55
X112.3Y-70.75
X112.873Y-64.11
X113.009Y-60.625
X113.435Y-70.81
X114.099Y-72.0
X114.198Y-70.349
X115.278Y-67.51
X115.575Y-72.85
X115.65Y-69.95
X115.9Y-65.3
X116.2Y-71.75
X116.548Y-69.72
X116.548Y-70.496
X116.572Y-61.502
X116.6Y-65.3
X117.029Y-62.428
X117.096Y-60.711
X117.814Y-59.994
X117.906Y-82.545
X117.913Y-62.901
X118.144Y-81.709
X118.209Y-62.25
X118.216Y-61.25
X118.274Y-64.897
X118.53Y-60.218
X118.6Y-80.8
X118.675Y-67.199
X118.709Y-71.115
X118.9Y-73.8
X119.01Y-64.493
X119.212Y-60.009
X119.22Y-63.781
X120.225Y-65.043
X120.315Y-95.584
X120.877Y-65.054
X121.527Y-64.782
X122.25Y-64.8
X122.7Y-59.35
X122.726Y-97.223
X122.778Y-99.526
X122.8Y-63.8
X123.0Y-60.35
X123.419Y-64.072
X123.65Y-60.2
X124.039Y-101.354
X124.1Y-62.05
X124.55Y-61.55
X126.45Y-60.05
X126.572Y-63.372
X126.908Y-60.525
X127.926Y-64.698
X128.477Y-65.515
X129.283Y-60.953
X129.299Y-62.048
X129.392Y-59.744
X129.725Y-66.881
X129.838Y-60.221
X130.621Y-62.442
X131.112Y-105.325
X131.25Y-61.7
X132.193Y-62.7
X132.55Y-65.1
X132.577Y-63.237
X132.707Y-61.632
X132.708Y-60.441
X132.712Y-62.284
X133.94Y-65.12
X134.85Y-67.2
X135.719Y-62.623
X135.876Y-59.723
X136.083Y-58.934
X136.421Y-106.713
X138.25Y-107.25
X138.326Y-106.585
X139.419Y-65.309
X140.788Y-60.491
X140.812Y-107.191
X141.014Y-59.357
X142.711Y-66.207
X143.484Y-60.503
X143.76Y-59.856
X144.816Y-63.137
X145.6Y-107.85
X146.588Y-63.882
X147.629Y-63.608
X147.711Y-58.875
X149.092Y-58.711
X149.965Y-58.796
X150.114Y-66.215
X151.257Y-58.497
X151.322Y-65.276
X151.434Y-66.258
X152.16Y-63.137
X152.798Y-65.608
X152.956Y-58.934
X153.702Y-61.008
X154.01Y-63.307
X154.019Y-64.018
X154.716Y-61.585
X154.721Y-60.09
X154.85Y-106.85
X155.833Y-58.828
X156.45Y-66.775
X157.319Y-65.747
X158.711Y-61.864
X158.836Y-105.419
X159.009Y-59.836
X159.861Y-64.437
X161.534Y-105.721
X161.674Y-65.403
X163.818Y-64.009
X163.888Y-65.036
X165.28Y-64.75
X165.577Y-65.474
X166.389Y-67.235
X166.74Y-63.581
X167.112Y-67.06
X169.133Y-68.14
X170.6Y-98.9
X171.128Y-68.769
X171.169Y-98.525
X171.189Y-69.51
X171.94Y-91.66
X172.269Y-94.296
X172.9Y-73.65
X173.502Y-74.025
X173.9Y-86.85
X175.119Y-79.233
M30
