%TF.GenerationSoftware,KiCad,Pcbnew,10.0.6*%
%TF.CreationDate,2026-09-17T13:32:16+08:00*%
%TF.ProjectId,ir_glasses_EVT_E6_carrier,69725f67-6c61-4737-9365-735f4556545f,EVT E6*%
%TF.SameCoordinates,Original*%
%TF.FileFunction,Legend,Bot*%
%TF.FilePolarity,Positive*%
%FSLAX46Y46*%
G04 Gerber Fmt 4.6, Leading zero omitted, Abs format (unit mm)*
G04 Created by KiCad (PCBNEW 10.0.6) date 2026-09-17 13:32:16*
%MOMM*%
%LPD*%
G01*
G04 APERTURE LIST*
%ADD10C,0.120000*%
%ADD11C,2.000000*%
%ADD12C,0.990600*%
%ADD13C,1.000000*%
G04 APERTURE END LIST*
%TO.C,TP11*%
D10*
X110400000Y-70300000D02*
G75*
G02*
X109000000Y-70300000I-700000J0D01*
G01*
X109000000Y-70300000D02*
G75*
G02*
X110400000Y-70300000I700000J0D01*
G01*
%TO.C,TP2*%
X100950000Y-58300000D02*
G75*
G02*
X99550000Y-58300000I-700000J0D01*
G01*
X99550000Y-58300000D02*
G75*
G02*
X100950000Y-58300000I700000J0D01*
G01*
%TO.C,TP9*%
X124950000Y-59350000D02*
G75*
G02*
X123550000Y-59350000I-700000J0D01*
G01*
X123550000Y-59350000D02*
G75*
G02*
X124950000Y-59350000I700000J0D01*
G01*
%TO.C,TP7*%
X118450000Y-65800000D02*
G75*
G02*
X117050000Y-65800000I-700000J0D01*
G01*
X117050000Y-65800000D02*
G75*
G02*
X118450000Y-65800000I700000J0D01*
G01*
%TO.C,TP4*%
X101700000Y-62800000D02*
G75*
G02*
X100300000Y-62800000I-700000J0D01*
G01*
X100300000Y-62800000D02*
G75*
G02*
X101700000Y-62800000I700000J0D01*
G01*
%TO.C,TP3*%
X100950000Y-60550000D02*
G75*
G02*
X99550000Y-60550000I-700000J0D01*
G01*
X99550000Y-60550000D02*
G75*
G02*
X100950000Y-60550000I700000J0D01*
G01*
%TO.C,TP6*%
X117200000Y-63300000D02*
G75*
G02*
X115800000Y-63300000I-700000J0D01*
G01*
X115800000Y-63300000D02*
G75*
G02*
X117200000Y-63300000I700000J0D01*
G01*
%TO.C,TP5*%
X102950000Y-65050000D02*
G75*
G02*
X101550000Y-65050000I-700000J0D01*
G01*
X101550000Y-65050000D02*
G75*
G02*
X102950000Y-65050000I700000J0D01*
G01*
%TO.C,TP1*%
X94700000Y-66050000D02*
G75*
G02*
X93300000Y-66050000I-700000J0D01*
G01*
X93300000Y-66050000D02*
G75*
G02*
X94700000Y-66050000I700000J0D01*
G01*
%TO.C,TP8*%
X118950000Y-68050000D02*
G75*
G02*
X117550000Y-68050000I-700000J0D01*
G01*
X117550000Y-68050000D02*
G75*
G02*
X118950000Y-68050000I700000J0D01*
G01*
%TO.C,TP12*%
X144450000Y-65550000D02*
G75*
G02*
X143050000Y-65550000I-700000J0D01*
G01*
X143050000Y-65550000D02*
G75*
G02*
X144450000Y-65550000I700000J0D01*
G01*
%TO.C,TP10*%
X136600000Y-64350000D02*
G75*
G02*
X135200000Y-64350000I-700000J0D01*
G01*
X135200000Y-64350000D02*
G75*
G02*
X136600000Y-64350000I700000J0D01*
G01*
%TD*%
%LPC*%
D11*
%TO.C,H1*%
X37849412Y-51000000D03*
%TD*%
D12*
%TO.C,J2*%
X51690000Y-61000000D03*
X59310000Y-59984000D03*
X59310000Y-62016000D03*
%TD*%
D11*
%TO.C,H2*%
X182154557Y-51000000D03*
%TD*%
%TO.C,H3*%
X37849412Y-114955476D03*
%TD*%
%TO.C,H4*%
X182154557Y-114955476D03*
%TD*%
D13*
%TO.C,TP11*%
X109700000Y-70300000D03*
%TD*%
%TO.C,TP2*%
X100250000Y-58300000D03*
%TD*%
%TO.C,TP9*%
X124250000Y-59350000D03*
%TD*%
%TO.C,TP7*%
X117750000Y-65800000D03*
%TD*%
%TO.C,TP4*%
X101000000Y-62800000D03*
%TD*%
%TO.C,TP3*%
X100250000Y-60550000D03*
%TD*%
%TO.C,TP6*%
X116500000Y-63300000D03*
%TD*%
%TO.C,TP5*%
X102250000Y-65050000D03*
%TD*%
%TO.C,TP1*%
X94000000Y-66050000D03*
%TD*%
%TO.C,TP8*%
X118250000Y-68050000D03*
%TD*%
%TO.C,TP12*%
X143750000Y-65550000D03*
%TD*%
%TO.C,TP10*%
X135900000Y-64350000D03*
%TD*%
%LPD*%
M02*
