%TF.GenerationSoftware,KiCad,Pcbnew,10.0.6*%
%TF.CreationDate,2026-09-08T09:30:55+08:00*%
%TF.ProjectId,ir_glasses_carrier,69725f67-6c61-4737-9365-735f63617272,EVT E3*%
%TF.SameCoordinates,Original*%
%TF.FileFunction,Legend,Top*%
%TF.FilePolarity,Positive*%
%FSLAX46Y46*%
G04 Gerber Fmt 4.6, Leading zero omitted, Abs format (unit mm)*
G04 Created by KiCad (PCBNEW 10.0.6) date 2026-09-08 09:30:55*
%MOMM*%
%LPD*%
G01*
G04 APERTURE LIST*
%ADD10C,0.100000*%
%ADD11C,0.120000*%
%ADD12C,0.180000*%
%ADD13C,0.160000*%
G04 APERTURE END LIST*
D10*
X104950000Y-71650000D02*
X104750000Y-71950000D01*
X104950000Y-71650000D02*
X105150000Y-71950000D01*
X104950000Y-72750000D02*
X104950000Y-71650000D01*
X104950000Y-72750000D02*
X105750000Y-72750000D01*
X105750000Y-72750000D02*
X105450000Y-72550000D01*
X105750000Y-72750000D02*
X105450000Y-72950000D01*
X50447619Y-58045847D02*
X50714285Y-58045847D01*
X50828571Y-58464895D02*
X50447619Y-58464895D01*
X50447619Y-58464895D02*
X50447619Y-57664895D01*
X50447619Y-57664895D02*
X50828571Y-57664895D01*
X51095238Y-57664895D02*
X51590476Y-57664895D01*
X51590476Y-57664895D02*
X51323810Y-57969657D01*
X51323810Y-57969657D02*
X51438095Y-57969657D01*
X51438095Y-57969657D02*
X51514286Y-58007752D01*
X51514286Y-58007752D02*
X51552381Y-58045847D01*
X51552381Y-58045847D02*
X51590476Y-58122038D01*
X51590476Y-58122038D02*
X51590476Y-58312514D01*
X51590476Y-58312514D02*
X51552381Y-58388704D01*
X51552381Y-58388704D02*
X51514286Y-58426800D01*
X51514286Y-58426800D02*
X51438095Y-58464895D01*
X51438095Y-58464895D02*
X51209524Y-58464895D01*
X51209524Y-58464895D02*
X51133333Y-58426800D01*
X51133333Y-58426800D02*
X51095238Y-58388704D01*
X61571428Y-57826800D02*
X61685714Y-57864895D01*
X61685714Y-57864895D02*
X61876190Y-57864895D01*
X61876190Y-57864895D02*
X61952381Y-57826800D01*
X61952381Y-57826800D02*
X61990476Y-57788704D01*
X61990476Y-57788704D02*
X62028571Y-57712514D01*
X62028571Y-57712514D02*
X62028571Y-57636323D01*
X62028571Y-57636323D02*
X61990476Y-57560133D01*
X61990476Y-57560133D02*
X61952381Y-57522038D01*
X61952381Y-57522038D02*
X61876190Y-57483942D01*
X61876190Y-57483942D02*
X61723809Y-57445847D01*
X61723809Y-57445847D02*
X61647619Y-57407752D01*
X61647619Y-57407752D02*
X61609524Y-57369657D01*
X61609524Y-57369657D02*
X61571428Y-57293466D01*
X61571428Y-57293466D02*
X61571428Y-57217276D01*
X61571428Y-57217276D02*
X61609524Y-57141085D01*
X61609524Y-57141085D02*
X61647619Y-57102990D01*
X61647619Y-57102990D02*
X61723809Y-57064895D01*
X61723809Y-57064895D02*
X61914286Y-57064895D01*
X61914286Y-57064895D02*
X62028571Y-57102990D01*
X104950000Y-70933942D02*
X104950000Y-71314895D01*
X104683333Y-70514895D02*
X104950000Y-70933942D01*
X104950000Y-70933942D02*
X105216666Y-70514895D01*
X106133333Y-72314895D02*
X106666667Y-73114895D01*
X106666667Y-72314895D02*
X106133333Y-73114895D01*
D11*
X105273810Y-70063855D02*
X105273810Y-69263855D01*
X105654762Y-70063855D02*
X105654762Y-69263855D01*
X105654762Y-69263855D02*
X105921428Y-69835283D01*
X105921428Y-69835283D02*
X106188095Y-69263855D01*
X106188095Y-69263855D02*
X106188095Y-70063855D01*
X106569048Y-69263855D02*
X106569048Y-69911474D01*
X106569048Y-69911474D02*
X106607143Y-69987664D01*
X106607143Y-69987664D02*
X106645238Y-70025760D01*
X106645238Y-70025760D02*
X106721429Y-70063855D01*
X106721429Y-70063855D02*
X106873810Y-70063855D01*
X106873810Y-70063855D02*
X106950000Y-70025760D01*
X106950000Y-70025760D02*
X106988095Y-69987664D01*
X106988095Y-69987664D02*
X107026191Y-69911474D01*
X107026191Y-69911474D02*
X107026191Y-69263855D01*
D12*
X99885714Y-50917211D02*
X100285714Y-50917211D01*
X100457142Y-51545782D02*
X99885714Y-51545782D01*
X99885714Y-51545782D02*
X99885714Y-50345782D01*
X99885714Y-50345782D02*
X100457142Y-50345782D01*
X100799999Y-50345782D02*
X101199999Y-51545782D01*
X101199999Y-51545782D02*
X101599999Y-50345782D01*
X101828570Y-50345782D02*
X102514285Y-50345782D01*
X102171427Y-51545782D02*
X102171427Y-50345782D01*
X103828571Y-50917211D02*
X104228571Y-50917211D01*
X104399999Y-51545782D02*
X103828571Y-51545782D01*
X103828571Y-51545782D02*
X103828571Y-50345782D01*
X103828571Y-50345782D02*
X104399999Y-50345782D01*
X104799999Y-50345782D02*
X105542856Y-50345782D01*
X105542856Y-50345782D02*
X105142856Y-50802925D01*
X105142856Y-50802925D02*
X105314285Y-50802925D01*
X105314285Y-50802925D02*
X105428571Y-50860068D01*
X105428571Y-50860068D02*
X105485713Y-50917211D01*
X105485713Y-50917211D02*
X105542856Y-51031497D01*
X105542856Y-51031497D02*
X105542856Y-51317211D01*
X105542856Y-51317211D02*
X105485713Y-51431497D01*
X105485713Y-51431497D02*
X105428571Y-51488640D01*
X105428571Y-51488640D02*
X105314285Y-51545782D01*
X105314285Y-51545782D02*
X104971428Y-51545782D01*
X104971428Y-51545782D02*
X104857142Y-51488640D01*
X104857142Y-51488640D02*
X104799999Y-51431497D01*
X107828571Y-50288640D02*
X106799999Y-51831497D01*
X108971428Y-50345782D02*
X109657143Y-50345782D01*
X109314285Y-51545782D02*
X109314285Y-50345782D01*
X110285714Y-50345782D02*
X110514286Y-50345782D01*
X110514286Y-50345782D02*
X110628571Y-50402925D01*
X110628571Y-50402925D02*
X110742857Y-50517211D01*
X110742857Y-50517211D02*
X110800000Y-50745782D01*
X110800000Y-50745782D02*
X110800000Y-51145782D01*
X110800000Y-51145782D02*
X110742857Y-51374354D01*
X110742857Y-51374354D02*
X110628571Y-51488640D01*
X110628571Y-51488640D02*
X110514286Y-51545782D01*
X110514286Y-51545782D02*
X110285714Y-51545782D01*
X110285714Y-51545782D02*
X110171429Y-51488640D01*
X110171429Y-51488640D02*
X110057143Y-51374354D01*
X110057143Y-51374354D02*
X110000000Y-51145782D01*
X110000000Y-51145782D02*
X110000000Y-50745782D01*
X110000000Y-50745782D02*
X110057143Y-50517211D01*
X110057143Y-50517211D02*
X110171429Y-50402925D01*
X110171429Y-50402925D02*
X110285714Y-50345782D01*
X111314286Y-51545782D02*
X111314286Y-50345782D01*
X111314286Y-50345782D02*
X111771429Y-50345782D01*
X111771429Y-50345782D02*
X111885714Y-50402925D01*
X111885714Y-50402925D02*
X111942857Y-50460068D01*
X111942857Y-50460068D02*
X112000000Y-50574354D01*
X112000000Y-50574354D02*
X112000000Y-50745782D01*
X112000000Y-50745782D02*
X111942857Y-50860068D01*
X111942857Y-50860068D02*
X111885714Y-50917211D01*
X111885714Y-50917211D02*
X111771429Y-50974354D01*
X111771429Y-50974354D02*
X111314286Y-50974354D01*
X114285715Y-50288640D02*
X113257143Y-51831497D01*
X116228572Y-51545782D02*
X115542858Y-51545782D01*
X115885715Y-51545782D02*
X115885715Y-50345782D01*
X115885715Y-50345782D02*
X115771429Y-50517211D01*
X115771429Y-50517211D02*
X115657144Y-50631497D01*
X115657144Y-50631497D02*
X115542858Y-50688640D01*
X116742858Y-51088640D02*
X117657144Y-51088640D01*
X118228572Y-50345782D02*
X118228572Y-51317211D01*
X118228572Y-51317211D02*
X118285715Y-51431497D01*
X118285715Y-51431497D02*
X118342858Y-51488640D01*
X118342858Y-51488640D02*
X118457143Y-51545782D01*
X118457143Y-51545782D02*
X118685715Y-51545782D01*
X118685715Y-51545782D02*
X118800000Y-51488640D01*
X118800000Y-51488640D02*
X118857143Y-51431497D01*
X118857143Y-51431497D02*
X118914286Y-51317211D01*
X118914286Y-51317211D02*
X118914286Y-50345782D01*
X119485715Y-51545782D02*
X119485715Y-50345782D01*
X119485715Y-50345782D02*
X119942858Y-50345782D01*
X119942858Y-50345782D02*
X120057143Y-50402925D01*
X120057143Y-50402925D02*
X120114286Y-50460068D01*
X120114286Y-50460068D02*
X120171429Y-50574354D01*
X120171429Y-50574354D02*
X120171429Y-50745782D01*
X120171429Y-50745782D02*
X120114286Y-50860068D01*
X120114286Y-50860068D02*
X120057143Y-50917211D01*
X120057143Y-50917211D02*
X119942858Y-50974354D01*
X119942858Y-50974354D02*
X119485715Y-50974354D01*
%TO.C,CF10*%
D11*
X136278000Y-62232836D02*
X136278000Y-62017164D01*
X136998000Y-62232836D02*
X136998000Y-62017164D01*
%TO.C,CF12*%
X148002000Y-58982836D02*
X148002000Y-58767164D01*
X148722000Y-58982836D02*
X148722000Y-58767164D01*
%TO.C,PD10*%
X133346707Y-105452727D02*
X133199226Y-106441792D01*
%TO.C,U6*%
X86090000Y-60440000D02*
X87910000Y-60440000D01*
X86090000Y-60490000D02*
X86090000Y-60440000D01*
X86090000Y-63560000D02*
X86090000Y-63510000D01*
X87910000Y-60440000D02*
X87910000Y-60490000D01*
X87910000Y-61610000D02*
X87910000Y-62390000D01*
X87910000Y-63510000D02*
X87910000Y-63560000D01*
X87910000Y-63560000D02*
X86090000Y-63560000D01*
X85550000Y-60490000D02*
X85310000Y-60160000D01*
X85790000Y-60160000D01*
X85550000Y-60490000D01*
G36*
X85550000Y-60490000D02*
G01*
X85310000Y-60160000D01*
X85790000Y-60160000D01*
X85550000Y-60490000D01*
G37*
%TO.C,U5*%
X150690000Y-58790000D02*
X155310000Y-58790000D01*
X150690000Y-58990000D02*
X150690000Y-58790000D01*
X150690000Y-64010000D02*
X150690000Y-63810000D01*
X155310000Y-58790000D02*
X155310000Y-58990000D01*
X155310000Y-63810000D02*
X155310000Y-64010000D01*
X155310000Y-64010000D02*
X150690000Y-64010000D01*
X150050000Y-58990000D02*
X149710000Y-58520000D01*
X150390000Y-58520000D01*
X150050000Y-58990000D01*
G36*
X150050000Y-58990000D02*
G01*
X149710000Y-58520000D01*
X150390000Y-58520000D01*
X150050000Y-58990000D01*
G37*
%TO.C,D17*%
X160610000Y-58800000D02*
X157950000Y-58800000D01*
X160610000Y-60500000D02*
X157950000Y-60500000D01*
X160610000Y-60500000D02*
X160610000Y-58800000D01*
%TO.C,U7*%
X92690000Y-59265000D02*
X97310000Y-59265000D01*
X97310000Y-64735000D02*
X92690000Y-64735000D01*
X91140000Y-59720000D02*
X90810000Y-59960000D01*
X90810000Y-59480000D01*
X91140000Y-59720000D01*
G36*
X91140000Y-59720000D02*
G01*
X90810000Y-59960000D01*
X90810000Y-59480000D01*
X91140000Y-59720000D01*
G37*
%TO.C,PD7*%
X80496875Y-66533539D02*
X80562940Y-65535724D01*
%TO.C,C16*%
X119142164Y-58202000D02*
X119357836Y-58202000D01*
X119142164Y-58922000D02*
X119357836Y-58922000D01*
%TO.C,TP11*%
X136650000Y-58150000D02*
G75*
G02*
X135250000Y-58150000I-700000J0D01*
G01*
X135250000Y-58150000D02*
G75*
G02*
X136650000Y-58150000I700000J0D01*
G01*
%TO.C,U11*%
X166240000Y-65440000D02*
X167760000Y-65440000D01*
X166240000Y-65490000D02*
X166240000Y-65440000D01*
X166240000Y-67390000D02*
X166240000Y-66610000D01*
X166240000Y-68560000D02*
X166240000Y-68510000D01*
X167760000Y-65440000D02*
X167760000Y-66440000D01*
X167760000Y-67560000D02*
X167760000Y-68560000D01*
X167760000Y-68560000D02*
X166240000Y-68560000D01*
X165700000Y-66620000D02*
X165940000Y-66950000D01*
X165460000Y-66950000D01*
X165700000Y-66620000D01*
G36*
X165940000Y-66950000D02*
G01*
X165460000Y-66950000D01*
X165700000Y-66620000D01*
X165940000Y-66950000D01*
G37*
%TO.C,C17*%
X103865336Y-62390000D02*
X103649664Y-62390000D01*
X103865336Y-63110000D02*
X103649664Y-63110000D01*
%TO.C,CF14*%
X150030164Y-64415000D02*
X150245836Y-64415000D01*
X150030164Y-65135000D02*
X150245836Y-65135000D01*
%TO.C,C28*%
X121288748Y-65940000D02*
X122711252Y-65940000D01*
X121288748Y-68660000D02*
X122711252Y-68660000D01*
%TO.C,C27*%
X83490000Y-63390580D02*
X83490000Y-63109420D01*
X84510000Y-63390580D02*
X84510000Y-63109420D01*
%TO.C,C36*%
X130440000Y-65907836D02*
X130440000Y-65692164D01*
X131160000Y-65907836D02*
X131160000Y-65692164D01*
%TO.C,PD9*%
X121508900Y-94152707D02*
X120567106Y-94488899D01*
%TO.C,TP2*%
X100950000Y-58300000D02*
G75*
G02*
X99550000Y-58300000I-700000J0D01*
G01*
X99550000Y-58300000D02*
G75*
G02*
X100950000Y-58300000I700000J0D01*
G01*
%TO.C,C24*%
X110692164Y-68440000D02*
X110907836Y-68440000D01*
X110692164Y-69160000D02*
X110907836Y-69160000D01*
%TO.C,CF7*%
X71252000Y-63132836D02*
X71252000Y-62917164D01*
X71972000Y-63132836D02*
X71972000Y-62917164D01*
%TO.C,PD14*%
X162354646Y-67414238D02*
X162549737Y-66433453D01*
%TO.C,U10*%
X108390000Y-69940000D02*
X109065000Y-69940000D01*
X108390000Y-70115000D02*
X108390000Y-69940000D01*
X108390000Y-72660000D02*
X108390000Y-72485000D01*
X109065000Y-72660000D02*
X108390000Y-72660000D01*
X110935000Y-69940000D02*
X111610000Y-69940000D01*
X111610000Y-69940000D02*
X111610000Y-70115000D01*
X111610000Y-72485000D02*
X111610000Y-72660000D01*
X111610000Y-72660000D02*
X110935000Y-72660000D01*
X108260000Y-70550000D02*
X107930000Y-70790000D01*
X107930000Y-70310000D01*
X108260000Y-70550000D01*
G36*
X108260000Y-70550000D02*
G01*
X107930000Y-70790000D01*
X107930000Y-70310000D01*
X108260000Y-70550000D01*
G37*
%TO.C,CF6*%
X65780164Y-64415000D02*
X65995836Y-64415000D01*
X65780164Y-65135000D02*
X65995836Y-65135000D01*
%TO.C,CF5*%
X64030164Y-57665000D02*
X64245836Y-57665000D01*
X64030164Y-58385000D02*
X64245836Y-58385000D01*
%TO.C,PD1*%
X98129963Y-95089558D02*
X99068058Y-95435937D01*
%TO.C,C22*%
X67640000Y-65357836D02*
X67640000Y-65142164D01*
X68360000Y-65357836D02*
X68360000Y-65142164D01*
%TO.C,C38*%
X164240000Y-67407836D02*
X164240000Y-67192164D01*
X164960000Y-67407836D02*
X164960000Y-67192164D01*
%TO.C,C4*%
X62165336Y-61040000D02*
X61949664Y-61040000D01*
X62165336Y-61760000D02*
X61949664Y-61760000D01*
%TO.C,PD12*%
X169440109Y-98809018D02*
X170346018Y-99232491D01*
%TO.C,D20*%
X57515000Y-57165000D02*
X57515000Y-58635000D01*
X57515000Y-58635000D02*
X59800000Y-58635000D01*
X59800000Y-57165000D02*
X57515000Y-57165000D01*
%TO.C,U1*%
X118890000Y-59890000D02*
X119365000Y-59890000D01*
X118890000Y-60365000D02*
X118890000Y-59890000D01*
X118890000Y-64110000D02*
X118890000Y-63635000D01*
X119365000Y-64110000D02*
X118890000Y-64110000D01*
X122635000Y-59890000D02*
X123110000Y-59890000D01*
X123110000Y-59890000D02*
X123110000Y-60365000D01*
X123110000Y-63635000D02*
X123110000Y-64110000D01*
X123110000Y-64110000D02*
X122635000Y-64110000D01*
X118360000Y-60750000D02*
X118030000Y-60990000D01*
X118030000Y-60510000D01*
X118360000Y-60750000D01*
G36*
X118360000Y-60750000D02*
G01*
X118030000Y-60990000D01*
X118030000Y-60510000D01*
X118360000Y-60750000D01*
G37*
%TO.C,C19*%
X102390000Y-58357836D02*
X102390000Y-58142164D01*
X103110000Y-58357836D02*
X103110000Y-58142164D01*
%TO.C,TP9*%
X124950000Y-59350000D02*
G75*
G02*
X123550000Y-59350000I-700000J0D01*
G01*
X123550000Y-59350000D02*
G75*
G02*
X124950000Y-59350000I700000J0D01*
G01*
%TO.C,C15*%
X87390000Y-65107836D02*
X87390000Y-64892164D01*
X88110000Y-65107836D02*
X88110000Y-64892164D01*
%TO.C,C14*%
X170392164Y-67690000D02*
X170607836Y-67690000D01*
X170392164Y-68410000D02*
X170607836Y-68410000D01*
%TO.C,PD5*%
X46380955Y-78066687D02*
X45381287Y-78092445D01*
%TO.C,TP7*%
X118450000Y-65800000D02*
G75*
G02*
X117050000Y-65800000I-700000J0D01*
G01*
X117050000Y-65800000D02*
G75*
G02*
X118450000Y-65800000I700000J0D01*
G01*
%TO.C,C8*%
X97754164Y-58115000D02*
X97969836Y-58115000D01*
X97754164Y-58835000D02*
X97969836Y-58835000D01*
%TO.C,TP4*%
X101700000Y-62800000D02*
G75*
G02*
X100300000Y-62800000I-700000J0D01*
G01*
X100300000Y-62800000D02*
G75*
G02*
X101700000Y-62800000I700000J0D01*
G01*
%TO.C,PD4*%
X50136418Y-97903109D02*
X49230509Y-98326582D01*
%TO.C,PD3*%
X65160235Y-105890665D02*
X65031665Y-106882365D01*
%TO.C,J1*%
X165800000Y-62250000D02*
X166200000Y-62250000D01*
X166000000Y-61850000D02*
X165800000Y-62250000D01*
X166200000Y-62250000D02*
X166000000Y-61850000D01*
%TO.C,J2*%
X50420000Y-60350000D02*
X52400000Y-58950000D01*
X50420000Y-61650000D02*
X50420000Y-60350000D01*
X52325000Y-62270000D02*
X52325000Y-61635000D01*
X52400000Y-58950000D02*
X59980000Y-58950000D01*
X52400000Y-63050000D02*
X50420000Y-61650000D01*
X52960000Y-62270000D02*
X52325000Y-62270000D01*
X59980000Y-58950000D02*
X60580000Y-59550000D01*
X59980000Y-63050000D02*
X52400000Y-63050000D01*
X59980000Y-63050000D02*
X60580000Y-62450000D01*
X60580000Y-59550000D02*
X60580000Y-62450000D01*
%TO.C,C5*%
X136477500Y-60127836D02*
X136477500Y-59912164D01*
X137197500Y-60127836D02*
X137197500Y-59912164D01*
%TO.C,TP3*%
X100950000Y-60550000D02*
G75*
G02*
X99550000Y-60550000I-700000J0D01*
G01*
X99550000Y-60550000D02*
G75*
G02*
X100950000Y-60550000I700000J0D01*
G01*
%TO.C,PD11*%
X153848065Y-106019235D02*
X153976635Y-107010935D01*
%TO.C,C3*%
X75677500Y-64072164D02*
X75677500Y-64287836D01*
X76397500Y-64072164D02*
X76397500Y-64287836D01*
%TO.C,C29*%
X104877500Y-67822164D02*
X104877500Y-68037836D01*
X105597500Y-67822164D02*
X105597500Y-68037836D01*
%TO.C,TP6*%
X117200000Y-63300000D02*
G75*
G02*
X115800000Y-63300000I-700000J0D01*
G01*
X115800000Y-63300000D02*
G75*
G02*
X117200000Y-63300000I700000J0D01*
G01*
%TO.C,C1*%
X84892164Y-57890000D02*
X85107836Y-57890000D01*
X84892164Y-58610000D02*
X85107836Y-58610000D01*
%TO.C,C21*%
X88640000Y-65107836D02*
X88640000Y-64892164D01*
X89360000Y-65107836D02*
X89360000Y-64892164D01*
%TO.C,C35*%
X54892164Y-63440000D02*
X55107836Y-63440000D01*
X54892164Y-64160000D02*
X55107836Y-64160000D01*
%TO.C,CF1*%
X72528000Y-60982836D02*
X72528000Y-60767164D01*
X73248000Y-60982836D02*
X73248000Y-60767164D01*
%TO.C,CF9*%
X137528000Y-60982836D02*
X137528000Y-60767164D01*
X138248000Y-60982836D02*
X138248000Y-60767164D01*
%TO.C,PD16*%
X118785385Y-73620726D02*
X117818526Y-73365415D01*
%TO.C,C31*%
X89890000Y-65107836D02*
X89890000Y-64892164D01*
X90610000Y-65107836D02*
X90610000Y-64892164D01*
%TO.C,CF13*%
X148028000Y-61132836D02*
X148028000Y-60917164D01*
X148748000Y-61132836D02*
X148748000Y-60917164D01*
%TO.C,C11*%
X103728000Y-64357836D02*
X103728000Y-64142164D01*
X104448000Y-64357836D02*
X104448000Y-64142164D01*
%TO.C,CF4*%
X83002000Y-60232836D02*
X83002000Y-60017164D01*
X83722000Y-60232836D02*
X83722000Y-60017164D01*
%TO.C,C18*%
X115640000Y-58357836D02*
X115640000Y-58142164D01*
X116360000Y-58357836D02*
X116360000Y-58142164D01*
%TO.C,C33*%
X54240000Y-67907836D02*
X54240000Y-67692164D01*
X54960000Y-67907836D02*
X54960000Y-67692164D01*
%TO.C,U2*%
X75190000Y-57890000D02*
X79810000Y-57890000D01*
X75190000Y-58090000D02*
X75190000Y-57890000D01*
X75190000Y-63110000D02*
X75190000Y-62910000D01*
X79810000Y-57890000D02*
X79810000Y-58090000D01*
X79810000Y-62910000D02*
X79810000Y-63110000D01*
X79810000Y-63110000D02*
X75190000Y-63110000D01*
X74550000Y-58090000D02*
X74210000Y-57620000D01*
X74890000Y-57620000D01*
X74550000Y-58090000D01*
G36*
X74550000Y-58090000D02*
G01*
X74210000Y-57620000D01*
X74890000Y-57620000D01*
X74550000Y-58090000D01*
G37*
%TO.C,CF3*%
X81752000Y-60232836D02*
X81752000Y-60017164D01*
X82472000Y-60232836D02*
X82472000Y-60017164D01*
%TO.C,CF8*%
X71252000Y-59882836D02*
X71252000Y-59667164D01*
X71972000Y-59882836D02*
X71972000Y-59667164D01*
%TO.C,C32*%
X103877500Y-66122164D02*
X103877500Y-66337836D01*
X104597500Y-66122164D02*
X104597500Y-66337836D01*
%TO.C,C37*%
X159240000Y-64607836D02*
X159240000Y-64392164D01*
X159960000Y-64607836D02*
X159960000Y-64392164D01*
%TO.C,PD2*%
X85664227Y-105600208D02*
X85811708Y-106589273D01*
%TO.C,U8*%
X128690000Y-58765000D02*
X133310000Y-58765000D01*
X133310000Y-64235000D02*
X128690000Y-64235000D01*
X127140000Y-59220000D02*
X126810000Y-59460000D01*
X126810000Y-58980000D01*
X127140000Y-59220000D01*
G36*
X127140000Y-59220000D02*
G01*
X126810000Y-59460000D01*
X126810000Y-58980000D01*
X127140000Y-59220000D01*
G37*
%TO.C,C25*%
X158359420Y-57440000D02*
X158640580Y-57440000D01*
X158359420Y-58460000D02*
X158640580Y-58460000D01*
%TO.C,C7*%
X88030164Y-59190000D02*
X88245836Y-59190000D01*
X88030164Y-59910000D02*
X88245836Y-59910000D01*
%TO.C,D19*%
X52400000Y-57365000D02*
X52400000Y-58565000D01*
X54360000Y-57365000D02*
X52400000Y-57365000D01*
X54360000Y-58565000D02*
X52400000Y-58565000D01*
%TO.C,PD8*%
X101496524Y-74688582D02*
X102454782Y-74402676D01*
%TO.C,TP5*%
X102950000Y-65050000D02*
G75*
G02*
X101550000Y-65050000I-700000J0D01*
G01*
X101550000Y-65050000D02*
G75*
G02*
X102950000Y-65050000I700000J0D01*
G01*
%TO.C,U12*%
X50900000Y-64700000D02*
X50900000Y-67700000D01*
X53900000Y-64700000D02*
X53900000Y-67700000D01*
X51000000Y-68050000D02*
X50670000Y-68290000D01*
X50670000Y-67810000D01*
X51000000Y-68050000D01*
G36*
X51000000Y-68050000D02*
G01*
X50670000Y-68290000D01*
X50670000Y-67810000D01*
X51000000Y-68050000D01*
G37*
%TO.C,D18*%
X162600000Y-64050000D02*
X164560000Y-64050000D01*
X162600000Y-65250000D02*
X164560000Y-65250000D01*
X164560000Y-65250000D02*
X164560000Y-64050000D01*
%TO.C,C9*%
X133754164Y-57615000D02*
X133969836Y-57615000D01*
X133754164Y-58335000D02*
X133969836Y-58335000D01*
%TO.C,PD15*%
X140536892Y-66431285D02*
X140447285Y-65435308D01*
%TO.C,C13*%
X107140000Y-72319836D02*
X107140000Y-72104164D01*
X107860000Y-72319836D02*
X107860000Y-72104164D01*
%TO.C,TP1*%
X94700000Y-66050000D02*
G75*
G02*
X93300000Y-66050000I-700000J0D01*
G01*
X93300000Y-66050000D02*
G75*
G02*
X94700000Y-66050000I700000J0D01*
G01*
%TO.C,C26*%
X124740000Y-66140580D02*
X124740000Y-65859420D01*
X125760000Y-66140580D02*
X125760000Y-65859420D01*
%TO.C,C23*%
X151640000Y-65357836D02*
X151640000Y-65142164D01*
X152360000Y-65357836D02*
X152360000Y-65142164D01*
%TO.C,U14*%
D13*
X157130000Y-60450000D02*
G75*
G02*
X156970000Y-60450000I-80000J0D01*
G01*
X156970000Y-60450000D02*
G75*
G02*
X157130000Y-60450000I80000J0D01*
G01*
%TO.C,C20*%
D11*
X114390000Y-72107836D02*
X114390000Y-71892164D01*
X115110000Y-72107836D02*
X115110000Y-71892164D01*
%TO.C,C10*%
X112642164Y-68553000D02*
X112857836Y-68553000D01*
X112642164Y-69273000D02*
X112857836Y-69273000D01*
%TO.C,CF11*%
X146752000Y-62232836D02*
X146752000Y-62017164D01*
X147472000Y-62232836D02*
X147472000Y-62017164D01*
%TO.C,C34*%
X56192164Y-64739999D02*
X56407836Y-64739999D01*
X56192164Y-65459999D02*
X56407836Y-65459999D01*
%TO.C,PD13*%
X173593287Y-79066355D02*
X174592955Y-79092113D01*
%TO.C,U4*%
X140190000Y-57890000D02*
X144810000Y-57890000D01*
X140190000Y-58090000D02*
X140190000Y-57890000D01*
X140190000Y-63110000D02*
X140190000Y-62910000D01*
X144810000Y-57890000D02*
X144810000Y-58090000D01*
X144810000Y-62910000D02*
X144810000Y-63110000D01*
X144810000Y-63110000D02*
X140190000Y-63110000D01*
X139550000Y-58090000D02*
X139210000Y-57620000D01*
X139890000Y-57620000D01*
X139550000Y-58090000D01*
G36*
X139550000Y-58090000D02*
G01*
X139210000Y-57620000D01*
X139890000Y-57620000D01*
X139550000Y-58090000D01*
G37*
%TO.C,CF15*%
X154004164Y-64415000D02*
X154219836Y-64415000D01*
X154004164Y-65135000D02*
X154219836Y-65135000D01*
%TO.C,C2*%
X121142164Y-58202000D02*
X121357836Y-58202000D01*
X121142164Y-58922000D02*
X121357836Y-58922000D01*
%TO.C,FB1*%
X88837221Y-66490000D02*
X89162779Y-66490000D01*
X88837221Y-67510000D02*
X89162779Y-67510000D01*
%TO.C,PD6*%
X58626138Y-67219147D02*
X58431047Y-66238362D01*
%TO.C,U3*%
X64690000Y-58790000D02*
X69310000Y-58790000D01*
X64690000Y-58990000D02*
X64690000Y-58790000D01*
X64690000Y-64010000D02*
X64690000Y-63810000D01*
X69310000Y-58790000D02*
X69310000Y-58990000D01*
X69310000Y-63810000D02*
X69310000Y-64010000D01*
X69310000Y-64010000D02*
X64690000Y-64010000D01*
X64050000Y-58990000D02*
X63710000Y-58520000D01*
X64390000Y-58520000D01*
X64050000Y-58990000D01*
G36*
X64050000Y-58990000D02*
G01*
X63710000Y-58520000D01*
X64390000Y-58520000D01*
X64050000Y-58990000D01*
G37*
%TO.C,U9*%
X106390000Y-59390000D02*
X106840000Y-59390000D01*
X106390000Y-59840000D02*
X106390000Y-59390000D01*
X106390000Y-66610000D02*
X106390000Y-66160000D01*
X106840000Y-66610000D02*
X106390000Y-66610000D01*
X113160000Y-59390000D02*
X113610000Y-59390000D01*
X113610000Y-59390000D02*
X113610000Y-59840000D01*
X113610000Y-66160000D02*
X113610000Y-66610000D01*
X113610000Y-66610000D02*
X113160000Y-66610000D01*
X105750000Y-59840000D02*
X105410000Y-59370000D01*
X106090000Y-59370000D01*
X105750000Y-59840000D01*
G36*
X105750000Y-59840000D02*
G01*
X105410000Y-59370000D01*
X106090000Y-59370000D01*
X105750000Y-59840000D01*
G37*
%TO.C,C6*%
X148377500Y-64772163D02*
X148377500Y-64987835D01*
X149097500Y-64772163D02*
X149097500Y-64987835D01*
%TO.C,TP8*%
X118950000Y-68050000D02*
G75*
G02*
X117550000Y-68050000I-700000J0D01*
G01*
X117550000Y-68050000D02*
G75*
G02*
X118950000Y-68050000I700000J0D01*
G01*
%TO.C,U13*%
X127289999Y-65240000D02*
X129109999Y-65240000D01*
X127289999Y-65290000D02*
X127289999Y-65240000D01*
X127289999Y-68360000D02*
X127289999Y-68310000D01*
X129109999Y-65240000D02*
X129109999Y-65290000D01*
X129109999Y-66410000D02*
X129109999Y-67190000D01*
X129109999Y-68310000D02*
X129109999Y-68360000D01*
X129109999Y-68360000D02*
X127289999Y-68360000D01*
X126749999Y-65290000D02*
X126509999Y-64960000D01*
X126989999Y-64960000D01*
X126749999Y-65290000D01*
G36*
X126749999Y-65290000D02*
G01*
X126509999Y-64960000D01*
X126989999Y-64960000D01*
X126749999Y-65290000D01*
G37*
%TO.C,CF16*%
X153754164Y-57665000D02*
X153969836Y-57665000D01*
X153754164Y-58385000D02*
X153969836Y-58385000D01*
%TO.C,C12*%
X112052000Y-72157836D02*
X112052000Y-71942164D01*
X112772000Y-72157836D02*
X112772000Y-71942164D01*
%TO.C,C30*%
X103940000Y-69142164D02*
X103940000Y-69357836D01*
X104660000Y-69142164D02*
X104660000Y-69357836D01*
%TO.C,TP12*%
X144450000Y-65550000D02*
G75*
G02*
X143050000Y-65550000I-700000J0D01*
G01*
X143050000Y-65550000D02*
G75*
G02*
X144450000Y-65550000I700000J0D01*
G01*
%TO.C,TP10*%
X136600000Y-64349999D02*
G75*
G02*
X135200000Y-64349999I-700000J0D01*
G01*
X135200000Y-64349999D02*
G75*
G02*
X136600000Y-64349999I700000J0D01*
G01*
%TO.C,CF2*%
X72528000Y-62982836D02*
X72528000Y-62767164D01*
X73248000Y-62982836D02*
X73248000Y-62767164D01*
%TD*%
M02*
