M48
; DRILL file KiCad 10.0.6 date 2026-09-20T01:12:52
; FORMAT={-:-/ absolute / metric / decimal}
; #@! TF.CreationDate,2026-09-20T01:12:52+08:00
; #@! TF.GenerationSoftware,Kicad,Pcbnew,10.0.6
; #@! TF.FileFunction,Plated,1,4,PTH
FMAT,2
METRIC
; #@! TA.AperFunction,Plated,PTH,ViaDrill
T1C0.200
%
G90
G05
T1
X44.85Y-74.35
X45.672Y-76.424
X45.694Y-79.01
X46.35Y-73.45
X46.65Y-76.4
X46.7Y-80.95
X47.15Y-86.65
X47.6Y-72.2
X48.001Y-92.135
X48.415Y-96.529
X49.25Y-95.85
X49.809Y-99.109
X52.96Y-59.145
X54.713Y-62.198
X54.85Y-58.9
X55.863Y-67.08
X58.855Y-57.882
X60.057Y-106.052
X60.45Y-104.9
X60.85Y-66.4
X61.736Y-59.104
X62.5Y-66.4
X62.7Y-106.0
X63.042Y-60.285
X63.05Y-59.335
X63.15Y-63.0
X64.804Y-66.15
X65.225Y-106.37
X65.25Y-105.8
X65.815Y-64.39
X65.981Y-106.618
X68.063Y-65.245
X68.095Y-60.465
X68.474Y-61.442
X68.99Y-63.8
X70.09Y-63.911
X70.85Y-61.65
X71.21Y-63.061
X72.02Y-61.465
X72.55Y-64.5
X73.166Y-64.591
X73.332Y-65.503
X73.497Y-61.143
X73.554Y-58.598
X73.7Y-64.454
X74.23Y-63.015
X75.306Y-64.398
X76.4Y-61.25
X77.0Y-65.319
X77.864Y-65.683
X78.524Y-60.731
X79.256Y-62.028
X79.281Y-59.285
X79.35Y-60.7
X80.278Y-66.554
X80.815Y-106.035
X81.2Y-107.05
X82.11Y-66.515
X82.64Y-61.204
X82.848Y-60.745
X82.85Y-66.752
X83.199Y-65.483
X83.203Y-61.357
X83.25Y-105.75
X84.8Y-65.08
X84.811Y-61.356
X84.869Y-62.179
X85.315Y-65.14
X85.485Y-66.848
X85.64Y-106.035
X86.649Y-105.596
X86.759Y-62.554
X86.971Y-64.97
X87.155Y-59.037
X87.197Y-61.351
X89.1Y-63.265
X89.104Y-60.896
X89.218Y-59.157
X89.685Y-64.0
X89.745Y-58.573
X90.335Y-59.35
X90.46Y-67.51
X91.364Y-65.634
X91.403Y-59.761
X91.636Y-60.956
X91.736Y-60.139
X92.176Y-63.27
X92.201Y-62.548
X92.647Y-66.986
X93.639Y-59.81
X93.8Y-65.5
X93.9Y-68.905
X94.057Y-63.393
X94.495Y-60.134
X94.499Y-62.268
X94.596Y-67.396
X95.7Y-66.2
X95.806Y-68.753
X95.947Y-59.804
X96.0Y-69.568
X96.046Y-99.195
X96.399Y-99.589
X96.69Y-62.56
X96.813Y-60.058
X96.85Y-69.853
X96.886Y-66.164
X97.309Y-58.236
X97.35Y-96.55
X97.4Y-60.42
X98.15Y-64.125
X98.239Y-66.513
X98.25Y-67.75
X98.285Y-94.865
X98.533Y-62.532
X98.563Y-58.745
X98.586Y-68.464
X98.586Y-94.211
X98.8Y-92.45
X99.221Y-68.496
X99.249Y-60.395
X99.549Y-90.401
X99.776Y-60.35
X100.61Y-71.185
X100.746Y-60.32
X100.799Y-62.371
X100.896Y-69.399
X101.05Y-73.8
X101.08Y-65.052
X101.309Y-61.391
X101.482Y-74.443
X101.549Y-71.85
X101.723Y-62.272
X101.793Y-66.714
X101.905Y-58.793
X101.948Y-79.344
X101.949Y-57.505
X101.965Y-64.875
X102.015Y-73.615
X102.038Y-68.306
X102.072Y-71.771
X102.093Y-66.124
X102.114Y-63.374
X102.167Y-62.51
X102.275Y-81.055
X102.286Y-59.16
X102.299Y-74.398
X102.306Y-66.84
X102.477Y-57.55
X102.481Y-68.546
X102.651Y-74.037
X102.675Y-67.49
X102.817Y-58.011
X102.896Y-69.452
X102.899Y-72.656
X102.97Y-68.356
X103.046Y-74.35
X103.107Y-62.565
X103.152Y-78.15
X103.325Y-67.031
X103.36Y-72.445
X103.374Y-69.294
X103.549Y-63.958
X103.599Y-73.399
X103.686Y-70.65
X103.846Y-69.501
X103.857Y-67.061
X103.905Y-60.887
X104.099Y-58.051
X104.6Y-60.805
X104.606Y-58.053
X104.71Y-61.935
X104.8Y-60.098
X104.814Y-61.439
X105.05Y-72.441
X105.906Y-67.499
X105.96Y-66.768
X106.773Y-66.698
X106.822Y-65.261
X106.9Y-62.5
X107.111Y-68.294
X107.155Y-71.937
X107.193Y-63.275
X107.924Y-63.282
X107.954Y-63.99
X107.958Y-69.558
X108.009Y-65.14
X108.014Y-66.097
X108.196Y-62.541
X108.213Y-71.225
X108.225Y-70.691
X108.251Y-68.299
X108.29Y-72.391
X108.524Y-69.54
X108.852Y-64.911
X108.895Y-62.053
X109.028Y-69.543
X109.245Y-59.912
X109.786Y-68.341
X109.872Y-59.906
X110.15Y-61.4
X110.198Y-62.421
X110.271Y-65.061
X110.276Y-64.013
X110.433Y-59.916
X110.45Y-71.423
X110.64Y-66.096
X110.701Y-62.396
X110.797Y-63.307
X110.856Y-61.002
X111.002Y-59.929
X111.103Y-65.147
X111.216Y-61.367
X111.247Y-66.2
X111.259Y-72.619
X111.482Y-64.173
X111.5Y-68.161
X111.762Y-72.599
X111.799Y-63.29
X111.855Y-60.193
X111.862Y-64.887
X112.12Y-62.848
X112.234Y-70.949
X112.31Y-68.115
X112.317Y-63.312
X112.362Y-64.952
X112.363Y-60.746
X112.473Y-61.668
X112.511Y-69.598
X112.7Y-64.0
X112.885Y-62.846
X112.93Y-65.881
X112.966Y-71.066
X113.099Y-71.765
X113.133Y-64.414
X113.143Y-60.951
X113.204Y-67.038
X113.231Y-64.908
X113.476Y-59.771
X113.48Y-71.0
X113.542Y-67.66
X113.618Y-68.183
X113.954Y-69.609
X114.035Y-67.763
X114.065Y-70.19
X114.148Y-58.8
X114.25Y-59.626
X114.511Y-67.596
X114.543Y-67.093
X114.688Y-69.836
X114.842Y-59.124
X115.002Y-68.216
X115.068Y-66.617
X115.161Y-64.001
X115.162Y-65.002
X115.174Y-62.842
X115.325Y-71.3
X115.345Y-60.589
X115.404Y-59.643
X115.459Y-68.003
X115.737Y-67.583
X115.79Y-62.865
X115.955Y-59.548
X116.168Y-68.218
X116.26Y-61.7
X116.362Y-69.171
X116.4Y-74.03
X116.616Y-67.734
X116.683Y-74.923
X116.731Y-61.8
X116.733Y-69.511
X116.839Y-64.357
X116.85Y-65.897
X116.86Y-63.113
X117.002Y-59.28
X117.092Y-61.244
X117.255Y-63.762
X117.26Y-61.745
X117.3Y-70.35
X117.304Y-64.905
X117.315Y-62.685
X117.369Y-67.034
X117.42Y-65.645
X117.5Y-85.2
X117.56Y-67.894
X117.701Y-69.315
X117.781Y-60.246
X117.849Y-66.25
X117.998Y-87.844
X118.009Y-64.965
X118.219Y-64.057
X118.25Y-81.7
X118.259Y-62.836
X118.3Y-66.74
X118.301Y-64.554
X118.305Y-61.872
X118.32Y-59.571
X118.35Y-63.331
X118.365Y-66.131
X118.369Y-60.682
X118.427Y-62.361
X118.432Y-61.386
X118.449Y-80.773
X118.46Y-73.565
X118.512Y-65.012
X118.519Y-68.255
X118.568Y-70.175
X118.76Y-82.573
X118.808Y-82.071
X118.842Y-58.937
X119.213Y-59.542
X119.268Y-60.321
X119.315Y-63.715
X119.318Y-72.077
X119.348Y-66.098
X119.364Y-69.167
X119.397Y-64.946
X119.551Y-71.401
X119.585Y-92.135
X119.671Y-67.792
X119.677Y-69.851
X119.79Y-86.65
X119.875Y-94.09
X119.923Y-71.061
X119.956Y-93.0
X120.009Y-68.415
X120.197Y-94.6
X120.2Y-58.866
X120.232Y-64.675
X120.631Y-71.034
X120.734Y-64.629
X120.75Y-90.85
X120.901Y-69.738
X120.93Y-59.353
X120.958Y-68.69
X121.238Y-64.604
X121.4Y-98.2
X121.412Y-70.802
X121.434Y-59.328
X121.5Y-94.7
X121.738Y-65.105
X121.743Y-64.601
X121.876Y-96.885
X121.898Y-98.65
X121.901Y-67.493
X121.937Y-65.813
X121.961Y-68.413
X122.201Y-66.541
X122.257Y-64.625
X122.3Y-97.35
X122.5Y-58.694
X122.605Y-66.153
X122.679Y-63.9
X122.811Y-59.346
X122.997Y-67.954
X123.159Y-64.052
X123.314Y-59.331
X123.5Y-98.6
X123.522Y-63.702
X123.579Y-61.243
X123.594Y-62.233
X123.609Y-60.74
X123.615Y-64.942
X123.659Y-68.614
X123.68Y-61.737
X123.818Y-59.357
X123.822Y-62.626
X123.824Y-67.141
X123.86Y-65.382
X124.081Y-60.917
X124.184Y-61.721
X124.2Y-63.971
X124.386Y-101.116
X124.481Y-59.063
X124.712Y-61.308
X124.975Y-58.963
X125.005Y-60.495
X125.14Y-63.892
X125.265Y-62.379
X125.286Y-62.925
X125.334Y-63.427
X125.386Y-68.085
X125.55Y-103.802
X125.95Y-60.25
X126.055Y-64.656
X126.093Y-63.71
X126.3Y-103.447
X126.41Y-66.093
X126.767Y-65.341
X126.937Y-66.045
X126.991Y-60.114
X126.995Y-64.419
X127.011Y-61.253
X127.087Y-66.552
X127.235Y-62.221
X127.259Y-63.389
X127.617Y-60.888
X127.636Y-63.02
X127.736Y-59.021
X127.751Y-57.992
X127.812Y-104.983
X127.897Y-64.096
X128.013Y-68.346
X128.038Y-62.438
X128.069Y-63.588
X128.15Y-60.65
X128.766Y-63.712
X129.138Y-64.117
X129.56Y-63.814
X129.586Y-64.395
X129.615Y-104.585
X129.653Y-60.653
X129.668Y-64.892
X129.758Y-58.544
X129.786Y-61.589
X129.982Y-66.192
X130.099Y-65.277
X130.101Y-59.75
X130.21Y-57.53
X130.234Y-62.675
X130.278Y-63.202
X130.474Y-66.301
X130.909Y-67.862
X131.251Y-60.384
X131.487Y-65.966
X131.619Y-66.452
X131.72Y-62.94
X131.758Y-60.375
X132.185Y-63.335
X132.202Y-62.548
X132.425Y-59.641
X132.52Y-61.07
X132.8Y-67.5
X132.902Y-57.505
X133.011Y-61.581
X133.035Y-66.45
X133.14Y-59.484
X133.206Y-60.739
X133.29Y-63.343
X133.699Y-61.551
X133.768Y-60.29
X133.854Y-59.491
X133.9Y-62.35
X134.153Y-106.213
X134.293Y-61.651
X134.613Y-61.261
X134.8Y-62.25
X134.856Y-66.227
X134.872Y-59.612
X135.269Y-60.659
X135.359Y-60.163
X135.414Y-61.572
X135.44Y-59.66
X135.485Y-66.495
X135.56Y-58.475
X135.795Y-59.302
X135.839Y-61.944
X135.848Y-62.448
X136.189Y-63.581
X136.536Y-58.614
X136.57Y-106.49
X136.601Y-107.04
X136.609Y-64.0
X136.64Y-62.068
X136.95Y-58.901
X137.594Y-66.157
X137.882Y-62.313
X137.936Y-66.561
X138.3Y-59.0
X138.485Y-60.51
X138.55Y-60.0
X138.594Y-61.945
X138.6Y-61.0
X138.896Y-57.6
X139.05Y-65.0
X139.6Y-66.16
X139.604Y-57.807
X139.85Y-65.452
X140.555Y-65.649
X140.6Y-57.55
X140.704Y-61.754
X140.793Y-106.825
X140.889Y-63.589
X140.942Y-64.294
X140.95Y-60.7
X141.35Y-59.0
X141.55Y-64.72
X141.64Y-63.035
X142.15Y-66.358
X142.647Y-65.65
X143.32Y-65.35
X143.535Y-63.76
X144.637Y-65.395
X144.88Y-63.056
X145.85Y-64.753
X146.25Y-65.502
X146.27Y-58.8
X146.48Y-61.52
X146.562Y-60.5
X146.612Y-64.569
X146.635Y-63.795
X147.772Y-63.025
X147.8Y-57.7
X147.887Y-65.095
X148.9Y-58.75
X148.95Y-64.33
X149.087Y-65.377
X149.1Y-63.0
X149.6Y-58.602
X149.732Y-66.316
X151.174Y-59.778
X151.25Y-60.75
X151.333Y-64.335
X151.528Y-65.422
X151.922Y-64.988
X152.101Y-61.099
X152.4Y-60.403
X152.958Y-61.4
X153.077Y-65.38
X153.382Y-58.665
X153.755Y-106.049
X154.55Y-60.146
X154.664Y-63.978
X154.733Y-62.717
X154.797Y-106.284
X154.83Y-60.565
X155.176Y-64.715
X155.358Y-58.732
X156.714Y-65.387
X156.967Y-62.247
X157.441Y-106.302
X157.542Y-60.963
X157.75Y-59.0
X158.725Y-63.399
X159.051Y-65.8
X159.2Y-65.0
X159.787Y-66.573
X159.95Y-65.85
X161.356Y-105.141
X161.748Y-63.7
X162.1Y-65.348
X162.252Y-63.7
X162.266Y-66.91
X162.3Y-67.65
X163.163Y-64.975
X163.8Y-63.9
X164.5Y-65.179
X164.622Y-67.111
X164.992Y-67.95
X165.029Y-64.278
X165.888Y-64.499
X167.301Y-66.364
X168.665Y-69.265
X169.45Y-98.3
X170.019Y-98.026
X170.45Y-69.8
X171.643Y-94.633
X171.653Y-91.932
X172.017Y-91.583
X172.457Y-91.913
X172.6Y-72.05
X172.787Y-71.431
X172.95Y-74.45
X172.95Y-83.5
X173.8Y-78.15
X173.855Y-73.92
X173.906Y-76.41
X174.575Y-78.825
X174.944Y-76.43
M30
