%TF.GenerationSoftware,KiCad,Pcbnew,10.0.6*%
%TF.CreationDate,2026-09-20T01:12:51+08:00*%
%TF.ProjectId,ir_glasses_EVT_E7,69725f67-6c61-4737-9365-735f4556545f,EVT E7 REVIEW*%
%TF.SameCoordinates,Original*%
%TF.FileFunction,Legend,Top*%
%TF.FilePolarity,Positive*%
%FSLAX46Y46*%
G04 Gerber Fmt 4.6, Leading zero omitted, Abs format (unit mm)*
G04 Created by KiCad (PCBNEW 10.0.6) date 2026-09-20 01:12:51*
%MOMM*%
%LPD*%
G01*
G04 APERTURE LIST*
G04 Aperture macros list*
%AMRoundRect*
0 Rectangle with rounded corners*
0 $1 Rounding radius*
0 $2 $3 $4 $5 $6 $7 $8 $9 X,Y pos of 4 corners*
0 Add a 4 corners polygon primitive as box body*
4,1,4,$2,$3,$4,$5,$6,$7,$8,$9,$2,$3,0*
0 Add four circle primitives for the rounded corners*
1,1,$1+$1,$2,$3*
1,1,$1+$1,$4,$5*
1,1,$1+$1,$6,$7*
1,1,$1+$1,$8,$9*
0 Add four rect primitives between the rounded corners*
20,1,$1+$1,$2,$3,$4,$5,0*
20,1,$1+$1,$4,$5,$6,$7,0*
20,1,$1+$1,$6,$7,$8,$9,0*
20,1,$1+$1,$8,$9,$2,$3,0*%
%AMRotRect*
0 Rectangle, with rotation*
0 The origin of the aperture is its center*
0 $1 length*
0 $2 width*
0 $3 Rotation angle, in degrees counterclockwise*
0 Add horizontal line*
21,1,$1,$2,0,0,$3*%
%AMFreePoly0*
4,1,7,0.125000,-0.150000,-0.475000,-0.150000,-0.475000,0.150000,-0.125000,0.150000,-0.125000,0.500000,0.125000,0.500000,0.125000,-0.150000,0.125000,-0.150000,$1*%
%AMFreePoly1*
4,1,7,0.125000,-0.500000,-0.125000,-0.500000,-0.125000,-0.150000,-0.475000,-0.150000,-0.475000,0.150000,0.125000,0.150000,0.125000,-0.500000,0.125000,-0.500000,$1*%
%AMFreePoly2*
4,1,7,0.475000,-0.150000,0.125000,-0.150000,0.125000,-0.500000,-0.125000,-0.500000,-0.125000,0.150000,0.475000,0.150000,0.475000,-0.150000,0.475000,-0.150000,$1*%
%AMFreePoly3*
4,1,7,0.125000,0.150000,0.475000,0.150000,0.475000,-0.150000,-0.125000,-0.150000,-0.125000,0.500000,0.125000,0.500000,0.125000,0.150000,0.125000,0.150000,$1*%
G04 Aperture macros list end*
%ADD10C,0.100000*%
%ADD11C,0.180000*%
%ADD12C,0.120000*%
%ADD13C,0.160000*%
%ADD14RoundRect,0.135000X0.185000X-0.135000X0.185000X0.135000X-0.185000X0.135000X-0.185000X-0.135000X0*%
%ADD15RoundRect,0.140000X0.170000X-0.140000X0.170000X0.140000X-0.170000X0.140000X-0.170000X-0.140000X0*%
%ADD16RotRect,1.000000X1.500000X351.519000*%
%ADD17RoundRect,0.135000X-0.135000X-0.185000X0.135000X-0.185000X0.135000X0.185000X-0.135000X0.185000X0*%
%ADD18RoundRect,0.150000X-0.512500X-0.150000X0.512500X-0.150000X0.512500X0.150000X-0.512500X0.150000X0*%
%ADD19RoundRect,0.100000X-0.637500X-0.100000X0.637500X-0.100000X0.637500X0.100000X-0.637500X0.100000X0*%
%ADD20RoundRect,0.112500X0.187500X0.112500X-0.187500X0.112500X-0.187500X-0.112500X0.187500X-0.112500X0*%
%ADD21RotRect,1.000000X1.500000X176.212000*%
%ADD22RoundRect,0.140000X-0.140000X-0.170000X0.140000X-0.170000X0.140000X0.170000X-0.140000X0.170000X0*%
%ADD23C,1.000000*%
%ADD24RoundRect,0.150000X-0.587500X-0.150000X0.587500X-0.150000X0.587500X0.150000X-0.587500X0.150000X0*%
%ADD25RotRect,0.900000X1.300000X102.150000*%
%ADD26RoundRect,0.250000X-0.325000X-1.100000X0.325000X-1.100000X0.325000X1.100000X-0.325000X1.100000X0*%
%ADD27RotRect,0.900000X1.300000X6.530000*%
%ADD28RoundRect,0.225000X0.250000X-0.225000X0.250000X0.225000X-0.250000X0.225000X-0.250000X-0.225000X0*%
%ADD29RotRect,1.000000X1.500000X289.645000*%
%ADD30RotRect,1.000000X1.500000X168.750000*%
%ADD31RoundRect,0.087500X-0.225000X-0.087500X0.225000X-0.087500X0.225000X0.087500X-0.225000X0.087500X0*%
%ADD32RoundRect,0.087500X-0.087500X-0.225000X0.087500X-0.225000X0.087500X0.225000X-0.087500X0.225000X0*%
%ADD33RotRect,0.900000X1.300000X11.779000*%
%ADD34RotRect,1.000000X1.500000X69.734000*%
%ADD35RoundRect,0.150000X-0.400000X-0.150000X0.400000X-0.150000X0.400000X0.150000X-0.400000X0.150000X0*%
%ADD36RotRect,1.000000X1.500000X64.946000*%
%ADD37RoundRect,0.218750X-0.218750X-0.256250X0.218750X-0.256250X0.218750X0.256250X-0.218750X0.256250X0*%
%ADD38RotRect,0.900000X1.300000X87.410000*%
%ADD39RoundRect,0.062500X-0.375000X-0.062500X0.375000X-0.062500X0.375000X0.062500X-0.375000X0.062500X0*%
%ADD40RoundRect,0.062500X-0.062500X-0.375000X0.062500X-0.375000X0.062500X0.375000X-0.062500X0.375000X0*%
%ADD41R,2.100000X2.100000*%
%ADD42RotRect,1.000000X1.500000X271.476000*%
%ADD43RotRect,0.900000X1.300000X296.814000*%
%ADD44RotRect,1.000000X1.500000X295.054000*%
%ADD45RotRect,1.000000X1.500000X352.613000*%
%ADD46R,0.300000X1.250000*%
%ADD47R,2.000000X3.000000*%
%ADD48C,2.000000*%
%ADD49C,0.990600*%
%ADD50C,0.787400*%
%ADD51RotRect,0.900000X1.300000X257.850000*%
%ADD52RoundRect,0.100000X0.100000X-0.637500X0.100000X0.637500X-0.100000X0.637500X-0.100000X-0.637500X0*%
%ADD53RotRect,1.000000X1.500000X7.387000*%
%ADD54RotRect,0.900000X1.300000X185.257000*%
%ADD55RotRect,1.000000X1.500000X255.208000*%
%ADD56RotRect,0.900000X1.300000X74.093000*%
%ADD57RotRect,1.000000X1.500000X8.481000*%
%ADD58R,0.450000X1.450000*%
%ADD59RotRect,0.900000X1.300000X285.907000*%
%ADD60RotRect,0.900000X1.300000X60.632000*%
%ADD61RotRect,0.900000X1.300000X172.509000*%
%ADD62RoundRect,0.150000X0.150000X0.200000X-0.150000X0.200000X-0.150000X-0.200000X0.150000X-0.200000X0*%
%ADD63RotRect,1.000000X1.500000X106.613000*%
%ADD64R,1.600000X0.300000*%
%ADD65RoundRect,0.150000X-0.150000X-0.200000X0.150000X-0.200000X0.150000X0.200000X-0.150000X0.200000X0*%
%ADD66RotRect,0.900000X1.300000X186.998000*%
%ADD67RotRect,1.000000X1.500000X185.141000*%
%ADD68RotRect,0.900000X1.300000X272.760000*%
%ADD69FreePoly0,0.000000*%
%ADD70R,0.600000X0.250000*%
%ADD71FreePoly1,0.000000*%
%ADD72R,0.300000X2.400000*%
%ADD73FreePoly2,0.000000*%
%ADD74FreePoly3,0.000000*%
%ADD75RotRect,0.900000X1.300000X348.221000*%
%ADD76RotRect,0.900000X1.300000X174.743000*%
%ADD77RotRect,1.000000X1.500000X88.524000*%
%ADD78RoundRect,0.135000X0.135000X0.185000X-0.135000X0.185000X-0.135000X-0.185000X0.135000X-0.185000X0*%
%ADD79RotRect,1.000000X1.500000X191.250000*%
%ADD80RotRect,0.900000X1.300000X353.470000*%
%ADD81RoundRect,0.075000X-0.662500X-0.075000X0.662500X-0.075000X0.662500X0.075000X-0.662500X0.075000X0*%
%ADD82RoundRect,0.075000X-0.075000X-0.662500X0.075000X-0.662500X0.075000X0.662500X-0.075000X0.662500X0*%
%ADD83RoundRect,0.075000X-0.150000X-0.075000X0.150000X-0.075000X0.150000X0.075000X-0.150000X0.075000X0*%
%ADD84R,1.000000X1.600000*%
G04 APERTURE END LIST*
D10*
X104950000Y-72750000D02*
X104950000Y-71650000D01*
X50309524Y-58133609D02*
X50642857Y-58133609D01*
X50785714Y-58657419D02*
X50309524Y-58657419D01*
X50309524Y-58657419D02*
X50309524Y-57657419D01*
X50309524Y-57657419D02*
X50785714Y-57657419D01*
X51119048Y-57657419D02*
X51785714Y-57657419D01*
X51785714Y-57657419D02*
X51357143Y-58657419D01*
D11*
X96257142Y-50917211D02*
X96657142Y-50917211D01*
X96828570Y-51545782D02*
X96257142Y-51545782D01*
X96257142Y-51545782D02*
X96257142Y-50345782D01*
X96257142Y-50345782D02*
X96828570Y-50345782D01*
X97171427Y-50345782D02*
X97571427Y-51545782D01*
X97571427Y-51545782D02*
X97971427Y-50345782D01*
X98199998Y-50345782D02*
X98885713Y-50345782D01*
X98542855Y-51545782D02*
X98542855Y-50345782D01*
X100199999Y-50917211D02*
X100599999Y-50917211D01*
X100771427Y-51545782D02*
X100199999Y-51545782D01*
X100199999Y-51545782D02*
X100199999Y-50345782D01*
X100199999Y-50345782D02*
X100771427Y-50345782D01*
X101171427Y-50345782D02*
X101971427Y-50345782D01*
X101971427Y-50345782D02*
X101457141Y-51545782D01*
X104028570Y-51545782D02*
X103628570Y-50974354D01*
X103342856Y-51545782D02*
X103342856Y-50345782D01*
X103342856Y-50345782D02*
X103799999Y-50345782D01*
X103799999Y-50345782D02*
X103914284Y-50402925D01*
X103914284Y-50402925D02*
X103971427Y-50460068D01*
X103971427Y-50460068D02*
X104028570Y-50574354D01*
X104028570Y-50574354D02*
X104028570Y-50745782D01*
X104028570Y-50745782D02*
X103971427Y-50860068D01*
X103971427Y-50860068D02*
X103914284Y-50917211D01*
X103914284Y-50917211D02*
X103799999Y-50974354D01*
X103799999Y-50974354D02*
X103342856Y-50974354D01*
X104542856Y-50917211D02*
X104942856Y-50917211D01*
X105114284Y-51545782D02*
X104542856Y-51545782D01*
X104542856Y-51545782D02*
X104542856Y-50345782D01*
X104542856Y-50345782D02*
X105114284Y-50345782D01*
X105457141Y-50345782D02*
X105857141Y-51545782D01*
X105857141Y-51545782D02*
X106257141Y-50345782D01*
X106657141Y-51545782D02*
X106657141Y-50345782D01*
X107228570Y-50917211D02*
X107628570Y-50917211D01*
X107799998Y-51545782D02*
X107228570Y-51545782D01*
X107228570Y-51545782D02*
X107228570Y-50345782D01*
X107228570Y-50345782D02*
X107799998Y-50345782D01*
X108199998Y-50345782D02*
X108485712Y-51545782D01*
X108485712Y-51545782D02*
X108714284Y-50688640D01*
X108714284Y-50688640D02*
X108942855Y-51545782D01*
X108942855Y-51545782D02*
X109228570Y-50345782D01*
X111457142Y-50288640D02*
X110428570Y-51831497D01*
X112599999Y-50345782D02*
X113285714Y-50345782D01*
X112942856Y-51545782D02*
X112942856Y-50345782D01*
X113914285Y-50345782D02*
X114142857Y-50345782D01*
X114142857Y-50345782D02*
X114257142Y-50402925D01*
X114257142Y-50402925D02*
X114371428Y-50517211D01*
X114371428Y-50517211D02*
X114428571Y-50745782D01*
X114428571Y-50745782D02*
X114428571Y-51145782D01*
X114428571Y-51145782D02*
X114371428Y-51374354D01*
X114371428Y-51374354D02*
X114257142Y-51488640D01*
X114257142Y-51488640D02*
X114142857Y-51545782D01*
X114142857Y-51545782D02*
X113914285Y-51545782D01*
X113914285Y-51545782D02*
X113800000Y-51488640D01*
X113800000Y-51488640D02*
X113685714Y-51374354D01*
X113685714Y-51374354D02*
X113628571Y-51145782D01*
X113628571Y-51145782D02*
X113628571Y-50745782D01*
X113628571Y-50745782D02*
X113685714Y-50517211D01*
X113685714Y-50517211D02*
X113800000Y-50402925D01*
X113800000Y-50402925D02*
X113914285Y-50345782D01*
X114942857Y-51545782D02*
X114942857Y-50345782D01*
X114942857Y-50345782D02*
X115400000Y-50345782D01*
X115400000Y-50345782D02*
X115514285Y-50402925D01*
X115514285Y-50402925D02*
X115571428Y-50460068D01*
X115571428Y-50460068D02*
X115628571Y-50574354D01*
X115628571Y-50574354D02*
X115628571Y-50745782D01*
X115628571Y-50745782D02*
X115571428Y-50860068D01*
X115571428Y-50860068D02*
X115514285Y-50917211D01*
X115514285Y-50917211D02*
X115400000Y-50974354D01*
X115400000Y-50974354D02*
X114942857Y-50974354D01*
X117914286Y-50288640D02*
X116885714Y-51831497D01*
X119857143Y-51545782D02*
X119171429Y-51545782D01*
X119514286Y-51545782D02*
X119514286Y-50345782D01*
X119514286Y-50345782D02*
X119400000Y-50517211D01*
X119400000Y-50517211D02*
X119285715Y-50631497D01*
X119285715Y-50631497D02*
X119171429Y-50688640D01*
X120371429Y-51088640D02*
X121285715Y-51088640D01*
X121857143Y-50345782D02*
X121857143Y-51317211D01*
X121857143Y-51317211D02*
X121914286Y-51431497D01*
X121914286Y-51431497D02*
X121971429Y-51488640D01*
X121971429Y-51488640D02*
X122085714Y-51545782D01*
X122085714Y-51545782D02*
X122314286Y-51545782D01*
X122314286Y-51545782D02*
X122428571Y-51488640D01*
X122428571Y-51488640D02*
X122485714Y-51431497D01*
X122485714Y-51431497D02*
X122542857Y-51317211D01*
X122542857Y-51317211D02*
X122542857Y-50345782D01*
X123114286Y-51545782D02*
X123114286Y-50345782D01*
X123114286Y-50345782D02*
X123571429Y-50345782D01*
X123571429Y-50345782D02*
X123685714Y-50402925D01*
X123685714Y-50402925D02*
X123742857Y-50460068D01*
X123742857Y-50460068D02*
X123800000Y-50574354D01*
X123800000Y-50574354D02*
X123800000Y-50745782D01*
X123800000Y-50745782D02*
X123742857Y-50860068D01*
X123742857Y-50860068D02*
X123685714Y-50917211D01*
X123685714Y-50917211D02*
X123571429Y-50974354D01*
X123571429Y-50974354D02*
X123114286Y-50974354D01*
%TO.C,PD10*%
D12*
X133346707Y-105452727D02*
X133199226Y-106441792D01*
%TO.C,U6*%
X86090000Y-60440000D02*
X87910000Y-60440000D01*
X86090000Y-60490000D02*
X86090000Y-60440000D01*
X86090000Y-63560000D02*
X86090000Y-63510000D01*
X87910000Y-60440000D02*
X87910000Y-60490000D01*
X87910000Y-61610000D02*
X87910000Y-62390000D01*
X87910000Y-63510000D02*
X87910000Y-63560000D01*
X87910000Y-63560000D02*
X86090000Y-63560000D01*
X85550000Y-60490000D02*
X85310000Y-60160000D01*
X85790000Y-60160000D01*
X85550000Y-60490000D01*
G36*
X85550000Y-60490000D02*
G01*
X85310000Y-60160000D01*
X85790000Y-60160000D01*
X85550000Y-60490000D01*
G37*
%TO.C,U5*%
X150690000Y-58790000D02*
X155310000Y-58790000D01*
X150690000Y-58990000D02*
X150690000Y-58790000D01*
X150690000Y-64010000D02*
X150690000Y-63810000D01*
X155310000Y-58790000D02*
X155310000Y-58990000D01*
X155310000Y-63810000D02*
X155310000Y-64010000D01*
X155310000Y-64010000D02*
X150690000Y-64010000D01*
X150050000Y-58990000D02*
X149710000Y-58520000D01*
X150390000Y-58520000D01*
X150050000Y-58990000D01*
G36*
X150050000Y-58990000D02*
G01*
X149710000Y-58520000D01*
X150390000Y-58520000D01*
X150050000Y-58990000D01*
G37*
%TO.C,D17*%
X160410000Y-58800000D02*
X157750000Y-58800000D01*
X160410000Y-60500000D02*
X157750000Y-60500000D01*
X160410000Y-60500000D02*
X160410000Y-58800000D01*
%TO.C,PD7*%
X80496875Y-66533539D02*
X80562940Y-65535724D01*
%TO.C,TP11*%
X114900000Y-72550000D02*
G75*
G02*
X113500000Y-72550000I-700000J0D01*
G01*
X113500000Y-72550000D02*
G75*
G02*
X114900000Y-72550000I700000J0D01*
G01*
%TO.C,U11*%
X166240000Y-65440000D02*
X167760000Y-65440000D01*
X166240000Y-65490000D02*
X166240000Y-65440000D01*
X166240000Y-67390000D02*
X166240000Y-66610000D01*
X166240000Y-68560000D02*
X166240000Y-68510000D01*
X167760000Y-65440000D02*
X167760000Y-66440000D01*
X167760000Y-67560000D02*
X167760000Y-68560000D01*
X167760000Y-68560000D02*
X166240000Y-68560000D01*
X165700000Y-66620000D02*
X165940000Y-66950000D01*
X165460000Y-66950000D01*
X165700000Y-66620000D01*
G36*
X165940000Y-66950000D02*
G01*
X165460000Y-66950000D01*
X165700000Y-66620000D01*
X165940000Y-66950000D01*
G37*
%TO.C,C28*%
X102538748Y-68690000D02*
X103961252Y-68690000D01*
X102538748Y-71410000D02*
X103961252Y-71410000D01*
%TO.C,C27*%
X83490000Y-63390580D02*
X83490000Y-63109420D01*
X84510000Y-63390580D02*
X84510000Y-63109420D01*
%TO.C,PD9*%
X121508900Y-94152707D02*
X120567106Y-94488899D01*
%TO.C,TP2*%
X96950000Y-66800000D02*
G75*
G02*
X95550000Y-66800000I-700000J0D01*
G01*
X95550000Y-66800000D02*
G75*
G02*
X96950000Y-66800000I700000J0D01*
G01*
%TO.C,PD14*%
X162354646Y-67414238D02*
X162549737Y-66433453D01*
%TO.C,PD1*%
X98129963Y-95089558D02*
X99068058Y-95435937D01*
%TO.C,U19*%
X126590000Y-60540000D02*
X128410000Y-60540000D01*
X126590000Y-60590000D02*
X126590000Y-60540000D01*
X126590000Y-63660000D02*
X126590000Y-63610000D01*
X128410000Y-60540000D02*
X128410000Y-60590000D01*
X128410000Y-63610000D02*
X128410000Y-63660000D01*
X128410000Y-63660000D02*
X126590000Y-63660000D01*
X126050000Y-60590000D02*
X125810000Y-60260000D01*
X126290000Y-60260000D01*
X126050000Y-60590000D01*
G36*
X126050000Y-60590000D02*
G01*
X125810000Y-60260000D01*
X126290000Y-60260000D01*
X126050000Y-60590000D01*
G37*
%TO.C,PD12*%
X169440109Y-98809018D02*
X170346018Y-99232491D01*
%TO.C,D20*%
X57515000Y-57235000D02*
X57515000Y-58635000D01*
X57515000Y-58635000D02*
X59800000Y-58635000D01*
X59800000Y-57235000D02*
X57515000Y-57235000D01*
%TO.C,U1*%
X118890000Y-59890000D02*
X119365000Y-59890000D01*
X118890000Y-60365000D02*
X118890000Y-59890000D01*
X118890000Y-64110000D02*
X118890000Y-63635000D01*
X119365000Y-64110000D02*
X118890000Y-64110000D01*
X122635000Y-59890000D02*
X123110000Y-59890000D01*
X123110000Y-59890000D02*
X123110000Y-60365000D01*
X123110000Y-63635000D02*
X123110000Y-64110000D01*
X123110000Y-64110000D02*
X122635000Y-64110000D01*
X118060000Y-60400000D02*
X117730000Y-60640000D01*
X117730000Y-60160000D01*
X118060000Y-60400000D01*
G36*
X118060000Y-60400000D02*
G01*
X117730000Y-60640000D01*
X117730000Y-60160000D01*
X118060000Y-60400000D01*
G37*
%TO.C,TP9*%
X119200000Y-69350000D02*
G75*
G02*
X117800000Y-69350000I-700000J0D01*
G01*
X117800000Y-69350000D02*
G75*
G02*
X119200000Y-69350000I700000J0D01*
G01*
%TO.C,PD5*%
X46380955Y-78066687D02*
X45381287Y-78092445D01*
%TO.C,TP7*%
X98700000Y-69050000D02*
G75*
G02*
X97300000Y-69050000I-700000J0D01*
G01*
X97300000Y-69050000D02*
G75*
G02*
X98700000Y-69050000I700000J0D01*
G01*
%TO.C,TP4*%
X94700000Y-66800000D02*
G75*
G02*
X93300000Y-66800000I-700000J0D01*
G01*
X93300000Y-66800000D02*
G75*
G02*
X94700000Y-66800000I700000J0D01*
G01*
%TO.C,PD4*%
X50136418Y-97903109D02*
X49230509Y-98326582D01*
%TO.C,PD3*%
X65160235Y-105890665D02*
X65031665Y-106882365D01*
%TO.C,J1*%
X165800000Y-62250000D02*
X166200000Y-62250000D01*
X166000000Y-61850000D02*
X165800000Y-62250000D01*
X166200000Y-62250000D02*
X166000000Y-61850000D01*
%TO.C,J2*%
X50420000Y-60350000D02*
X52400000Y-58950000D01*
X50420000Y-61650000D02*
X50420000Y-60350000D01*
X52325000Y-62270000D02*
X52325000Y-61635000D01*
X52400000Y-58950000D02*
X59980000Y-58950000D01*
X52400000Y-63050000D02*
X50420000Y-61650000D01*
X52960000Y-62270000D02*
X52325000Y-62270000D01*
X59980000Y-58950000D02*
X60580000Y-59550000D01*
X59980000Y-63050000D02*
X52400000Y-63050000D01*
X59980000Y-63050000D02*
X60580000Y-62450000D01*
X60580000Y-59550000D02*
X60580000Y-62450000D01*
%TO.C,TP3*%
X73200000Y-65300000D02*
G75*
G02*
X71800000Y-65300000I-700000J0D01*
G01*
X71800000Y-65300000D02*
G75*
G02*
X73200000Y-65300000I700000J0D01*
G01*
%TO.C,U8*%
X130015000Y-63710000D02*
X130015000Y-59090000D01*
X135485000Y-59090000D02*
X135485000Y-63710000D01*
X130470000Y-63200000D02*
X130710000Y-62870000D01*
X130230000Y-62870000D01*
X130470000Y-63200000D01*
G36*
X130470000Y-63200000D02*
G01*
X130230000Y-62870000D01*
X130710000Y-62870000D01*
X130470000Y-63200000D01*
G37*
%TO.C,U7*%
X91765000Y-63910000D02*
X91765000Y-59290000D01*
X97235000Y-59290000D02*
X97235000Y-63910000D01*
X92220000Y-63400000D02*
X92460000Y-63070000D01*
X91980000Y-63070000D01*
X92220000Y-63400000D01*
G36*
X92220000Y-63400000D02*
G01*
X91980000Y-63070000D01*
X92460000Y-63070000D01*
X92220000Y-63400000D01*
G37*
%TO.C,PD11*%
X153848065Y-106019235D02*
X153976635Y-107010935D01*
%TO.C,PD16*%
X118785385Y-73620726D02*
X117818526Y-73365415D01*
%TO.C,C40*%
X114290000Y-69990580D02*
X114290000Y-69709420D01*
X115310000Y-69990580D02*
X115310000Y-69709420D01*
%TO.C,U2*%
X75190000Y-57890000D02*
X79810000Y-57890000D01*
X75190000Y-58090000D02*
X75190000Y-57890000D01*
X75190000Y-63110000D02*
X75190000Y-62910000D01*
X79810000Y-57890000D02*
X79810000Y-58090000D01*
X79810000Y-62910000D02*
X79810000Y-63110000D01*
X79810000Y-63110000D02*
X75190000Y-63110000D01*
X74550000Y-58090000D02*
X74210000Y-57620000D01*
X74890000Y-57620000D01*
X74550000Y-58090000D01*
G36*
X74550000Y-58090000D02*
G01*
X74210000Y-57620000D01*
X74890000Y-57620000D01*
X74550000Y-58090000D01*
G37*
%TO.C,PD2*%
X85664227Y-105600208D02*
X85811708Y-106589273D01*
%TO.C,U16*%
X98880000Y-61200000D02*
X98880000Y-64200000D01*
X102120000Y-60200000D02*
X102120000Y-62200000D01*
%TO.C,C25*%
X115740000Y-64640580D02*
X115740000Y-64359420D01*
X116760000Y-64640580D02*
X116760000Y-64359420D01*
%TO.C,D19*%
X52400000Y-57365000D02*
X52400000Y-58565000D01*
X54360000Y-57365000D02*
X52400000Y-57365000D01*
X54360000Y-58565000D02*
X52400000Y-58565000D01*
%TO.C,PD8*%
X101496524Y-74688582D02*
X102454782Y-74402676D01*
%TO.C,U12*%
X128250000Y-64250000D02*
X125250000Y-64250000D01*
X128250000Y-67250000D02*
X125250000Y-67250000D01*
X124900000Y-64350000D02*
X124660000Y-64020000D01*
X125140000Y-64020000D01*
X124900000Y-64350000D01*
G36*
X124900000Y-64350000D02*
G01*
X124660000Y-64020000D01*
X125140000Y-64020000D01*
X124900000Y-64350000D01*
G37*
%TO.C,D18*%
X162600000Y-64050000D02*
X164560000Y-64050000D01*
X162600000Y-65250000D02*
X164560000Y-65250000D01*
X164560000Y-65250000D02*
X164560000Y-64050000D01*
%TO.C,PD15*%
X140536892Y-66431285D02*
X140447285Y-65435308D01*
%TO.C,TP1*%
X55200000Y-66050000D02*
G75*
G02*
X53800000Y-66050000I-700000J0D01*
G01*
X53800000Y-66050000D02*
G75*
G02*
X55200000Y-66050000I700000J0D01*
G01*
%TO.C,C26*%
X99490000Y-69890580D02*
X99490000Y-69609420D01*
X100510000Y-69890580D02*
X100510000Y-69609420D01*
%TO.C,U14*%
D13*
X135630000Y-58700000D02*
G75*
G02*
X135470000Y-58700000I-80000J0D01*
G01*
X135470000Y-58700000D02*
G75*
G02*
X135630000Y-58700000I80000J0D01*
G01*
%TO.C,PD13*%
D12*
X173593287Y-79066355D02*
X174592955Y-79092113D01*
%TO.C,U4*%
X140190000Y-57890000D02*
X144810000Y-57890000D01*
X140190000Y-58090000D02*
X140190000Y-57890000D01*
X140190000Y-63110000D02*
X140190000Y-62910000D01*
X144810000Y-57890000D02*
X144810000Y-58090000D01*
X144810000Y-62910000D02*
X144810000Y-63110000D01*
X144810000Y-63110000D02*
X140190000Y-63110000D01*
X139550000Y-58090000D02*
X139210000Y-57620000D01*
X139890000Y-57620000D01*
X139550000Y-58090000D01*
G36*
X139550000Y-58090000D02*
G01*
X139210000Y-57620000D01*
X139890000Y-57620000D01*
X139550000Y-58090000D01*
G37*
%TO.C,FB1*%
X88837221Y-66490000D02*
X89162779Y-66490000D01*
X88837221Y-67510000D02*
X89162779Y-67510000D01*
%TO.C,PD6*%
X58626138Y-67219147D02*
X58431047Y-66238362D01*
%TO.C,U3*%
X64690000Y-58790000D02*
X69310000Y-58790000D01*
X64690000Y-58990000D02*
X64690000Y-58790000D01*
X64690000Y-64010000D02*
X64690000Y-63810000D01*
X69310000Y-58790000D02*
X69310000Y-58990000D01*
X69310000Y-63810000D02*
X69310000Y-64010000D01*
X69310000Y-64010000D02*
X64690000Y-64010000D01*
X64050000Y-58990000D02*
X63710000Y-58520000D01*
X64390000Y-58520000D01*
X64050000Y-58990000D01*
G36*
X64050000Y-58990000D02*
G01*
X63710000Y-58520000D01*
X64390000Y-58520000D01*
X64050000Y-58990000D01*
G37*
%TO.C,U9*%
X106390000Y-59390000D02*
X106840000Y-59390000D01*
X106390000Y-59840000D02*
X106390000Y-59390000D01*
X106390000Y-66610000D02*
X106390000Y-66160000D01*
X106840000Y-66610000D02*
X106390000Y-66610000D01*
X113160000Y-59390000D02*
X113610000Y-59390000D01*
X113610000Y-59390000D02*
X113610000Y-59840000D01*
X113610000Y-66160000D02*
X113610000Y-66610000D01*
X113610000Y-66610000D02*
X113160000Y-66610000D01*
X105750000Y-59840000D02*
X105410000Y-59370000D01*
X106090000Y-59370000D01*
X105750000Y-59840000D01*
G36*
X105750000Y-59840000D02*
G01*
X105410000Y-59370000D01*
X106090000Y-59370000D01*
X105750000Y-59840000D01*
G37*
%TO.C,TP8*%
X142700000Y-107300000D02*
G75*
G02*
X141300000Y-107300000I-700000J0D01*
G01*
X141300000Y-107300000D02*
G75*
G02*
X142700000Y-107300000I700000J0D01*
G01*
%TO.C,U13*%
X120840000Y-64940000D02*
X122660000Y-64940000D01*
X120840000Y-64990000D02*
X120840000Y-64940000D01*
X120840000Y-68060000D02*
X120840000Y-68010000D01*
X122660000Y-64940000D02*
X122660000Y-64990000D01*
X122660000Y-66110000D02*
X122660000Y-66890000D01*
X122660000Y-68010000D02*
X122660000Y-68060000D01*
X122660000Y-68060000D02*
X120840000Y-68060000D01*
X120300000Y-64990000D02*
X120060000Y-64660000D01*
X120540000Y-64660000D01*
X120300000Y-64990000D01*
G36*
X120300000Y-64990000D02*
G01*
X120060000Y-64660000D01*
X120540000Y-64660000D01*
X120300000Y-64990000D01*
G37*
%TO.C,TP12*%
X170950000Y-68800000D02*
G75*
G02*
X169550000Y-68800000I-700000J0D01*
G01*
X169550000Y-68800000D02*
G75*
G02*
X170950000Y-68800000I700000J0D01*
G01*
%TO.C,TP10*%
X173100000Y-70350000D02*
G75*
G02*
X171700000Y-70350000I-700000J0D01*
G01*
X171700000Y-70350000D02*
G75*
G02*
X173100000Y-70350000I700000J0D01*
G01*
%TO.C,U18*%
X157800748Y-60990000D02*
X159610000Y-60990000D01*
X159610000Y-63210000D02*
X157390000Y-63210000D01*
X157510000Y-60980000D02*
X157370000Y-60790000D01*
X157650000Y-60790000D01*
X157510000Y-60980000D01*
G36*
X157510000Y-60980000D02*
G01*
X157370000Y-60790000D01*
X157650000Y-60790000D01*
X157510000Y-60980000D01*
G37*
%TD*%
%LPC*%
D14*
%TO.C,R5*%
X115800000Y-62260000D03*
X115800000Y-61240000D03*
%TD*%
D15*
%TO.C,CF10*%
X132388000Y-66730000D03*
X132388000Y-65770000D03*
%TD*%
%TO.C,CF12*%
X148362000Y-59355000D03*
X148362000Y-58395000D03*
%TD*%
D16*
%TO.C,PD10*%
X135053283Y-106212726D03*
X132481715Y-105829274D03*
%TD*%
D17*
%TO.C,R2*%
X84490000Y-59500000D03*
X85510000Y-59500000D03*
%TD*%
D18*
%TO.C,U6*%
X85862500Y-61050000D03*
X85862500Y-62000000D03*
X85862500Y-62950000D03*
X88137500Y-62950000D03*
X88137500Y-61050000D03*
%TD*%
D19*
%TO.C,U5*%
X150137500Y-59450000D03*
X150137500Y-60100000D03*
X150137500Y-60750000D03*
X150137500Y-61400000D03*
X150137500Y-62050000D03*
X150137500Y-62700000D03*
X150137500Y-63350000D03*
X155862500Y-63350000D03*
X155862500Y-62700000D03*
X155862500Y-62050000D03*
X155862500Y-61400000D03*
X155862500Y-60750000D03*
X155862500Y-60100000D03*
X155862500Y-59450000D03*
%TD*%
D20*
%TO.C,D17*%
X159850000Y-59650000D03*
X157750000Y-59650000D03*
%TD*%
D21*
%TO.C,PD7*%
X78733840Y-65915715D03*
X81328160Y-66087483D03*
%TD*%
D22*
%TO.C,C16*%
X106520000Y-72500000D03*
X107480000Y-72500000D03*
%TD*%
D23*
%TO.C,TP11*%
X114200000Y-72550000D03*
%TD*%
D24*
%TO.C,U11*%
X166062500Y-66050000D03*
X166062500Y-67950000D03*
X167937500Y-67000000D03*
%TD*%
D15*
%TO.C,C17*%
X112500000Y-72480000D03*
X112500000Y-71520000D03*
%TD*%
D22*
%TO.C,CF14*%
X149658000Y-64775000D03*
X150618000Y-64775000D03*
%TD*%
D25*
%TO.C,D13*%
X173160410Y-72704999D03*
X173686590Y-75148999D03*
%TD*%
D26*
%TO.C,C28*%
X101775000Y-70050000D03*
X104725000Y-70050000D03*
%TD*%
D14*
%TO.C,R18*%
X124500000Y-63510000D03*
X124500000Y-62490000D03*
%TD*%
D27*
%TO.C,D2*%
X82549691Y-106460746D03*
X80065909Y-106745054D03*
%TD*%
D28*
%TO.C,C27*%
X84000000Y-64025000D03*
X84000000Y-62475000D03*
%TD*%
D22*
%TO.C,C36*%
X118020000Y-65500000D03*
X118980000Y-65500000D03*
%TD*%
D14*
%TO.C,R20*%
X143950000Y-66060000D03*
X143950000Y-65040000D03*
%TD*%
D29*
%TO.C,PD9*%
X121643148Y-96016032D03*
X120769050Y-93567368D03*
%TD*%
D23*
%TO.C,TP2*%
X96250000Y-66800000D03*
%TD*%
D17*
%TO.C,RF13*%
X149628000Y-58025000D03*
X150648000Y-58025000D03*
%TD*%
D15*
%TO.C,CF7*%
X71612000Y-63505000D03*
X71612000Y-62545000D03*
%TD*%
D30*
%TO.C,PD14*%
X160686778Y-66572683D03*
X163236820Y-67079917D03*
%TD*%
D31*
%TO.C,U10*%
X108837500Y-70550000D03*
X108837500Y-71050000D03*
X108837500Y-71550000D03*
X108837500Y-72050000D03*
D32*
X109500000Y-72212500D03*
X110000000Y-72212500D03*
X110500000Y-72212500D03*
D31*
X111162500Y-72050000D03*
X111162500Y-71550000D03*
X111162500Y-71050000D03*
X111162500Y-70550000D03*
D32*
X110500000Y-70387500D03*
X110000000Y-70387500D03*
X109500000Y-70387500D03*
%TD*%
D33*
%TO.C,D11*%
X160454578Y-105302628D03*
X158007222Y-105812972D03*
%TD*%
D22*
%TO.C,CF6*%
X65408000Y-64775000D03*
X66368000Y-64775000D03*
%TD*%
%TO.C,CF5*%
X63658000Y-58025000D03*
X64618000Y-58025000D03*
%TD*%
D34*
%TO.C,PD1*%
X99222493Y-93574177D03*
X98321907Y-96013223D03*
%TD*%
D35*
%TO.C,U19*%
X126150000Y-61150000D03*
X126150000Y-62100000D03*
X126150000Y-63050000D03*
X128850000Y-63050000D03*
X128850000Y-62100000D03*
X128850000Y-61150000D03*
%TD*%
D15*
%TO.C,C22*%
X117550000Y-59080000D03*
X117550000Y-58120000D03*
%TD*%
%TO.C,C38*%
X145200000Y-66030000D03*
X145200000Y-65070000D03*
%TD*%
D17*
%TO.C,R6*%
X110240000Y-69000000D03*
X111260000Y-69000000D03*
%TD*%
D15*
%TO.C,C4*%
X67500000Y-65880000D03*
X67500000Y-64920000D03*
%TD*%
D17*
%TO.C,R27*%
X103240000Y-67750000D03*
X104260000Y-67750000D03*
%TD*%
D36*
%TO.C,PD12*%
X170655314Y-97390118D03*
X169554286Y-99745482D03*
%TD*%
D37*
%TO.C,D20*%
X58212500Y-57900000D03*
X59787500Y-57900000D03*
%TD*%
D38*
%TO.C,D8*%
X102147986Y-77504677D03*
X102035014Y-80002123D03*
%TD*%
D14*
%TO.C,RF12*%
X147112000Y-59385000D03*
X147112000Y-58365000D03*
%TD*%
D39*
%TO.C,U1*%
X119062500Y-60750000D03*
X119062500Y-61250000D03*
X119062500Y-61750000D03*
X119062500Y-62250000D03*
X119062500Y-62750000D03*
X119062500Y-63250000D03*
D40*
X119750000Y-63937500D03*
X120250000Y-63937500D03*
X120750000Y-63937500D03*
X121250000Y-63937500D03*
X121750000Y-63937500D03*
X122250000Y-63937500D03*
D39*
X122937500Y-63250000D03*
X122937500Y-62750000D03*
X122937500Y-62250000D03*
X122937500Y-61750000D03*
X122937500Y-61250000D03*
X122937500Y-60750000D03*
D40*
X122250000Y-60062500D03*
X121750000Y-60062500D03*
X121250000Y-60062500D03*
X120750000Y-60062500D03*
X120250000Y-60062500D03*
X119750000Y-60062500D03*
D41*
X121000000Y-62000000D03*
%TD*%
D22*
%TO.C,C19*%
X103270000Y-61450000D03*
X104230000Y-61450000D03*
%TD*%
D23*
%TO.C,TP9*%
X118500000Y-69350000D03*
%TD*%
D15*
%TO.C,C15*%
X87750000Y-65480000D03*
X87750000Y-64520000D03*
%TD*%
D17*
%TO.C,RF4*%
X82102000Y-58375000D03*
X83122000Y-58375000D03*
%TD*%
D22*
%TO.C,C14*%
X103320000Y-58900000D03*
X104280000Y-58900000D03*
%TD*%
D42*
%TO.C,PD5*%
X45927486Y-79878969D03*
X45860514Y-77279831D03*
%TD*%
D23*
%TO.C,TP7*%
X98000000Y-69050000D03*
%TD*%
D15*
%TO.C,C8*%
X90950000Y-59280000D03*
X90950000Y-58320000D03*
%TD*%
D23*
%TO.C,TP4*%
X94000000Y-66800000D03*
%TD*%
D43*
%TO.C,D9*%
X123817068Y-100331693D03*
X122689330Y-98100507D03*
%TD*%
D44*
%TO.C,PD4*%
X50445714Y-99745482D03*
X49344686Y-97390118D03*
%TD*%
D17*
%TO.C,R17*%
X61240000Y-58000000D03*
X62260000Y-58000000D03*
%TD*%
D14*
%TO.C,RF3*%
X82112000Y-62635000D03*
X82112000Y-61615000D03*
%TD*%
%TO.C,RF1*%
X72888000Y-59385000D03*
X72888000Y-58365000D03*
%TD*%
D45*
%TO.C,PD3*%
X66881010Y-106617942D03*
X64302590Y-106283658D03*
%TD*%
D46*
%TO.C,J1*%
X166000000Y-63050000D03*
X165500000Y-63050000D03*
X165000000Y-63050000D03*
X164500000Y-63050000D03*
X164000000Y-63050000D03*
D47*
X167540000Y-60725000D03*
X162460000Y-60725000D03*
%TD*%
D48*
%TO.C,H1*%
X37849412Y-51000000D03*
%TD*%
D17*
%TO.C,RF2*%
X74128000Y-63875000D03*
X75148000Y-63875000D03*
%TD*%
D49*
%TO.C,J2*%
X51690000Y-61000000D03*
X59310000Y-59984000D03*
X59310000Y-62016000D03*
D50*
X52960000Y-61635000D03*
X54230000Y-61635000D03*
X55500000Y-61635000D03*
X56770000Y-61635000D03*
X58040000Y-61635000D03*
X58040000Y-60365000D03*
X56770000Y-60365000D03*
X55500000Y-60365000D03*
X54230000Y-60365000D03*
X52960000Y-60365000D03*
%TD*%
D15*
%TO.C,C5*%
X137250000Y-63480000D03*
X137250000Y-62520000D03*
%TD*%
D48*
%TO.C,H2*%
X182154557Y-51000000D03*
%TD*%
D17*
%TO.C,RF7*%
X69352000Y-64775000D03*
X70372000Y-64775000D03*
%TD*%
D51*
%TO.C,D5*%
X46313410Y-75148999D03*
X46839590Y-72704999D03*
%TD*%
D23*
%TO.C,TP3*%
X72500000Y-65300000D03*
%TD*%
D52*
%TO.C,U8*%
X130475000Y-64262500D03*
X131125000Y-64262500D03*
X131775000Y-64262500D03*
X132425000Y-64262500D03*
X133075000Y-64262500D03*
X133725000Y-64262500D03*
X134375000Y-64262500D03*
X135025000Y-64262500D03*
X135025000Y-58537500D03*
X134375000Y-58537500D03*
X133725000Y-58537500D03*
X133075000Y-58537500D03*
X132425000Y-58537500D03*
X131775000Y-58537500D03*
X131125000Y-58537500D03*
X130475000Y-58537500D03*
%TD*%
D48*
%TO.C,H3*%
X37849412Y-114955476D03*
%TD*%
D52*
%TO.C,U7*%
X92225000Y-64462500D03*
X92875000Y-64462500D03*
X93525000Y-64462500D03*
X94175000Y-64462500D03*
X94825000Y-64462500D03*
X95475000Y-64462500D03*
X96125000Y-64462500D03*
X96775000Y-64462500D03*
X96775000Y-58737500D03*
X96125000Y-58737500D03*
X95475000Y-58737500D03*
X94825000Y-58737500D03*
X94175000Y-58737500D03*
X93525000Y-58737500D03*
X92875000Y-58737500D03*
X92225000Y-58737500D03*
%TD*%
D53*
%TO.C,PD11*%
X155697410Y-106283658D03*
X153118990Y-106617942D03*
%TD*%
D15*
%TO.C,C3*%
X76250000Y-64980000D03*
X76250000Y-64020000D03*
%TD*%
%TO.C,C29*%
X104200000Y-66079999D03*
X104200000Y-65119999D03*
%TD*%
D22*
%TO.C,C1*%
X84520000Y-58250000D03*
X85480000Y-58250000D03*
%TD*%
D17*
%TO.C,RF10*%
X138378000Y-64000000D03*
X139398000Y-64000000D03*
%TD*%
D15*
%TO.C,C21*%
X91000000Y-61280000D03*
X91000000Y-60320000D03*
%TD*%
D54*
%TO.C,D6*%
X61660758Y-66412629D03*
X64150242Y-66183571D03*
%TD*%
D22*
%TO.C,C35*%
X126570000Y-59750000D03*
X127530000Y-59750000D03*
%TD*%
D15*
%TO.C,CF1*%
X72888000Y-61355000D03*
X72888000Y-60395000D03*
%TD*%
%TO.C,CF9*%
X142638000Y-64730000D03*
X142638000Y-63770000D03*
%TD*%
D55*
%TO.C,PD16*%
X117842396Y-75233417D03*
X118506204Y-72719583D03*
%TD*%
D28*
%TO.C,C40*%
X114800000Y-70625000D03*
X114800000Y-69075000D03*
%TD*%
D15*
%TO.C,C31*%
X92000000Y-67230000D03*
X92000000Y-66270000D03*
%TD*%
D17*
%TO.C,R1*%
X123090000Y-58600000D03*
X124110000Y-58600000D03*
%TD*%
D15*
%TO.C,CF13*%
X148388000Y-61505000D03*
X148388000Y-60545000D03*
%TD*%
%TO.C,C11*%
X104200000Y-63930000D03*
X104200000Y-62970000D03*
%TD*%
D48*
%TO.C,FID3*%
X49849412Y-114955476D03*
%TD*%
D15*
%TO.C,CF4*%
X83362000Y-60605000D03*
X83362000Y-59645000D03*
%TD*%
%TO.C,C18*%
X117750000Y-62230000D03*
X117750000Y-61270000D03*
%TD*%
D22*
%TO.C,C33*%
X125970000Y-68000000D03*
X126930000Y-68000000D03*
%TD*%
D19*
%TO.C,U2*%
X74637500Y-58550000D03*
X74637500Y-59200000D03*
X74637500Y-59850000D03*
X74637500Y-60500000D03*
X74637500Y-61150000D03*
X74637500Y-61800000D03*
X74637500Y-62450000D03*
X80362500Y-62450000D03*
X80362500Y-61800000D03*
X80362500Y-61150000D03*
X80362500Y-60500000D03*
X80362500Y-59850000D03*
X80362500Y-59200000D03*
X80362500Y-58550000D03*
%TD*%
D56*
%TO.C,D12*%
X171852496Y-92773265D03*
X171167304Y-95177535D03*
%TD*%
D15*
%TO.C,CF3*%
X82112000Y-60605000D03*
X82112000Y-59645000D03*
%TD*%
%TO.C,CF8*%
X71612000Y-60255000D03*
X71612000Y-59295000D03*
%TD*%
D14*
%TO.C,R10*%
X117700000Y-64260000D03*
X117700000Y-63240000D03*
%TD*%
D22*
%TO.C,C32*%
X100420000Y-67200000D03*
X101380000Y-67200000D03*
%TD*%
D15*
%TO.C,C37*%
X148450000Y-65730000D03*
X148450000Y-64770000D03*
%TD*%
D14*
%TO.C,R28*%
X121550000Y-70010000D03*
X121550000Y-68990000D03*
%TD*%
D57*
%TO.C,PD2*%
X87518284Y-105829274D03*
X84946716Y-106212726D03*
%TD*%
D17*
%TO.C,R15*%
X123190000Y-69000000D03*
X124210000Y-69000000D03*
%TD*%
%TO.C,R7*%
X106490000Y-71000000D03*
X107510000Y-71000000D03*
%TD*%
%TO.C,R13*%
X87740000Y-58500000D03*
X88760000Y-58500000D03*
%TD*%
D58*
%TO.C,U16*%
X99525000Y-63400000D03*
X100175000Y-63400000D03*
X100825000Y-63400000D03*
X101475000Y-63400000D03*
X101475000Y-59000000D03*
X100825000Y-59000000D03*
X100175000Y-59000000D03*
X99525000Y-59000000D03*
%TD*%
D59*
%TO.C,D4*%
X48832696Y-95177535D03*
X48147504Y-92773265D03*
%TD*%
D60*
%TO.C,D1*%
X97411820Y-98040841D03*
X96185780Y-100219559D03*
%TD*%
D28*
%TO.C,C25*%
X116250000Y-65275000D03*
X116250000Y-63725000D03*
%TD*%
D61*
%TO.C,D7*%
X83672668Y-66468636D03*
X86151332Y-66794562D03*
%TD*%
D22*
%TO.C,C7*%
X86520000Y-59600000D03*
X87480000Y-59600000D03*
%TD*%
D62*
%TO.C,D19*%
X52960000Y-57965000D03*
X54360000Y-57965000D03*
%TD*%
D63*
%TO.C,PD8*%
X101461022Y-72820765D03*
X102204378Y-75312235D03*
%TD*%
D64*
%TO.C,U12*%
X125050000Y-64775000D03*
X125050000Y-65425000D03*
X125050000Y-66075000D03*
X125050000Y-66725000D03*
X128450000Y-66725000D03*
X128450000Y-66075000D03*
X128450000Y-65425000D03*
X128450000Y-64775000D03*
%TD*%
D65*
%TO.C,D18*%
X164000000Y-64650000D03*
X162600000Y-64650000D03*
%TD*%
D15*
%TO.C,C9*%
X129250000Y-59080000D03*
X129250000Y-58120000D03*
%TD*%
D66*
%TO.C,D15*%
X133830012Y-66731093D03*
X136311388Y-66426507D03*
%TD*%
D67*
%TO.C,PD15*%
X138699330Y-66094589D03*
X141288870Y-65861611D03*
%TD*%
D22*
%TO.C,C13*%
X115870000Y-60200000D03*
X116830000Y-60200000D03*
%TD*%
D23*
%TO.C,TP1*%
X54500000Y-66050000D03*
%TD*%
D28*
%TO.C,C26*%
X100000000Y-70525000D03*
X100000000Y-68975000D03*
%TD*%
D48*
%TO.C,FID2*%
X167154557Y-51000000D03*
%TD*%
D68*
%TO.C,D16*%
X117990491Y-79937150D03*
X117870109Y-77440050D03*
%TD*%
D15*
%TO.C,C46*%
X98050000Y-61380000D03*
X98050000Y-60420000D03*
%TD*%
D22*
%TO.C,C23*%
X85520000Y-64300000D03*
X86480000Y-64300000D03*
%TD*%
D69*
%TO.C,U14*%
X136275000Y-59800000D03*
D70*
X136100000Y-60275000D03*
X136100000Y-60725000D03*
D71*
X136275000Y-61200000D03*
D72*
X136750000Y-60500000D03*
X137250000Y-60500000D03*
D73*
X137725000Y-61200000D03*
D70*
X137900000Y-60725000D03*
X137900000Y-60275000D03*
D74*
X137725000Y-59800000D03*
%TD*%
D22*
%TO.C,C20*%
X112520000Y-70350000D03*
X113480000Y-70350000D03*
%TD*%
D75*
%TO.C,D3*%
X61992778Y-105812972D03*
X59545422Y-105302628D03*
%TD*%
D14*
%TO.C,R19*%
X120300000Y-70010000D03*
X120300000Y-68990000D03*
%TD*%
D76*
%TO.C,D14*%
X155849757Y-66183571D03*
X158339241Y-66412629D03*
%TD*%
D15*
%TO.C,C48*%
X152550000Y-65780000D03*
X152550000Y-64820000D03*
%TD*%
D14*
%TO.C,R12*%
X107450000Y-69860000D03*
X107450000Y-68840000D03*
%TD*%
D22*
%TO.C,C10*%
X103170000Y-60200000D03*
X104130000Y-60200000D03*
%TD*%
D15*
%TO.C,CF11*%
X147112000Y-62605000D03*
X147112000Y-61645000D03*
%TD*%
D22*
%TO.C,C34*%
X130219999Y-66950000D03*
X131179999Y-66950000D03*
%TD*%
D14*
%TO.C,R16*%
X118950000Y-67760000D03*
X118950000Y-66740000D03*
%TD*%
D15*
%TO.C,C44*%
X98000000Y-59380000D03*
X98000000Y-58420000D03*
%TD*%
D77*
%TO.C,PD13*%
X174139486Y-77279831D03*
X174072514Y-79878969D03*
%TD*%
D14*
%TO.C,RF14*%
X148388000Y-63535000D03*
X148388000Y-62515000D03*
%TD*%
D17*
%TO.C,R3*%
X88990000Y-64500000D03*
X90010000Y-64500000D03*
%TD*%
D19*
%TO.C,U4*%
X139637500Y-58550000D03*
X139637500Y-59200000D03*
X139637500Y-59850000D03*
X139637500Y-60500000D03*
X139637500Y-61150000D03*
X139637500Y-61800000D03*
X139637500Y-62450000D03*
X145362500Y-62450000D03*
X145362500Y-61800000D03*
X145362500Y-61150000D03*
X145362500Y-60500000D03*
X145362500Y-59850000D03*
X145362500Y-59200000D03*
X145362500Y-58550000D03*
%TD*%
D17*
%TO.C,RF9*%
X140378000Y-64000000D03*
X141398000Y-64000000D03*
%TD*%
%TO.C,R11*%
X102090000Y-65500000D03*
X103110000Y-65500000D03*
%TD*%
D14*
%TO.C,RF5*%
X62388000Y-60285000D03*
X62388000Y-59265000D03*
%TD*%
D22*
%TO.C,CF15*%
X153632000Y-64775000D03*
X154592000Y-64775000D03*
%TD*%
D78*
%TO.C,R14*%
X101060000Y-66000000D03*
X100040000Y-66000000D03*
%TD*%
D17*
%TO.C,R9*%
X115740000Y-66750000D03*
X116760000Y-66750000D03*
%TD*%
%TO.C,R4*%
X97990000Y-66000000D03*
X99010000Y-66000000D03*
%TD*%
D22*
%TO.C,C2*%
X120820000Y-58650000D03*
X121780000Y-58650000D03*
%TD*%
D48*
%TO.C,H4*%
X182154557Y-114955476D03*
%TD*%
D37*
%TO.C,FB1*%
X88212500Y-67000000D03*
X89787500Y-67000000D03*
%TD*%
D79*
%TO.C,PD6*%
X56763179Y-67079917D03*
X59313221Y-66572683D03*
%TD*%
D17*
%TO.C,RF8*%
X69352000Y-58025000D03*
X70372000Y-58025000D03*
%TD*%
D80*
%TO.C,D10*%
X139934091Y-106745054D03*
X137450309Y-106460746D03*
%TD*%
D19*
%TO.C,U3*%
X64137500Y-59450000D03*
X64137500Y-60100000D03*
X64137500Y-60750000D03*
X64137500Y-61400000D03*
X64137500Y-62050000D03*
X64137500Y-62700000D03*
X64137500Y-63350000D03*
X69862500Y-63350000D03*
X69862500Y-62700000D03*
X69862500Y-62050000D03*
X69862500Y-61400000D03*
X69862500Y-60750000D03*
X69862500Y-60100000D03*
X69862500Y-59450000D03*
%TD*%
D81*
%TO.C,U9*%
X105837500Y-60250000D03*
X105837500Y-60750000D03*
X105837500Y-61250000D03*
X105837500Y-61750000D03*
X105837500Y-62250000D03*
X105837500Y-62750000D03*
X105837500Y-63250000D03*
X105837500Y-63750000D03*
X105837500Y-64250000D03*
X105837500Y-64750000D03*
X105837500Y-65250000D03*
X105837500Y-65750000D03*
D82*
X107250000Y-67162500D03*
X107750000Y-67162500D03*
X108250000Y-67162500D03*
X108750000Y-67162500D03*
X109250000Y-67162500D03*
X109750000Y-67162500D03*
X110250000Y-67162500D03*
X110750000Y-67162500D03*
X111250000Y-67162500D03*
X111750000Y-67162500D03*
X112250000Y-67162500D03*
X112750000Y-67162500D03*
D81*
X114162500Y-65750000D03*
X114162500Y-65250000D03*
X114162500Y-64750000D03*
X114162500Y-64250000D03*
X114162500Y-63750000D03*
X114162500Y-63250000D03*
X114162500Y-62750000D03*
X114162500Y-62250000D03*
X114162500Y-61750000D03*
X114162500Y-61250000D03*
X114162500Y-60750000D03*
X114162500Y-60250000D03*
D82*
X112750000Y-58837500D03*
X112250000Y-58837500D03*
X111750000Y-58837500D03*
X111250000Y-58837500D03*
X110750000Y-58837500D03*
X110250000Y-58837500D03*
X109750000Y-58837500D03*
X109250000Y-58837500D03*
X108750000Y-58837500D03*
X108250000Y-58837500D03*
X107750000Y-58837500D03*
X107250000Y-58837500D03*
%TD*%
D17*
%TO.C,RF16*%
X155352000Y-58025000D03*
X156372000Y-58025000D03*
%TD*%
%TO.C,R29*%
X150340000Y-66050000D03*
X151360000Y-66050000D03*
%TD*%
D15*
%TO.C,C6*%
X147250000Y-64630000D03*
X147250000Y-63670000D03*
%TD*%
D23*
%TO.C,TP8*%
X142000000Y-107300000D03*
%TD*%
D18*
%TO.C,U13*%
X120612500Y-65550000D03*
X120612500Y-66500000D03*
X120612500Y-67450000D03*
X122887500Y-67450000D03*
X122887500Y-65550000D03*
%TD*%
D22*
%TO.C,CF16*%
X153382000Y-58025000D03*
X154342000Y-58025000D03*
%TD*%
D14*
%TO.C,R8*%
X116400000Y-59010000D03*
X116400000Y-57990000D03*
%TD*%
D22*
%TO.C,C12*%
X112320000Y-68950000D03*
X113280000Y-68950000D03*
%TD*%
D15*
%TO.C,C30*%
X106250000Y-69880000D03*
X106250000Y-68920000D03*
%TD*%
D23*
%TO.C,TP12*%
X170250000Y-68800000D03*
%TD*%
D22*
%TO.C,C49*%
X124520000Y-59750000D03*
X125480000Y-59750000D03*
%TD*%
D14*
%TO.C,RF6*%
X62388000Y-63535000D03*
X62388000Y-62515000D03*
%TD*%
D23*
%TO.C,TP10*%
X172400000Y-70350000D03*
%TD*%
D48*
%TO.C,FID1*%
X49849412Y-51000000D03*
%TD*%
D17*
%TO.C,RF11*%
X144852000Y-63875000D03*
X145872000Y-63875000D03*
%TD*%
D15*
%TO.C,CF2*%
X72888000Y-63355000D03*
X72888000Y-62395000D03*
%TD*%
D83*
%TO.C,U18*%
X157525000Y-61450000D03*
X157525000Y-62100000D03*
X157525000Y-62750000D03*
X159475000Y-62750000D03*
X159475000Y-62100000D03*
X159475000Y-61450000D03*
D84*
X158500000Y-62100000D03*
%TD*%
D15*
%TO.C,C47*%
X102900000Y-64430000D03*
X102900000Y-63470000D03*
%TD*%
D17*
%TO.C,RF15*%
X157602000Y-64250000D03*
X158622000Y-64250000D03*
%TD*%
%LPD*%
M02*
