%TF.GenerationSoftware,KiCad,Pcbnew,10.0.6*%
%TF.CreationDate,2026-09-20T01:12:52+08:00*%
%TF.ProjectId,ir_glasses_EVT_E7,69725f67-6c61-4737-9365-735f4556545f,EVT E7 REVIEW*%
%TF.SameCoordinates,Original*%
%TF.FileFunction,Paste,Top*%
%TF.FilePolarity,Positive*%
%FSLAX46Y46*%
G04 Gerber Fmt 4.6, Leading zero omitted, Abs format (unit mm)*
G04 Created by KiCad (PCBNEW 10.0.6) date 2026-09-20 01:12:52*
%MOMM*%
%LPD*%
G01*
G04 APERTURE LIST*
G04 Aperture macros list*
%AMRoundRect*
0 Rectangle with rounded corners*
0 $1 Rounding radius*
0 $2 $3 $4 $5 $6 $7 $8 $9 X,Y pos of 4 corners*
0 Add a 4 corners polygon primitive as box body*
4,1,4,$2,$3,$4,$5,$6,$7,$8,$9,$2,$3,0*
0 Add four circle primitives for the rounded corners*
1,1,$1+$1,$2,$3*
1,1,$1+$1,$4,$5*
1,1,$1+$1,$6,$7*
1,1,$1+$1,$8,$9*
0 Add four rect primitives between the rounded corners*
20,1,$1+$1,$2,$3,$4,$5,0*
20,1,$1+$1,$4,$5,$6,$7,0*
20,1,$1+$1,$6,$7,$8,$9,0*
20,1,$1+$1,$8,$9,$2,$3,0*%
%AMRotRect*
0 Rectangle, with rotation*
0 The origin of the aperture is its center*
0 $1 length*
0 $2 width*
0 $3 Rotation angle, in degrees counterclockwise*
0 Add horizontal line*
21,1,$1,$2,0,0,$3*%
%AMFreePoly0*
4,1,7,0.125000,-0.150000,-0.475000,-0.150000,-0.475000,0.150000,-0.125000,0.150000,-0.125000,0.500000,0.125000,0.500000,0.125000,-0.150000,0.125000,-0.150000,$1*%
%AMFreePoly1*
4,1,7,0.125000,-0.500000,-0.125000,-0.500000,-0.125000,-0.150000,-0.475000,-0.150000,-0.475000,0.150000,0.125000,0.150000,0.125000,-0.500000,0.125000,-0.500000,$1*%
%AMFreePoly2*
4,1,7,0.475000,-0.150000,0.125000,-0.150000,0.125000,-0.500000,-0.125000,-0.500000,-0.125000,0.150000,0.475000,0.150000,0.475000,-0.150000,0.475000,-0.150000,$1*%
%AMFreePoly3*
4,1,7,0.125000,0.150000,0.475000,0.150000,0.475000,-0.150000,-0.125000,-0.150000,-0.125000,0.500000,0.125000,0.500000,0.125000,0.150000,0.125000,0.150000,$1*%
G04 Aperture macros list end*
%ADD10RoundRect,0.135000X0.185000X-0.135000X0.185000X0.135000X-0.185000X0.135000X-0.185000X-0.135000X0*%
%ADD11RoundRect,0.140000X0.170000X-0.140000X0.170000X0.140000X-0.170000X0.140000X-0.170000X-0.140000X0*%
%ADD12RotRect,1.000000X1.500000X351.519000*%
%ADD13RoundRect,0.135000X-0.135000X-0.185000X0.135000X-0.185000X0.135000X0.185000X-0.135000X0.185000X0*%
%ADD14RoundRect,0.150000X-0.512500X-0.150000X0.512500X-0.150000X0.512500X0.150000X-0.512500X0.150000X0*%
%ADD15RoundRect,0.100000X-0.637500X-0.100000X0.637500X-0.100000X0.637500X0.100000X-0.637500X0.100000X0*%
%ADD16RoundRect,0.112500X0.187500X0.112500X-0.187500X0.112500X-0.187500X-0.112500X0.187500X-0.112500X0*%
%ADD17RotRect,1.000000X1.500000X176.212000*%
%ADD18RoundRect,0.140000X-0.140000X-0.170000X0.140000X-0.170000X0.140000X0.170000X-0.140000X0.170000X0*%
%ADD19RoundRect,0.150000X-0.587500X-0.150000X0.587500X-0.150000X0.587500X0.150000X-0.587500X0.150000X0*%
%ADD20RotRect,0.900000X1.300000X102.150000*%
%ADD21RoundRect,0.250000X-0.325000X-1.100000X0.325000X-1.100000X0.325000X1.100000X-0.325000X1.100000X0*%
%ADD22RotRect,0.900000X1.300000X6.530000*%
%ADD23RoundRect,0.225000X0.250000X-0.225000X0.250000X0.225000X-0.250000X0.225000X-0.250000X-0.225000X0*%
%ADD24RotRect,1.000000X1.500000X289.645000*%
%ADD25RotRect,1.000000X1.500000X168.750000*%
%ADD26RoundRect,0.087500X-0.225000X-0.087500X0.225000X-0.087500X0.225000X0.087500X-0.225000X0.087500X0*%
%ADD27RoundRect,0.087500X-0.087500X-0.225000X0.087500X-0.225000X0.087500X0.225000X-0.087500X0.225000X0*%
%ADD28RotRect,0.900000X1.300000X11.779000*%
%ADD29RotRect,1.000000X1.500000X69.734000*%
%ADD30RoundRect,0.150000X-0.400000X-0.150000X0.400000X-0.150000X0.400000X0.150000X-0.400000X0.150000X0*%
%ADD31RotRect,1.000000X1.500000X64.946000*%
%ADD32RoundRect,0.218750X-0.218750X-0.256250X0.218750X-0.256250X0.218750X0.256250X-0.218750X0.256250X0*%
%ADD33RotRect,0.900000X1.300000X87.410000*%
%ADD34RoundRect,0.212500X-0.212500X-0.212500X0.212500X-0.212500X0.212500X0.212500X-0.212500X0.212500X0*%
%ADD35RoundRect,0.062500X-0.375000X-0.062500X0.375000X-0.062500X0.375000X0.062500X-0.375000X0.062500X0*%
%ADD36RoundRect,0.062500X-0.062500X-0.375000X0.062500X-0.375000X0.062500X0.375000X-0.062500X0.375000X0*%
%ADD37RotRect,1.000000X1.500000X271.476000*%
%ADD38RotRect,0.900000X1.300000X296.814000*%
%ADD39RotRect,1.000000X1.500000X295.054000*%
%ADD40RotRect,1.000000X1.500000X352.613000*%
%ADD41R,0.300000X1.250000*%
%ADD42R,2.000000X3.000000*%
%ADD43RotRect,0.900000X1.300000X257.850000*%
%ADD44RoundRect,0.100000X0.100000X-0.637500X0.100000X0.637500X-0.100000X0.637500X-0.100000X-0.637500X0*%
%ADD45RotRect,1.000000X1.500000X7.387000*%
%ADD46RotRect,0.900000X1.300000X185.257000*%
%ADD47RotRect,1.000000X1.500000X255.208000*%
%ADD48RotRect,0.900000X1.300000X74.093000*%
%ADD49RotRect,1.000000X1.500000X8.481000*%
%ADD50R,0.450000X1.450000*%
%ADD51RotRect,0.900000X1.300000X285.907000*%
%ADD52RotRect,0.900000X1.300000X60.632000*%
%ADD53RotRect,0.900000X1.300000X172.509000*%
%ADD54RoundRect,0.150000X0.150000X0.200000X-0.150000X0.200000X-0.150000X-0.200000X0.150000X-0.200000X0*%
%ADD55RotRect,1.000000X1.500000X106.613000*%
%ADD56R,1.600000X0.300000*%
%ADD57RoundRect,0.150000X-0.150000X-0.200000X0.150000X-0.200000X0.150000X0.200000X-0.150000X0.200000X0*%
%ADD58RotRect,0.900000X1.300000X186.998000*%
%ADD59RotRect,1.000000X1.500000X185.141000*%
%ADD60RotRect,0.900000X1.300000X272.760000*%
%ADD61FreePoly0,0.000000*%
%ADD62R,0.600000X0.250000*%
%ADD63FreePoly1,0.000000*%
%ADD64R,0.300000X2.400000*%
%ADD65FreePoly2,0.000000*%
%ADD66FreePoly3,0.000000*%
%ADD67RotRect,0.900000X1.300000X348.221000*%
%ADD68RotRect,0.900000X1.300000X174.743000*%
%ADD69RotRect,1.000000X1.500000X88.524000*%
%ADD70RoundRect,0.135000X0.135000X0.185000X-0.135000X0.185000X-0.135000X-0.185000X0.135000X-0.185000X0*%
%ADD71RotRect,1.000000X1.500000X191.250000*%
%ADD72RotRect,0.900000X1.300000X353.470000*%
%ADD73RoundRect,0.075000X-0.662500X-0.075000X0.662500X-0.075000X0.662500X0.075000X-0.662500X0.075000X0*%
%ADD74RoundRect,0.075000X-0.075000X-0.662500X0.075000X-0.662500X0.075000X0.662500X-0.075000X0.662500X0*%
%ADD75RoundRect,0.160000X-0.245000X-0.160000X0.245000X-0.160000X0.245000X0.160000X-0.245000X0.160000X0*%
%ADD76RoundRect,0.075000X-0.150000X-0.075000X0.150000X-0.075000X0.150000X0.075000X-0.150000X0.075000X0*%
G04 APERTURE END LIST*
D10*
%TO.C,R5*%
X115800000Y-62260000D03*
X115800000Y-61240000D03*
%TD*%
D11*
%TO.C,CF10*%
X132388000Y-66730000D03*
X132388000Y-65770000D03*
%TD*%
%TO.C,CF12*%
X148362000Y-59355000D03*
X148362000Y-58395000D03*
%TD*%
D12*
%TO.C,PD10*%
X135053283Y-106212726D03*
X132481715Y-105829274D03*
%TD*%
D13*
%TO.C,R2*%
X84490000Y-59500000D03*
X85510000Y-59500000D03*
%TD*%
D14*
%TO.C,U6*%
X85862500Y-61050000D03*
X85862500Y-62000000D03*
X85862500Y-62950000D03*
X88137500Y-62950000D03*
X88137500Y-61050000D03*
%TD*%
D15*
%TO.C,U5*%
X150137500Y-59450000D03*
X150137500Y-60100000D03*
X150137500Y-60750000D03*
X150137500Y-61400000D03*
X150137500Y-62050000D03*
X150137500Y-62700000D03*
X150137500Y-63350000D03*
X155862500Y-63350000D03*
X155862500Y-62700000D03*
X155862500Y-62050000D03*
X155862500Y-61400000D03*
X155862500Y-60750000D03*
X155862500Y-60100000D03*
X155862500Y-59450000D03*
%TD*%
D16*
%TO.C,D17*%
X159850000Y-59650000D03*
X157750000Y-59650000D03*
%TD*%
D17*
%TO.C,PD7*%
X78733840Y-65915715D03*
X81328160Y-66087483D03*
%TD*%
D18*
%TO.C,C16*%
X106520000Y-72500000D03*
X107480000Y-72500000D03*
%TD*%
D19*
%TO.C,U11*%
X166062500Y-66050000D03*
X166062500Y-67950000D03*
X167937500Y-67000000D03*
%TD*%
D11*
%TO.C,C17*%
X112500000Y-72480000D03*
X112500000Y-71520000D03*
%TD*%
D18*
%TO.C,CF14*%
X149658000Y-64775000D03*
X150618000Y-64775000D03*
%TD*%
D20*
%TO.C,D13*%
X173160410Y-72704999D03*
X173686590Y-75148999D03*
%TD*%
D21*
%TO.C,C28*%
X101775000Y-70050000D03*
X104725000Y-70050000D03*
%TD*%
D10*
%TO.C,R18*%
X124500000Y-63510000D03*
X124500000Y-62490000D03*
%TD*%
D22*
%TO.C,D2*%
X82549691Y-106460746D03*
X80065909Y-106745054D03*
%TD*%
D23*
%TO.C,C27*%
X84000000Y-64025000D03*
X84000000Y-62475000D03*
%TD*%
D18*
%TO.C,C36*%
X118020000Y-65500000D03*
X118980000Y-65500000D03*
%TD*%
D10*
%TO.C,R20*%
X143950000Y-66060000D03*
X143950000Y-65040000D03*
%TD*%
D24*
%TO.C,PD9*%
X121643148Y-96016032D03*
X120769050Y-93567368D03*
%TD*%
D13*
%TO.C,RF13*%
X149628000Y-58025000D03*
X150648000Y-58025000D03*
%TD*%
D11*
%TO.C,CF7*%
X71612000Y-63505000D03*
X71612000Y-62545000D03*
%TD*%
D25*
%TO.C,PD14*%
X160686778Y-66572683D03*
X163236820Y-67079917D03*
%TD*%
D26*
%TO.C,U10*%
X108837500Y-70550000D03*
X108837500Y-71050000D03*
X108837500Y-71550000D03*
X108837500Y-72050000D03*
D27*
X109500000Y-72212500D03*
X110000000Y-72212500D03*
X110500000Y-72212500D03*
D26*
X111162500Y-72050000D03*
X111162500Y-71550000D03*
X111162500Y-71050000D03*
X111162500Y-70550000D03*
D27*
X110500000Y-70387500D03*
X110000000Y-70387500D03*
X109500000Y-70387500D03*
%TD*%
D28*
%TO.C,D11*%
X160454578Y-105302628D03*
X158007222Y-105812972D03*
%TD*%
D18*
%TO.C,CF6*%
X65408000Y-64775000D03*
X66368000Y-64775000D03*
%TD*%
%TO.C,CF5*%
X63658000Y-58025000D03*
X64618000Y-58025000D03*
%TD*%
D29*
%TO.C,PD1*%
X99222493Y-93574177D03*
X98321907Y-96013223D03*
%TD*%
D30*
%TO.C,U19*%
X126150000Y-61150000D03*
X126150000Y-62100000D03*
X126150000Y-63050000D03*
X128850000Y-63050000D03*
X128850000Y-62100000D03*
X128850000Y-61150000D03*
%TD*%
D11*
%TO.C,C22*%
X117550000Y-59080000D03*
X117550000Y-58120000D03*
%TD*%
%TO.C,C38*%
X145200000Y-66030000D03*
X145200000Y-65070000D03*
%TD*%
D13*
%TO.C,R6*%
X110240000Y-69000000D03*
X111260000Y-69000000D03*
%TD*%
D11*
%TO.C,C4*%
X67500000Y-65880000D03*
X67500000Y-64920000D03*
%TD*%
D13*
%TO.C,R27*%
X103240000Y-67750000D03*
X104260000Y-67750000D03*
%TD*%
D31*
%TO.C,PD12*%
X170655314Y-97390118D03*
X169554286Y-99745482D03*
%TD*%
D32*
%TO.C,D20*%
X58212500Y-57900000D03*
X59787500Y-57900000D03*
%TD*%
D33*
%TO.C,D8*%
X102147986Y-77504677D03*
X102035014Y-80002123D03*
%TD*%
D10*
%TO.C,RF12*%
X147112000Y-59385000D03*
X147112000Y-58365000D03*
%TD*%
D34*
%TO.C,U1*%
X120475000Y-61475000D03*
X120475000Y-62525000D03*
X121525000Y-61475000D03*
X121525000Y-62525000D03*
D35*
X119062500Y-60750000D03*
X119062500Y-61250000D03*
X119062500Y-61750000D03*
X119062500Y-62250000D03*
X119062500Y-62750000D03*
X119062500Y-63250000D03*
D36*
X119750000Y-63937500D03*
X120250000Y-63937500D03*
X120750000Y-63937500D03*
X121250000Y-63937500D03*
X121750000Y-63937500D03*
X122250000Y-63937500D03*
D35*
X122937500Y-63250000D03*
X122937500Y-62750000D03*
X122937500Y-62250000D03*
X122937500Y-61750000D03*
X122937500Y-61250000D03*
X122937500Y-60750000D03*
D36*
X122250000Y-60062500D03*
X121750000Y-60062500D03*
X121250000Y-60062500D03*
X120750000Y-60062500D03*
X120250000Y-60062500D03*
X119750000Y-60062500D03*
%TD*%
D18*
%TO.C,C19*%
X103270000Y-61450000D03*
X104230000Y-61450000D03*
%TD*%
D11*
%TO.C,C15*%
X87750000Y-65480000D03*
X87750000Y-64520000D03*
%TD*%
D13*
%TO.C,RF4*%
X82102000Y-58375000D03*
X83122000Y-58375000D03*
%TD*%
D18*
%TO.C,C14*%
X103320000Y-58900000D03*
X104280000Y-58900000D03*
%TD*%
D37*
%TO.C,PD5*%
X45927486Y-79878969D03*
X45860514Y-77279831D03*
%TD*%
D11*
%TO.C,C8*%
X90950000Y-59280000D03*
X90950000Y-58320000D03*
%TD*%
D38*
%TO.C,D9*%
X123817068Y-100331693D03*
X122689330Y-98100507D03*
%TD*%
D39*
%TO.C,PD4*%
X50445714Y-99745482D03*
X49344686Y-97390118D03*
%TD*%
D13*
%TO.C,R17*%
X61240000Y-58000000D03*
X62260000Y-58000000D03*
%TD*%
D10*
%TO.C,RF3*%
X82112000Y-62635000D03*
X82112000Y-61615000D03*
%TD*%
%TO.C,RF1*%
X72888000Y-59385000D03*
X72888000Y-58365000D03*
%TD*%
D40*
%TO.C,PD3*%
X66881010Y-106617942D03*
X64302590Y-106283658D03*
%TD*%
D41*
%TO.C,J1*%
X166000000Y-63050000D03*
X165500000Y-63050000D03*
X165000000Y-63050000D03*
X164500000Y-63050000D03*
X164000000Y-63050000D03*
D42*
X167540000Y-60725000D03*
X162460000Y-60725000D03*
%TD*%
D13*
%TO.C,RF2*%
X74128000Y-63875000D03*
X75148000Y-63875000D03*
%TD*%
D11*
%TO.C,C5*%
X137250000Y-63480000D03*
X137250000Y-62520000D03*
%TD*%
D13*
%TO.C,RF7*%
X69352000Y-64775000D03*
X70372000Y-64775000D03*
%TD*%
D43*
%TO.C,D5*%
X46313410Y-75148999D03*
X46839590Y-72704999D03*
%TD*%
D44*
%TO.C,U8*%
X130475000Y-64262500D03*
X131125000Y-64262500D03*
X131775000Y-64262500D03*
X132425000Y-64262500D03*
X133075000Y-64262500D03*
X133725000Y-64262500D03*
X134375000Y-64262500D03*
X135025000Y-64262500D03*
X135025000Y-58537500D03*
X134375000Y-58537500D03*
X133725000Y-58537500D03*
X133075000Y-58537500D03*
X132425000Y-58537500D03*
X131775000Y-58537500D03*
X131125000Y-58537500D03*
X130475000Y-58537500D03*
%TD*%
%TO.C,U7*%
X92225000Y-64462500D03*
X92875000Y-64462500D03*
X93525000Y-64462500D03*
X94175000Y-64462500D03*
X94825000Y-64462500D03*
X95475000Y-64462500D03*
X96125000Y-64462500D03*
X96775000Y-64462500D03*
X96775000Y-58737500D03*
X96125000Y-58737500D03*
X95475000Y-58737500D03*
X94825000Y-58737500D03*
X94175000Y-58737500D03*
X93525000Y-58737500D03*
X92875000Y-58737500D03*
X92225000Y-58737500D03*
%TD*%
D45*
%TO.C,PD11*%
X155697410Y-106283658D03*
X153118990Y-106617942D03*
%TD*%
D11*
%TO.C,C3*%
X76250000Y-64980000D03*
X76250000Y-64020000D03*
%TD*%
%TO.C,C29*%
X104200000Y-66079999D03*
X104200000Y-65119999D03*
%TD*%
D18*
%TO.C,C1*%
X84520000Y-58250000D03*
X85480000Y-58250000D03*
%TD*%
D13*
%TO.C,RF10*%
X138378000Y-64000000D03*
X139398000Y-64000000D03*
%TD*%
D11*
%TO.C,C21*%
X91000000Y-61280000D03*
X91000000Y-60320000D03*
%TD*%
D46*
%TO.C,D6*%
X61660758Y-66412629D03*
X64150242Y-66183571D03*
%TD*%
D18*
%TO.C,C35*%
X126570000Y-59750000D03*
X127530000Y-59750000D03*
%TD*%
D11*
%TO.C,CF1*%
X72888000Y-61355000D03*
X72888000Y-60395000D03*
%TD*%
%TO.C,CF9*%
X142638000Y-64730000D03*
X142638000Y-63770000D03*
%TD*%
D47*
%TO.C,PD16*%
X117842396Y-75233417D03*
X118506204Y-72719583D03*
%TD*%
D23*
%TO.C,C40*%
X114800000Y-70625000D03*
X114800000Y-69075000D03*
%TD*%
D11*
%TO.C,C31*%
X92000000Y-67230000D03*
X92000000Y-66270000D03*
%TD*%
D13*
%TO.C,R1*%
X123090000Y-58600000D03*
X124110000Y-58600000D03*
%TD*%
D11*
%TO.C,CF13*%
X148388000Y-61505000D03*
X148388000Y-60545000D03*
%TD*%
%TO.C,C11*%
X104200000Y-63930000D03*
X104200000Y-62970000D03*
%TD*%
%TO.C,CF4*%
X83362000Y-60605000D03*
X83362000Y-59645000D03*
%TD*%
%TO.C,C18*%
X117750000Y-62230000D03*
X117750000Y-61270000D03*
%TD*%
D18*
%TO.C,C33*%
X125970000Y-68000000D03*
X126930000Y-68000000D03*
%TD*%
D15*
%TO.C,U2*%
X74637500Y-58550000D03*
X74637500Y-59200000D03*
X74637500Y-59850000D03*
X74637500Y-60500000D03*
X74637500Y-61150000D03*
X74637500Y-61800000D03*
X74637500Y-62450000D03*
X80362500Y-62450000D03*
X80362500Y-61800000D03*
X80362500Y-61150000D03*
X80362500Y-60500000D03*
X80362500Y-59850000D03*
X80362500Y-59200000D03*
X80362500Y-58550000D03*
%TD*%
D48*
%TO.C,D12*%
X171852496Y-92773265D03*
X171167304Y-95177535D03*
%TD*%
D11*
%TO.C,CF3*%
X82112000Y-60605000D03*
X82112000Y-59645000D03*
%TD*%
%TO.C,CF8*%
X71612000Y-60255000D03*
X71612000Y-59295000D03*
%TD*%
D10*
%TO.C,R10*%
X117700000Y-64260000D03*
X117700000Y-63240000D03*
%TD*%
D18*
%TO.C,C32*%
X100420000Y-67200000D03*
X101380000Y-67200000D03*
%TD*%
D11*
%TO.C,C37*%
X148450000Y-65730000D03*
X148450000Y-64770000D03*
%TD*%
D10*
%TO.C,R28*%
X121550000Y-70010000D03*
X121550000Y-68990000D03*
%TD*%
D49*
%TO.C,PD2*%
X87518284Y-105829274D03*
X84946716Y-106212726D03*
%TD*%
D13*
%TO.C,R15*%
X123190000Y-69000000D03*
X124210000Y-69000000D03*
%TD*%
%TO.C,R7*%
X106490000Y-71000000D03*
X107510000Y-71000000D03*
%TD*%
%TO.C,R13*%
X87740000Y-58500000D03*
X88760000Y-58500000D03*
%TD*%
D50*
%TO.C,U16*%
X99525000Y-63400000D03*
X100175000Y-63400000D03*
X100825000Y-63400000D03*
X101475000Y-63400000D03*
X101475000Y-59000000D03*
X100825000Y-59000000D03*
X100175000Y-59000000D03*
X99525000Y-59000000D03*
%TD*%
D51*
%TO.C,D4*%
X48832696Y-95177535D03*
X48147504Y-92773265D03*
%TD*%
D52*
%TO.C,D1*%
X97411820Y-98040841D03*
X96185780Y-100219559D03*
%TD*%
D23*
%TO.C,C25*%
X116250000Y-65275000D03*
X116250000Y-63725000D03*
%TD*%
D53*
%TO.C,D7*%
X83672668Y-66468636D03*
X86151332Y-66794562D03*
%TD*%
D18*
%TO.C,C7*%
X86520000Y-59600000D03*
X87480000Y-59600000D03*
%TD*%
D54*
%TO.C,D19*%
X52960000Y-57965000D03*
X54360000Y-57965000D03*
%TD*%
D55*
%TO.C,PD8*%
X101461022Y-72820765D03*
X102204378Y-75312235D03*
%TD*%
D56*
%TO.C,U12*%
X125050000Y-64775000D03*
X125050000Y-65425000D03*
X125050000Y-66075000D03*
X125050000Y-66725000D03*
X128450000Y-66725000D03*
X128450000Y-66075000D03*
X128450000Y-65425000D03*
X128450000Y-64775000D03*
%TD*%
D57*
%TO.C,D18*%
X164000000Y-64650000D03*
X162600000Y-64650000D03*
%TD*%
D11*
%TO.C,C9*%
X129250000Y-59080000D03*
X129250000Y-58120000D03*
%TD*%
D58*
%TO.C,D15*%
X133830012Y-66731093D03*
X136311388Y-66426507D03*
%TD*%
D59*
%TO.C,PD15*%
X138699330Y-66094589D03*
X141288870Y-65861611D03*
%TD*%
D18*
%TO.C,C13*%
X115870000Y-60200000D03*
X116830000Y-60200000D03*
%TD*%
D23*
%TO.C,C26*%
X100000000Y-70525000D03*
X100000000Y-68975000D03*
%TD*%
D60*
%TO.C,D16*%
X117990491Y-79937150D03*
X117870109Y-77440050D03*
%TD*%
D11*
%TO.C,C46*%
X98050000Y-61380000D03*
X98050000Y-60420000D03*
%TD*%
D18*
%TO.C,C23*%
X85520000Y-64300000D03*
X86480000Y-64300000D03*
%TD*%
D61*
%TO.C,U14*%
X136275000Y-59800000D03*
D62*
X136100000Y-60275000D03*
X136100000Y-60725000D03*
D63*
X136275000Y-61200000D03*
D64*
X136750000Y-60500000D03*
X137250000Y-60500000D03*
D65*
X137725000Y-61200000D03*
D62*
X137900000Y-60725000D03*
X137900000Y-60275000D03*
D66*
X137725000Y-59800000D03*
%TD*%
D18*
%TO.C,C20*%
X112520000Y-70350000D03*
X113480000Y-70350000D03*
%TD*%
D67*
%TO.C,D3*%
X61992778Y-105812972D03*
X59545422Y-105302628D03*
%TD*%
D10*
%TO.C,R19*%
X120300000Y-70010000D03*
X120300000Y-68990000D03*
%TD*%
D68*
%TO.C,D14*%
X155849757Y-66183571D03*
X158339241Y-66412629D03*
%TD*%
D11*
%TO.C,C48*%
X152550000Y-65780000D03*
X152550000Y-64820000D03*
%TD*%
D10*
%TO.C,R12*%
X107450000Y-69860000D03*
X107450000Y-68840000D03*
%TD*%
D18*
%TO.C,C10*%
X103170000Y-60200000D03*
X104130000Y-60200000D03*
%TD*%
D11*
%TO.C,CF11*%
X147112000Y-62605000D03*
X147112000Y-61645000D03*
%TD*%
D18*
%TO.C,C34*%
X130219999Y-66950000D03*
X131179999Y-66950000D03*
%TD*%
D10*
%TO.C,R16*%
X118950000Y-67760000D03*
X118950000Y-66740000D03*
%TD*%
D11*
%TO.C,C44*%
X98000000Y-59380000D03*
X98000000Y-58420000D03*
%TD*%
D69*
%TO.C,PD13*%
X174139486Y-77279831D03*
X174072514Y-79878969D03*
%TD*%
D10*
%TO.C,RF14*%
X148388000Y-63535000D03*
X148388000Y-62515000D03*
%TD*%
D13*
%TO.C,R3*%
X88990000Y-64500000D03*
X90010000Y-64500000D03*
%TD*%
D15*
%TO.C,U4*%
X139637500Y-58550000D03*
X139637500Y-59200000D03*
X139637500Y-59850000D03*
X139637500Y-60500000D03*
X139637500Y-61150000D03*
X139637500Y-61800000D03*
X139637500Y-62450000D03*
X145362500Y-62450000D03*
X145362500Y-61800000D03*
X145362500Y-61150000D03*
X145362500Y-60500000D03*
X145362500Y-59850000D03*
X145362500Y-59200000D03*
X145362500Y-58550000D03*
%TD*%
D13*
%TO.C,RF9*%
X140378000Y-64000000D03*
X141398000Y-64000000D03*
%TD*%
%TO.C,R11*%
X102090000Y-65500000D03*
X103110000Y-65500000D03*
%TD*%
D10*
%TO.C,RF5*%
X62388000Y-60285000D03*
X62388000Y-59265000D03*
%TD*%
D18*
%TO.C,CF15*%
X153632000Y-64775000D03*
X154592000Y-64775000D03*
%TD*%
D70*
%TO.C,R14*%
X101060000Y-66000000D03*
X100040000Y-66000000D03*
%TD*%
D13*
%TO.C,R9*%
X115740000Y-66750000D03*
X116760000Y-66750000D03*
%TD*%
%TO.C,R4*%
X97990000Y-66000000D03*
X99010000Y-66000000D03*
%TD*%
D18*
%TO.C,C2*%
X120820000Y-58650000D03*
X121780000Y-58650000D03*
%TD*%
D32*
%TO.C,FB1*%
X88212500Y-67000000D03*
X89787500Y-67000000D03*
%TD*%
D71*
%TO.C,PD6*%
X56763179Y-67079917D03*
X59313221Y-66572683D03*
%TD*%
D13*
%TO.C,RF8*%
X69352000Y-58025000D03*
X70372000Y-58025000D03*
%TD*%
D72*
%TO.C,D10*%
X139934091Y-106745054D03*
X137450309Y-106460746D03*
%TD*%
D15*
%TO.C,U3*%
X64137500Y-59450000D03*
X64137500Y-60100000D03*
X64137500Y-60750000D03*
X64137500Y-61400000D03*
X64137500Y-62050000D03*
X64137500Y-62700000D03*
X64137500Y-63350000D03*
X69862500Y-63350000D03*
X69862500Y-62700000D03*
X69862500Y-62050000D03*
X69862500Y-61400000D03*
X69862500Y-60750000D03*
X69862500Y-60100000D03*
X69862500Y-59450000D03*
%TD*%
D73*
%TO.C,U9*%
X105837500Y-60250000D03*
X105837500Y-60750000D03*
X105837500Y-61250000D03*
X105837500Y-61750000D03*
X105837500Y-62250000D03*
X105837500Y-62750000D03*
X105837500Y-63250000D03*
X105837500Y-63750000D03*
X105837500Y-64250000D03*
X105837500Y-64750000D03*
X105837500Y-65250000D03*
X105837500Y-65750000D03*
D74*
X107250000Y-67162500D03*
X107750000Y-67162500D03*
X108250000Y-67162500D03*
X108750000Y-67162500D03*
X109250000Y-67162500D03*
X109750000Y-67162500D03*
X110250000Y-67162500D03*
X110750000Y-67162500D03*
X111250000Y-67162500D03*
X111750000Y-67162500D03*
X112250000Y-67162500D03*
X112750000Y-67162500D03*
D73*
X114162500Y-65750000D03*
X114162500Y-65250000D03*
X114162500Y-64750000D03*
X114162500Y-64250000D03*
X114162500Y-63750000D03*
X114162500Y-63250000D03*
X114162500Y-62750000D03*
X114162500Y-62250000D03*
X114162500Y-61750000D03*
X114162500Y-61250000D03*
X114162500Y-60750000D03*
X114162500Y-60250000D03*
D74*
X112750000Y-58837500D03*
X112250000Y-58837500D03*
X111750000Y-58837500D03*
X111250000Y-58837500D03*
X110750000Y-58837500D03*
X110250000Y-58837500D03*
X109750000Y-58837500D03*
X109250000Y-58837500D03*
X108750000Y-58837500D03*
X108250000Y-58837500D03*
X107750000Y-58837500D03*
X107250000Y-58837500D03*
%TD*%
D13*
%TO.C,RF16*%
X155352000Y-58025000D03*
X156372000Y-58025000D03*
%TD*%
%TO.C,R29*%
X150340000Y-66050000D03*
X151360000Y-66050000D03*
%TD*%
D11*
%TO.C,C6*%
X147250000Y-64630000D03*
X147250000Y-63670000D03*
%TD*%
D14*
%TO.C,U13*%
X120612500Y-65550000D03*
X120612500Y-66500000D03*
X120612500Y-67450000D03*
X122887500Y-67450000D03*
X122887500Y-65550000D03*
%TD*%
D18*
%TO.C,CF16*%
X153382000Y-58025000D03*
X154342000Y-58025000D03*
%TD*%
D10*
%TO.C,R8*%
X116400000Y-59010000D03*
X116400000Y-57990000D03*
%TD*%
D18*
%TO.C,C12*%
X112320000Y-68950000D03*
X113280000Y-68950000D03*
%TD*%
D11*
%TO.C,C30*%
X106250000Y-69880000D03*
X106250000Y-68920000D03*
%TD*%
D18*
%TO.C,C49*%
X124520000Y-59750000D03*
X125480000Y-59750000D03*
%TD*%
D10*
%TO.C,RF6*%
X62388000Y-63535000D03*
X62388000Y-62515000D03*
%TD*%
D13*
%TO.C,RF11*%
X144852000Y-63875000D03*
X145872000Y-63875000D03*
%TD*%
D11*
%TO.C,CF2*%
X72888000Y-63355000D03*
X72888000Y-62395000D03*
%TD*%
D75*
%TO.C,U18*%
X158500000Y-61700000D03*
X158500000Y-62500000D03*
D76*
X157525000Y-61450000D03*
X157525000Y-62100000D03*
X157525000Y-62750000D03*
X159475000Y-62750000D03*
X159475000Y-62100000D03*
X159475000Y-61450000D03*
%TD*%
D11*
%TO.C,C47*%
X102900000Y-64430000D03*
X102900000Y-63470000D03*
%TD*%
D13*
%TO.C,RF15*%
X157602000Y-64250000D03*
X158622000Y-64250000D03*
%TD*%
M02*
