M48
; DRILL file KiCad 10.0.6 date 2026-09-18T17:44:18
; FORMAT={-:-/ absolute / metric / decimal}
; #@! TF.CreationDate,2026-09-18T17:44:18+08:00
; #@! TF.GenerationSoftware,Kicad,Pcbnew,10.0.6
; #@! TF.FileFunction,Plated,1,4,PTH
FMAT,2
METRIC
; #@! TA.AperFunction,Plated,PTH,ViaDrill
T1C0.150
; #@! TA.AperFunction,Plated,PTH,ViaDrill
T2C0.200
; #@! TA.AperFunction,Plated,PTH,ViaDrill
T3C0.300
%
G90
G05
T1
X57.4Y-61.95
X63.05Y-58.05
X64.8Y-64.725
X78.675Y-58.95
X81.55Y-58.725
X82.725Y-58.925
X87.462Y-67.312
X89.05Y-66.875
X89.7Y-64.1
X89.95Y-65.75
X90.85Y-61.875
X90.85Y-63.525
X91.35Y-63.325
X91.7Y-58.725
X91.725Y-63.675
X92.812Y-68.612
X92.975Y-59.95
X93.9Y-63.45
X94.5Y-68.3
X95.475Y-68.25
X95.575Y-65.5
X95.65Y-59.65
X95.95Y-63.445
X96.325Y-69.55
X97.1Y-67.25
X97.475Y-65.425
X97.712Y-67.3
X97.85Y-66.535
X97.925Y-65.625
X98.175Y-58.675
X98.25Y-98.475
X98.275Y-63.125
X98.45Y-59.4
X98.655Y-63.49
X98.85Y-69.025
X98.9Y-59.95
X98.975Y-58.425
X98.975Y-63.05
X99.025Y-64.475
X99.125Y-69.75
X100.1Y-66.475
X100.175Y-64.5
X101.25Y-70.85
X101.31Y-70.16
X101.525Y-74.575
X102.0Y-63.15
X102.04Y-67.2
X102.275Y-57.5
X103.2Y-71.85
X103.575Y-63.312
X103.587Y-61.275
X104.325Y-70.925
X104.612Y-61.075
X104.875Y-67.75
X104.925Y-67.225
X105.1Y-59.9
X105.55Y-59.75
X106.05Y-67.162
X106.375Y-59.587
X106.775Y-63.35
X106.825Y-65.0
X107.175Y-64.675
X107.4Y-68.2
X107.438Y-63.125
X107.587Y-61.137
X107.625Y-64.8
X107.925Y-68.175
X107.95Y-60.25
X108.225Y-70.95
X108.35Y-60.012
X108.475Y-65.513
X108.475Y-68.375
X108.775Y-69.975
X108.812Y-60.012
X109.04Y-72.49
X109.2Y-68.2
X109.35Y-60.025
X109.425Y-57.55
X109.675Y-68.125
X109.7Y-60.925
X109.85Y-60.025
X109.9Y-57.525
X110.175Y-61.2
X110.275Y-68.325
X110.575Y-64.3
X111.025Y-60.087
X111.2Y-68.35
X111.412Y-65.013
X111.975Y-60.025
X112.0Y-65.65
X112.037Y-62.612
X112.05Y-68.675
X112.1Y-70.425
X112.275Y-64.675
X112.45Y-70.825
X112.587Y-68.125
X112.6Y-60.5
X112.65Y-62.225
X112.8Y-63.787
X112.8Y-70.5
X112.835Y-72.67
X113.05Y-57.775
X113.1Y-60.55
X113.1Y-62.1
X113.188Y-67.412
X113.225Y-63.375
X113.225Y-64.875
X113.88Y-57.48
X114.825Y-66.575
X115.075Y-62.6
X115.1Y-57.5
X115.1Y-68.75
X115.15Y-66.225
X115.462Y-70.575
X115.537Y-62.625
X115.925Y-63.875
X116.0Y-62.1
X116.175Y-62.688
X116.312Y-73.2
X116.637Y-79.95
X116.645Y-58.335
X116.655Y-57.535
X116.885Y-60.675
X117.25Y-58.24
X117.32Y-60.89
X117.47Y-59.08
X117.625Y-66.675
X117.65Y-67.513
X118.075Y-66.925
X118.275Y-59.465
X118.69Y-60.295
X119.1Y-68.625
X119.775Y-59.3
X121.025Y-59.325
X121.376Y-60.669
X121.83Y-65.48
X121.83Y-65.937
X122.035Y-58.45
X122.09Y-57.478
X122.125Y-70.225
X122.25Y-62.54
X122.425Y-58.875
X122.53Y-58.425
X122.7Y-60.275
X122.825Y-68.975
X123.2Y-69.85
X123.38Y-63.84
X123.725Y-64.15
X123.83Y-58.37
X124.35Y-67.025
X124.5Y-61.125
X125.275Y-60.275
X125.475Y-61.075
X125.625Y-62.35
X125.645Y-67.2
X125.65Y-65.57
X126.2Y-60.275
X126.6Y-66.725
X126.665Y-67.305
X126.8Y-60.15
X126.8Y-61.125
X127.075Y-64.21
X127.12Y-58.47
X127.35Y-68.175
X127.4Y-63.85
X127.725Y-60.15
X127.725Y-63.475
X127.8Y-61.325
X127.9Y-58.69
X128.934Y-60.125
X129.055Y-65.255
X129.275Y-66.5
X129.55Y-58.45
X129.72Y-65.495
X129.85Y-64.975
X129.9Y-63.6
X129.925Y-64.475
X129.925Y-67.975
X130.2Y-61.05
X130.3Y-59.575
X130.3Y-62.7
X130.35Y-60.575
X130.5Y-61.875
X130.775Y-67.475
X131.05Y-61.225
X131.205Y-66.495
X131.425Y-63.262
X131.45Y-65.73
X131.461Y-67.676
X131.575Y-60.3
X131.65Y-62.05
X131.75Y-66.525
X131.78Y-61.56
X131.875Y-67.325
X131.9Y-63.175
X132.375Y-67.325
X132.487Y-63.1
X132.765Y-59.5
X132.85Y-60.275
X133.03Y-57.478
X133.225Y-62.85
X133.325Y-60.5
X133.338Y-105.438
X133.4Y-59.9
X133.825Y-60.575
X133.95Y-61.625
X134.025Y-62.55
X134.537Y-67.237
X134.7Y-57.58
X134.775Y-65.65
X134.8Y-59.875
X135.15Y-60.55
X135.45Y-59.825
X135.475Y-61.325
X135.6Y-62.85
X135.621Y-62.367
X135.725Y-59.325
X136.0Y-61.975
X136.662Y-57.669
X136.85Y-64.875
X137.1Y-66.65
X137.23Y-62.13
X137.3Y-57.55
X137.38Y-64.935
X137.44Y-64.485
X137.625Y-65.65
X137.66Y-66.565
X138.05Y-61.95
X138.125Y-59.15
X138.237Y-62.525
X138.25Y-64.625
X138.525Y-60.85
X138.575Y-60.35
X138.575Y-61.35
X138.588Y-59.112
X138.625Y-62.1
X138.65Y-62.875
X140.5Y-66.325
X140.65Y-60.8
X140.675Y-61.275
X140.9Y-61.7
X140.975Y-58.6
X141.05Y-60.55
X141.262Y-59.625
X141.45Y-62.875
X141.995Y-61.485
X142.5Y-60.4
X142.8Y-61.7
X142.875Y-62.9
X142.95Y-60.25
X143.125Y-64.225
X143.35Y-61.25
X143.45Y-62.525
X143.725Y-60.4
X144.225Y-60.5
X144.355Y-61.445
X144.665Y-64.82
X144.825Y-65.725
X145.025Y-65.275
X145.825Y-66.05
X146.825Y-60.925
X147.22Y-64.165
X147.35Y-63.725
X147.625Y-59.8
X147.75Y-64.1
X148.225Y-64.125
X148.875Y-62.95
X148.975Y-59.425
X151.1Y-62.35
X151.475Y-58.675
X151.9Y-59.25
X152.175Y-64.15
X152.6Y-62.4
X152.9Y-66.275
X153.1Y-60.6
X153.35Y-64.15
X153.963Y-60.012
X154.8Y-62.337
X155.11Y-65.9
X155.125Y-65.412
X156.55Y-66.75
X156.975Y-61.4
X157.45Y-63.3
X157.8Y-60.6
X158.95Y-63.6
X160.1Y-62.4
X163.35Y-64.1
X165.925Y-64.025
T2
X44.955Y-72.611
X45.811Y-72.102
X48.312Y-70.659
X48.353Y-69.139
X50.6Y-69.229
X51.271Y-63.3
X52.077Y-65.697
X52.77Y-63.081
X53.616Y-57.965
X53.894Y-65.492
X54.906Y-58.511
X55.347Y-65.492
X56.083Y-64.687
X56.135Y-59.924
X58.005Y-66.634
X58.977Y-58.421
X60.745Y-66.387
X61.124Y-61.968
X61.322Y-65.368
X61.499Y-58.507
X61.52Y-59.653
X64.65Y-59.025
X65.254Y-61.4
X65.618Y-66.118
X65.875Y-63.4
X67.413Y-65.291
X67.491Y-66.23
X68.755Y-61.584
X69.865Y-65.291
X70.972Y-61.777
X71.018Y-62.972
X71.474Y-61.449
X73.775Y-65.675
X74.45Y-65.675
X75.11Y-65.685
X75.744Y-59.397
X76.25Y-60.72
X77.798Y-61.89
X78.725Y-62.4
X78.828Y-61.264
X79.246Y-60.486
X79.254Y-58.907
X79.649Y-65.961
X80.412Y-65.935
X81.773Y-63.309
X82.568Y-65.889
X83.747Y-58.341
X84.49Y-60.407
X84.838Y-61.951
X84.912Y-66.601
X85.603Y-58.767
X88.87Y-60.401
X89.582Y-61.534
X90.222Y-58.868
X91.4Y-59.375
X92.425Y-62.25
X93.2Y-65.55
X93.35Y-63.325
X93.525Y-59.893
X94.243Y-62.888
X94.763Y-66.6
X94.825Y-60.1
X95.0Y-65.425
X95.35Y-62.7
X96.1Y-61.425
X96.675Y-63.35
X96.875Y-69.5
X98.36Y-69.361
X98.825Y-60.55
X99.282Y-62.076
X99.45Y-64.8
X100.125Y-69.125
X100.734Y-64.625
X100.931Y-71.609
X101.025Y-69.175
X101.088Y-73.825
X101.177Y-60.258
X101.25Y-57.625
X101.634Y-67.998
X101.667Y-69.161
X102.575Y-70.275
X102.9Y-61.15
X102.905Y-73.453
X103.147Y-67.318
X103.154Y-72.557
X103.222Y-64.616
X104.1Y-61.152
X104.666Y-62.405
X104.95Y-68.95
X108.325Y-72.475
X109.225Y-62.4
X109.541Y-71.173
X110.122Y-71.088
X111.1Y-61.475
X111.298Y-63.025
X111.559Y-72.615
X112.471Y-71.978
X113.15Y-71.925
X113.6Y-58.8
X113.741Y-68.349
X116.175Y-73.7
X116.548Y-68.602
X116.6Y-59.175
X117.096Y-72.609
X117.193Y-73.664
X118.025Y-60.75
X118.025Y-61.75
X118.025Y-62.75
X118.35Y-62.25
X118.35Y-63.25
X118.4Y-61.275
X118.8Y-89.987
X119.433Y-66.754
X119.584Y-68.407
X119.75Y-64.975
X120.25Y-59.025
X120.25Y-64.65
X120.75Y-64.975
X121.25Y-64.65
X121.469Y-67.503
X121.498Y-70.52
X121.75Y-59.35
X121.75Y-64.975
X121.895Y-66.748
X122.25Y-64.65
X123.65Y-60.75
X123.65Y-61.75
X123.65Y-62.75
X123.975Y-61.25
X123.975Y-62.25
X124.05Y-69.075
X124.497Y-67.783
X124.787Y-60.079
X125.116Y-61.664
X125.3Y-69.05
X126.736Y-65.071
X127.41Y-67.6
X129.494Y-67.243
X129.85Y-57.95
X130.252Y-65.492
X130.925Y-59.7
X132.94Y-67.327
X133.041Y-65.406
X133.666Y-65.447
X134.725Y-107.325
X135.675Y-65.375
X139.849Y-65.762
X140.3Y-64.525
X141.963Y-62.512
X142.15Y-65.3
X142.624Y-66.44
X144.005Y-62.504
X144.221Y-58.55
X146.484Y-60.09
X147.1Y-60.05
X147.508Y-65.778
X147.723Y-58.778
X147.739Y-63.008
X149.006Y-66.278
X149.039Y-58.737
X150.088Y-64.188
X151.182Y-65.91
X151.245Y-59.659
X151.248Y-62.921
X151.253Y-60.745
X151.713Y-106.825
X152.015Y-62.478
X154.1Y-66.358
X154.398Y-61.4
X154.41Y-60.292
X155.3Y-63.75
X156.975Y-63.575
X157.478Y-65.96
X158.425Y-63.7
X159.25Y-65.925
X159.45Y-104.925
X159.693Y-66.512
X163.344Y-64.65
X164.075Y-104.225
X164.228Y-67.224
X164.5Y-62.046
X165.482Y-66.942
X165.636Y-61.968
X166.051Y-65.298
X166.113Y-60.971
X167.169Y-66.05
X167.338Y-68.087
X168.475Y-101.95
X168.969Y-68.126
X169.275Y-65.375
X171.919Y-68.329
X172.4Y-71.95
X173.048Y-71.774
X174.24Y-71.882
X174.569Y-73.645
T3
X45.203Y-78.918
X46.536Y-87.489
X46.577Y-76.346
X47.695Y-91.743
X48.166Y-94.269
X49.75Y-96.25
X50.35Y-98.356
X55.636Y-104.907
X57.176Y-105.391
X60.15Y-106.5
X62.978Y-106.012
X65.299Y-105.947
X68.065Y-107.249
X80.85Y-106.7
X81.656Y-107.217
X85.75Y-106.1
X88.35Y-104.9
X88.562Y-105.976
X97.25Y-100.0
X97.324Y-99.156
X98.25Y-94.25
X98.871Y-94.714
X99.35Y-92.65
X101.927Y-74.189
X102.067Y-79.111
X102.79Y-76.602
X117.563Y-79.042
X117.655Y-76.541
X119.15Y-83.75
X119.196Y-60.135
X119.486Y-88.478
X120.085Y-92.585
X120.65Y-95.4
X121.688Y-97.631
X122.656Y-96.701
X123.432Y-60.219
X125.182Y-101.012
X131.302Y-105.384
X134.032Y-105.861
X137.4Y-107.75
X138.393Y-106.523
X154.1Y-105.8
X154.408Y-106.921
X158.75Y-105.6
X159.469Y-105.621
X164.942Y-104.794
X168.612Y-100.408
X169.398Y-101.026
X169.908Y-98.37
X171.464Y-94.143
X171.95Y-94.6
X172.326Y-91.183
X172.502Y-91.838
X174.261Y-78.958
M30
