%TF.GenerationSoftware,KiCad,Pcbnew,10.0.6*%
%TF.CreationDate,2026-09-18T17:44:18+08:00*%
%TF.ProjectId,ir_glasses_EVT_E6_F302_carrier,69725f67-6c61-4737-9365-735f4556545f,EVT E6*%
%TF.SameCoordinates,Original*%
%TF.FileFunction,Legend,Bot*%
%TF.FilePolarity,Positive*%
%FSLAX46Y46*%
G04 Gerber Fmt 4.6, Leading zero omitted, Abs format (unit mm)*
G04 Created by KiCad (PCBNEW 10.0.6) date 2026-09-18 17:44:18*
%MOMM*%
%LPD*%
G01*
G04 APERTURE LIST*
%ADD10C,0.150000*%
%ADD11C,0.120000*%
%ADD12C,2.000000*%
%ADD13C,0.990600*%
%ADD14C,1.000000*%
G04 APERTURE END LIST*
D10*
X80285714Y-61931009D02*
X79952381Y-61931009D01*
X79809524Y-62454819D02*
X80285714Y-62454819D01*
X80285714Y-62454819D02*
X80285714Y-61454819D01*
X80285714Y-61454819D02*
X79809524Y-61454819D01*
X78952381Y-61454819D02*
X79142857Y-61454819D01*
X79142857Y-61454819D02*
X79238095Y-61502438D01*
X79238095Y-61502438D02*
X79285714Y-61550057D01*
X79285714Y-61550057D02*
X79380952Y-61692914D01*
X79380952Y-61692914D02*
X79428571Y-61883390D01*
X79428571Y-61883390D02*
X79428571Y-62264342D01*
X79428571Y-62264342D02*
X79380952Y-62359580D01*
X79380952Y-62359580D02*
X79333333Y-62407200D01*
X79333333Y-62407200D02*
X79238095Y-62454819D01*
X79238095Y-62454819D02*
X79047619Y-62454819D01*
X79047619Y-62454819D02*
X78952381Y-62407200D01*
X78952381Y-62407200D02*
X78904762Y-62359580D01*
X78904762Y-62359580D02*
X78857143Y-62264342D01*
X78857143Y-62264342D02*
X78857143Y-62026247D01*
X78857143Y-62026247D02*
X78904762Y-61931009D01*
X78904762Y-61931009D02*
X78952381Y-61883390D01*
X78952381Y-61883390D02*
X79047619Y-61835771D01*
X79047619Y-61835771D02*
X79238095Y-61835771D01*
X79238095Y-61835771D02*
X79333333Y-61883390D01*
X79333333Y-61883390D02*
X79380952Y-61931009D01*
X79380952Y-61931009D02*
X79428571Y-62026247D01*
X77333333Y-61931009D02*
X77666666Y-61931009D01*
X77666666Y-62454819D02*
X77666666Y-61454819D01*
X77666666Y-61454819D02*
X77190476Y-61454819D01*
X76904761Y-61454819D02*
X76285714Y-61454819D01*
X76285714Y-61454819D02*
X76619047Y-61835771D01*
X76619047Y-61835771D02*
X76476190Y-61835771D01*
X76476190Y-61835771D02*
X76380952Y-61883390D01*
X76380952Y-61883390D02*
X76333333Y-61931009D01*
X76333333Y-61931009D02*
X76285714Y-62026247D01*
X76285714Y-62026247D02*
X76285714Y-62264342D01*
X76285714Y-62264342D02*
X76333333Y-62359580D01*
X76333333Y-62359580D02*
X76380952Y-62407200D01*
X76380952Y-62407200D02*
X76476190Y-62454819D01*
X76476190Y-62454819D02*
X76761904Y-62454819D01*
X76761904Y-62454819D02*
X76857142Y-62407200D01*
X76857142Y-62407200D02*
X76904761Y-62359580D01*
X75666666Y-61454819D02*
X75571428Y-61454819D01*
X75571428Y-61454819D02*
X75476190Y-61502438D01*
X75476190Y-61502438D02*
X75428571Y-61550057D01*
X75428571Y-61550057D02*
X75380952Y-61645295D01*
X75380952Y-61645295D02*
X75333333Y-61835771D01*
X75333333Y-61835771D02*
X75333333Y-62073866D01*
X75333333Y-62073866D02*
X75380952Y-62264342D01*
X75380952Y-62264342D02*
X75428571Y-62359580D01*
X75428571Y-62359580D02*
X75476190Y-62407200D01*
X75476190Y-62407200D02*
X75571428Y-62454819D01*
X75571428Y-62454819D02*
X75666666Y-62454819D01*
X75666666Y-62454819D02*
X75761904Y-62407200D01*
X75761904Y-62407200D02*
X75809523Y-62359580D01*
X75809523Y-62359580D02*
X75857142Y-62264342D01*
X75857142Y-62264342D02*
X75904761Y-62073866D01*
X75904761Y-62073866D02*
X75904761Y-61835771D01*
X75904761Y-61835771D02*
X75857142Y-61645295D01*
X75857142Y-61645295D02*
X75809523Y-61550057D01*
X75809523Y-61550057D02*
X75761904Y-61502438D01*
X75761904Y-61502438D02*
X75666666Y-61454819D01*
X74952380Y-61550057D02*
X74904761Y-61502438D01*
X74904761Y-61502438D02*
X74809523Y-61454819D01*
X74809523Y-61454819D02*
X74571428Y-61454819D01*
X74571428Y-61454819D02*
X74476190Y-61502438D01*
X74476190Y-61502438D02*
X74428571Y-61550057D01*
X74428571Y-61550057D02*
X74380952Y-61645295D01*
X74380952Y-61645295D02*
X74380952Y-61740533D01*
X74380952Y-61740533D02*
X74428571Y-61883390D01*
X74428571Y-61883390D02*
X74999999Y-62454819D01*
X74999999Y-62454819D02*
X74380952Y-62454819D01*
X72619047Y-62454819D02*
X72952380Y-61978628D01*
X73190475Y-62454819D02*
X73190475Y-61454819D01*
X73190475Y-61454819D02*
X72809523Y-61454819D01*
X72809523Y-61454819D02*
X72714285Y-61502438D01*
X72714285Y-61502438D02*
X72666666Y-61550057D01*
X72666666Y-61550057D02*
X72619047Y-61645295D01*
X72619047Y-61645295D02*
X72619047Y-61788152D01*
X72619047Y-61788152D02*
X72666666Y-61883390D01*
X72666666Y-61883390D02*
X72714285Y-61931009D01*
X72714285Y-61931009D02*
X72809523Y-61978628D01*
X72809523Y-61978628D02*
X73190475Y-61978628D01*
X72238094Y-61550057D02*
X72190475Y-61502438D01*
X72190475Y-61502438D02*
X72095237Y-61454819D01*
X72095237Y-61454819D02*
X71857142Y-61454819D01*
X71857142Y-61454819D02*
X71761904Y-61502438D01*
X71761904Y-61502438D02*
X71714285Y-61550057D01*
X71714285Y-61550057D02*
X71666666Y-61645295D01*
X71666666Y-61645295D02*
X71666666Y-61740533D01*
X71666666Y-61740533D02*
X71714285Y-61883390D01*
X71714285Y-61883390D02*
X72285713Y-62454819D01*
X72285713Y-62454819D02*
X71666666Y-62454819D01*
%TO.C,TP11*%
D11*
X110400000Y-70300000D02*
G75*
G02*
X109000000Y-70300000I-700000J0D01*
G01*
X109000000Y-70300000D02*
G75*
G02*
X110400000Y-70300000I700000J0D01*
G01*
%TO.C,TP2*%
X100950000Y-58300000D02*
G75*
G02*
X99550000Y-58300000I-700000J0D01*
G01*
X99550000Y-58300000D02*
G75*
G02*
X100950000Y-58300000I700000J0D01*
G01*
%TO.C,TP9*%
X124950000Y-59350000D02*
G75*
G02*
X123550000Y-59350000I-700000J0D01*
G01*
X123550000Y-59350000D02*
G75*
G02*
X124950000Y-59350000I700000J0D01*
G01*
%TO.C,TP7*%
X118450000Y-65800000D02*
G75*
G02*
X117050000Y-65800000I-700000J0D01*
G01*
X117050000Y-65800000D02*
G75*
G02*
X118450000Y-65800000I700000J0D01*
G01*
%TO.C,TP4*%
X101700000Y-62800000D02*
G75*
G02*
X100300000Y-62800000I-700000J0D01*
G01*
X100300000Y-62800000D02*
G75*
G02*
X101700000Y-62800000I700000J0D01*
G01*
%TO.C,TP3*%
X100950000Y-60550000D02*
G75*
G02*
X99550000Y-60550000I-700000J0D01*
G01*
X99550000Y-60550000D02*
G75*
G02*
X100950000Y-60550000I700000J0D01*
G01*
%TO.C,TP6*%
X117200000Y-63300000D02*
G75*
G02*
X115800000Y-63300000I-700000J0D01*
G01*
X115800000Y-63300000D02*
G75*
G02*
X117200000Y-63300000I700000J0D01*
G01*
%TO.C,TP5*%
X102950000Y-65050000D02*
G75*
G02*
X101550000Y-65050000I-700000J0D01*
G01*
X101550000Y-65050000D02*
G75*
G02*
X102950000Y-65050000I700000J0D01*
G01*
%TO.C,TP1*%
X94700000Y-66050000D02*
G75*
G02*
X93300000Y-66050000I-700000J0D01*
G01*
X93300000Y-66050000D02*
G75*
G02*
X94700000Y-66050000I700000J0D01*
G01*
%TO.C,TP8*%
X118950000Y-68050000D02*
G75*
G02*
X117550000Y-68050000I-700000J0D01*
G01*
X117550000Y-68050000D02*
G75*
G02*
X118950000Y-68050000I700000J0D01*
G01*
%TO.C,TP12*%
X144450000Y-65550000D02*
G75*
G02*
X143050000Y-65550000I-700000J0D01*
G01*
X143050000Y-65550000D02*
G75*
G02*
X144450000Y-65550000I700000J0D01*
G01*
%TO.C,TP10*%
X136600000Y-64350000D02*
G75*
G02*
X135200000Y-64350000I-700000J0D01*
G01*
X135200000Y-64350000D02*
G75*
G02*
X136600000Y-64350000I700000J0D01*
G01*
%TD*%
%LPC*%
D12*
%TO.C,H1*%
X37849412Y-51000000D03*
%TD*%
D13*
%TO.C,J2*%
X51690000Y-61000000D03*
X59310000Y-59984000D03*
X59310000Y-62016000D03*
%TD*%
D12*
%TO.C,H2*%
X182154557Y-51000000D03*
%TD*%
%TO.C,H3*%
X37849412Y-114955476D03*
%TD*%
%TO.C,H4*%
X182154557Y-114955476D03*
%TD*%
D14*
%TO.C,TP11*%
X109700000Y-70300000D03*
%TD*%
%TO.C,TP2*%
X100250000Y-58300000D03*
%TD*%
%TO.C,TP9*%
X124250000Y-59350000D03*
%TD*%
%TO.C,TP7*%
X117750000Y-65800000D03*
%TD*%
%TO.C,TP4*%
X101000000Y-62800000D03*
%TD*%
%TO.C,TP3*%
X100250000Y-60550000D03*
%TD*%
%TO.C,TP6*%
X116500000Y-63300000D03*
%TD*%
%TO.C,TP5*%
X102250000Y-65050000D03*
%TD*%
%TO.C,TP1*%
X94000000Y-66050000D03*
%TD*%
%TO.C,TP8*%
X118250000Y-68050000D03*
%TD*%
%TO.C,TP12*%
X143750000Y-65550000D03*
%TD*%
%TO.C,TP10*%
X135900000Y-64350000D03*
%TD*%
%LPD*%
M02*
