%TF.GenerationSoftware,KiCad,Pcbnew,10.0.6*%
%TF.CreationDate,2026-09-06T06:02:08+08:00*%
%TF.ProjectId,ir_glasses,69725f67-6c61-4737-9365-732e6b696361,rev?*%
%TF.SameCoordinates,Original*%
%TF.FileFunction,Paste,Top*%
%TF.FilePolarity,Positive*%
%FSLAX46Y46*%
G04 Gerber Fmt 4.6, Leading zero omitted, Abs format (unit mm)*
G04 Created by KiCad (PCBNEW 10.0.6) date 2026-09-06 06:02:08*
%MOMM*%
%LPD*%
G01*
G04 APERTURE LIST*
G04 Aperture macros list*
%AMRoundRect*
0 Rectangle with rounded corners*
0 $1 Rounding radius*
0 $2 $3 $4 $5 $6 $7 $8 $9 X,Y pos of 4 corners*
0 Add a 4 corners polygon primitive as box body*
4,1,4,$2,$3,$4,$5,$6,$7,$8,$9,$2,$3,0*
0 Add four circle primitives for the rounded corners*
1,1,$1+$1,$2,$3*
1,1,$1+$1,$4,$5*
1,1,$1+$1,$6,$7*
1,1,$1+$1,$8,$9*
0 Add four rect primitives between the rounded corners*
20,1,$1+$1,$2,$3,$4,$5,0*
20,1,$1+$1,$4,$5,$6,$7,0*
20,1,$1+$1,$6,$7,$8,$9,0*
20,1,$1+$1,$8,$9,$2,$3,0*%
G04 Aperture macros list end*
%ADD10RoundRect,0.135000X-0.135000X-0.185000X0.135000X-0.185000X0.135000X0.185000X-0.135000X0.185000X0*%
%ADD11RoundRect,0.140000X-0.140000X-0.170000X0.140000X-0.170000X0.140000X0.170000X-0.140000X0.170000X0*%
%ADD12R,1.200000X1.000000*%
%ADD13RoundRect,0.150000X-0.512500X-0.150000X0.512500X-0.150000X0.512500X0.150000X-0.512500X0.150000X0*%
%ADD14RoundRect,0.150000X-0.825000X-0.150000X0.825000X-0.150000X0.825000X0.150000X-0.825000X0.150000X0*%
%ADD15RoundRect,0.112500X-0.187500X-0.112500X0.187500X-0.112500X0.187500X0.112500X-0.187500X0.112500X0*%
%ADD16RoundRect,0.100000X-0.637500X-0.100000X0.637500X-0.100000X0.637500X0.100000X-0.637500X0.100000X0*%
%ADD17RoundRect,0.150000X-0.587500X-0.150000X0.587500X-0.150000X0.587500X0.150000X-0.587500X0.150000X0*%
%ADD18R,0.900000X1.300000*%
%ADD19RoundRect,0.250000X-0.325000X-1.100000X0.325000X-1.100000X0.325000X1.100000X-0.325000X1.100000X0*%
%ADD20RoundRect,0.225000X-0.225000X-0.250000X0.225000X-0.250000X0.225000X0.250000X-0.225000X0.250000X0*%
%ADD21RoundRect,0.087500X-0.225000X-0.087500X0.225000X-0.087500X0.225000X0.087500X-0.225000X0.087500X0*%
%ADD22RoundRect,0.087500X-0.087500X-0.225000X0.087500X-0.225000X0.087500X0.225000X-0.087500X0.225000X0*%
%ADD23RoundRect,0.212500X-0.212500X-0.212500X0.212500X-0.212500X0.212500X0.212500X-0.212500X0.212500X0*%
%ADD24RoundRect,0.062500X-0.375000X-0.062500X0.375000X-0.062500X0.375000X0.062500X-0.375000X0.062500X0*%
%ADD25RoundRect,0.062500X-0.062500X-0.375000X0.062500X-0.375000X0.062500X0.375000X-0.062500X0.375000X0*%
%ADD26R,0.300000X1.100000*%
%ADD27R,2.300000X3.100000*%
%ADD28RoundRect,0.218750X-0.218750X-0.256250X0.218750X-0.256250X0.218750X0.256250X-0.218750X0.256250X0*%
%ADD29RoundRect,0.075000X-0.662500X-0.075000X0.662500X-0.075000X0.662500X0.075000X-0.662500X0.075000X0*%
%ADD30RoundRect,0.075000X-0.075000X-0.662500X0.075000X-0.662500X0.075000X0.662500X-0.075000X0.662500X0*%
G04 APERTURE END LIST*
D10*
%TO.C,R5*%
X116990000Y-58000000D03*
X118010000Y-58000000D03*
%TD*%
D11*
%TO.C,CF10*%
X143320000Y-57600000D03*
X144280000Y-57600000D03*
%TD*%
%TO.C,CF12*%
X153720000Y-57600000D03*
X154680000Y-57600000D03*
%TD*%
D12*
%TO.C,PD10*%
X134350000Y-61300000D03*
X137650000Y-61300000D03*
X137650000Y-62700000D03*
X134350000Y-62700000D03*
%TD*%
D10*
%TO.C,R2*%
X93490000Y-50000000D03*
X94510000Y-50000000D03*
%TD*%
D13*
%TO.C,U6*%
X95862500Y-51050000D03*
X95862500Y-52000000D03*
X95862500Y-52950000D03*
X98137500Y-52950000D03*
X98137500Y-51050000D03*
%TD*%
D14*
%TO.C,U5*%
X146525000Y-113190000D03*
X146525000Y-114460000D03*
X146525000Y-115730000D03*
X146525000Y-117000000D03*
X146525000Y-118270000D03*
X146525000Y-119540000D03*
X146525000Y-120810000D03*
X151475000Y-120810000D03*
X151475000Y-119540000D03*
X151475000Y-118270000D03*
X151475000Y-117000000D03*
X151475000Y-115730000D03*
X151475000Y-114460000D03*
X151475000Y-113190000D03*
%TD*%
D15*
%TO.C,D17*%
X139950000Y-47000000D03*
X142050000Y-47000000D03*
%TD*%
D16*
%TO.C,U7*%
X102637500Y-105725000D03*
X102637500Y-106375000D03*
X102637500Y-107025000D03*
X102637500Y-107675000D03*
X102637500Y-108325000D03*
X102637500Y-108975000D03*
X102637500Y-109625000D03*
X102637500Y-110275000D03*
X108362500Y-110275000D03*
X108362500Y-109625000D03*
X108362500Y-108975000D03*
X108362500Y-108325000D03*
X108362500Y-107675000D03*
X108362500Y-107025000D03*
X108362500Y-106375000D03*
X108362500Y-105725000D03*
%TD*%
D12*
%TO.C,PD7*%
X81350000Y-107300000D03*
X84650000Y-107300000D03*
X84650000Y-108700000D03*
X81350000Y-108700000D03*
%TD*%
D11*
%TO.C,C16*%
X109520000Y-64000000D03*
X110480000Y-64000000D03*
%TD*%
D17*
%TO.C,U11*%
X126062500Y-58050000D03*
X126062500Y-59950000D03*
X127937500Y-59000000D03*
%TD*%
D11*
%TO.C,C17*%
X116520000Y-52000000D03*
X117480000Y-52000000D03*
%TD*%
%TO.C,CF14*%
X143320000Y-120600000D03*
X144280000Y-120600000D03*
%TD*%
D18*
%TO.C,D13*%
X177250000Y-97500000D03*
X174750000Y-97500000D03*
%TD*%
D19*
%TO.C,C28*%
X114525000Y-65000000D03*
X117475000Y-65000000D03*
%TD*%
D18*
%TO.C,D2*%
X85250000Y-58500000D03*
X82750000Y-58500000D03*
%TD*%
D20*
%TO.C,C27*%
X92225000Y-61000000D03*
X93775000Y-61000000D03*
%TD*%
D12*
%TO.C,PD9*%
X118350000Y-71300000D03*
X121650000Y-71300000D03*
X121650000Y-72700000D03*
X118350000Y-72700000D03*
%TD*%
D10*
%TO.C,RF13*%
X143290000Y-113900000D03*
X144310000Y-113900000D03*
%TD*%
D11*
%TO.C,C24*%
X139520000Y-60000000D03*
X140480000Y-60000000D03*
%TD*%
%TO.C,CF7*%
X75720000Y-115500000D03*
X76680000Y-115500000D03*
%TD*%
D12*
%TO.C,PD14*%
X158350000Y-107300000D03*
X161650000Y-107300000D03*
X161650000Y-108700000D03*
X158350000Y-108700000D03*
%TD*%
D21*
%TO.C,U10*%
X120837500Y-51250000D03*
X120837500Y-51750000D03*
X120837500Y-52250000D03*
X120837500Y-52750000D03*
D22*
X121500000Y-52912500D03*
X122000000Y-52912500D03*
X122500000Y-52912500D03*
D21*
X123162500Y-52750000D03*
X123162500Y-52250000D03*
X123162500Y-51750000D03*
X123162500Y-51250000D03*
D22*
X122500000Y-51087500D03*
X122000000Y-51087500D03*
X121500000Y-51087500D03*
%TD*%
D18*
%TO.C,D11*%
X158250000Y-59500000D03*
X155750000Y-59500000D03*
%TD*%
D11*
%TO.C,CF6*%
X65320000Y-120600000D03*
X66280000Y-120600000D03*
%TD*%
%TO.C,CF5*%
X65320000Y-115500000D03*
X66280000Y-115500000D03*
%TD*%
D12*
%TO.C,PD1*%
X98350000Y-71300000D03*
X101650000Y-71300000D03*
X101650000Y-72700000D03*
X98350000Y-72700000D03*
%TD*%
D11*
%TO.C,C22*%
X70520000Y-60500000D03*
X71480000Y-60500000D03*
%TD*%
D10*
%TO.C,R6*%
X119490000Y-49000000D03*
X120510000Y-49000000D03*
%TD*%
D11*
%TO.C,C4*%
X65720000Y-117000000D03*
X66680000Y-117000000D03*
%TD*%
D12*
%TO.C,PD12*%
X171350000Y-72300000D03*
X174650000Y-72300000D03*
X174650000Y-73700000D03*
X171350000Y-73700000D03*
%TD*%
D18*
%TO.C,D8*%
X106250000Y-97500000D03*
X103750000Y-97500000D03*
%TD*%
D10*
%TO.C,RF12*%
X153690000Y-56000000D03*
X154710000Y-56000000D03*
%TD*%
D23*
%TO.C,U1*%
X109475000Y-70475000D03*
X109475000Y-71525000D03*
X110525000Y-70475000D03*
X110525000Y-71525000D03*
D24*
X108062500Y-69750000D03*
X108062500Y-70250000D03*
X108062500Y-70750000D03*
X108062500Y-71250000D03*
X108062500Y-71750000D03*
X108062500Y-72250000D03*
D25*
X108750000Y-72937500D03*
X109250000Y-72937500D03*
X109750000Y-72937500D03*
X110250000Y-72937500D03*
X110750000Y-72937500D03*
X111250000Y-72937500D03*
D24*
X111937500Y-72250000D03*
X111937500Y-71750000D03*
X111937500Y-71250000D03*
X111937500Y-70750000D03*
X111937500Y-70250000D03*
X111937500Y-69750000D03*
D25*
X111250000Y-69062500D03*
X110750000Y-69062500D03*
X110250000Y-69062500D03*
X109750000Y-69062500D03*
X109250000Y-69062500D03*
X108750000Y-69062500D03*
%TD*%
D11*
%TO.C,C19*%
X107520000Y-48000000D03*
X108480000Y-48000000D03*
%TD*%
%TO.C,C15*%
X90520000Y-58000000D03*
X91480000Y-58000000D03*
%TD*%
D10*
%TO.C,RF4*%
X75690000Y-56000000D03*
X76710000Y-56000000D03*
%TD*%
D11*
%TO.C,C14*%
X138520000Y-56000000D03*
X139480000Y-56000000D03*
%TD*%
D12*
%TO.C,PD5*%
X42350000Y-93300000D03*
X45650000Y-93300000D03*
X45650000Y-94700000D03*
X42350000Y-94700000D03*
%TD*%
D11*
%TO.C,C8*%
X108520000Y-103500000D03*
X109480000Y-103500000D03*
%TD*%
D18*
%TO.C,D9*%
X121250000Y-68500000D03*
X118750000Y-68500000D03*
%TD*%
D12*
%TO.C,PD4*%
X45350000Y-72300000D03*
X48650000Y-72300000D03*
X48650000Y-73700000D03*
X45350000Y-73700000D03*
%TD*%
D10*
%TO.C,RF3*%
X75690000Y-50900000D03*
X76710000Y-50900000D03*
%TD*%
%TO.C,RF1*%
X65290000Y-50900000D03*
X66310000Y-50900000D03*
%TD*%
D12*
%TO.C,PD3*%
X61350000Y-62300000D03*
X64650000Y-62300000D03*
X64650000Y-63700000D03*
X61350000Y-63700000D03*
%TD*%
D26*
%TO.C,J1*%
X134000000Y-49650000D03*
X134500000Y-49650000D03*
X135000000Y-49650000D03*
X135500000Y-49650000D03*
X136000000Y-49650000D03*
D27*
X132330000Y-51350000D03*
X137670000Y-51350000D03*
%TD*%
D10*
%TO.C,RF2*%
X65290000Y-56000000D03*
X66310000Y-56000000D03*
%TD*%
D11*
%TO.C,C5*%
X143720000Y-54000000D03*
X144680000Y-54000000D03*
%TD*%
D10*
%TO.C,RF7*%
X75690000Y-113900000D03*
X76710000Y-113900000D03*
%TD*%
D18*
%TO.C,D5*%
X45250000Y-97500000D03*
X42750000Y-97500000D03*
%TD*%
D12*
%TO.C,PD11*%
X155350000Y-62300000D03*
X158650000Y-62300000D03*
X158650000Y-63700000D03*
X155350000Y-63700000D03*
%TD*%
D11*
%TO.C,C3*%
X65720000Y-54000000D03*
X66680000Y-54000000D03*
%TD*%
%TO.C,C29*%
X104520000Y-85000000D03*
X105480000Y-85000000D03*
%TD*%
%TO.C,C1*%
X90520000Y-53000000D03*
X91480000Y-53000000D03*
%TD*%
D10*
%TO.C,RF10*%
X143290000Y-56000000D03*
X144310000Y-56000000D03*
%TD*%
D11*
%TO.C,C21*%
X96520000Y-61000000D03*
X97480000Y-61000000D03*
%TD*%
D18*
%TO.C,D6*%
X61250000Y-111500000D03*
X58750000Y-111500000D03*
%TD*%
D11*
%TO.C,CF1*%
X65320000Y-52500000D03*
X66280000Y-52500000D03*
%TD*%
%TO.C,CF9*%
X143320000Y-52500000D03*
X144280000Y-52500000D03*
%TD*%
D12*
%TO.C,PD16*%
X113350000Y-93300000D03*
X116650000Y-93300000D03*
X116650000Y-94700000D03*
X113350000Y-94700000D03*
%TD*%
D11*
%TO.C,C31*%
X93520000Y-57000000D03*
X94480000Y-57000000D03*
%TD*%
D10*
%TO.C,R1*%
X105990000Y-74000000D03*
X107010000Y-74000000D03*
%TD*%
D11*
%TO.C,CF13*%
X143320000Y-115500000D03*
X144280000Y-115500000D03*
%TD*%
%TO.C,C11*%
X102720000Y-57000000D03*
X103680000Y-57000000D03*
%TD*%
%TO.C,CF4*%
X75720000Y-57600000D03*
X76680000Y-57600000D03*
%TD*%
%TO.C,C18*%
X111520000Y-62000000D03*
X112480000Y-62000000D03*
%TD*%
D14*
%TO.C,U2*%
X68525000Y-50190000D03*
X68525000Y-51460000D03*
X68525000Y-52730000D03*
X68525000Y-54000000D03*
X68525000Y-55270000D03*
X68525000Y-56540000D03*
X68525000Y-57810000D03*
X73475000Y-57810000D03*
X73475000Y-56540000D03*
X73475000Y-55270000D03*
X73475000Y-54000000D03*
X73475000Y-52730000D03*
X73475000Y-51460000D03*
X73475000Y-50190000D03*
%TD*%
D18*
%TO.C,D12*%
X174250000Y-69500000D03*
X171750000Y-69500000D03*
%TD*%
D11*
%TO.C,CF3*%
X75720000Y-52500000D03*
X76680000Y-52500000D03*
%TD*%
%TO.C,CF8*%
X75720000Y-120600000D03*
X76680000Y-120600000D03*
%TD*%
D10*
%TO.C,R10*%
X113490000Y-69000000D03*
X114510000Y-69000000D03*
%TD*%
D12*
%TO.C,PD2*%
X82350000Y-61300000D03*
X85650000Y-61300000D03*
X85650000Y-62700000D03*
X82350000Y-62700000D03*
%TD*%
D10*
%TO.C,R7*%
X122490000Y-49000000D03*
X123510000Y-49000000D03*
%TD*%
%TO.C,R13*%
X96490000Y-56000000D03*
X97510000Y-56000000D03*
%TD*%
D16*
%TO.C,U8*%
X111637500Y-105725000D03*
X111637500Y-106375000D03*
X111637500Y-107025000D03*
X111637500Y-107675000D03*
X111637500Y-108325000D03*
X111637500Y-108975000D03*
X111637500Y-109625000D03*
X111637500Y-110275000D03*
X117362500Y-110275000D03*
X117362500Y-109625000D03*
X117362500Y-108975000D03*
X117362500Y-108325000D03*
X117362500Y-107675000D03*
X117362500Y-107025000D03*
X117362500Y-106375000D03*
X117362500Y-105725000D03*
%TD*%
D18*
%TO.C,D4*%
X48250000Y-69500000D03*
X45750000Y-69500000D03*
%TD*%
%TO.C,D1*%
X101250000Y-68500000D03*
X98750000Y-68500000D03*
%TD*%
D20*
%TO.C,C25*%
X144225000Y-47000000D03*
X145775000Y-47000000D03*
%TD*%
D18*
%TO.C,D7*%
X84250000Y-111500000D03*
X81750000Y-111500000D03*
%TD*%
D11*
%TO.C,C7*%
X99520000Y-51000000D03*
X100480000Y-51000000D03*
%TD*%
D12*
%TO.C,PD8*%
X103350000Y-93300000D03*
X106650000Y-93300000D03*
X106650000Y-94700000D03*
X103350000Y-94700000D03*
%TD*%
D11*
%TO.C,C9*%
X117520000Y-103500000D03*
X118480000Y-103500000D03*
%TD*%
D18*
%TO.C,D15*%
X138250000Y-111500000D03*
X135750000Y-111500000D03*
%TD*%
D12*
%TO.C,PD15*%
X135350000Y-107300000D03*
X138650000Y-107300000D03*
X138650000Y-108700000D03*
X135350000Y-108700000D03*
%TD*%
D11*
%TO.C,C13*%
X119520000Y-55000000D03*
X120480000Y-55000000D03*
%TD*%
D20*
%TO.C,C26*%
X113225000Y-74000000D03*
X114775000Y-74000000D03*
%TD*%
D18*
%TO.C,D16*%
X116250000Y-97500000D03*
X113750000Y-97500000D03*
%TD*%
D11*
%TO.C,C23*%
X148520000Y-60500000D03*
X149480000Y-60500000D03*
%TD*%
%TO.C,C20*%
X125520000Y-50000000D03*
X126480000Y-50000000D03*
%TD*%
D18*
%TO.C,D3*%
X64250000Y-59500000D03*
X61750000Y-59500000D03*
%TD*%
%TO.C,D14*%
X161250000Y-111500000D03*
X158750000Y-111500000D03*
%TD*%
D10*
%TO.C,R12*%
X114490000Y-82000000D03*
X115510000Y-82000000D03*
%TD*%
D11*
%TO.C,C10*%
X102720000Y-55000000D03*
X103680000Y-55000000D03*
%TD*%
%TO.C,CF11*%
X153720000Y-52500000D03*
X154680000Y-52500000D03*
%TD*%
D12*
%TO.C,PD13*%
X174350000Y-93300000D03*
X177650000Y-93300000D03*
X177650000Y-94700000D03*
X174350000Y-94700000D03*
%TD*%
D10*
%TO.C,RF14*%
X143290000Y-119000000D03*
X144310000Y-119000000D03*
%TD*%
%TO.C,R3*%
X93490000Y-54000000D03*
X94510000Y-54000000D03*
%TD*%
D14*
%TO.C,U4*%
X146525000Y-50190000D03*
X146525000Y-51460000D03*
X146525000Y-52730000D03*
X146525000Y-54000000D03*
X146525000Y-55270000D03*
X146525000Y-56540000D03*
X146525000Y-57810000D03*
X151475000Y-57810000D03*
X151475000Y-56540000D03*
X151475000Y-55270000D03*
X151475000Y-54000000D03*
X151475000Y-52730000D03*
X151475000Y-51460000D03*
X151475000Y-50190000D03*
%TD*%
D10*
%TO.C,RF9*%
X143290000Y-50900000D03*
X144310000Y-50900000D03*
%TD*%
%TO.C,R11*%
X104490000Y-82000000D03*
X105510000Y-82000000D03*
%TD*%
%TO.C,RF5*%
X65290000Y-113900000D03*
X66310000Y-113900000D03*
%TD*%
D11*
%TO.C,CF15*%
X153720000Y-115500000D03*
X154680000Y-115500000D03*
%TD*%
D10*
%TO.C,R9*%
X130490000Y-61000000D03*
X131510000Y-61000000D03*
%TD*%
%TO.C,R4*%
X100490000Y-54000000D03*
X101510000Y-54000000D03*
%TD*%
D11*
%TO.C,C2*%
X110520000Y-67000000D03*
X111480000Y-67000000D03*
%TD*%
D28*
%TO.C,FB1*%
X99212500Y-60000000D03*
X100787500Y-60000000D03*
%TD*%
D12*
%TO.C,PD6*%
X58350000Y-107300000D03*
X61650000Y-107300000D03*
X61650000Y-108700000D03*
X58350000Y-108700000D03*
%TD*%
D10*
%TO.C,RF8*%
X75690000Y-119000000D03*
X76710000Y-119000000D03*
%TD*%
D18*
%TO.C,D10*%
X137250000Y-58500000D03*
X134750000Y-58500000D03*
%TD*%
D14*
%TO.C,U3*%
X68525000Y-113190000D03*
X68525000Y-114460000D03*
X68525000Y-115730000D03*
X68525000Y-117000000D03*
X68525000Y-118270000D03*
X68525000Y-119540000D03*
X68525000Y-120810000D03*
X73475000Y-120810000D03*
X73475000Y-119540000D03*
X73475000Y-118270000D03*
X73475000Y-117000000D03*
X73475000Y-115730000D03*
X73475000Y-114460000D03*
X73475000Y-113190000D03*
%TD*%
D29*
%TO.C,U9*%
X105837500Y-52250000D03*
X105837500Y-52750000D03*
X105837500Y-53250000D03*
X105837500Y-53750000D03*
X105837500Y-54250000D03*
X105837500Y-54750000D03*
X105837500Y-55250000D03*
X105837500Y-55750000D03*
X105837500Y-56250000D03*
X105837500Y-56750000D03*
X105837500Y-57250000D03*
X105837500Y-57750000D03*
D30*
X107250000Y-59162500D03*
X107750000Y-59162500D03*
X108250000Y-59162500D03*
X108750000Y-59162500D03*
X109250000Y-59162500D03*
X109750000Y-59162500D03*
X110250000Y-59162500D03*
X110750000Y-59162500D03*
X111250000Y-59162500D03*
X111750000Y-59162500D03*
X112250000Y-59162500D03*
X112750000Y-59162500D03*
D29*
X114162500Y-57750000D03*
X114162500Y-57250000D03*
X114162500Y-56750000D03*
X114162500Y-56250000D03*
X114162500Y-55750000D03*
X114162500Y-55250000D03*
X114162500Y-54750000D03*
X114162500Y-54250000D03*
X114162500Y-53750000D03*
X114162500Y-53250000D03*
X114162500Y-52750000D03*
X114162500Y-52250000D03*
D30*
X112750000Y-50837500D03*
X112250000Y-50837500D03*
X111750000Y-50837500D03*
X111250000Y-50837500D03*
X110750000Y-50837500D03*
X110250000Y-50837500D03*
X109750000Y-50837500D03*
X109250000Y-50837500D03*
X108750000Y-50837500D03*
X108250000Y-50837500D03*
X107750000Y-50837500D03*
X107250000Y-50837500D03*
%TD*%
D10*
%TO.C,RF16*%
X153690000Y-119000000D03*
X154710000Y-119000000D03*
%TD*%
D11*
%TO.C,C6*%
X143720000Y-117000000D03*
X144680000Y-117000000D03*
%TD*%
%TO.C,CF16*%
X153720000Y-120600000D03*
X154680000Y-120600000D03*
%TD*%
D10*
%TO.C,R8*%
X130490000Y-58000000D03*
X131510000Y-58000000D03*
%TD*%
D11*
%TO.C,C12*%
X124520000Y-53000000D03*
X125480000Y-53000000D03*
%TD*%
%TO.C,C30*%
X114520000Y-85000000D03*
X115480000Y-85000000D03*
%TD*%
D10*
%TO.C,RF6*%
X65290000Y-119000000D03*
X66310000Y-119000000D03*
%TD*%
%TO.C,RF11*%
X153690000Y-50900000D03*
X154710000Y-50900000D03*
%TD*%
D11*
%TO.C,CF2*%
X65320000Y-57600000D03*
X66280000Y-57600000D03*
%TD*%
D10*
%TO.C,RF15*%
X153690000Y-113900000D03*
X154710000Y-113900000D03*
%TD*%
M02*
