%TF.GenerationSoftware,KiCad,Pcbnew,10.0.6*%
%TF.CreationDate,2026-09-06T06:02:08+08:00*%
%TF.ProjectId,ir_glasses,69725f67-6c61-4737-9365-732e6b696361,rev?*%
%TF.SameCoordinates,Original*%
%TF.FileFunction,Copper,L2,Bot*%
%TF.FilePolarity,Positive*%
%FSLAX46Y46*%
G04 Gerber Fmt 4.6, Leading zero omitted, Abs format (unit mm)*
G04 Created by KiCad (PCBNEW 10.0.6) date 2026-09-06 06:02:08*
%MOMM*%
%LPD*%
G01*
G04 APERTURE LIST*
%TA.AperFunction,ViaPad*%
%ADD10C,0.600000*%
%TD*%
%TA.AperFunction,Conductor*%
%ADD11C,0.150000*%
%TD*%
G04 APERTURE END LIST*
D10*
%TO.N,SWCLK_BOOT0*%
X109770300Y-52250000D03*
X109323200Y-46676800D03*
%TO.N,GND*%
X115476600Y-67000000D03*
X114902500Y-73061400D03*
X119397100Y-59000000D03*
%TO.N,TIA10*%
X140013500Y-58398300D03*
X118775700Y-106682400D03*
%TO.N,TIA12*%
X149467600Y-57187700D03*
X119307300Y-107285000D03*
%TO.N,AGND*%
X95219100Y-56951000D03*
X72043200Y-117000000D03*
X94327700Y-60100100D03*
X97172500Y-50035900D03*
X74143800Y-106936600D03*
X115368000Y-111912500D03*
X114783800Y-109766600D03*
%TO.N,3V3_A*%
X107027400Y-54274700D03*
X101854500Y-60000000D03*
X70662200Y-117000000D03*
X115186000Y-105829900D03*
X118186100Y-45143100D03*
X97282900Y-61762900D03*
X86328900Y-57259200D03*
X71319000Y-53642800D03*
X106633800Y-105725000D03*
%TO.N,PD_IN13*%
X174350000Y-95656400D03*
X150016900Y-114460000D03*
%TO.N,VREF_1V65*%
X95786100Y-62480000D03*
X105182600Y-118270000D03*
X148681800Y-115730000D03*
X148685700Y-55270000D03*
X148878800Y-118270000D03*
X149152100Y-52730000D03*
X74932600Y-117618900D03*
%TO.N,PD_IN14*%
X144473100Y-108700000D03*
X143965200Y-119786400D03*
%TO.N,TIA14*%
X115613600Y-108333500D03*
X123019200Y-119000000D03*
%TO.N,PD_IN16*%
X114424100Y-94700000D03*
X114424100Y-106136400D03*
%TO.N,TIA16*%
X127530000Y-113084500D03*
X115192200Y-107675000D03*
%TO.N,3V3*%
X139108600Y-110603200D03*
X144162400Y-47930800D03*
X80194600Y-53225300D03*
X113573300Y-73069200D03*
X84290200Y-58500000D03*
X123200500Y-53392500D03*
X116203500Y-96398000D03*
X121325200Y-53717600D03*
X69764400Y-60898300D03*
X97229300Y-59996200D03*
X119763500Y-68802900D03*
X100000000Y-61200000D03*
X92941200Y-62187700D03*
X115071100Y-96257500D03*
X134596700Y-103166000D03*
X133952500Y-50990000D03*
X160026500Y-59500000D03*
X101263100Y-64000000D03*
%TO.N,MUX_L*%
X101436900Y-107025000D03*
X102642700Y-82529700D03*
%TO.N,MUX_A2*%
X109741300Y-110199600D03*
X111414600Y-60911100D03*
%TO.N,MUX_A1*%
X110361200Y-109728800D03*
X108528000Y-61120600D03*
%TO.N,MUX_A0*%
X108341600Y-57968000D03*
X107161900Y-109448000D03*
%TO.N,TIA4*%
X77582500Y-57895200D03*
X103954500Y-108325000D03*
%TO.N,TIA1*%
X79587000Y-49376300D03*
X104630900Y-107605500D03*
%TO.N,TIA2*%
X103872400Y-107442500D03*
X74060300Y-60510200D03*
%TO.N,TIA3*%
X74902700Y-57536700D03*
X104037100Y-106375000D03*
%TO.N,PD_IN7*%
X76710000Y-114705000D03*
X80204400Y-108700000D03*
%TO.N,IMU_INT*%
X119269900Y-50720600D03*
X121998600Y-46540200D03*
X119269900Y-52700800D03*
%TO.N,LED_K13*%
X118193400Y-77014600D03*
X123403100Y-102431900D03*
X114672500Y-77014600D03*
X113719900Y-71834700D03*
%TO.N,LED_K2*%
X103109800Y-70468800D03*
X88138900Y-57785900D03*
%TO.N,PD_IN9*%
X142586000Y-53050600D03*
X116555700Y-71206400D03*
%TO.N,I2C_SDA*%
X121057000Y-50423300D03*
X114800000Y-49155200D03*
X121831400Y-47457400D03*
%TO.N,LED_K11*%
X154256700Y-62585700D03*
X130820600Y-64042600D03*
X117909500Y-69839100D03*
X115842500Y-72756900D03*
X123782500Y-69839100D03*
X154497900Y-59131200D03*
%TO.N,PD_IN1*%
X74905600Y-52095000D03*
X94129800Y-65473900D03*
%TO.N,LED_K8*%
X106095700Y-74824400D03*
X104901600Y-97500000D03*
%TO.N,LED_LAT*%
X108167100Y-69136900D03*
X110751600Y-60352900D03*
%TO.N,LED_K3*%
X82612900Y-64031800D03*
X71012800Y-61425000D03*
X97577700Y-63730200D03*
X100586200Y-70573300D03*
%TO.N,LED_K4*%
X103028600Y-71601900D03*
X81197400Y-62255000D03*
X49599300Y-70376700D03*
X73270800Y-62255000D03*
X83981600Y-64184500D03*
X98117100Y-65522400D03*
%TO.N,LED_K5*%
X105908300Y-72250000D03*
X44344500Y-97259800D03*
X94530000Y-103617500D03*
X105581100Y-79678600D03*
X101778900Y-79678600D03*
X54092900Y-103617500D03*
%TO.N,LED_K6*%
X57824800Y-111500000D03*
X103814100Y-74938800D03*
X64681700Y-104158400D03*
X101432500Y-76492100D03*
X104616700Y-72937500D03*
X92216400Y-104158400D03*
%TO.N,LED_K7*%
X83344900Y-111653900D03*
X102550800Y-77618500D03*
X108158800Y-73192600D03*
X108158800Y-76842600D03*
%TO.N,LED_K9*%
X115263200Y-69003500D03*
X110336000Y-73849100D03*
%TO.N,LED_K10*%
X111968300Y-74029700D03*
X111491500Y-75074500D03*
X131630100Y-60039300D03*
X118787400Y-75074500D03*
%TO.N,LED_K12*%
X138727300Y-61942800D03*
X112966700Y-72083000D03*
X170239800Y-69500000D03*
X157616600Y-61573300D03*
X115233200Y-70440100D03*
X123089900Y-70440100D03*
%TO.N,LED_K14*%
X119502200Y-74153500D03*
X139460500Y-111500000D03*
%TO.N,LED_K15*%
X118485000Y-78786100D03*
X127444100Y-111500000D03*
X113556500Y-70748400D03*
X113704600Y-78786100D03*
%TO.N,LED_K16*%
X112834200Y-70248400D03*
X112837600Y-97500000D03*
%TO.N,LED_BLANK*%
X115253300Y-68246900D03*
X111144100Y-57963100D03*
%TO.N,IREF*%
X111948000Y-68730600D03*
X109979600Y-75413200D03*
%TO.N,LED_SIN*%
X109693300Y-60361700D03*
X109250000Y-67647800D03*
%TO.N,LED_SCLK*%
X108637300Y-60355400D03*
X108678700Y-68159100D03*
%TO.N,PD_IN4*%
X46658300Y-73000000D03*
X75974000Y-56805000D03*
%TO.N,UART_RX*%
X112623400Y-57943300D03*
X116263700Y-61583600D03*
%TO.N,PD_IN3*%
X72000100Y-57167600D03*
X63591700Y-61820300D03*
%TO.N,NRST*%
X107029200Y-56750000D03*
X136047500Y-50657500D03*
X112352500Y-46561600D03*
X102715700Y-53862700D03*
%TO.N,SWDIO*%
X103506900Y-49509200D03*
X108578500Y-52794100D03*
X90097800Y-53738400D03*
X95435200Y-49509200D03*
%TO.N,UART_TX*%
X96387800Y-46972400D03*
X103832700Y-59238700D03*
X119369700Y-57409500D03*
%TO.N,PD_IN11*%
X154680000Y-53273800D03*
X153163400Y-63855300D03*
X152904400Y-56540000D03*
%TO.N,ADC_L*%
X105279400Y-83197100D03*
X104883800Y-58712000D03*
%TO.N,TIA9*%
X140017800Y-50191000D03*
X118657600Y-107735800D03*
%TO.N,PD_IN8*%
X76279000Y-119753600D03*
X74935100Y-114376700D03*
X83596100Y-103077100D03*
%TO.N,MUX_R*%
X112135100Y-82530900D03*
X112841400Y-107025000D03*
%TO.N,TIA11*%
X116160700Y-106451700D03*
X149050800Y-57863600D03*
X154628500Y-54079500D03*
%TO.N,BOOT_TX_PA9*%
X105964900Y-47120600D03*
X108768400Y-54245900D03*
%TO.N,ADC_R*%
X105815100Y-58370900D03*
X106634600Y-79595100D03*
%TD*%
%TO.N,SWCLK_BOOT0*%
D11*
X109770300Y-47123900D02*
X109770300Y-52250000D01*
X109323200Y-46676800D02*
X109770300Y-47123900D01*
%TO.N,GND*%
X115831600Y-67355000D02*
X115476600Y-67000000D01*
X115476600Y-67000000D02*
X119397100Y-63079500D01*
X119397100Y-63079500D02*
X119397100Y-59000000D01*
X115831600Y-72023000D02*
X115831600Y-67355000D01*
X114902500Y-73061400D02*
X114902500Y-72952100D01*
X114902500Y-72952100D02*
X115831600Y-72023000D01*
%TO.N,TIA10*%
X118775700Y-106682400D02*
X117347600Y-105254300D01*
X117347600Y-73524500D02*
X119650500Y-71221600D01*
X119650500Y-70797100D02*
X132049300Y-58398300D01*
X117347600Y-105254300D02*
X117347600Y-73524500D01*
X132049300Y-58398300D02*
X140013500Y-58398300D01*
X119650500Y-71221600D02*
X119650500Y-70797100D01*
%TO.N,TIA12*%
X119307300Y-107285000D02*
X119231400Y-107209100D01*
X119231400Y-107209100D02*
X118557600Y-107209100D01*
X117045900Y-73399500D02*
X119348800Y-71096600D01*
X118557600Y-107209100D02*
X117045900Y-105697400D01*
X119348800Y-71096600D02*
X119348800Y-70672100D01*
X132833200Y-57187700D02*
X149467600Y-57187700D01*
X117045900Y-105697400D02*
X117045900Y-73399500D01*
X119348800Y-70672100D02*
X132833200Y-57187700D01*
%TO.N,AGND*%
X95219100Y-56951000D02*
X97172500Y-54997600D01*
X97172500Y-54997600D02*
X97172500Y-50035900D01*
X74143800Y-106936600D02*
X74143800Y-114899400D01*
X74143800Y-114899400D02*
X72043200Y-117000000D01*
X94327700Y-57842400D02*
X94327700Y-60100100D01*
X95219100Y-56951000D02*
X94327700Y-57842400D01*
X114783800Y-109766600D02*
X115368000Y-110350800D01*
X115368000Y-110350800D02*
X115368000Y-111912500D01*
%TO.N,3V3_A*%
X70662200Y-117000000D02*
X74244500Y-120582300D01*
X110311000Y-47849700D02*
X113017600Y-45143100D01*
X106633800Y-105725000D02*
X106633800Y-100420400D01*
X74244500Y-120582300D02*
X103639500Y-120582300D01*
X115186000Y-105829900D02*
X115186000Y-106136100D01*
X104374800Y-98161400D02*
X104374800Y-91142200D01*
X110311000Y-53468200D02*
X110311000Y-47849700D01*
X107027400Y-54274700D02*
X107564800Y-54812100D01*
X110232200Y-111089900D02*
X108050700Y-111089900D01*
X103683800Y-61829300D02*
X101854500Y-60000000D01*
X102320900Y-73055700D02*
X103683800Y-71692800D01*
X76647400Y-51542200D02*
X77103300Y-51998100D01*
X97034800Y-67769600D02*
X97034800Y-62011000D01*
X104752600Y-76622400D02*
X102320900Y-74190700D01*
X77103300Y-51998100D02*
X81067800Y-51998100D01*
X107564800Y-54812100D02*
X108967100Y-54812100D01*
X102320900Y-74190700D02*
X102320900Y-73055700D01*
X106633800Y-109673000D02*
X106633800Y-105725000D01*
X104752600Y-90764400D02*
X104752600Y-76622400D01*
X102320900Y-73055700D02*
X97034800Y-67769600D01*
X106633800Y-100420400D02*
X104374800Y-98161400D01*
X103683800Y-71692800D02*
X103683800Y-61829300D01*
X108967100Y-54812100D02*
X110311000Y-53468200D01*
X113017600Y-45143100D02*
X118186100Y-45143100D01*
X115186000Y-106136100D02*
X110232200Y-111089900D01*
X108050700Y-111089900D02*
X106633800Y-109673000D01*
X108050700Y-116171100D02*
X108050700Y-111089900D01*
X103639500Y-120582300D02*
X108050700Y-116171100D01*
X104374800Y-91142200D02*
X104752600Y-90764400D01*
X97034800Y-62011000D02*
X97282900Y-61762900D01*
X81067800Y-51998100D02*
X86328900Y-57259200D01*
X73419600Y-51542200D02*
X76647400Y-51542200D01*
X71319000Y-53642800D02*
X73419600Y-51542200D01*
%TO.N,PD_IN13*%
X174350000Y-95656400D02*
X174350000Y-95740900D01*
X155630900Y-114460000D02*
X150016900Y-114460000D01*
X174350000Y-95740900D02*
X155630900Y-114460000D01*
%TO.N,VREF_1V65*%
X148681800Y-118073000D02*
X148878800Y-118270000D01*
X76026900Y-120280600D02*
X103172000Y-120280600D01*
X105182600Y-118270000D02*
X105182600Y-99395900D01*
X148685700Y-55270000D02*
X148685700Y-53196400D01*
X103172000Y-120280600D02*
X105182600Y-118270000D01*
X105182600Y-99395900D02*
X104055600Y-98268900D01*
X104055600Y-90958600D02*
X104450900Y-90563300D01*
X148681800Y-115730000D02*
X148681800Y-118073000D01*
X104055600Y-98268900D02*
X104055600Y-90958600D01*
X104450900Y-90563300D02*
X104450900Y-76747400D01*
X95786100Y-68082600D02*
X95786100Y-62480000D01*
X104450900Y-76747400D02*
X95786100Y-68082600D01*
X148685700Y-53196400D02*
X149152100Y-52730000D01*
X74932600Y-117618900D02*
X74932600Y-119186300D01*
X74932600Y-119186300D02*
X76026900Y-120280600D01*
%TO.N,PD_IN14*%
X143965200Y-119786400D02*
X143965200Y-109207900D01*
X143965200Y-109207900D02*
X144473100Y-108700000D01*
%TO.N,TIA14*%
X123019200Y-115739100D02*
X123019200Y-119000000D01*
X115613600Y-108333500D02*
X123019200Y-115739100D01*
%TO.N,PD_IN16*%
X114424100Y-94700000D02*
X114424100Y-106136400D01*
%TO.N,TIA16*%
X121654100Y-113084500D02*
X116244600Y-107675000D01*
X116244600Y-107675000D02*
X115192200Y-107675000D01*
X127530000Y-113084500D02*
X121654100Y-113084500D01*
%TO.N,3V3*%
X160026500Y-57380000D02*
X150577300Y-47930800D01*
X144162400Y-47930800D02*
X137011700Y-47930800D01*
X80194600Y-54404400D02*
X80194600Y-53225300D01*
X84290200Y-58500000D02*
X80194600Y-54404400D01*
X115755000Y-95949500D02*
X115379100Y-95949500D01*
X100000000Y-61200000D02*
X100000000Y-62736900D01*
X113573300Y-73069200D02*
X114129000Y-73624900D01*
X118639200Y-70740700D02*
X118639200Y-69927200D01*
X134596700Y-106091300D02*
X139108600Y-110603200D01*
X92941200Y-62187700D02*
X92985000Y-62187700D01*
X73997300Y-59983500D02*
X70679200Y-59983500D01*
X95176500Y-59996200D02*
X97229300Y-59996200D01*
X115755000Y-73624900D02*
X118639200Y-70740700D01*
X115755000Y-95949500D02*
X116203500Y-96398000D01*
X134596700Y-103166000D02*
X134596700Y-106091300D01*
X122875400Y-53717600D02*
X121325200Y-53717600D01*
X114129000Y-73624900D02*
X115755000Y-73624900D01*
X70679200Y-59983500D02*
X69764400Y-60898300D01*
X160026500Y-59500000D02*
X160026500Y-57380000D01*
X150577300Y-47930800D02*
X144162400Y-47930800D01*
X115379100Y-95949500D02*
X115071100Y-96257500D01*
X123200500Y-53392500D02*
X122875400Y-53717600D01*
X79576400Y-54404400D02*
X73997300Y-59983500D01*
X92985000Y-62187700D02*
X95176500Y-59996200D01*
X137011700Y-47930800D02*
X133952500Y-50990000D01*
X115755000Y-73624900D02*
X115755000Y-95949500D01*
X118639200Y-69927200D02*
X119763500Y-68802900D01*
X100000000Y-62736900D02*
X101263100Y-64000000D01*
X80194600Y-54404400D02*
X79576400Y-54404400D01*
%TO.N,MUX_L*%
X102642700Y-82529700D02*
X102490300Y-82682100D01*
X102490300Y-105971600D02*
X101436900Y-107025000D01*
X102490300Y-82682100D02*
X102490300Y-105971600D01*
%TO.N,MUX_A2*%
X109439600Y-109897900D02*
X109741300Y-110199600D01*
X109439600Y-71275600D02*
X109439600Y-109897900D01*
X111414600Y-60911100D02*
X111414600Y-69300600D01*
X111414600Y-69300600D02*
X109439600Y-71275600D01*
%TO.N,MUX_A1*%
X110361200Y-110357500D02*
X109970800Y-110747900D01*
X107632100Y-62016500D02*
X108528000Y-61120600D01*
X109536700Y-110747900D02*
X107632100Y-108843300D01*
X107632100Y-108843300D02*
X107632100Y-62016500D01*
X110361200Y-109728800D02*
X110361200Y-110357500D01*
X109970800Y-110747900D02*
X109536700Y-110747900D01*
%TO.N,MUX_A0*%
X107161900Y-109448000D02*
X107161900Y-59147700D01*
X107161900Y-59147700D02*
X108341600Y-57968000D01*
%TO.N,TIA4*%
X82009800Y-62322600D02*
X88035800Y-62322600D01*
X82009800Y-62322500D02*
X82009800Y-62322600D01*
X102792000Y-89134000D02*
X102792000Y-107162500D01*
X102792000Y-107162500D02*
X103954500Y-108325000D01*
X103169500Y-77456300D02*
X103169500Y-88756500D01*
X77582500Y-57895200D02*
X82009800Y-62322500D01*
X88035800Y-62322600D02*
X103169500Y-77456300D01*
X103169500Y-88756500D02*
X102792000Y-89134000D01*
%TO.N,TIA1*%
X94703800Y-67567200D02*
X94703800Y-65122100D01*
X104630900Y-107605500D02*
X104630900Y-99348000D01*
X104074600Y-76938000D02*
X94703800Y-67567200D01*
X79587100Y-49772500D02*
X79587000Y-49772500D01*
X94703800Y-65122100D02*
X86855600Y-57273900D01*
X79587000Y-49772500D02*
X79587000Y-49376300D01*
X104074600Y-90363100D02*
X104074600Y-76938000D01*
X103750400Y-98467500D02*
X103750400Y-90687300D01*
X86855600Y-57041000D02*
X79587100Y-49772500D01*
X103750400Y-90687300D02*
X104074600Y-90363100D01*
X86855600Y-57273900D02*
X86855600Y-57041000D01*
X104630900Y-99348000D02*
X103750400Y-98467500D01*
%TO.N,TIA2*%
X85851000Y-62020900D02*
X88176300Y-62020900D01*
X103471200Y-77315800D02*
X103471200Y-89168800D01*
X103093700Y-89546300D02*
X103093700Y-106663800D01*
X88176300Y-62020900D02*
X103471200Y-77315800D01*
X103093700Y-106663800D02*
X103872400Y-107442500D01*
X74060300Y-60510200D02*
X77203200Y-57367300D01*
X77203200Y-57367300D02*
X81197400Y-57367300D01*
X103471200Y-89168800D02*
X103093700Y-89546300D01*
X81197400Y-57367300D02*
X85851000Y-62020900D01*
%TO.N,TIA3*%
X94257200Y-66358900D02*
X94257200Y-67547300D01*
X74902700Y-57536700D02*
X76012900Y-57536700D01*
X76012900Y-57536700D02*
X79433900Y-54115700D01*
X79935600Y-52698600D02*
X80596800Y-52698600D01*
X79433900Y-53200300D02*
X79935600Y-52698600D01*
X103772900Y-77063000D02*
X103772900Y-90238000D01*
X79433900Y-54115700D02*
X79433900Y-53200300D01*
X94257200Y-67547300D02*
X103772900Y-77063000D01*
X94257100Y-66358900D02*
X94257200Y-66358900D01*
X103395400Y-90615500D02*
X103395400Y-105733300D01*
X103395400Y-105733300D02*
X104037100Y-106375000D01*
X103772900Y-90238000D02*
X103395400Y-90615500D01*
X80596800Y-52698600D02*
X94257100Y-66358900D01*
%TO.N,PD_IN7*%
X76710000Y-114705000D02*
X80204400Y-111210600D01*
X80204400Y-111210600D02*
X80204400Y-108700000D01*
%TO.N,IMU_INT*%
X121998600Y-46540200D02*
X119269900Y-49268900D01*
X119269900Y-50720600D02*
X119269900Y-52700800D01*
X119269900Y-49268900D02*
X119269900Y-50720600D01*
%TO.N,LED_K13*%
X114672500Y-74979100D02*
X113038800Y-73345400D01*
X113038800Y-73345400D02*
X113038800Y-72755800D01*
X113719900Y-72074700D02*
X113719900Y-71834700D01*
X123403100Y-102431900D02*
X123403100Y-102202600D01*
X114672500Y-77014600D02*
X114672500Y-74979100D01*
X113038800Y-72755800D02*
X113719900Y-72074700D01*
X123403100Y-102202600D02*
X117951000Y-96750500D01*
X117951000Y-96750500D02*
X117951000Y-77257000D01*
X117951000Y-77257000D02*
X118193400Y-77014600D01*
%TO.N,LED_K2*%
X103109800Y-70468800D02*
X103109800Y-66810400D01*
X96152700Y-61220100D02*
X94610700Y-62762100D01*
X103109800Y-66810400D02*
X97519500Y-61220100D01*
X94610700Y-62762100D02*
X92770500Y-62762100D01*
X88138900Y-58130500D02*
X88138900Y-57785900D01*
X92770500Y-62762100D02*
X88138900Y-58130500D01*
X97519500Y-61220100D02*
X96152700Y-61220100D01*
%TO.N,PD_IN9*%
X139513700Y-49653900D02*
X140250200Y-49653900D01*
X133274600Y-53661300D02*
X135506300Y-53661300D01*
X116555700Y-71206400D02*
X116555700Y-70380200D01*
X116555700Y-70380200D02*
X133274600Y-53661300D01*
X135506300Y-53661300D02*
X139513700Y-49653900D01*
X142586000Y-51989700D02*
X142586000Y-53050600D01*
X140250200Y-49653900D02*
X142586000Y-51989700D01*
%TO.N,I2C_SDA*%
X114800000Y-49155200D02*
X118874800Y-53230000D01*
X121057000Y-48231800D02*
X121831400Y-47457400D01*
X121057000Y-51667900D02*
X121057000Y-50423300D01*
X118874800Y-53230000D02*
X119494900Y-53230000D01*
X119494900Y-53230000D02*
X121057000Y-51667900D01*
X121057000Y-50423300D02*
X121057000Y-48231800D01*
%TO.N,LED_K11*%
X117909500Y-70689900D02*
X117909500Y-69839100D01*
X130820600Y-64042600D02*
X129579000Y-64042600D01*
X154256700Y-62585700D02*
X154497900Y-62344500D01*
X115842500Y-72756900D02*
X117909500Y-70689900D01*
X129579000Y-64042600D02*
X123782500Y-69839100D01*
X154497900Y-62344500D02*
X154497900Y-59131200D01*
%TO.N,PD_IN1*%
X75207400Y-52396800D02*
X80721700Y-52396800D01*
X80721700Y-52396800D02*
X93798800Y-65473900D01*
X93798800Y-65473900D02*
X94129800Y-65473900D01*
X74905600Y-52095000D02*
X75207400Y-52396800D01*
%TO.N,LED_K8*%
X104901600Y-97500000D02*
X106107800Y-96293800D01*
X106107800Y-96293800D02*
X106107800Y-74836500D01*
X106107800Y-74836500D02*
X106095700Y-74824400D01*
%TO.N,LED_LAT*%
X110751600Y-66891100D02*
X108505800Y-69136900D01*
X108505800Y-69136900D02*
X108167100Y-69136900D01*
X110751600Y-60352900D02*
X110751600Y-66891100D01*
%TO.N,LED_K3*%
X82612900Y-64031800D02*
X82229400Y-64031800D01*
X79622600Y-61425000D02*
X71012800Y-61425000D01*
X97577700Y-67564800D02*
X97577700Y-63730200D01*
X100586200Y-70573300D02*
X97577700Y-67564800D01*
X82229400Y-64031800D02*
X79622600Y-61425000D01*
%TO.N,LED_K4*%
X82410700Y-63468300D02*
X83265400Y-63468300D01*
X103028600Y-71601900D02*
X103028600Y-71132300D01*
X83265400Y-63468300D02*
X83981600Y-64184500D01*
X81197400Y-62255000D02*
X82410700Y-63468300D01*
X56999800Y-62976200D02*
X49599300Y-70376700D01*
X98117100Y-66220900D02*
X98117100Y-65522400D01*
X103028500Y-71132300D02*
X98117100Y-66220900D01*
X73270800Y-62255000D02*
X72549600Y-62976200D01*
X72549600Y-62976200D02*
X56999800Y-62976200D01*
X103028600Y-71132300D02*
X103028500Y-71132300D01*
%TO.N,LED_K5*%
X105524800Y-79622300D02*
X105524800Y-72633500D01*
X101778900Y-79678600D02*
X101778900Y-96619800D01*
X94781200Y-103617500D02*
X94530000Y-103617500D01*
X105524800Y-72633500D02*
X105908300Y-72250000D01*
X101778900Y-96619800D02*
X94781200Y-103617500D01*
X50702200Y-103617500D02*
X54092900Y-103617500D01*
X44344500Y-97259800D02*
X50702200Y-103617500D01*
X105581100Y-79678600D02*
X105524800Y-79622300D01*
%TO.N,LED_K6*%
X92216400Y-104158400D02*
X94214200Y-102160600D01*
X104616700Y-74136200D02*
X104616700Y-72937500D01*
X57824800Y-111015300D02*
X57824800Y-111500000D01*
X101237900Y-76686700D02*
X101432500Y-76492100D01*
X94214200Y-102160600D02*
X95809200Y-102160600D01*
X101382700Y-96587100D02*
X101382700Y-88252200D01*
X95809200Y-102160600D02*
X101382700Y-96587100D01*
X103814100Y-74938800D02*
X104616700Y-74136200D01*
X64681700Y-104158400D02*
X57824800Y-111015300D01*
X101382700Y-88252200D02*
X101237900Y-88107400D01*
X101237900Y-88107400D02*
X101237900Y-76686700D01*
%TO.N,LED_K7*%
X83344900Y-111653900D02*
X87263300Y-111653900D01*
X102116000Y-96801200D02*
X102116000Y-82311600D01*
X102116000Y-82311600D02*
X102550800Y-81876800D01*
X108158800Y-73192600D02*
X108158800Y-76842600D01*
X102550800Y-81876800D02*
X102550800Y-77618500D01*
X87263300Y-111653900D02*
X102116000Y-96801200D01*
%TO.N,LED_K9*%
X113304800Y-69003500D02*
X110336000Y-71972300D01*
X115263200Y-69003500D02*
X113304800Y-69003500D01*
X110336000Y-71972300D02*
X110336000Y-73849100D01*
%TO.N,LED_K10*%
X111968300Y-74029700D02*
X111491500Y-74506500D01*
X118787400Y-75074500D02*
X118787400Y-72938100D01*
X111491500Y-74506500D02*
X111491500Y-75074500D01*
X131630100Y-60095400D02*
X131630100Y-60039300D01*
X118787400Y-72938100D02*
X131630100Y-60095400D01*
%TO.N,LED_K12*%
X123089900Y-69779100D02*
X123089900Y-70440100D01*
X138727300Y-61942800D02*
X130926200Y-61942800D01*
X112966700Y-71810800D02*
X113502400Y-71275100D01*
X114398200Y-71275100D02*
X115233200Y-70440100D01*
X112966700Y-72083000D02*
X112966700Y-71810800D01*
X113502400Y-71275100D02*
X114398200Y-71275100D01*
X157616600Y-61573300D02*
X162313100Y-61573300D01*
X162313100Y-61573300D02*
X170239800Y-69500000D01*
X130926200Y-61942800D02*
X123089900Y-69779100D01*
%TO.N,LED_K14*%
X121793600Y-99650800D02*
X121714200Y-99650800D01*
X121714200Y-99650800D02*
X118572400Y-96509000D01*
X118572400Y-96509000D02*
X118572400Y-80225100D01*
X139460500Y-111500000D02*
X133642800Y-111500000D01*
X133642800Y-111500000D02*
X121793600Y-99650800D01*
X119502200Y-79295300D02*
X119502200Y-74153500D01*
X118572400Y-80225100D02*
X119502200Y-79295300D01*
%TO.N,LED_K15*%
X121668600Y-99952500D02*
X127444100Y-105728000D01*
X112440000Y-71864900D02*
X112440000Y-73323500D01*
X121579800Y-99952500D02*
X121668600Y-99952500D01*
X118485000Y-78786100D02*
X118252700Y-79018400D01*
X118252700Y-96625400D02*
X121579800Y-99952500D01*
X118252700Y-79018400D02*
X118252700Y-96625400D01*
X112440000Y-73323500D02*
X113704600Y-74588100D01*
X127444100Y-105728000D02*
X127444100Y-111500000D01*
X113556500Y-70748400D02*
X112440000Y-71864900D01*
X113704600Y-74588100D02*
X113704600Y-78786100D01*
%TO.N,LED_K16*%
X112837600Y-74147800D02*
X112837600Y-97500000D01*
X112138300Y-70944300D02*
X112138300Y-73448500D01*
X112138300Y-73448500D02*
X112837600Y-74147800D01*
X112834200Y-70248400D02*
X112138300Y-70944300D01*
%TO.N,LED_BLANK*%
X111144100Y-57963100D02*
X114949800Y-61768800D01*
X114949800Y-67943400D02*
X115253300Y-68246900D01*
X114949800Y-61768800D02*
X114949800Y-67943400D01*
%TO.N,IREF*%
X111948000Y-68730600D02*
X111948000Y-69218900D01*
X109800900Y-75234500D02*
X109979600Y-75413200D01*
X111948000Y-69218900D02*
X109800900Y-71366000D01*
X109800900Y-71366000D02*
X109800900Y-75234500D01*
%TO.N,LED_SIN*%
X109693300Y-67204500D02*
X109693300Y-60361700D01*
X109250000Y-67647800D02*
X109693300Y-67204500D01*
%TO.N,LED_SCLK*%
X109054700Y-61338800D02*
X109054700Y-60772800D01*
X108678700Y-68159100D02*
X108678700Y-61714800D01*
X108678700Y-61714800D02*
X109054700Y-61338800D01*
X109054700Y-60772800D02*
X108637300Y-60355400D01*
%TO.N,PD_IN4*%
X62590300Y-56640900D02*
X46658300Y-72572900D01*
X75974000Y-56805000D02*
X75809900Y-56640900D01*
X46658300Y-72572900D02*
X46658300Y-73000000D01*
X75809900Y-56640900D02*
X62590300Y-56640900D01*
%TO.N,UART_RX*%
X112623400Y-57943300D02*
X116263700Y-61583600D01*
%TO.N,PD_IN3*%
X63591700Y-61820300D02*
X67347400Y-61820300D01*
X67347400Y-61820300D02*
X72000100Y-57167600D01*
%TO.N,NRST*%
X120766300Y-53531700D02*
X121432200Y-52865800D01*
X107455900Y-56750000D02*
X112352500Y-51853400D01*
X112352500Y-51853400D02*
X114030800Y-53531700D01*
X107029200Y-56750000D02*
X107455900Y-56750000D01*
X107029200Y-56750000D02*
X105603000Y-56750000D01*
X114030800Y-53531700D02*
X120766300Y-53531700D01*
X105603000Y-56750000D02*
X102715700Y-53862700D01*
X112352500Y-51853400D02*
X112352500Y-46561600D01*
X121432200Y-52865800D02*
X133839200Y-52865800D01*
X133839200Y-52865800D02*
X136047500Y-50657500D01*
%TO.N,SWDIO*%
X90097800Y-53738400D02*
X91206000Y-53738400D01*
X105293600Y-49509200D02*
X103506900Y-49509200D01*
X108578500Y-52794100D02*
X105293600Y-49509200D01*
X91206000Y-53738400D02*
X95435200Y-49509200D01*
%TO.N,UART_TX*%
X119369700Y-57409500D02*
X105441500Y-57409500D01*
X105441500Y-57409500D02*
X103832700Y-59018300D01*
X96387800Y-48355800D02*
X96387800Y-46972400D01*
X103832700Y-59018300D02*
X103832700Y-59238700D01*
X105441500Y-57409500D02*
X96387800Y-48355800D01*
%TO.N,PD_IN11*%
X153163400Y-56540000D02*
X153163400Y-54790400D01*
X153163400Y-56540000D02*
X152904400Y-56540000D01*
X153163400Y-63855300D02*
X153163400Y-56540000D01*
X153163400Y-54790400D02*
X154680000Y-53273800D01*
%TO.N,ADC_L*%
X105054300Y-74544100D02*
X105178700Y-74419700D01*
X105178700Y-74419700D02*
X105178700Y-59006900D01*
X105054300Y-82972000D02*
X105054300Y-74544100D01*
X105279400Y-83197100D02*
X105054300Y-82972000D01*
X105178700Y-59006900D02*
X104883800Y-58712000D01*
%TO.N,TIA9*%
X116744200Y-73274500D02*
X119047100Y-70971600D01*
X135522800Y-54069200D02*
X136139600Y-54069200D01*
X118657600Y-107735800D02*
X116744200Y-105822400D01*
X136139600Y-54069200D02*
X140017800Y-50191000D01*
X119047100Y-70544900D02*
X135522800Y-54069200D01*
X119047100Y-70971600D02*
X119047100Y-70544900D01*
X116744200Y-105822400D02*
X116744200Y-73274500D01*
%TO.N,PD_IN8*%
X74935100Y-114376700D02*
X74935100Y-111738100D01*
X74935100Y-111738100D02*
X83596100Y-103077100D01*
X74935100Y-114376700D02*
X76279000Y-115720600D01*
X76279000Y-115720600D02*
X76279000Y-119753600D01*
%TO.N,MUX_R*%
X112135100Y-106318700D02*
X112841400Y-107025000D01*
X112135100Y-82530900D02*
X112135100Y-106318700D01*
%TO.N,TIA11*%
X154953300Y-52733500D02*
X155249600Y-53029800D01*
X149050800Y-57863600D02*
X149565000Y-57863600D01*
X116160700Y-106451700D02*
X117981600Y-108272600D01*
X153163600Y-54265000D02*
X153163600Y-54040200D01*
X155249600Y-53029800D02*
X155249600Y-53458400D01*
X119952200Y-71346600D02*
X119952200Y-70922100D01*
X117649300Y-96875500D02*
X117649300Y-73649500D01*
X117649300Y-73649500D02*
X119952200Y-71346600D01*
X154470300Y-52733500D02*
X154953300Y-52733500D01*
X155249600Y-53458400D02*
X154628500Y-54079500D01*
X117981600Y-108272600D02*
X119082700Y-108272600D01*
X149565000Y-57863600D02*
X153163600Y-54265000D01*
X147620600Y-59293800D02*
X149050800Y-57863600D01*
X119082700Y-108272600D02*
X119834000Y-107521300D01*
X119952200Y-70922100D02*
X131580500Y-59293800D01*
X119834000Y-99060200D02*
X117649300Y-96875500D01*
X153163600Y-54040200D02*
X154470300Y-52733500D01*
X119834000Y-107521300D02*
X119834000Y-99060200D01*
X131580500Y-59293800D02*
X147620600Y-59293800D01*
%TO.N,BOOT_TX_PA9*%
X109106700Y-50262400D02*
X109106700Y-53907600D01*
X105964900Y-47120600D02*
X109106700Y-50262400D01*
X109106700Y-53907600D02*
X108768400Y-54245900D01*
%TO.N,ADC_R*%
X106634600Y-59190400D02*
X106634600Y-79595100D01*
X105815100Y-58370900D02*
X106634600Y-59190400D01*
%TD*%
%TA.AperFunction,Conductor*%
%TO.N,AGND*%
G36*
X78772826Y-43322174D02*
G01*
X78794500Y-43374500D01*
X78794500Y-49115834D01*
X78794501Y-49115867D01*
X78796258Y-49142661D01*
X78798777Y-49161805D01*
X78801352Y-49176965D01*
X78801353Y-49176967D01*
X78839487Y-49260093D01*
X78873966Y-49305027D01*
X78924432Y-49351853D01*
X78951742Y-49361986D01*
X78993260Y-49400509D01*
X79000000Y-49431364D01*
X79000000Y-50207287D01*
X78994366Y-50235608D01*
X78987006Y-50253375D01*
X78946959Y-50293421D01*
X78836731Y-50339078D01*
X78714586Y-50420693D01*
X78714585Y-50420694D01*
X78610696Y-50524582D01*
X78610695Y-50524583D01*
X78529076Y-50646736D01*
X78472861Y-50782449D01*
X78472860Y-50782454D01*
X78472857Y-50782464D01*
X78446680Y-50914078D01*
X78444200Y-50926545D01*
X78444200Y-51073454D01*
X78449899Y-51102111D01*
X78472857Y-51217534D01*
X78472860Y-51217544D01*
X78472861Y-51217549D01*
X78529076Y-51353262D01*
X78529152Y-51353414D01*
X78529810Y-51354362D01*
X78610699Y-51475420D01*
X78714580Y-51579301D01*
X78717391Y-51581608D01*
X78717071Y-51581997D01*
X78734388Y-51599312D01*
X78738813Y-51605935D01*
X78749861Y-51661484D01*
X78718422Y-51708556D01*
X78716097Y-51710111D01*
X78674958Y-51722600D01*
X77262786Y-51722600D01*
X77234468Y-51716967D01*
X77209339Y-51706558D01*
X77185333Y-51690518D01*
X76803459Y-51308644D01*
X76803458Y-51308643D01*
X76803448Y-51308639D01*
X76779840Y-51298860D01*
X76776100Y-51297311D01*
X76702200Y-51266700D01*
X76702199Y-51266700D01*
X73364800Y-51266700D01*
X73290896Y-51297311D01*
X73290892Y-51297314D01*
X73287165Y-51298857D01*
X73287161Y-51298859D01*
X73263547Y-51308639D01*
X73263537Y-51308646D01*
X71460861Y-53111321D01*
X71436855Y-53127361D01*
X71414388Y-53136667D01*
X71386072Y-53142300D01*
X71253107Y-53142300D01*
X71253106Y-53142300D01*
X71152707Y-53169201D01*
X71125814Y-53176407D01*
X71125796Y-53176416D01*
X71011688Y-53242297D01*
X70918497Y-53335488D01*
X70852616Y-53449596D01*
X70852610Y-53449609D01*
X70852606Y-53449618D01*
X70818500Y-53576905D01*
X70818500Y-53708694D01*
X70852606Y-53835981D01*
X70852610Y-53835990D01*
X70885525Y-53893000D01*
X70918497Y-53950110D01*
X70918498Y-53950111D01*
X70918500Y-53950114D01*
X71011686Y-54043300D01*
X71125814Y-54109192D01*
X71248424Y-54142044D01*
X71252122Y-54143300D01*
X71384894Y-54143300D01*
X71395157Y-54143300D01*
X71404045Y-54138167D01*
X71512186Y-54109192D01*
X71626314Y-54043300D01*
X71719500Y-53950114D01*
X71785392Y-53835986D01*
X71814367Y-53727845D01*
X71819500Y-53718956D01*
X71819500Y-53581311D01*
X71822022Y-53562158D01*
X71828884Y-53536549D01*
X71848034Y-53503378D01*
X73501635Y-51849779D01*
X73525639Y-51833741D01*
X73550770Y-51823331D01*
X73579086Y-51817700D01*
X74350589Y-51817700D01*
X74378899Y-51823329D01*
X74389311Y-51827642D01*
X74429361Y-51867685D01*
X74429367Y-51867699D01*
X74431283Y-51872326D01*
X74434391Y-51919790D01*
X74405100Y-52029102D01*
X74405100Y-52029105D01*
X74405100Y-52160894D01*
X74432624Y-52263616D01*
X74439207Y-52288183D01*
X74439219Y-52288208D01*
X74462025Y-52327707D01*
X74462026Y-52327708D01*
X74505097Y-52402310D01*
X74505098Y-52402311D01*
X74505100Y-52402314D01*
X74598286Y-52495500D01*
X74712414Y-52561392D01*
X74835024Y-52594244D01*
X74838722Y-52595500D01*
X74967086Y-52595500D01*
X74986232Y-52598020D01*
X75011848Y-52604884D01*
X75045019Y-52624035D01*
X75051341Y-52630357D01*
X75051344Y-52630359D01*
X75051346Y-52630360D01*
X75051348Y-52630361D01*
X75069308Y-52637799D01*
X75078290Y-52641520D01*
X75152600Y-52672300D01*
X75262200Y-52672300D01*
X78911281Y-52672300D01*
X78939591Y-52677929D01*
X78950003Y-52682242D01*
X78990053Y-52722285D01*
X78990056Y-52722292D01*
X78994367Y-52732700D01*
X79000000Y-52761018D01*
X79000000Y-54114613D01*
X78994367Y-54142929D01*
X78985413Y-54164548D01*
X78983959Y-54168059D01*
X78967918Y-54192065D01*
X76558441Y-56601541D01*
X76534435Y-56617581D01*
X76524028Y-56621892D01*
X76467391Y-56621893D01*
X76462764Y-56619977D01*
X76426996Y-56588610D01*
X76374501Y-56497688D01*
X76374500Y-56497687D01*
X76374499Y-56497685D01*
X76281314Y-56404500D01*
X76281311Y-56404498D01*
X76281310Y-56404497D01*
X76167202Y-56338616D01*
X76167193Y-56338611D01*
X76167190Y-56338610D01*
X76167183Y-56338607D01*
X76167184Y-56338607D01*
X76167182Y-56338606D01*
X76167181Y-56338606D01*
X76039894Y-56304500D01*
X76039893Y-56304500D01*
X75908107Y-56304500D01*
X75908106Y-56304500D01*
X75780818Y-56338606D01*
X75780816Y-56338606D01*
X75780815Y-56338607D01*
X75780800Y-56338614D01*
X75760017Y-56350614D01*
X75742172Y-56358006D01*
X75723991Y-56362878D01*
X75704837Y-56365400D01*
X62535500Y-56365400D01*
X62490739Y-56383939D01*
X62434245Y-56407338D01*
X46502242Y-72339343D01*
X46424740Y-72416845D01*
X46382800Y-72518099D01*
X46382800Y-72523875D01*
X46377167Y-72552191D01*
X46367862Y-72574658D01*
X46351821Y-72598664D01*
X46257798Y-72692686D01*
X46191916Y-72806796D01*
X46191908Y-72806814D01*
X46191906Y-72806818D01*
X46157800Y-72934105D01*
X46157800Y-73065894D01*
X46191906Y-73193181D01*
X46191910Y-73193190D01*
X46254047Y-73300813D01*
X46254047Y-73300815D01*
X46257797Y-73307310D01*
X46257799Y-73307313D01*
X46257800Y-73307314D01*
X46350986Y-73400500D01*
X46465114Y-73466392D01*
X46587724Y-73499244D01*
X46591422Y-73500500D01*
X46724194Y-73500500D01*
X46734457Y-73500500D01*
X46743345Y-73495367D01*
X46851486Y-73466392D01*
X46965614Y-73400500D01*
X47058800Y-73307314D01*
X47124692Y-73193186D01*
X47153667Y-73085045D01*
X47158800Y-73076156D01*
X47158800Y-72933122D01*
X47157545Y-72929428D01*
X47135674Y-72847802D01*
X47124692Y-72806814D01*
X47058800Y-72692686D01*
X47056197Y-72690083D01*
X47040157Y-72666077D01*
X47035846Y-72655670D01*
X47035844Y-72599035D01*
X47040157Y-72588621D01*
X47056194Y-72564619D01*
X48013914Y-71606900D01*
X49024304Y-70596508D01*
X49048304Y-70580472D01*
X49058719Y-70576158D01*
X49115343Y-70576157D01*
X49119972Y-70578074D01*
X49155746Y-70609443D01*
X49198797Y-70684010D01*
X49198798Y-70684011D01*
X49198800Y-70684014D01*
X49291986Y-70777200D01*
X49406114Y-70843092D01*
X49528724Y-70875944D01*
X49532422Y-70877200D01*
X49665194Y-70877200D01*
X49675457Y-70877200D01*
X49684345Y-70872067D01*
X49792486Y-70843092D01*
X49906614Y-70777200D01*
X49999800Y-70684014D01*
X50065692Y-70569886D01*
X50094667Y-70461745D01*
X50099800Y-70452856D01*
X50099800Y-70315211D01*
X50102322Y-70296058D01*
X50109184Y-70270449D01*
X50128334Y-70237278D01*
X57081836Y-63283778D01*
X57105840Y-63267741D01*
X57130971Y-63257331D01*
X57159287Y-63251700D01*
X72604398Y-63251700D01*
X72604400Y-63251700D01*
X72705658Y-63209757D01*
X72783157Y-63132258D01*
X73128938Y-62786474D01*
X73152941Y-62770437D01*
X73175409Y-62761130D01*
X73203724Y-62755500D01*
X73346957Y-62755500D01*
X73355845Y-62750367D01*
X73463986Y-62721392D01*
X73578114Y-62655500D01*
X73671300Y-62562314D01*
X73737192Y-62448186D01*
X73766167Y-62340045D01*
X73771300Y-62331156D01*
X73771300Y-62188120D01*
X73770042Y-62184414D01*
X73764411Y-62163399D01*
X73764410Y-62163398D01*
X73737192Y-62061814D01*
X73671300Y-61947686D01*
X73578114Y-61854500D01*
X73578111Y-61854498D01*
X73578110Y-61854497D01*
X73563293Y-61845942D01*
X73541589Y-61826908D01*
X73536740Y-61820589D01*
X73522080Y-61765882D01*
X73550395Y-61716834D01*
X73551276Y-61716158D01*
X73551795Y-61715761D01*
X73596803Y-61700500D01*
X78911281Y-61700500D01*
X78939591Y-61706129D01*
X78950003Y-61710442D01*
X78990052Y-61750484D01*
X78991677Y-61754406D01*
X78994367Y-61760900D01*
X79000000Y-61789218D01*
X79000000Y-63890277D01*
X78994367Y-63918595D01*
X78990056Y-63929003D01*
X78950008Y-63969051D01*
X78945400Y-63970959D01*
X78942778Y-63972046D01*
X78906052Y-63977195D01*
X77926743Y-63865094D01*
X77919509Y-63863900D01*
X77912378Y-63862357D01*
X77907348Y-63861006D01*
X77906556Y-63860861D01*
X77880141Y-63859531D01*
X77877803Y-63859376D01*
X77875454Y-63859183D01*
X77873100Y-63858952D01*
X77846034Y-63855854D01*
X77840312Y-63856496D01*
X77836245Y-63856694D01*
X77833532Y-63856826D01*
X77826223Y-63856819D01*
X75635659Y-63746583D01*
X75627919Y-63745784D01*
X75617947Y-63744221D01*
X75616827Y-63744021D01*
X75616400Y-63743979D01*
X75587428Y-63744010D01*
X75585504Y-63743987D01*
X75583581Y-63743939D01*
X75581709Y-63743868D01*
X75576030Y-63743582D01*
X75576030Y-63743583D01*
X75571038Y-63743332D01*
X75552745Y-63742412D01*
X75552744Y-63742412D01*
X75552740Y-63742412D01*
X75552734Y-63742412D01*
X75552645Y-63742412D01*
X75551762Y-63742517D01*
X75541152Y-63743647D01*
X75533391Y-63744063D01*
X72999780Y-63746657D01*
X72992338Y-63746289D01*
X72986279Y-63745683D01*
X72984044Y-63745424D01*
X72979572Y-63744838D01*
X72952452Y-63746503D01*
X72950250Y-63746605D01*
X72948030Y-63746675D01*
X72945775Y-63746712D01*
X72918635Y-63746740D01*
X72918615Y-63746743D01*
X72916620Y-63747164D01*
X72916616Y-63747146D01*
X72913278Y-63747789D01*
X72905978Y-63748982D01*
X72898578Y-63749812D01*
X70158171Y-63918083D01*
X70150989Y-63918175D01*
X70143838Y-63917919D01*
X70138544Y-63917471D01*
X70137192Y-63917382D01*
X70137185Y-63917382D01*
X70137183Y-63917382D01*
X70137182Y-63917382D01*
X70137174Y-63917382D01*
X70111737Y-63920680D01*
X70109238Y-63920961D01*
X70106749Y-63921198D01*
X70104274Y-63921392D01*
X70080711Y-63922839D01*
X70078674Y-63922965D01*
X70078672Y-63922965D01*
X70078362Y-63923026D01*
X70072242Y-63924750D01*
X70065279Y-63926351D01*
X70058211Y-63927619D01*
X63076097Y-64832780D01*
X63069276Y-64833345D01*
X63062466Y-64833593D01*
X63055616Y-64833525D01*
X63054265Y-64833448D01*
X63054251Y-64833449D01*
X63054244Y-64833449D01*
X63054237Y-64833450D01*
X63030978Y-64838300D01*
X63028195Y-64838825D01*
X63025388Y-64839299D01*
X63022582Y-64839718D01*
X62998990Y-64842776D01*
X62998989Y-64842777D01*
X62998987Y-64842778D01*
X62997710Y-64843304D01*
X62991272Y-64845613D01*
X62984757Y-64847615D01*
X62978127Y-64849321D01*
X58675860Y-65746437D01*
X58669526Y-65747473D01*
X58663185Y-65748230D01*
X58656784Y-65748714D01*
X58653021Y-65748834D01*
X58653014Y-65748835D01*
X58632545Y-65755029D01*
X58629398Y-65755905D01*
X58626253Y-65756707D01*
X58623081Y-65757443D01*
X58602110Y-65761816D01*
X58601989Y-65761877D01*
X58598737Y-65763518D01*
X58592884Y-65766159D01*
X58586939Y-65768537D01*
X58580887Y-65770659D01*
X56772382Y-66317873D01*
X56766253Y-66319445D01*
X56760088Y-66320748D01*
X56753853Y-66321789D01*
X56749598Y-66322314D01*
X56749597Y-66322314D01*
X56749595Y-66322315D01*
X56749590Y-66322317D01*
X56730222Y-66330154D01*
X56727092Y-66331339D01*
X56723914Y-66332460D01*
X56720731Y-66333502D01*
X56700761Y-66339544D01*
X56695114Y-66342927D01*
X56690604Y-66345418D01*
X56685969Y-66347772D01*
X56680222Y-66350389D01*
X55276475Y-66918512D01*
X55272584Y-66919961D01*
X55268658Y-66921299D01*
X55264727Y-66922518D01*
X55248825Y-66926967D01*
X55248810Y-66926972D01*
X55241360Y-66931383D01*
X55236482Y-66934028D01*
X55231530Y-66936478D01*
X55226486Y-66938744D01*
X55220097Y-66941330D01*
X55218446Y-66941999D01*
X55218441Y-66942001D01*
X55205241Y-66951960D01*
X55201878Y-66954352D01*
X55198462Y-66956642D01*
X55194955Y-66958854D01*
X53741162Y-67819502D01*
X53739395Y-67820515D01*
X53737645Y-67821487D01*
X53735863Y-67822445D01*
X53710787Y-67835488D01*
X53709490Y-67836506D01*
X53707899Y-67837718D01*
X53701135Y-67842732D01*
X53699225Y-67843998D01*
X53697418Y-67845398D01*
X53697380Y-67845436D01*
X53677646Y-67865606D01*
X53676218Y-67867027D01*
X53674786Y-67868413D01*
X53673296Y-67869816D01*
X52461606Y-68979360D01*
X52459738Y-68981013D01*
X52457862Y-68982618D01*
X52455943Y-68984205D01*
X52435865Y-69000244D01*
X52435850Y-69000259D01*
X52435222Y-69000989D01*
X52431643Y-69005382D01*
X52426871Y-69010692D01*
X52423528Y-69014065D01*
X52423544Y-69014081D01*
X52422213Y-69015431D01*
X52422200Y-69015446D01*
X52408385Y-69037114D01*
X52407010Y-69039192D01*
X52405605Y-69041240D01*
X52404160Y-69043272D01*
X51488142Y-70286549D01*
X51486721Y-70288415D01*
X51485237Y-70290301D01*
X51483727Y-70292158D01*
X51466760Y-70312341D01*
X51466358Y-70312970D01*
X51463863Y-70317687D01*
X51460087Y-70324041D01*
X51457076Y-70328701D01*
X51456840Y-70329037D01*
X51447224Y-70353595D01*
X51446325Y-70355786D01*
X51445389Y-70357968D01*
X51444419Y-70360132D01*
X50293649Y-72821896D01*
X50291955Y-72825291D01*
X50290185Y-72828621D01*
X50288338Y-72831893D01*
X50278817Y-72847798D01*
X50278817Y-72847800D01*
X50276990Y-72854210D01*
X50275147Y-72859817D01*
X50273090Y-72865324D01*
X50270810Y-72870758D01*
X50267985Y-72876801D01*
X50267985Y-72876802D01*
X50264753Y-72895032D01*
X50264003Y-72898718D01*
X50263994Y-72898758D01*
X50263148Y-72902425D01*
X50262206Y-72906083D01*
X48803981Y-78022926D01*
X48801914Y-78029127D01*
X48799580Y-78035217D01*
X48796973Y-78041213D01*
X48795612Y-78043997D01*
X48795609Y-78044007D01*
X48791381Y-78065678D01*
X48790711Y-78068760D01*
X48789978Y-78071817D01*
X48789186Y-78074839D01*
X48783143Y-78096048D01*
X48783141Y-78096074D01*
X48783092Y-78099161D01*
X48782701Y-78105667D01*
X48782023Y-78112151D01*
X48781055Y-78118623D01*
X47806903Y-83112642D01*
X47804936Y-83120442D01*
X47798010Y-83142719D01*
X47799128Y-83149249D01*
X47797389Y-83160856D01*
X47797135Y-83162438D01*
X47796863Y-83164019D01*
X47796565Y-83165640D01*
X47794387Y-83176805D01*
X47791082Y-83182637D01*
X47790141Y-83206290D01*
X47789383Y-83214311D01*
X47099611Y-87818646D01*
X47098077Y-87826186D01*
X47095800Y-87835003D01*
X47095313Y-87836796D01*
X47095047Y-87837728D01*
X47095039Y-87837763D01*
X47092332Y-87866161D01*
X47092119Y-87868114D01*
X47091876Y-87870102D01*
X47091606Y-87872087D01*
X47087385Y-87900264D01*
X47087385Y-87900849D01*
X47087456Y-87903017D01*
X47087539Y-87912223D01*
X47087208Y-87919912D01*
X46882085Y-90071747D01*
X46881071Y-90078785D01*
X46879726Y-90085735D01*
X46878378Y-90091263D01*
X46878402Y-90091270D01*
X46878084Y-90092499D01*
X46878079Y-90092518D01*
X46877428Y-90117800D01*
X46877318Y-90120358D01*
X46877163Y-90122922D01*
X46876964Y-90125478D01*
X46874563Y-90150669D01*
X46874564Y-90150707D01*
X46875378Y-90157580D01*
X46875878Y-90164666D01*
X46876037Y-90171782D01*
X46831247Y-91909667D01*
X46830820Y-91915929D01*
X46830127Y-91922168D01*
X46829167Y-91928385D01*
X46828290Y-91932813D01*
X46828289Y-91932816D01*
X46829653Y-91953440D01*
X46829799Y-91956846D01*
X46829866Y-91960201D01*
X46829857Y-91963576D01*
X46829326Y-91984261D01*
X46829326Y-91984265D01*
X46830382Y-91988655D01*
X46831589Y-91994816D01*
X46832531Y-92001004D01*
X46833213Y-92007257D01*
X46946841Y-93725004D01*
X46947000Y-93729285D01*
X46947035Y-93733577D01*
X46946946Y-93737858D01*
X46946165Y-93753542D01*
X46946397Y-93755238D01*
X46947022Y-93757523D01*
X46948159Y-93762806D01*
X46949100Y-93768114D01*
X46949848Y-93773456D01*
X46950401Y-93778826D01*
X46951027Y-93788286D01*
X46951028Y-93788290D01*
X46956084Y-93803154D01*
X46957344Y-93807242D01*
X46958486Y-93811368D01*
X46959505Y-93815512D01*
X47442047Y-96056900D01*
X47519228Y-96415400D01*
X47519930Y-96419126D01*
X47520529Y-96422819D01*
X47521035Y-96426531D01*
X47523076Y-96444983D01*
X47523079Y-96445002D01*
X47523760Y-96446920D01*
X47524310Y-96448159D01*
X47524965Y-96449837D01*
X47524968Y-96449857D01*
X47524973Y-96449856D01*
X47525482Y-96451161D01*
X47527409Y-96456755D01*
X47529105Y-96462399D01*
X47530575Y-96468107D01*
X47531610Y-96472910D01*
X47531612Y-96472934D01*
X47531615Y-96472934D01*
X47531967Y-96474572D01*
X47531970Y-96474581D01*
X47540442Y-96491100D01*
X47542079Y-96494503D01*
X47543630Y-96497950D01*
X47545087Y-96501422D01*
X47870915Y-97336692D01*
X47872034Y-97339759D01*
X47873091Y-97342867D01*
X47874068Y-97345960D01*
X47880075Y-97366543D01*
X47880076Y-97366545D01*
X47880077Y-97366548D01*
X47880078Y-97366550D01*
X47880079Y-97366552D01*
X47881289Y-97368544D01*
X47882008Y-97369728D01*
X47885101Y-97375360D01*
X47887943Y-97381113D01*
X47890533Y-97386987D01*
X47891883Y-97390446D01*
X47894580Y-97394116D01*
X47904581Y-97407727D01*
X47906445Y-97410385D01*
X47908258Y-97413094D01*
X47910010Y-97415840D01*
X48207922Y-97906392D01*
X48429025Y-98270469D01*
X48429545Y-98271339D01*
X48430046Y-98272190D01*
X48430522Y-98273011D01*
X48447445Y-98302619D01*
X48447452Y-98302629D01*
X48449882Y-98305823D01*
X48452396Y-98308955D01*
X48452400Y-98308959D01*
X48477016Y-98332507D01*
X48477717Y-98333186D01*
X48478447Y-98333903D01*
X48479147Y-98334600D01*
X49201139Y-99062918D01*
X49202945Y-99064806D01*
X49204711Y-99066718D01*
X49206434Y-99068650D01*
X49222799Y-99087661D01*
X49222799Y-99087662D01*
X49222845Y-99087693D01*
X49228485Y-99091946D01*
X49233918Y-99096466D01*
X49239140Y-99101253D01*
X49239254Y-99101368D01*
X49239497Y-99101549D01*
X49241222Y-99102483D01*
X49246191Y-99105380D01*
X49246196Y-99105386D01*
X49246197Y-99105385D01*
X49260861Y-99113937D01*
X49263064Y-99115274D01*
X49265261Y-99116660D01*
X49267447Y-99118093D01*
X49717629Y-99424941D01*
X49930495Y-99570032D01*
X49933697Y-99572343D01*
X49936853Y-99574752D01*
X49939925Y-99577229D01*
X49951006Y-99586663D01*
X49953269Y-99588751D01*
X49956284Y-99590019D01*
X49960202Y-99591880D01*
X49965245Y-99594520D01*
X49970196Y-99597360D01*
X49975043Y-99600395D01*
X49981388Y-99604721D01*
X49981391Y-99604722D01*
X49997927Y-99610506D01*
X50001632Y-99611914D01*
X50005288Y-99613417D01*
X50008905Y-99615018D01*
X50472358Y-99835190D01*
X51375703Y-100264341D01*
X51700551Y-100418666D01*
X51705327Y-100421152D01*
X51710040Y-100423829D01*
X51714623Y-100426660D01*
X51722441Y-100431889D01*
X51722442Y-100431889D01*
X51722488Y-100431920D01*
X51722491Y-100431922D01*
X51737387Y-100436986D01*
X51741379Y-100438473D01*
X51745372Y-100440095D01*
X51749246Y-100441800D01*
X51763469Y-100448557D01*
X51772795Y-100450269D01*
X51778052Y-100451436D01*
X51783261Y-100452792D01*
X51788429Y-100454340D01*
X54007166Y-101208730D01*
X54013182Y-101211074D01*
X54019141Y-101213704D01*
X54024937Y-101216572D01*
X54027882Y-101218194D01*
X54049085Y-101223416D01*
X54052093Y-101224226D01*
X54055220Y-101225140D01*
X54058215Y-101226087D01*
X54078888Y-101233117D01*
X54082246Y-101233338D01*
X54088681Y-101234047D01*
X54095099Y-101235042D01*
X54101436Y-101236311D01*
X58037915Y-102205931D01*
X58044856Y-102208006D01*
X58051660Y-102210409D01*
X58057032Y-102212608D01*
X58057557Y-102212775D01*
X58057560Y-102212776D01*
X58083253Y-102217341D01*
X58085573Y-102217792D01*
X58087998Y-102218305D01*
X58090299Y-102218833D01*
X58115637Y-102225076D01*
X58116193Y-102225137D01*
X58121977Y-102225302D01*
X58129181Y-102225864D01*
X58136352Y-102226779D01*
X60225369Y-102598060D01*
X60231768Y-102599493D01*
X60238096Y-102601208D01*
X60244353Y-102603206D01*
X60247106Y-102604222D01*
X60269299Y-102606263D01*
X60272344Y-102606608D01*
X60275446Y-102607025D01*
X60278488Y-102607501D01*
X60300400Y-102611396D01*
X60303318Y-102611144D01*
X60309858Y-102610872D01*
X60316419Y-102610890D01*
X60322964Y-102611200D01*
X67079171Y-103232798D01*
X67086266Y-103233800D01*
X67093276Y-103235140D01*
X67099544Y-103236656D01*
X67099808Y-103236697D01*
X67099815Y-103236699D01*
X67125449Y-103237309D01*
X67127879Y-103237408D01*
X67130406Y-103237555D01*
X67132875Y-103237740D01*
X67158404Y-103240090D01*
X67158410Y-103240088D01*
X67158674Y-103240079D01*
X67165055Y-103239297D01*
X67172208Y-103238773D01*
X67179350Y-103238597D01*
X74447078Y-103412131D01*
X74453415Y-103412555D01*
X74459696Y-103413247D01*
X74465987Y-103414216D01*
X74467606Y-103414536D01*
X74470043Y-103415020D01*
X74491020Y-103413629D01*
X74494329Y-103413485D01*
X74496115Y-103413446D01*
X74497668Y-103413414D01*
X74500957Y-103413417D01*
X74522042Y-103413922D01*
X74526066Y-103412945D01*
X74532291Y-103411715D01*
X74538556Y-103410755D01*
X74544852Y-103410065D01*
X81614443Y-102941945D01*
X81621716Y-102941823D01*
X81628980Y-102942059D01*
X81634445Y-102942508D01*
X81635134Y-102942509D01*
X81635136Y-102942508D01*
X81635138Y-102942509D01*
X81661243Y-102939075D01*
X81663529Y-102938811D01*
X81665921Y-102938575D01*
X81668260Y-102938382D01*
X81694514Y-102936645D01*
X81694515Y-102936644D01*
X81694521Y-102936644D01*
X81695182Y-102936512D01*
X81700462Y-102935000D01*
X81707536Y-102933349D01*
X81714700Y-102932045D01*
X83052547Y-102756121D01*
X83081356Y-102758012D01*
X83091051Y-102760612D01*
X83135979Y-102795097D01*
X83144466Y-102846525D01*
X83143261Y-102852583D01*
X83134770Y-102875145D01*
X83129709Y-102883911D01*
X83129708Y-102883912D01*
X83129707Y-102883914D01*
X83129706Y-102883918D01*
X83096858Y-103006512D01*
X83095600Y-103011206D01*
X83095600Y-103138587D01*
X83093076Y-103157749D01*
X83086211Y-103183356D01*
X83067061Y-103216520D01*
X74779042Y-111504543D01*
X74701540Y-111582045D01*
X74659600Y-111683299D01*
X74659600Y-113900575D01*
X74653967Y-113928891D01*
X74648949Y-113941009D01*
X74644662Y-113951358D01*
X74628621Y-113975364D01*
X74534598Y-114069386D01*
X74468716Y-114183496D01*
X74468708Y-114183514D01*
X74468706Y-114183518D01*
X74434600Y-114310805D01*
X74434600Y-114442594D01*
X74468706Y-114569881D01*
X74468707Y-114569884D01*
X74468708Y-114569886D01*
X74468710Y-114569891D01*
X74516800Y-114653185D01*
X74516801Y-114653186D01*
X74534600Y-114684014D01*
X74627786Y-114777200D01*
X74741914Y-114843092D01*
X74864524Y-114875944D01*
X74868222Y-114877200D01*
X74996587Y-114877200D01*
X75015733Y-114879720D01*
X75041349Y-114886584D01*
X75074520Y-114905735D01*
X75971418Y-115802633D01*
X75987457Y-115826636D01*
X75997868Y-115851770D01*
X76003500Y-115880085D01*
X76003500Y-119277475D01*
X75997867Y-119305791D01*
X75992849Y-119317909D01*
X75988562Y-119328258D01*
X75972521Y-119352264D01*
X75878498Y-119446286D01*
X75825625Y-119537866D01*
X75806585Y-119559576D01*
X75797648Y-119566433D01*
X75742953Y-119581091D01*
X75737988Y-119580438D01*
X75695311Y-119559396D01*
X75240181Y-119104266D01*
X75224141Y-119080260D01*
X75213731Y-119055128D01*
X75208100Y-119026814D01*
X75208100Y-118095022D01*
X75213732Y-118066706D01*
X75216205Y-118060736D01*
X75222671Y-118045124D01*
X75245983Y-118014740D01*
X75260409Y-118003667D01*
X75272453Y-117986861D01*
X75333098Y-117926216D01*
X75333100Y-117926214D01*
X75398992Y-117812086D01*
X75427967Y-117703945D01*
X75433100Y-117695056D01*
X75433100Y-117552023D01*
X75431847Y-117548333D01*
X75409891Y-117466392D01*
X75398992Y-117425714D01*
X75333100Y-117311586D01*
X75239914Y-117218400D01*
X75239911Y-117218398D01*
X75239910Y-117218397D01*
X75196234Y-117193181D01*
X75125791Y-117152510D01*
X75125786Y-117152508D01*
X75125784Y-117152507D01*
X75125782Y-117152506D01*
X75125781Y-117152506D01*
X74998494Y-117118400D01*
X74998493Y-117118400D01*
X74866707Y-117118400D01*
X74866706Y-117118400D01*
X74779143Y-117141862D01*
X74739414Y-117152507D01*
X74739396Y-117152516D01*
X74625288Y-117218397D01*
X74532097Y-117311588D01*
X74466216Y-117425696D01*
X74466208Y-117425714D01*
X74466206Y-117425718D01*
X74432100Y-117553005D01*
X74432100Y-117684794D01*
X74463936Y-117803608D01*
X74466207Y-117812083D01*
X74466216Y-117812102D01*
X74532097Y-117926210D01*
X74532098Y-117926211D01*
X74532100Y-117926214D01*
X74592747Y-117986861D01*
X74622166Y-118016280D01*
X74633923Y-118031601D01*
X74647183Y-118054564D01*
X74657100Y-118091569D01*
X74657100Y-119241099D01*
X74676199Y-119287208D01*
X74699042Y-119342356D01*
X74699044Y-119342359D01*
X74699045Y-119342360D01*
X75526751Y-120170066D01*
X75542793Y-120194075D01*
X75545841Y-120201434D01*
X75545839Y-120258071D01*
X75505798Y-120298115D01*
X75498439Y-120301164D01*
X75470114Y-120306800D01*
X74403987Y-120306800D01*
X74375669Y-120301167D01*
X74350540Y-120290758D01*
X74326534Y-120274718D01*
X71193677Y-117141862D01*
X71177637Y-117117856D01*
X71168331Y-117095390D01*
X71162700Y-117067075D01*
X71162700Y-116933121D01*
X71161444Y-116929424D01*
X71128742Y-116807377D01*
X71128605Y-116806847D01*
X71128593Y-116806816D01*
X71128589Y-116806809D01*
X71062700Y-116692686D01*
X70969514Y-116599500D01*
X70969511Y-116599498D01*
X70969510Y-116599497D01*
X70855402Y-116533616D01*
X70855393Y-116533611D01*
X70855390Y-116533610D01*
X70855383Y-116533607D01*
X70855384Y-116533607D01*
X70855382Y-116533606D01*
X70855381Y-116533606D01*
X70728094Y-116499500D01*
X70728093Y-116499500D01*
X70596307Y-116499500D01*
X70596306Y-116499500D01*
X70495907Y-116526401D01*
X70469014Y-116533607D01*
X70468996Y-116533616D01*
X70354888Y-116599497D01*
X70261697Y-116692688D01*
X70195816Y-116806796D01*
X70195808Y-116806814D01*
X70195806Y-116806818D01*
X70161700Y-116934105D01*
X70161700Y-117065894D01*
X70195806Y-117193181D01*
X70195807Y-117193184D01*
X70195808Y-117193186D01*
X70261700Y-117307314D01*
X70354886Y-117400500D01*
X70469014Y-117466392D01*
X70591624Y-117499244D01*
X70595322Y-117500500D01*
X70723687Y-117500500D01*
X70742833Y-117503020D01*
X70768449Y-117509884D01*
X70801620Y-117529035D01*
X74060472Y-120787888D01*
X74068664Y-120807666D01*
X74088441Y-120815857D01*
X74088440Y-120815857D01*
X74118097Y-120828140D01*
X74118098Y-120828141D01*
X74118099Y-120828141D01*
X74189700Y-120857800D01*
X103694298Y-120857800D01*
X103694300Y-120857800D01*
X103795558Y-120815857D01*
X103873057Y-120738358D01*
X104890910Y-119720505D01*
X143464700Y-119720505D01*
X143464700Y-119852294D01*
X143498806Y-119979581D01*
X143498807Y-119979583D01*
X143498816Y-119979602D01*
X143564697Y-120093710D01*
X143564698Y-120093711D01*
X143564700Y-120093714D01*
X143657886Y-120186900D01*
X143772014Y-120252792D01*
X143894624Y-120285644D01*
X143898322Y-120286900D01*
X144031094Y-120286900D01*
X144041357Y-120286900D01*
X144050245Y-120281767D01*
X144158386Y-120252792D01*
X144272514Y-120186900D01*
X144365700Y-120093714D01*
X144431592Y-119979586D01*
X144460567Y-119871445D01*
X144465700Y-119862556D01*
X144465700Y-119719521D01*
X144464441Y-119715812D01*
X144456910Y-119687706D01*
X144456646Y-119686721D01*
X144431592Y-119593214D01*
X144365700Y-119479086D01*
X144275621Y-119389007D01*
X144263855Y-119373669D01*
X144250604Y-119350708D01*
X144240700Y-119313724D01*
X144240700Y-115664105D01*
X148181300Y-115664105D01*
X148181300Y-115795894D01*
X148203859Y-115880085D01*
X148215407Y-115923183D01*
X148215416Y-115923202D01*
X148281297Y-116037310D01*
X148281298Y-116037311D01*
X148281300Y-116037314D01*
X148333051Y-116089065D01*
X148371366Y-116127380D01*
X148383123Y-116142701D01*
X148396383Y-116165664D01*
X148406300Y-116202669D01*
X148406300Y-118085016D01*
X148405667Y-118094669D01*
X148405264Y-118097736D01*
X148404412Y-118104208D01*
X148402524Y-118113697D01*
X148378301Y-118204105D01*
X148378300Y-118204109D01*
X148378300Y-118335894D01*
X148412406Y-118463181D01*
X148412407Y-118463184D01*
X148412408Y-118463186D01*
X148478300Y-118577314D01*
X148571486Y-118670500D01*
X148685614Y-118736392D01*
X148808224Y-118769244D01*
X148811922Y-118770500D01*
X148944694Y-118770500D01*
X148954957Y-118770500D01*
X148963845Y-118765367D01*
X149071986Y-118736392D01*
X149186114Y-118670500D01*
X149279300Y-118577314D01*
X149345192Y-118463186D01*
X149374167Y-118355045D01*
X149379300Y-118346156D01*
X149379300Y-118203121D01*
X149378044Y-118199424D01*
X149345342Y-118077377D01*
X149345205Y-118076847D01*
X149345193Y-118076816D01*
X149345189Y-118076809D01*
X149279300Y-117962686D01*
X149186114Y-117869500D01*
X149186111Y-117869498D01*
X149186110Y-117869497D01*
X149154300Y-117851132D01*
X149071985Y-117803606D01*
X149071982Y-117803605D01*
X149026365Y-117791382D01*
X149000473Y-117778614D01*
X148987144Y-117768387D01*
X148960711Y-117728825D01*
X148959818Y-117725492D01*
X148957300Y-117706354D01*
X148957300Y-116206122D01*
X148962932Y-116177806D01*
X148971871Y-116156224D01*
X148995183Y-116125840D01*
X149009609Y-116114767D01*
X149021653Y-116097961D01*
X149082298Y-116037316D01*
X149082300Y-116037314D01*
X149148192Y-115923186D01*
X149177167Y-115815045D01*
X149182300Y-115806156D01*
X149182300Y-115664107D01*
X149182218Y-115663603D01*
X149181726Y-115661964D01*
X149148346Y-115537389D01*
X149148205Y-115536846D01*
X149148193Y-115536816D01*
X149148189Y-115536809D01*
X149082300Y-115422686D01*
X148989114Y-115329500D01*
X148989111Y-115329498D01*
X148989110Y-115329497D01*
X148875002Y-115263616D01*
X148874993Y-115263611D01*
X148874990Y-115263610D01*
X148874983Y-115263607D01*
X148874984Y-115263607D01*
X148874982Y-115263606D01*
X148874981Y-115263606D01*
X148747694Y-115229500D01*
X148747693Y-115229500D01*
X148615907Y-115229500D01*
X148615906Y-115229500D01*
X148515507Y-115256401D01*
X148488614Y-115263607D01*
X148488596Y-115263616D01*
X148374488Y-115329497D01*
X148281297Y-115422688D01*
X148215416Y-115536796D01*
X148215407Y-115536815D01*
X148215405Y-115536818D01*
X148215405Y-115536819D01*
X148182472Y-115659722D01*
X148182464Y-115659761D01*
X148181301Y-115664102D01*
X148181300Y-115664105D01*
X144240700Y-115664105D01*
X144240700Y-109367385D01*
X144246331Y-109339071D01*
X144256742Y-109313936D01*
X144272779Y-109289935D01*
X144300309Y-109262406D01*
X144331239Y-109231474D01*
X144355243Y-109215435D01*
X144377706Y-109206131D01*
X144406021Y-109200500D01*
X144549257Y-109200500D01*
X144558145Y-109195367D01*
X144666286Y-109166392D01*
X144780414Y-109100500D01*
X144873600Y-109007314D01*
X144939492Y-108893186D01*
X144968467Y-108785045D01*
X144973600Y-108776156D01*
X144973600Y-108633120D01*
X144972343Y-108629418D01*
X144942538Y-108518183D01*
X144942538Y-108518182D01*
X144942537Y-108518180D01*
X144939492Y-108506814D01*
X144873600Y-108392686D01*
X144780414Y-108299500D01*
X144725172Y-108267606D01*
X144725171Y-108267605D01*
X144666308Y-108233619D01*
X144666293Y-108233612D01*
X144666290Y-108233610D01*
X144666283Y-108233607D01*
X144666284Y-108233607D01*
X144666282Y-108233606D01*
X144666281Y-108233606D01*
X144538994Y-108199500D01*
X144538993Y-108199500D01*
X144407207Y-108199500D01*
X144407206Y-108199500D01*
X144315467Y-108224081D01*
X144279914Y-108233607D01*
X144279896Y-108233616D01*
X144165788Y-108299497D01*
X144072597Y-108392688D01*
X144006716Y-108506796D01*
X144006708Y-108506814D01*
X144006706Y-108506818D01*
X143972602Y-108634100D01*
X143972600Y-108634106D01*
X143972600Y-108761487D01*
X143970076Y-108780649D01*
X143963211Y-108806256D01*
X143944061Y-108839419D01*
X143809142Y-108974342D01*
X143809142Y-108974343D01*
X143731640Y-109051845D01*
X143689700Y-109153099D01*
X143689700Y-119310275D01*
X143684067Y-119338591D01*
X143678060Y-119353096D01*
X143674762Y-119361058D01*
X143658721Y-119385064D01*
X143564698Y-119479086D01*
X143498816Y-119593196D01*
X143498808Y-119593214D01*
X143498806Y-119593218D01*
X143464700Y-119720505D01*
X104890910Y-119720505D01*
X108284257Y-116327158D01*
X108326200Y-116225900D01*
X108326200Y-116116300D01*
X108326200Y-111454118D01*
X108331829Y-111425809D01*
X108336143Y-111415394D01*
X108376182Y-111375348D01*
X108386611Y-111371028D01*
X108414919Y-111365400D01*
X110286998Y-111365400D01*
X110287000Y-111365400D01*
X110388258Y-111323457D01*
X110465757Y-111245958D01*
X110465756Y-111245958D01*
X110500717Y-111210997D01*
X110500719Y-111210994D01*
X110535677Y-111176036D01*
X110535676Y-111176036D01*
X114102609Y-107609105D01*
X114691700Y-107609105D01*
X114691700Y-107740894D01*
X114725806Y-107868181D01*
X114725807Y-107868184D01*
X114725808Y-107868186D01*
X114791700Y-107982314D01*
X114884886Y-108075500D01*
X114973972Y-108126934D01*
X114999016Y-108141393D01*
X114999045Y-108141404D01*
X114999546Y-108141534D01*
X115051318Y-108155407D01*
X115077208Y-108168174D01*
X115086147Y-108175033D01*
X115114467Y-108224081D01*
X115114467Y-108224085D01*
X115115937Y-108235253D01*
X115114050Y-108264057D01*
X115113100Y-108267603D01*
X115113100Y-108267605D01*
X115113100Y-108267606D01*
X115113100Y-108399394D01*
X115144930Y-108518186D01*
X115147207Y-108526683D01*
X115147219Y-108526708D01*
X115209224Y-108634100D01*
X115209225Y-108634102D01*
X115213100Y-108640814D01*
X115306286Y-108734000D01*
X115420414Y-108799892D01*
X115543024Y-108832744D01*
X115546722Y-108834000D01*
X115675087Y-108834000D01*
X115694233Y-108836520D01*
X115719849Y-108843384D01*
X115753020Y-108862535D01*
X122711618Y-115821133D01*
X122727657Y-115845136D01*
X122738068Y-115870270D01*
X122743700Y-115898585D01*
X122743700Y-118523875D01*
X122738067Y-118552191D01*
X122733049Y-118564309D01*
X122728762Y-118574658D01*
X122712721Y-118598664D01*
X122618698Y-118692686D01*
X122552816Y-118806796D01*
X122552808Y-118806814D01*
X122552806Y-118806818D01*
X122518700Y-118934105D01*
X122518700Y-119065894D01*
X122528982Y-119104266D01*
X122552807Y-119193184D01*
X122552808Y-119193186D01*
X122552810Y-119193191D01*
X122580471Y-119241100D01*
X122618697Y-119307310D01*
X122618698Y-119307311D01*
X122618700Y-119307314D01*
X122711886Y-119400500D01*
X122826014Y-119466392D01*
X122948624Y-119499244D01*
X122952322Y-119500500D01*
X123085094Y-119500500D01*
X123095357Y-119500500D01*
X123104245Y-119495367D01*
X123212386Y-119466392D01*
X123326514Y-119400500D01*
X123419700Y-119307314D01*
X123485592Y-119193186D01*
X123514567Y-119085045D01*
X123519700Y-119076156D01*
X123519700Y-118933121D01*
X123518444Y-118929424D01*
X123485742Y-118807377D01*
X123485605Y-118806847D01*
X123485593Y-118806816D01*
X123485589Y-118806809D01*
X123419700Y-118692686D01*
X123329621Y-118602607D01*
X123317855Y-118587269D01*
X123304604Y-118564308D01*
X123294700Y-118527324D01*
X123294700Y-115684300D01*
X123294699Y-115684298D01*
X123287037Y-115665800D01*
X123252757Y-115583043D01*
X123252757Y-115583042D01*
X123175258Y-115505543D01*
X116145077Y-108475362D01*
X116129037Y-108451356D01*
X116119731Y-108428890D01*
X116114100Y-108400575D01*
X116114100Y-108266619D01*
X116112843Y-108262916D01*
X116111821Y-108259102D01*
X116111820Y-108259101D01*
X116102438Y-108224085D01*
X116079992Y-108140314D01*
X116042572Y-108075500D01*
X116042101Y-108074684D01*
X116042101Y-108074685D01*
X116042057Y-108074608D01*
X116041890Y-108074319D01*
X116032567Y-108046906D01*
X116031993Y-108042541D01*
X116046653Y-107987836D01*
X116095703Y-107959519D01*
X116133672Y-107964516D01*
X116138556Y-107966539D01*
X116162566Y-107982581D01*
X121470072Y-113290088D01*
X121478264Y-113309866D01*
X121498041Y-113318057D01*
X121498040Y-113318057D01*
X121527697Y-113330340D01*
X121527698Y-113330341D01*
X121527699Y-113330341D01*
X121599300Y-113360000D01*
X127053876Y-113360000D01*
X127082190Y-113365631D01*
X127104658Y-113374937D01*
X127128663Y-113390977D01*
X127129500Y-113391814D01*
X127222686Y-113485000D01*
X127336814Y-113550892D01*
X127459424Y-113583744D01*
X127463122Y-113585000D01*
X127595894Y-113585000D01*
X127606157Y-113585000D01*
X127615045Y-113579867D01*
X127723186Y-113550892D01*
X127837314Y-113485000D01*
X127930500Y-113391814D01*
X127996392Y-113277686D01*
X128025367Y-113169545D01*
X128030500Y-113160656D01*
X128030500Y-113017621D01*
X128029244Y-113013924D01*
X127996542Y-112891877D01*
X127996405Y-112891347D01*
X127996393Y-112891316D01*
X127948503Y-112808368D01*
X127930500Y-112777186D01*
X127837314Y-112684000D01*
X127837311Y-112683998D01*
X127837310Y-112683997D01*
X127723202Y-112618116D01*
X127723193Y-112618111D01*
X127723190Y-112618110D01*
X127723183Y-112618107D01*
X127723184Y-112618107D01*
X127723182Y-112618106D01*
X127723181Y-112618106D01*
X127595894Y-112584000D01*
X127595893Y-112584000D01*
X127464107Y-112584000D01*
X127464106Y-112584000D01*
X127363707Y-112610901D01*
X127336814Y-112618107D01*
X127336796Y-112618116D01*
X127222686Y-112683998D01*
X127132610Y-112774075D01*
X127117276Y-112785839D01*
X127094318Y-112799090D01*
X127057327Y-112809000D01*
X121813587Y-112809000D01*
X121785269Y-112803367D01*
X121760140Y-112792958D01*
X121736134Y-112776918D01*
X116400659Y-107441444D01*
X116400657Y-107441442D01*
X116369375Y-107428485D01*
X116369375Y-107428484D01*
X116362167Y-107425499D01*
X116362166Y-107425499D01*
X116299400Y-107399500D01*
X116299399Y-107399500D01*
X115668324Y-107399500D01*
X115640006Y-107393867D01*
X115617544Y-107384563D01*
X115593536Y-107368522D01*
X115557324Y-107332310D01*
X115499514Y-107274500D01*
X115499511Y-107274498D01*
X115499510Y-107274497D01*
X115385402Y-107208616D01*
X115385393Y-107208611D01*
X115385390Y-107208610D01*
X115385383Y-107208607D01*
X115385384Y-107208607D01*
X115385382Y-107208606D01*
X115385381Y-107208606D01*
X115258094Y-107174500D01*
X115258093Y-107174500D01*
X115126307Y-107174500D01*
X115126306Y-107174500D01*
X115025907Y-107201401D01*
X114999014Y-107208607D01*
X114998996Y-107208616D01*
X114884888Y-107274497D01*
X114791697Y-107367688D01*
X114725816Y-107481796D01*
X114725810Y-107481809D01*
X114725806Y-107481818D01*
X114691700Y-107609105D01*
X114102609Y-107609105D01*
X115407978Y-106303737D01*
X115408862Y-106303301D01*
X115410456Y-106301484D01*
X115413759Y-106297956D01*
X115419557Y-106292159D01*
X115419559Y-106292153D01*
X115419806Y-106291786D01*
X115425706Y-106284095D01*
X115433360Y-106275367D01*
X115443694Y-106263582D01*
X115462328Y-106248288D01*
X115493314Y-106230400D01*
X115586500Y-106137214D01*
X115652392Y-106023086D01*
X115681367Y-105914945D01*
X115686500Y-105906056D01*
X115686500Y-105763021D01*
X115685241Y-105759312D01*
X115678968Y-105735901D01*
X115678744Y-105735064D01*
X115652392Y-105636714D01*
X115586500Y-105522586D01*
X115493314Y-105429400D01*
X115473023Y-105417685D01*
X115468572Y-105415115D01*
X115379202Y-105363516D01*
X115379193Y-105363511D01*
X115379190Y-105363510D01*
X115379183Y-105363507D01*
X115379184Y-105363507D01*
X115379182Y-105363506D01*
X115379181Y-105363506D01*
X115251894Y-105329400D01*
X115251893Y-105329400D01*
X115120107Y-105329400D01*
X115120106Y-105329400D01*
X115019707Y-105356301D01*
X114992814Y-105363507D01*
X114992796Y-105363516D01*
X114878684Y-105429399D01*
X114878683Y-105429401D01*
X114836334Y-105471751D01*
X114812322Y-105487795D01*
X114804962Y-105490843D01*
X114748325Y-105490839D01*
X114708281Y-105450792D01*
X114705231Y-105443429D01*
X114699600Y-105415115D01*
X114699600Y-96763832D01*
X114705229Y-96735523D01*
X114709543Y-96725108D01*
X114749582Y-96685062D01*
X114750452Y-96684701D01*
X114797864Y-96681615D01*
X114801190Y-96682506D01*
X114819037Y-96689899D01*
X114877907Y-96723888D01*
X114877914Y-96723892D01*
X115000524Y-96756744D01*
X115004222Y-96758000D01*
X115136994Y-96758000D01*
X115147257Y-96758000D01*
X115156145Y-96752867D01*
X115264286Y-96723892D01*
X115378414Y-96658000D01*
X115471600Y-96564814D01*
X115537492Y-96450686D01*
X115553713Y-96390145D01*
X115566481Y-96364255D01*
X115570197Y-96359412D01*
X115619245Y-96331097D01*
X115673952Y-96345757D01*
X115700371Y-96385275D01*
X115700469Y-96385640D01*
X115703000Y-96404829D01*
X115703000Y-96463894D01*
X115730041Y-96564814D01*
X115737107Y-96591184D01*
X115737108Y-96591186D01*
X115737110Y-96591191D01*
X115775683Y-96658000D01*
X115802997Y-96705310D01*
X115802998Y-96705311D01*
X115803000Y-96705314D01*
X115896186Y-96798500D01*
X116010314Y-96864392D01*
X116132924Y-96897244D01*
X116136622Y-96898500D01*
X116269394Y-96898500D01*
X116279657Y-96898500D01*
X116288545Y-96893367D01*
X116361331Y-96873864D01*
X116390137Y-96871977D01*
X116401307Y-96873447D01*
X116450356Y-96901762D01*
X116453407Y-96905738D01*
X116468700Y-96950786D01*
X116468700Y-105877200D01*
X116474586Y-105891412D01*
X116480218Y-105919726D01*
X116480218Y-105927693D01*
X116458544Y-105980019D01*
X116406218Y-106001693D01*
X116402095Y-106001693D01*
X116365094Y-105991778D01*
X116353908Y-105985319D01*
X116353893Y-105985312D01*
X116353890Y-105985310D01*
X116353883Y-105985307D01*
X116353884Y-105985307D01*
X116353882Y-105985306D01*
X116353881Y-105985306D01*
X116226594Y-105951200D01*
X116226593Y-105951200D01*
X116094807Y-105951200D01*
X116094806Y-105951200D01*
X115994407Y-105978101D01*
X115967514Y-105985307D01*
X115967496Y-105985316D01*
X115853388Y-106051197D01*
X115760197Y-106144388D01*
X115694316Y-106258496D01*
X115694310Y-106258509D01*
X115694306Y-106258518D01*
X115660200Y-106385805D01*
X115660200Y-106517594D01*
X115694306Y-106644881D01*
X115694307Y-106644884D01*
X115694308Y-106644886D01*
X115760200Y-106759014D01*
X115853386Y-106852200D01*
X115967514Y-106918092D01*
X116090124Y-106950944D01*
X116093822Y-106952200D01*
X116222187Y-106952200D01*
X116241333Y-106954720D01*
X116266949Y-106961584D01*
X116300119Y-106980734D01*
X117825541Y-108506157D01*
X117854582Y-108518186D01*
X117926800Y-108548100D01*
X117926801Y-108548100D01*
X119137498Y-108548100D01*
X119137500Y-108548100D01*
X119238758Y-108506157D01*
X119316257Y-108428658D01*
X119316256Y-108428658D01*
X119351217Y-108393697D01*
X119351219Y-108393694D01*
X119386177Y-108358736D01*
X119386176Y-108358736D01*
X120067558Y-107677358D01*
X120109500Y-107576100D01*
X120109500Y-107466500D01*
X120109500Y-99491985D01*
X120115131Y-99463671D01*
X120118181Y-99456307D01*
X120158228Y-99416260D01*
X120214863Y-99416258D01*
X120222227Y-99419308D01*
X120246233Y-99435348D01*
X122927469Y-102116585D01*
X122943510Y-102140592D01*
X122949938Y-102156110D01*
X122953047Y-102203592D01*
X122952155Y-102206919D01*
X122944768Y-102224751D01*
X122936708Y-102238712D01*
X122936706Y-102238718D01*
X122902600Y-102366005D01*
X122902600Y-102497794D01*
X122935905Y-102622090D01*
X122936707Y-102625083D01*
X122936716Y-102625102D01*
X122980996Y-102701795D01*
X123002597Y-102739210D01*
X123002598Y-102739211D01*
X123002600Y-102739214D01*
X123095786Y-102832400D01*
X123209914Y-102898292D01*
X123332524Y-102931144D01*
X123336222Y-102932400D01*
X123468994Y-102932400D01*
X123479257Y-102932400D01*
X123488145Y-102927267D01*
X123596286Y-102898292D01*
X123710414Y-102832400D01*
X123803600Y-102739214D01*
X123843956Y-102669313D01*
X123862992Y-102647606D01*
X123871930Y-102640748D01*
X123926635Y-102626090D01*
X123931604Y-102626744D01*
X123974270Y-102647785D01*
X127136518Y-105810033D01*
X127152557Y-105834036D01*
X127162968Y-105859170D01*
X127168600Y-105887485D01*
X127168600Y-111023875D01*
X127162967Y-111052191D01*
X127155496Y-111070230D01*
X127153662Y-111074658D01*
X127137621Y-111098664D01*
X127043598Y-111192686D01*
X126977716Y-111306796D01*
X126977708Y-111306814D01*
X126977706Y-111306818D01*
X126943600Y-111434105D01*
X126943600Y-111565894D01*
X126977706Y-111693181D01*
X126977707Y-111693184D01*
X126977708Y-111693186D01*
X127043600Y-111807314D01*
X127136786Y-111900500D01*
X127250914Y-111966392D01*
X127373524Y-111999244D01*
X127377222Y-112000500D01*
X127509994Y-112000500D01*
X127520257Y-112000500D01*
X127529145Y-111995367D01*
X127637286Y-111966392D01*
X127751414Y-111900500D01*
X127844600Y-111807314D01*
X127910492Y-111693186D01*
X127939467Y-111585045D01*
X127944600Y-111576156D01*
X127944600Y-111433123D01*
X127943347Y-111429432D01*
X127926188Y-111365395D01*
X127910492Y-111306814D01*
X127844600Y-111192686D01*
X127754521Y-111102607D01*
X127742755Y-111087269D01*
X127729504Y-111064308D01*
X127719600Y-111027324D01*
X127719600Y-106159785D01*
X127725230Y-106131473D01*
X127728281Y-106124108D01*
X127768325Y-106084060D01*
X127824959Y-106084056D01*
X127832327Y-106087107D01*
X127856332Y-106103147D01*
X130727526Y-108974342D01*
X133458772Y-111705588D01*
X133466964Y-111725366D01*
X133486741Y-111733557D01*
X133486740Y-111733557D01*
X133516397Y-111745840D01*
X133516398Y-111745841D01*
X133516399Y-111745841D01*
X133588000Y-111775500D01*
X138984376Y-111775500D01*
X139012690Y-111781131D01*
X139035158Y-111790437D01*
X139059163Y-111806477D01*
X139060000Y-111807314D01*
X139153186Y-111900500D01*
X139267314Y-111966392D01*
X139389924Y-111999244D01*
X139393622Y-112000500D01*
X139526394Y-112000500D01*
X139536657Y-112000500D01*
X139545545Y-111995367D01*
X139653686Y-111966392D01*
X139767814Y-111900500D01*
X139861000Y-111807314D01*
X139926892Y-111693186D01*
X139955867Y-111585045D01*
X139961000Y-111576156D01*
X139961000Y-111433123D01*
X139959747Y-111429432D01*
X139942588Y-111365395D01*
X139926892Y-111306814D01*
X139861000Y-111192686D01*
X139767814Y-111099500D01*
X139767812Y-111099498D01*
X139767707Y-111099438D01*
X139653702Y-111033616D01*
X139653693Y-111033611D01*
X139653690Y-111033610D01*
X139653681Y-111033606D01*
X139653680Y-111033605D01*
X139653679Y-111033605D01*
X139574291Y-111012333D01*
X139548396Y-110999563D01*
X139539461Y-110992707D01*
X139511143Y-110943663D01*
X139510488Y-110938691D01*
X139519769Y-110892033D01*
X139538702Y-110859242D01*
X139574992Y-110796386D01*
X139603967Y-110688245D01*
X139609100Y-110679356D01*
X139609100Y-110536321D01*
X139607844Y-110532623D01*
X139574992Y-110410014D01*
X139509100Y-110295886D01*
X139415914Y-110202700D01*
X139415911Y-110202698D01*
X139415910Y-110202697D01*
X139301802Y-110136816D01*
X139301793Y-110136811D01*
X139301790Y-110136810D01*
X139301783Y-110136807D01*
X139301784Y-110136807D01*
X139301782Y-110136806D01*
X139301781Y-110136806D01*
X139174494Y-110102700D01*
X139174493Y-110102700D01*
X139047114Y-110102700D01*
X139027961Y-110100178D01*
X139002352Y-110093316D01*
X138969180Y-110074164D01*
X134904281Y-106009265D01*
X134888241Y-105985259D01*
X134877831Y-105960127D01*
X134872200Y-105931813D01*
X134872200Y-103642122D01*
X134877832Y-103613806D01*
X134879999Y-103608575D01*
X134886771Y-103592224D01*
X134910083Y-103561840D01*
X134924509Y-103550767D01*
X134936553Y-103533961D01*
X134997198Y-103473316D01*
X134997200Y-103473314D01*
X135063092Y-103359186D01*
X135092067Y-103251045D01*
X135097200Y-103242156D01*
X135097200Y-103099122D01*
X135095945Y-103095428D01*
X135073379Y-103011208D01*
X135063092Y-102972814D01*
X134997200Y-102858686D01*
X134904014Y-102765500D01*
X134884305Y-102754121D01*
X134844699Y-102731254D01*
X134789902Y-102699616D01*
X134789893Y-102699611D01*
X134789890Y-102699610D01*
X134789883Y-102699607D01*
X134789884Y-102699607D01*
X134789882Y-102699606D01*
X134789881Y-102699606D01*
X134662594Y-102665500D01*
X134662593Y-102665500D01*
X134530807Y-102665500D01*
X134530806Y-102665500D01*
X134430407Y-102692401D01*
X134403514Y-102699607D01*
X134403496Y-102699616D01*
X134289388Y-102765497D01*
X134196197Y-102858688D01*
X134130316Y-102972796D01*
X134130308Y-102972814D01*
X134130306Y-102972818D01*
X134096200Y-103100105D01*
X134096200Y-103231894D01*
X134130306Y-103359181D01*
X134130307Y-103359183D01*
X134130316Y-103359202D01*
X134196197Y-103473310D01*
X134196198Y-103473311D01*
X134196200Y-103473314D01*
X134256847Y-103533961D01*
X134286266Y-103563380D01*
X134298023Y-103578701D01*
X134311283Y-103601664D01*
X134321200Y-103638669D01*
X134321200Y-106146100D01*
X134351042Y-106218143D01*
X134351043Y-106218146D01*
X134363139Y-106247352D01*
X134363145Y-106247360D01*
X138577122Y-110461338D01*
X138593162Y-110485344D01*
X138602467Y-110507808D01*
X138608100Y-110536125D01*
X138608100Y-110537305D01*
X138608100Y-110537308D01*
X138608100Y-110669094D01*
X138638284Y-110781743D01*
X138642207Y-110796383D01*
X138642216Y-110796402D01*
X138693507Y-110885238D01*
X138702057Y-110900047D01*
X138708100Y-110910514D01*
X138801286Y-111003700D01*
X138915414Y-111069592D01*
X138936391Y-111075212D01*
X138962282Y-111087980D01*
X138967120Y-111091692D01*
X138995441Y-111140740D01*
X138980784Y-111195448D01*
X138941361Y-111221844D01*
X138940998Y-111221942D01*
X138921711Y-111224500D01*
X133802287Y-111224500D01*
X133773969Y-111218867D01*
X133748840Y-111208458D01*
X133724834Y-111192418D01*
X130831916Y-108299500D01*
X122114935Y-99582520D01*
X122098894Y-99558512D01*
X122095846Y-99551152D01*
X122095848Y-99494515D01*
X122135878Y-99454477D01*
X122136570Y-99454190D01*
X122193206Y-99454177D01*
X123088667Y-99828278D01*
X123889132Y-100162692D01*
X124019174Y-100217020D01*
X124024439Y-100219466D01*
X124029598Y-100222115D01*
X124034652Y-100224966D01*
X124041708Y-100229319D01*
X124042485Y-100230395D01*
X124085532Y-100244745D01*
X124085541Y-100244747D01*
X124085540Y-100244747D01*
X124085543Y-100244748D01*
X124092679Y-100245708D01*
X124098394Y-100246708D01*
X124099734Y-100246996D01*
X124104068Y-100247932D01*
X124109686Y-100249377D01*
X124418565Y-100341862D01*
X126912777Y-101088686D01*
X126919285Y-101090971D01*
X126925680Y-101093558D01*
X126931950Y-101096441D01*
X126932851Y-101096908D01*
X126956449Y-101102084D01*
X126959113Y-101102722D01*
X126961798Y-101103417D01*
X126964444Y-101104155D01*
X126987600Y-101111090D01*
X126988611Y-101111119D01*
X126995488Y-101111640D01*
X127002334Y-101112483D01*
X127009142Y-101113646D01*
X127820725Y-101291722D01*
X128317321Y-101400684D01*
X130073817Y-101786090D01*
X130081473Y-101788207D01*
X130088246Y-101790478D01*
X130091259Y-101791410D01*
X130091851Y-101791600D01*
X130091971Y-101791630D01*
X130091976Y-101791632D01*
X130091979Y-101791633D01*
X130095188Y-101792181D01*
X130097025Y-101792495D01*
X130097027Y-101792495D01*
X130097032Y-101792496D01*
X130121525Y-101796680D01*
X130123157Y-101796979D01*
X130123629Y-101797071D01*
X130124915Y-101797321D01*
X130126511Y-101797651D01*
X130155816Y-101804082D01*
X130159712Y-101804414D01*
X130166854Y-101804854D01*
X130174733Y-101805768D01*
X132709224Y-102238718D01*
X133422669Y-102360590D01*
X133430392Y-102362340D01*
X133437545Y-102364370D01*
X133441098Y-102365290D01*
X133470797Y-102368934D01*
X133472463Y-102369159D01*
X133474249Y-102369421D01*
X133475863Y-102369677D01*
X133498045Y-102373466D01*
X133498051Y-102373470D01*
X133498052Y-102373468D01*
X133505376Y-102374720D01*
X133509072Y-102374861D01*
X133516454Y-102374968D01*
X133524369Y-102375510D01*
X136856446Y-102784542D01*
X136864778Y-102786054D01*
X136868958Y-102787063D01*
X136868958Y-102787062D01*
X136886152Y-102791211D01*
X136893165Y-102789548D01*
X136906648Y-102790761D01*
X136907794Y-102790872D01*
X136908944Y-102790995D01*
X136910044Y-102791121D01*
X136917453Y-102792031D01*
X136935975Y-102801064D01*
X136962087Y-102797511D01*
X136969028Y-102798363D01*
X136973539Y-102796809D01*
X136975611Y-102796965D01*
X141557597Y-103209165D01*
X141565743Y-103210358D01*
X141570769Y-103211385D01*
X141570769Y-103211384D01*
X141588115Y-103214925D01*
X141594780Y-103213074D01*
X141607163Y-103213708D01*
X141608493Y-103213788D01*
X141610048Y-103213898D01*
X141611426Y-103214009D01*
X141611663Y-103214030D01*
X141613480Y-103214194D01*
X141613494Y-103214194D01*
X141623694Y-103215112D01*
X141630051Y-103217893D01*
X141647771Y-103216817D01*
X141647772Y-103216818D01*
X141652878Y-103216507D01*
X141661118Y-103216469D01*
X145456493Y-103410700D01*
X145463342Y-103411371D01*
X145470180Y-103412366D01*
X145476956Y-103413679D01*
X145477957Y-103413922D01*
X145502147Y-103413343D01*
X145504828Y-103413330D01*
X145507658Y-103413368D01*
X145510397Y-103413457D01*
X145534487Y-103414692D01*
X145535492Y-103414476D01*
X145542277Y-103413352D01*
X145549159Y-103412541D01*
X145556021Y-103412056D01*
X152820647Y-103238597D01*
X152827790Y-103238773D01*
X152834942Y-103239297D01*
X152841328Y-103240079D01*
X152841589Y-103240089D01*
X152841595Y-103240090D01*
X152867140Y-103237738D01*
X152869611Y-103237554D01*
X152869692Y-103237549D01*
X152872095Y-103237410D01*
X152874554Y-103237309D01*
X152900184Y-103236699D01*
X152900188Y-103236697D01*
X152900449Y-103236657D01*
X152906698Y-103235145D01*
X152913733Y-103233801D01*
X152920820Y-103232800D01*
X159677033Y-102611200D01*
X159683576Y-102610890D01*
X159690138Y-102610872D01*
X159696681Y-102611144D01*
X159699598Y-102611396D01*
X159721527Y-102607497D01*
X159724580Y-102607021D01*
X159727649Y-102606608D01*
X159730729Y-102606260D01*
X159752893Y-102604222D01*
X159755645Y-102603206D01*
X159761899Y-102601208D01*
X159768226Y-102599493D01*
X159774613Y-102598063D01*
X161863648Y-102226778D01*
X161870804Y-102225865D01*
X161878034Y-102225301D01*
X161883798Y-102225137D01*
X161884349Y-102225075D01*
X161884360Y-102225076D01*
X161909740Y-102218823D01*
X161911972Y-102218312D01*
X161914429Y-102217791D01*
X161916739Y-102217341D01*
X161942439Y-102212776D01*
X161942445Y-102212772D01*
X161942982Y-102212603D01*
X161948317Y-102210417D01*
X161955157Y-102208000D01*
X161962086Y-102205930D01*
X165898542Y-101236315D01*
X165904871Y-101235047D01*
X165911341Y-101234045D01*
X165917717Y-101233341D01*
X165919090Y-101233251D01*
X165919138Y-101233267D01*
X165919137Y-101233248D01*
X165919627Y-101233215D01*
X165921102Y-101233119D01*
X165941841Y-101226066D01*
X165944781Y-101225138D01*
X165947869Y-101224234D01*
X165950903Y-101223418D01*
X165972117Y-101218194D01*
X165975053Y-101216576D01*
X165980846Y-101213709D01*
X165986796Y-101211082D01*
X165992827Y-101208731D01*
X168210478Y-100454781D01*
X168215611Y-100453243D01*
X168220832Y-100451884D01*
X168226073Y-100450722D01*
X168235411Y-100449008D01*
X168249626Y-100442253D01*
X168253514Y-100440542D01*
X168257473Y-100438934D01*
X168261486Y-100437440D01*
X168276388Y-100432375D01*
X168276387Y-100432375D01*
X168276391Y-100432374D01*
X168284257Y-100427111D01*
X168288833Y-100424285D01*
X168293545Y-100421608D01*
X168298316Y-100419124D01*
X169771935Y-99719121D01*
X169799927Y-99712059D01*
X169806725Y-99711713D01*
X169807281Y-99711685D01*
X169860641Y-99730673D01*
X169884944Y-99781830D01*
X169865956Y-99835190D01*
X169863366Y-99837915D01*
X155548866Y-114152418D01*
X155524860Y-114168458D01*
X155499730Y-114178867D01*
X155471414Y-114184500D01*
X150493024Y-114184500D01*
X150464706Y-114178867D01*
X150442244Y-114169563D01*
X150418236Y-114153522D01*
X150417132Y-114152418D01*
X150324214Y-114059500D01*
X150324211Y-114059498D01*
X150324210Y-114059497D01*
X150210102Y-113993616D01*
X150210093Y-113993611D01*
X150210090Y-113993610D01*
X150210083Y-113993607D01*
X150210084Y-113993607D01*
X150210082Y-113993606D01*
X150210081Y-113993606D01*
X150082794Y-113959500D01*
X150082793Y-113959500D01*
X149951007Y-113959500D01*
X149951006Y-113959500D01*
X149877084Y-113979307D01*
X149823714Y-113993607D01*
X149823696Y-113993616D01*
X149709588Y-114059497D01*
X149616397Y-114152688D01*
X149550516Y-114266796D01*
X149550510Y-114266809D01*
X149550507Y-114266814D01*
X149550506Y-114266818D01*
X149516400Y-114394105D01*
X149516400Y-114525894D01*
X149546735Y-114639106D01*
X149550507Y-114653184D01*
X149550508Y-114653185D01*
X149550508Y-114653186D01*
X149569790Y-114686584D01*
X149616397Y-114767310D01*
X149616398Y-114767311D01*
X149616400Y-114767314D01*
X149709586Y-114860500D01*
X149823714Y-114926392D01*
X149946324Y-114959244D01*
X149950022Y-114960500D01*
X150082794Y-114960500D01*
X150093057Y-114960500D01*
X150101945Y-114955367D01*
X150210086Y-114926392D01*
X150324214Y-114860500D01*
X150414293Y-114770420D01*
X150429615Y-114758665D01*
X150452585Y-114745407D01*
X150489573Y-114735500D01*
X155685698Y-114735500D01*
X155685700Y-114735500D01*
X155786958Y-114693557D01*
X155864457Y-114616058D01*
X155864456Y-114616058D01*
X155899417Y-114581097D01*
X155899419Y-114581094D01*
X155934377Y-114546136D01*
X155934376Y-114546136D01*
X174291537Y-96188978D01*
X174315540Y-96172941D01*
X174340671Y-96162531D01*
X174368987Y-96156900D01*
X174426157Y-96156900D01*
X174435045Y-96151767D01*
X174543186Y-96122792D01*
X174657314Y-96056900D01*
X174750500Y-95963714D01*
X174816392Y-95849586D01*
X174845367Y-95741445D01*
X174850500Y-95732556D01*
X174850500Y-95589521D01*
X174849244Y-95585824D01*
X174816542Y-95463777D01*
X174816405Y-95463247D01*
X174816393Y-95463216D01*
X174816389Y-95463209D01*
X174750500Y-95349086D01*
X174657314Y-95255900D01*
X174657311Y-95255898D01*
X174657310Y-95255897D01*
X174543202Y-95190016D01*
X174543193Y-95190011D01*
X174543190Y-95190010D01*
X174543183Y-95190007D01*
X174543184Y-95190007D01*
X174543182Y-95190006D01*
X174543181Y-95190006D01*
X174415894Y-95155900D01*
X174415893Y-95155900D01*
X174284107Y-95155900D01*
X174284106Y-95155900D01*
X174221522Y-95172669D01*
X174156814Y-95190007D01*
X174156796Y-95190016D01*
X174042688Y-95255897D01*
X173949497Y-95349088D01*
X173883616Y-95463196D01*
X173883608Y-95463214D01*
X173883606Y-95463218D01*
X173850757Y-95585816D01*
X173849500Y-95590506D01*
X173849500Y-95722293D01*
X173861996Y-95768934D01*
X173863884Y-95797745D01*
X173861150Y-95818507D01*
X173840109Y-95861172D01*
X172238360Y-97462921D01*
X172214351Y-97478963D01*
X172206992Y-97482011D01*
X172150355Y-97482009D01*
X172110391Y-97442162D01*
X172110319Y-97441989D01*
X172110154Y-97385355D01*
X172112251Y-97380713D01*
X172114907Y-97375337D01*
X172117993Y-97369721D01*
X172119919Y-97366552D01*
X172125933Y-97345943D01*
X172126911Y-97342850D01*
X172127963Y-97339759D01*
X172129077Y-97336708D01*
X172129084Y-97336692D01*
X172175251Y-97218340D01*
X172454932Y-96501368D01*
X172456372Y-96497938D01*
X172457920Y-96494500D01*
X172459550Y-96491112D01*
X172459556Y-96491100D01*
X172468030Y-96474579D01*
X172469423Y-96468107D01*
X172470895Y-96462391D01*
X172472594Y-96456742D01*
X172474537Y-96451112D01*
X172474718Y-96450649D01*
X172475689Y-96448159D01*
X172476919Y-96445007D01*
X172478961Y-96426531D01*
X172479468Y-96422811D01*
X172480071Y-96419094D01*
X172480761Y-96415434D01*
X173040498Y-93815480D01*
X173041510Y-93811368D01*
X173042655Y-93807229D01*
X173043913Y-93803152D01*
X173048969Y-93788290D01*
X173048969Y-93788289D01*
X173048970Y-93788287D01*
X173049596Y-93778832D01*
X173050149Y-93773459D01*
X173050896Y-93768123D01*
X173051839Y-93762805D01*
X173053833Y-93753546D01*
X173053049Y-93737813D01*
X173052960Y-93733608D01*
X173052995Y-93729282D01*
X173053151Y-93725049D01*
X173166784Y-92007234D01*
X173167461Y-92001028D01*
X173168411Y-91994792D01*
X173169616Y-91988655D01*
X173170673Y-91984262D01*
X173170139Y-91963602D01*
X173170130Y-91960213D01*
X173170198Y-91956833D01*
X173170344Y-91953440D01*
X173171545Y-91935285D01*
X173171765Y-91933099D01*
X173171740Y-91932975D01*
X173171708Y-91932816D01*
X173171708Y-91932815D01*
X173171709Y-91932813D01*
X173170826Y-91928362D01*
X173169871Y-91922173D01*
X173169178Y-91915943D01*
X173168750Y-91909687D01*
X173123959Y-90171759D01*
X173124118Y-90164666D01*
X173124620Y-90157562D01*
X173125432Y-90150759D01*
X173125435Y-90150673D01*
X173123032Y-90125470D01*
X173122833Y-90122913D01*
X173122679Y-90120367D01*
X173122571Y-90117878D01*
X173121918Y-90092512D01*
X173121916Y-90092506D01*
X173121903Y-90092419D01*
X173120274Y-90085746D01*
X173118925Y-90078778D01*
X173117910Y-90071735D01*
X173087244Y-89750029D01*
X172912788Y-87919910D01*
X172912458Y-87912219D01*
X172912528Y-87904542D01*
X172912652Y-87902534D01*
X172912612Y-87900267D01*
X172912613Y-87900262D01*
X172908375Y-87871977D01*
X172908120Y-87870102D01*
X172907869Y-87868048D01*
X172907671Y-87866223D01*
X172904958Y-87837758D01*
X172904955Y-87837749D01*
X172904458Y-87835581D01*
X172903839Y-87833614D01*
X172901916Y-87826170D01*
X172900385Y-87818641D01*
X172886824Y-87728122D01*
X172210614Y-83214306D01*
X172209856Y-83206286D01*
X172209656Y-83201262D01*
X172209887Y-83196433D01*
X172209246Y-83190937D01*
X172208916Y-83182647D01*
X172205610Y-83176812D01*
X172205609Y-83176805D01*
X172203411Y-83165540D01*
X172203133Y-83164019D01*
X172202862Y-83162446D01*
X172202623Y-83160967D01*
X172200866Y-83149238D01*
X172201986Y-83142702D01*
X172199623Y-83135108D01*
X172199490Y-83134525D01*
X172198812Y-83132503D01*
X172196790Y-83126005D01*
X172196791Y-83126005D01*
X172195059Y-83120440D01*
X172193090Y-83112631D01*
X171218939Y-78118612D01*
X171217975Y-78112166D01*
X171217295Y-78105660D01*
X171216904Y-78099130D01*
X171216856Y-78096052D01*
X171210808Y-78074829D01*
X171210014Y-78071802D01*
X171209285Y-78068760D01*
X171209271Y-78068701D01*
X171208615Y-78065678D01*
X171205754Y-78051016D01*
X171205572Y-78049131D01*
X171204389Y-78044017D01*
X171204387Y-78044003D01*
X171204387Y-78044002D01*
X171203024Y-78041212D01*
X171200416Y-78035216D01*
X171198082Y-78029127D01*
X171196018Y-78022934D01*
X169737777Y-72906036D01*
X169736851Y-72902443D01*
X169735995Y-72898731D01*
X169735250Y-72895077D01*
X169732010Y-72876794D01*
X169729199Y-72870780D01*
X169726913Y-72865335D01*
X169724847Y-72859804D01*
X169723003Y-72854192D01*
X169722725Y-72853217D01*
X169721182Y-72847802D01*
X169715230Y-72837861D01*
X169711651Y-72831882D01*
X169709805Y-72828610D01*
X169708027Y-72825263D01*
X169706341Y-72821883D01*
X169674649Y-72754086D01*
X169138388Y-71606900D01*
X168555565Y-70360107D01*
X168554610Y-70357976D01*
X168554607Y-70357968D01*
X168553677Y-70355802D01*
X168552785Y-70353626D01*
X168543159Y-70329038D01*
X168543151Y-70329026D01*
X168542912Y-70328685D01*
X168539917Y-70324048D01*
X168536757Y-70318731D01*
X168535319Y-70315817D01*
X168533235Y-70312337D01*
X168522547Y-70299625D01*
X168516265Y-70292152D01*
X168514767Y-70290311D01*
X168513293Y-70288438D01*
X168511869Y-70286568D01*
X168275970Y-69966391D01*
X167595818Y-69043246D01*
X167594383Y-69041227D01*
X167592981Y-69039183D01*
X167591608Y-69037108D01*
X167577792Y-69015438D01*
X167576644Y-69014290D01*
X167576667Y-69014266D01*
X167573151Y-69010717D01*
X167568316Y-69005338D01*
X167564171Y-69000293D01*
X167564144Y-69000256D01*
X167564138Y-69000248D01*
X167564135Y-69000246D01*
X167564136Y-69000246D01*
X167564131Y-69000240D01*
X167563357Y-68999508D01*
X167561658Y-68998267D01*
X167544025Y-68984182D01*
X167542166Y-68982645D01*
X167540218Y-68980979D01*
X167538390Y-68979360D01*
X167537926Y-68978935D01*
X167537922Y-68978927D01*
X167537920Y-68978930D01*
X166931078Y-68423286D01*
X166326024Y-67869279D01*
X166324545Y-67867886D01*
X166323133Y-67866520D01*
X166321693Y-67865089D01*
X166302463Y-67845436D01*
X166301918Y-67844879D01*
X166301916Y-67844878D01*
X166301806Y-67844765D01*
X166301019Y-67844134D01*
X166300829Y-67843976D01*
X166300524Y-67843757D01*
X166298252Y-67842248D01*
X166293269Y-67838553D01*
X166292298Y-67837716D01*
X166291798Y-67837349D01*
X166290685Y-67836436D01*
X166289466Y-67835598D01*
X166288629Y-67835003D01*
X166288034Y-67834700D01*
X166263460Y-67821919D01*
X166261658Y-67820951D01*
X166260873Y-67820515D01*
X166259871Y-67819958D01*
X166258127Y-67818956D01*
X164805055Y-66958860D01*
X164801565Y-66956661D01*
X164798112Y-66954348D01*
X164794740Y-66951950D01*
X164781552Y-66941999D01*
X164781550Y-66941998D01*
X164781549Y-66941997D01*
X164773506Y-66938742D01*
X164768448Y-66936471D01*
X164763960Y-66934250D01*
X164757404Y-66929545D01*
X164755825Y-66928891D01*
X164751841Y-66926913D01*
X164747059Y-66925261D01*
X164746135Y-66924878D01*
X164741383Y-66924226D01*
X164739855Y-66923798D01*
X164735255Y-66922512D01*
X164731308Y-66921288D01*
X164727387Y-66919951D01*
X164723508Y-66918506D01*
X163319765Y-66350385D01*
X163314015Y-66347767D01*
X163310669Y-66346067D01*
X163308397Y-66344913D01*
X163302889Y-66341812D01*
X163299240Y-66339547D01*
X163299233Y-66339545D01*
X163299110Y-66339507D01*
X163298683Y-66339378D01*
X163298682Y-66339378D01*
X163279238Y-66333494D01*
X163276052Y-66332450D01*
X163272910Y-66331341D01*
X163269778Y-66330155D01*
X163250404Y-66322314D01*
X163250406Y-66322314D01*
X163246994Y-66321893D01*
X163246136Y-66321787D01*
X163239899Y-66320745D01*
X163233731Y-66319441D01*
X163227606Y-66317870D01*
X161419109Y-65770658D01*
X161413053Y-65768535D01*
X161407119Y-65766161D01*
X161401275Y-65763523D01*
X161397894Y-65761817D01*
X161397892Y-65761816D01*
X161397891Y-65761816D01*
X161376950Y-65757450D01*
X161373773Y-65756714D01*
X161370592Y-65755903D01*
X161367444Y-65755026D01*
X161346993Y-65748838D01*
X161346983Y-65748835D01*
X161346979Y-65748834D01*
X161343211Y-65748714D01*
X161336814Y-65748230D01*
X161330472Y-65747473D01*
X161324137Y-65746437D01*
X157021869Y-64849320D01*
X157015243Y-64847615D01*
X157008733Y-64845615D01*
X157002281Y-64843300D01*
X157001023Y-64842782D01*
X157001010Y-64842777D01*
X157000994Y-64842774D01*
X156977414Y-64839717D01*
X156974598Y-64839297D01*
X156971770Y-64838819D01*
X156969006Y-64838298D01*
X156968019Y-64838092D01*
X156958789Y-64836168D01*
X156951529Y-64834654D01*
X156945748Y-64833449D01*
X156945745Y-64833448D01*
X156944438Y-64833522D01*
X156944373Y-64833526D01*
X156937532Y-64833593D01*
X156930721Y-64833345D01*
X156923900Y-64832780D01*
X153518820Y-64391340D01*
X153491462Y-64382113D01*
X153484554Y-64378143D01*
X153449986Y-64333279D01*
X153457264Y-64277115D01*
X153463005Y-64267126D01*
X153474831Y-64251682D01*
X153563900Y-64162614D01*
X153629792Y-64048486D01*
X153658767Y-63940345D01*
X153663900Y-63931456D01*
X153663900Y-63788420D01*
X153662642Y-63784714D01*
X153657922Y-63767099D01*
X153657921Y-63767098D01*
X153629792Y-63662114D01*
X153563900Y-63547986D01*
X153473821Y-63457907D01*
X153462055Y-63442569D01*
X153448804Y-63419608D01*
X153438900Y-63382624D01*
X153438900Y-62519805D01*
X153756200Y-62519805D01*
X153756200Y-62651594D01*
X153785550Y-62761131D01*
X153790307Y-62778883D01*
X153790316Y-62778902D01*
X153794690Y-62786477D01*
X153848975Y-62880500D01*
X153856200Y-62893014D01*
X153949386Y-62986200D01*
X154063514Y-63052092D01*
X154186124Y-63084944D01*
X154189822Y-63086200D01*
X154322594Y-63086200D01*
X154332857Y-63086200D01*
X154341745Y-63081067D01*
X154449886Y-63052092D01*
X154564014Y-62986200D01*
X154657200Y-62893014D01*
X154723092Y-62778886D01*
X154752067Y-62670745D01*
X154757200Y-62661856D01*
X154757200Y-62519805D01*
X154753621Y-62506452D01*
X154751256Y-62482459D01*
X154752769Y-62459366D01*
X154758244Y-62435887D01*
X154773400Y-62399300D01*
X154773400Y-61507405D01*
X157116100Y-61507405D01*
X157116100Y-61639194D01*
X157146971Y-61754406D01*
X157150207Y-61766484D01*
X157150208Y-61766486D01*
X157150210Y-61766491D01*
X157184279Y-61825499D01*
X157216097Y-61880610D01*
X157216098Y-61880611D01*
X157216100Y-61880614D01*
X157309286Y-61973800D01*
X157423414Y-62039692D01*
X157546024Y-62072544D01*
X157549722Y-62073800D01*
X157682494Y-62073800D01*
X157692757Y-62073800D01*
X157701645Y-62068667D01*
X157809786Y-62039692D01*
X157923914Y-61973800D01*
X158013993Y-61883720D01*
X158029315Y-61871965D01*
X158052285Y-61858707D01*
X158089273Y-61848800D01*
X162153614Y-61848800D01*
X162181928Y-61854431D01*
X162207060Y-61864841D01*
X162231066Y-61880881D01*
X169708322Y-69358138D01*
X169724362Y-69382144D01*
X169733667Y-69404608D01*
X169739300Y-69432925D01*
X169739300Y-69434105D01*
X169739300Y-69434108D01*
X169739300Y-69565894D01*
X169773406Y-69693181D01*
X169773407Y-69693183D01*
X169773416Y-69693202D01*
X169839297Y-69807310D01*
X169839298Y-69807311D01*
X169839300Y-69807314D01*
X169932486Y-69900500D01*
X170046614Y-69966392D01*
X170169224Y-69999244D01*
X170172922Y-70000500D01*
X170305694Y-70000500D01*
X170315957Y-70000500D01*
X170324845Y-69995367D01*
X170432986Y-69966392D01*
X170547114Y-69900500D01*
X170640300Y-69807314D01*
X170706192Y-69693186D01*
X170735167Y-69585045D01*
X170740300Y-69576156D01*
X170740300Y-69433121D01*
X170739044Y-69429423D01*
X170706192Y-69306814D01*
X170640300Y-69192686D01*
X170547114Y-69099500D01*
X170440879Y-69038165D01*
X170440878Y-69038164D01*
X170432996Y-69033613D01*
X170432997Y-69033613D01*
X170432981Y-69033606D01*
X170365176Y-69015438D01*
X170305694Y-68999500D01*
X170305693Y-68999500D01*
X170178314Y-68999500D01*
X170159161Y-68996978D01*
X170133552Y-68990116D01*
X170100380Y-68970964D01*
X162469159Y-61339744D01*
X162469157Y-61339742D01*
X162439326Y-61327386D01*
X162418407Y-61318721D01*
X162367900Y-61297800D01*
X162367899Y-61297800D01*
X158092724Y-61297800D01*
X158064406Y-61292167D01*
X158041944Y-61282863D01*
X158017936Y-61266822D01*
X157982910Y-61231796D01*
X157923914Y-61172800D01*
X157923911Y-61172798D01*
X157923910Y-61172797D01*
X157809802Y-61106916D01*
X157809793Y-61106911D01*
X157809790Y-61106910D01*
X157809783Y-61106907D01*
X157809784Y-61106907D01*
X157809782Y-61106906D01*
X157809781Y-61106906D01*
X157682494Y-61072800D01*
X157682493Y-61072800D01*
X157550707Y-61072800D01*
X157550706Y-61072800D01*
X157480953Y-61091490D01*
X157423414Y-61106907D01*
X157423396Y-61106916D01*
X157309288Y-61172797D01*
X157216097Y-61265988D01*
X157150216Y-61380096D01*
X157150210Y-61380109D01*
X157150206Y-61380118D01*
X157116100Y-61507405D01*
X154773400Y-61507405D01*
X154773400Y-59607322D01*
X154779032Y-59579006D01*
X154787971Y-59557424D01*
X154811283Y-59527040D01*
X154825709Y-59515967D01*
X154837753Y-59499161D01*
X154898398Y-59438516D01*
X154898400Y-59438514D01*
X154964292Y-59324386D01*
X154993267Y-59216245D01*
X154998400Y-59207356D01*
X154998400Y-59064321D01*
X154997144Y-59060624D01*
X154964442Y-58938577D01*
X154964305Y-58938047D01*
X154964293Y-58938016D01*
X154964289Y-58938009D01*
X154898400Y-58823886D01*
X154805214Y-58730700D01*
X154805211Y-58730698D01*
X154805210Y-58730697D01*
X154706661Y-58673800D01*
X154706660Y-58673799D01*
X154691107Y-58664819D01*
X154691096Y-58664813D01*
X154691090Y-58664810D01*
X154691083Y-58664807D01*
X154691084Y-58664807D01*
X154691082Y-58664806D01*
X154691081Y-58664806D01*
X154563794Y-58630700D01*
X154563793Y-58630700D01*
X154432007Y-58630700D01*
X154432006Y-58630700D01*
X154331607Y-58657601D01*
X154304714Y-58664807D01*
X154304696Y-58664816D01*
X154190588Y-58730697D01*
X154097397Y-58823888D01*
X154031516Y-58937996D01*
X154031508Y-58938014D01*
X154031506Y-58938018D01*
X153997400Y-59065305D01*
X153997400Y-59197094D01*
X154031506Y-59324381D01*
X154031507Y-59324383D01*
X154031516Y-59324402D01*
X154097397Y-59438510D01*
X154097398Y-59438511D01*
X154097400Y-59438514D01*
X154158047Y-59499161D01*
X154187466Y-59528580D01*
X154199223Y-59543901D01*
X154212483Y-59566864D01*
X154222400Y-59603869D01*
X154222400Y-62005233D01*
X154216767Y-62033550D01*
X154210497Y-62048688D01*
X154210339Y-62049070D01*
X154178973Y-62084836D01*
X154175994Y-62086556D01*
X154158147Y-62093949D01*
X154063517Y-62119306D01*
X154063515Y-62119307D01*
X154063496Y-62119316D01*
X153949388Y-62185197D01*
X153856197Y-62278388D01*
X153790316Y-62392496D01*
X153790310Y-62392509D01*
X153790306Y-62392518D01*
X153756200Y-62519805D01*
X153438900Y-62519805D01*
X153438900Y-54949884D01*
X153444532Y-54921568D01*
X153454940Y-54896438D01*
X153470978Y-54872435D01*
X154050062Y-54293350D01*
X154074070Y-54277311D01*
X154084479Y-54273000D01*
X154141112Y-54273001D01*
X154145749Y-54274922D01*
X154181500Y-54306275D01*
X154184680Y-54311781D01*
X154184683Y-54311793D01*
X154184686Y-54311792D01*
X154228000Y-54386814D01*
X154321186Y-54480000D01*
X154435314Y-54545892D01*
X154557924Y-54578744D01*
X154561622Y-54580000D01*
X154694394Y-54580000D01*
X154704657Y-54580000D01*
X154713545Y-54574867D01*
X154821686Y-54545892D01*
X154935814Y-54480000D01*
X155029000Y-54386814D01*
X155094892Y-54272686D01*
X155123867Y-54164545D01*
X155129000Y-54155656D01*
X155129000Y-54018011D01*
X155131522Y-53998857D01*
X155135128Y-53985400D01*
X155138384Y-53973247D01*
X155157534Y-53940079D01*
X155300806Y-53796808D01*
X155483157Y-53614458D01*
X155491515Y-53594280D01*
X155525100Y-53513200D01*
X155525100Y-53461585D01*
X155530731Y-53433271D01*
X155533781Y-53425907D01*
X155573828Y-53385860D01*
X155630463Y-53385858D01*
X155637827Y-53388908D01*
X155661833Y-53404948D01*
X159718918Y-57462033D01*
X159734957Y-57486036D01*
X159745368Y-57511170D01*
X159751000Y-57539485D01*
X159751000Y-59023875D01*
X159745367Y-59052191D01*
X159740349Y-59064309D01*
X159736062Y-59074658D01*
X159720021Y-59098664D01*
X159625998Y-59192686D01*
X159560116Y-59306796D01*
X159560108Y-59306814D01*
X159560106Y-59306818D01*
X159526000Y-59434105D01*
X159526000Y-59565894D01*
X159556746Y-59680641D01*
X159560107Y-59693184D01*
X159560108Y-59693186D01*
X159560110Y-59693191D01*
X159586674Y-59739200D01*
X159625997Y-59807310D01*
X159625998Y-59807311D01*
X159626000Y-59807314D01*
X159719186Y-59900500D01*
X159833314Y-59966392D01*
X159955924Y-59999244D01*
X159959622Y-60000500D01*
X160092394Y-60000500D01*
X160102657Y-60000500D01*
X160111545Y-59995367D01*
X160219686Y-59966392D01*
X160333814Y-59900500D01*
X160427000Y-59807314D01*
X160492892Y-59693186D01*
X160521867Y-59585045D01*
X160527000Y-59576156D01*
X160527000Y-59433121D01*
X160525741Y-59429413D01*
X160512484Y-59379936D01*
X160492892Y-59306814D01*
X160427000Y-59192686D01*
X160336921Y-59102607D01*
X160325155Y-59087269D01*
X160311904Y-59064308D01*
X160302000Y-59027324D01*
X160302000Y-57325202D01*
X160302000Y-57325200D01*
X160297361Y-57314000D01*
X160260058Y-57223942D01*
X150733358Y-47697243D01*
X150632100Y-47655300D01*
X150632099Y-47655300D01*
X144638524Y-47655300D01*
X144610206Y-47649667D01*
X144587744Y-47640363D01*
X144563736Y-47624322D01*
X144469714Y-47530300D01*
X144453779Y-47521100D01*
X144355602Y-47464416D01*
X144355593Y-47464411D01*
X144355590Y-47464410D01*
X144355583Y-47464407D01*
X144355584Y-47464407D01*
X144355582Y-47464406D01*
X144355581Y-47464406D01*
X144228294Y-47430300D01*
X144228293Y-47430300D01*
X144096507Y-47430300D01*
X144096506Y-47430300D01*
X143996107Y-47457201D01*
X143969214Y-47464407D01*
X143969196Y-47464416D01*
X143855086Y-47530298D01*
X143765010Y-47620375D01*
X143749676Y-47632139D01*
X143726718Y-47645390D01*
X143689727Y-47655300D01*
X142279500Y-47655300D01*
X142227174Y-47633626D01*
X142205500Y-47581300D01*
X142205500Y-43374500D01*
X142227174Y-43322174D01*
X142279500Y-43300500D01*
X185979802Y-43300500D01*
X185983380Y-43300587D01*
X185987054Y-43300766D01*
X185990651Y-43301032D01*
X186320414Y-43333511D01*
X186327581Y-43334574D01*
X186334679Y-43335985D01*
X186341709Y-43337745D01*
X186639361Y-43428038D01*
X186646194Y-43430483D01*
X186649148Y-43431706D01*
X186652893Y-43433257D01*
X186659433Y-43436350D01*
X186933751Y-43582977D01*
X186939966Y-43586702D01*
X186941839Y-43587953D01*
X186945988Y-43590725D01*
X186951816Y-43595046D01*
X186951823Y-43595052D01*
X187192254Y-43792369D01*
X187197635Y-43797246D01*
X187202752Y-43802363D01*
X187207629Y-43807744D01*
X187404943Y-44048170D01*
X187409274Y-44054011D01*
X187413292Y-44060026D01*
X187417020Y-44066246D01*
X187563641Y-44340554D01*
X187566740Y-44347107D01*
X187569511Y-44353797D01*
X187571958Y-44360634D01*
X187662248Y-44658280D01*
X187664013Y-44665331D01*
X187665422Y-44672418D01*
X187666487Y-44679594D01*
X187698966Y-45009344D01*
X187699232Y-45012958D01*
X187699410Y-45016572D01*
X187699500Y-45020212D01*
X187699500Y-122979785D01*
X187699410Y-122983425D01*
X187699232Y-122987039D01*
X187698966Y-122990653D01*
X187666487Y-123320401D01*
X187665423Y-123327575D01*
X187664014Y-123334663D01*
X187662248Y-123341716D01*
X187571958Y-123639362D01*
X187569511Y-123646199D01*
X187566740Y-123652889D01*
X187563635Y-123659455D01*
X187417020Y-123933750D01*
X187413292Y-123939970D01*
X187409274Y-123945985D01*
X187404943Y-123951826D01*
X187207629Y-124192252D01*
X187202752Y-124197633D01*
X187197635Y-124202750D01*
X187192254Y-124207627D01*
X186951822Y-124404945D01*
X186945981Y-124409276D01*
X186939966Y-124413294D01*
X186933746Y-124417022D01*
X186750219Y-124515120D01*
X186659449Y-124563637D01*
X186652889Y-124566740D01*
X186646199Y-124569511D01*
X186639362Y-124571958D01*
X186341721Y-124662247D01*
X186334668Y-124664013D01*
X186327580Y-124665422D01*
X186320406Y-124666486D01*
X185990652Y-124698966D01*
X185987039Y-124699232D01*
X185983426Y-124699410D01*
X185979785Y-124699500D01*
X34020216Y-124699500D01*
X34016595Y-124699411D01*
X34013281Y-124699248D01*
X34012962Y-124699233D01*
X34009344Y-124698966D01*
X33679593Y-124666487D01*
X33672413Y-124665422D01*
X33668954Y-124664734D01*
X33665325Y-124664012D01*
X33658281Y-124662248D01*
X33360634Y-124571958D01*
X33353797Y-124569511D01*
X33347107Y-124566740D01*
X33340554Y-124563641D01*
X33066246Y-124417020D01*
X33060026Y-124413292D01*
X33054011Y-124409274D01*
X33048170Y-124404943D01*
X32807744Y-124207629D01*
X32802363Y-124202752D01*
X32797246Y-124197635D01*
X32792369Y-124192254D01*
X32792367Y-124192252D01*
X32595046Y-123951816D01*
X32590723Y-123945985D01*
X32587953Y-123941839D01*
X32586702Y-123939966D01*
X32582974Y-123933746D01*
X32436350Y-123659433D01*
X32433256Y-123652889D01*
X32430485Y-123646199D01*
X32428038Y-123639362D01*
X32373328Y-123459006D01*
X32373328Y-123459005D01*
X32337751Y-123341728D01*
X32335985Y-123334676D01*
X32334576Y-123327589D01*
X32333511Y-123320412D01*
X32301033Y-122990655D01*
X32300768Y-122987061D01*
X32300587Y-122983383D01*
X32300500Y-122979786D01*
X32300500Y-111434105D01*
X57324300Y-111434105D01*
X57324300Y-111565894D01*
X57358406Y-111693181D01*
X57358407Y-111693184D01*
X57358408Y-111693186D01*
X57424300Y-111807314D01*
X57517486Y-111900500D01*
X57631614Y-111966392D01*
X57754224Y-111999244D01*
X57757922Y-112000500D01*
X57890694Y-112000500D01*
X57900957Y-112000500D01*
X57909845Y-111995367D01*
X58017986Y-111966392D01*
X58132114Y-111900500D01*
X58225300Y-111807314D01*
X58291192Y-111693186D01*
X58320167Y-111585045D01*
X58325300Y-111576156D01*
X58325300Y-111433123D01*
X58324047Y-111429432D01*
X58306888Y-111365395D01*
X58291192Y-111306814D01*
X58226394Y-111194580D01*
X58225514Y-111192946D01*
X58225379Y-111192764D01*
X58214956Y-111182341D01*
X58193896Y-111161282D01*
X58177857Y-111137278D01*
X58173545Y-111126870D01*
X58173542Y-111070239D01*
X58177857Y-111059820D01*
X58193893Y-111035820D01*
X64539839Y-104689873D01*
X64563844Y-104673835D01*
X64579409Y-104667388D01*
X64586307Y-104664532D01*
X64614622Y-104658900D01*
X64757857Y-104658900D01*
X64766745Y-104653767D01*
X64874886Y-104624792D01*
X64989014Y-104558900D01*
X65082200Y-104465714D01*
X65148092Y-104351586D01*
X65177067Y-104243445D01*
X65182200Y-104234556D01*
X65182200Y-104091521D01*
X65180941Y-104087813D01*
X65180581Y-104086468D01*
X65148092Y-103965214D01*
X65082200Y-103851086D01*
X64989014Y-103757900D01*
X64989011Y-103757898D01*
X64989010Y-103757897D01*
X64874902Y-103692016D01*
X64874893Y-103692011D01*
X64874890Y-103692010D01*
X64874883Y-103692007D01*
X64874884Y-103692007D01*
X64874882Y-103692006D01*
X64874881Y-103692006D01*
X64747594Y-103657900D01*
X64747593Y-103657900D01*
X64615807Y-103657900D01*
X64615806Y-103657900D01*
X64520667Y-103683392D01*
X64488514Y-103692007D01*
X64488496Y-103692016D01*
X64374388Y-103757897D01*
X64281197Y-103851088D01*
X64215316Y-103965196D01*
X64215308Y-103965214D01*
X64215306Y-103965218D01*
X64182160Y-104088925D01*
X64181200Y-104092506D01*
X64181200Y-104219889D01*
X64178676Y-104239052D01*
X64171811Y-104264658D01*
X64152661Y-104297821D01*
X57668742Y-110781743D01*
X57591240Y-110859245D01*
X57549300Y-110960499D01*
X57549300Y-111023875D01*
X57543667Y-111052191D01*
X57536196Y-111070230D01*
X57534362Y-111074658D01*
X57518321Y-111098664D01*
X57424298Y-111192686D01*
X57358416Y-111306796D01*
X57358408Y-111306814D01*
X57358406Y-111306818D01*
X57324300Y-111434105D01*
X32300500Y-111434105D01*
X32300500Y-97193905D01*
X43844000Y-97193905D01*
X43844000Y-97325694D01*
X43873049Y-97434106D01*
X43878107Y-97452984D01*
X43878108Y-97452986D01*
X43878110Y-97452991D01*
X43894864Y-97482009D01*
X43943294Y-97565892D01*
X43944000Y-97567114D01*
X44037186Y-97660300D01*
X44151314Y-97726192D01*
X44273924Y-97759044D01*
X44277622Y-97760300D01*
X44405987Y-97760300D01*
X44425133Y-97762820D01*
X44450749Y-97769684D01*
X44483919Y-97788834D01*
X50546141Y-103851057D01*
X50546144Y-103851059D01*
X50596771Y-103872029D01*
X50647400Y-103893000D01*
X50757000Y-103893000D01*
X53616776Y-103893000D01*
X53645090Y-103898631D01*
X53667558Y-103907937D01*
X53691563Y-103923977D01*
X53692400Y-103924814D01*
X53785586Y-104018000D01*
X53899714Y-104083892D01*
X54022324Y-104116744D01*
X54026022Y-104118000D01*
X54158794Y-104118000D01*
X54169057Y-104118000D01*
X54177945Y-104112867D01*
X54286086Y-104083892D01*
X54400214Y-104018000D01*
X54493400Y-103924814D01*
X54559292Y-103810686D01*
X54588267Y-103702545D01*
X54593400Y-103693656D01*
X54593400Y-103550619D01*
X54592143Y-103546916D01*
X54591225Y-103543490D01*
X54591224Y-103543490D01*
X54559292Y-103424314D01*
X54493400Y-103310186D01*
X54400214Y-103217000D01*
X54371538Y-103200444D01*
X54286090Y-103151110D01*
X54286083Y-103151107D01*
X54286084Y-103151107D01*
X54286082Y-103151106D01*
X54286081Y-103151106D01*
X54158794Y-103117000D01*
X54158793Y-103117000D01*
X54027007Y-103117000D01*
X54027006Y-103117000D01*
X53946441Y-103138587D01*
X53899714Y-103151107D01*
X53899696Y-103151116D01*
X53785586Y-103216998D01*
X53695510Y-103307075D01*
X53680176Y-103318839D01*
X53657218Y-103332090D01*
X53620227Y-103342000D01*
X50861687Y-103342000D01*
X50833369Y-103336367D01*
X50808240Y-103325958D01*
X50784234Y-103309918D01*
X44875977Y-97401662D01*
X44859937Y-97377656D01*
X44850631Y-97355190D01*
X44845000Y-97326875D01*
X44845000Y-97192921D01*
X44843744Y-97189223D01*
X44810892Y-97066614D01*
X44745000Y-96952486D01*
X44651814Y-96859300D01*
X44546504Y-96798499D01*
X44546504Y-96798498D01*
X44546502Y-96798498D01*
X44537695Y-96793413D01*
X44537696Y-96793413D01*
X44537690Y-96793410D01*
X44537681Y-96793406D01*
X44410394Y-96759300D01*
X44410393Y-96759300D01*
X44278607Y-96759300D01*
X44278606Y-96759300D01*
X44178207Y-96786201D01*
X44151314Y-96793407D01*
X44151296Y-96793416D01*
X44037188Y-96859297D01*
X43943997Y-96952488D01*
X43878116Y-97066596D01*
X43878108Y-97066614D01*
X43878106Y-97066618D01*
X43844000Y-97193905D01*
X32300500Y-97193905D01*
X32300500Y-45020211D01*
X32300588Y-45016594D01*
X32300768Y-45012935D01*
X32301033Y-45009344D01*
X32305850Y-44960438D01*
X32333511Y-44679577D01*
X32334576Y-44672406D01*
X32335986Y-44665314D01*
X32337744Y-44658296D01*
X32428040Y-44360625D01*
X32430488Y-44353788D01*
X32433260Y-44347098D01*
X32436355Y-44340554D01*
X32582983Y-44066234D01*
X32586706Y-44060024D01*
X32590721Y-44054014D01*
X32595043Y-44048185D01*
X32792385Y-43807722D01*
X32797233Y-43802374D01*
X32802379Y-43797228D01*
X32807729Y-43792379D01*
X33048181Y-43595044D01*
X33053996Y-43590732D01*
X33060029Y-43586702D01*
X33066233Y-43582983D01*
X33340553Y-43436355D01*
X33347111Y-43433254D01*
X33353793Y-43430485D01*
X33360609Y-43428045D01*
X33658292Y-43337746D01*
X33665307Y-43335988D01*
X33672429Y-43334572D01*
X33679573Y-43333512D01*
X34009331Y-43301033D01*
X34012963Y-43300766D01*
X34016602Y-43300588D01*
X34020217Y-43300500D01*
X78720500Y-43300500D01*
X78772826Y-43322174D01*
G37*
%TD.AperFunction*%
%TD*%
%TA.AperFunction,Conductor*%
%TO.N,GND*%
G36*
X141978326Y-43322174D02*
G01*
X142000000Y-43374500D01*
X142000000Y-47581300D01*
X141978326Y-47633626D01*
X141926000Y-47655300D01*
X136956900Y-47655300D01*
X136885298Y-47684957D01*
X136885299Y-47684958D01*
X136855642Y-47697242D01*
X134083954Y-50468929D01*
X134031628Y-50490603D01*
X134021978Y-50489971D01*
X134018397Y-50489500D01*
X134018392Y-50489500D01*
X133886608Y-50489500D01*
X133886606Y-50489500D01*
X133759318Y-50523606D01*
X133759309Y-50523610D01*
X133645185Y-50589500D01*
X133552000Y-50682685D01*
X133486110Y-50796809D01*
X133486106Y-50796818D01*
X133452000Y-50924105D01*
X133452000Y-51055894D01*
X133486106Y-51183181D01*
X133486107Y-51183184D01*
X133486108Y-51183186D01*
X133552000Y-51297314D01*
X133645186Y-51390500D01*
X133759314Y-51456392D01*
X133886605Y-51490499D01*
X133886606Y-51490500D01*
X133886608Y-51490500D01*
X134018394Y-51490500D01*
X134018394Y-51490499D01*
X134145686Y-51456392D01*
X134259814Y-51390500D01*
X134353000Y-51297314D01*
X134418892Y-51183186D01*
X134452999Y-51055894D01*
X134453000Y-51055894D01*
X134453000Y-50924103D01*
X134452529Y-50920525D01*
X134467189Y-50865819D01*
X134473562Y-50858551D01*
X137104142Y-48227974D01*
X137156468Y-48206300D01*
X141926000Y-48206300D01*
X141978326Y-48227974D01*
X142000000Y-48280300D01*
X142000000Y-50835433D01*
X141978326Y-50887759D01*
X141926000Y-50909433D01*
X141873674Y-50887759D01*
X141142915Y-50157000D01*
X140406258Y-49420343D01*
X140305000Y-49378400D01*
X139458900Y-49378400D01*
X139387298Y-49408057D01*
X139387299Y-49408058D01*
X139357642Y-49420342D01*
X135413859Y-53364126D01*
X135361533Y-53385800D01*
X133219800Y-53385800D01*
X133153169Y-53413400D01*
X133153168Y-53413400D01*
X133118543Y-53427741D01*
X133118540Y-53427743D01*
X116399642Y-70146643D01*
X116322142Y-70224143D01*
X116280200Y-70325400D01*
X116280200Y-70744994D01*
X116258526Y-70797320D01*
X116251261Y-70803693D01*
X116248390Y-70805896D01*
X116155200Y-70899085D01*
X116089310Y-71013209D01*
X116089306Y-71013218D01*
X116055200Y-71140505D01*
X116055200Y-71272294D01*
X116089306Y-71399581D01*
X116089310Y-71399590D01*
X116148139Y-71501484D01*
X116155200Y-71513714D01*
X116248386Y-71606900D01*
X116362514Y-71672792D01*
X116376316Y-71676490D01*
X116421249Y-71710966D01*
X116428643Y-71767119D01*
X116409490Y-71800294D01*
X115973954Y-72235829D01*
X115921628Y-72257503D01*
X115911978Y-72256871D01*
X115908397Y-72256400D01*
X115908392Y-72256400D01*
X115776608Y-72256400D01*
X115776606Y-72256400D01*
X115649318Y-72290506D01*
X115649309Y-72290510D01*
X115535185Y-72356400D01*
X115442000Y-72449585D01*
X115376110Y-72563709D01*
X115376106Y-72563718D01*
X115342000Y-72691005D01*
X115342000Y-72822794D01*
X115376106Y-72950081D01*
X115376110Y-72950090D01*
X115406836Y-73003308D01*
X115442000Y-73064214D01*
X115535186Y-73157400D01*
X115568294Y-73176515D01*
X115628567Y-73211314D01*
X115663046Y-73256248D01*
X115655653Y-73312400D01*
X115610719Y-73346879D01*
X115591567Y-73349400D01*
X114273768Y-73349400D01*
X114221442Y-73327726D01*
X114094370Y-73200654D01*
X114072696Y-73148328D01*
X114073329Y-73138669D01*
X114073800Y-73135091D01*
X114073800Y-73003306D01*
X114073799Y-73003305D01*
X114072757Y-72999418D01*
X114039692Y-72876014D01*
X113973800Y-72761886D01*
X113880614Y-72668700D01*
X113849089Y-72650499D01*
X113766490Y-72602810D01*
X113766481Y-72602806D01*
X113744322Y-72596869D01*
X113699389Y-72562391D01*
X113691997Y-72506238D01*
X113711148Y-72473066D01*
X113858136Y-72326077D01*
X113891306Y-72306927D01*
X113913086Y-72301092D01*
X114027214Y-72235200D01*
X114120400Y-72142014D01*
X114186292Y-72027886D01*
X114220399Y-71900594D01*
X114220400Y-71900594D01*
X114220400Y-71768806D01*
X114220399Y-71768805D01*
X114186892Y-71643753D01*
X114194284Y-71587600D01*
X114239217Y-71553122D01*
X114258370Y-71550600D01*
X114452998Y-71550600D01*
X114453000Y-71550600D01*
X114554258Y-71508657D01*
X114631757Y-71431158D01*
X114631756Y-71431158D01*
X114666717Y-71396197D01*
X114666716Y-71396197D01*
X115101746Y-70961168D01*
X115154071Y-70939495D01*
X115163737Y-70940129D01*
X115167304Y-70940598D01*
X115167308Y-70940600D01*
X115167312Y-70940600D01*
X115299094Y-70940600D01*
X115299094Y-70940599D01*
X115426386Y-70906492D01*
X115540514Y-70840600D01*
X115633700Y-70747414D01*
X115699592Y-70633286D01*
X115733699Y-70505994D01*
X115733700Y-70505994D01*
X115733700Y-70374206D01*
X115733699Y-70374205D01*
X115724426Y-70339599D01*
X115699592Y-70246914D01*
X115633700Y-70132786D01*
X115540514Y-70039600D01*
X115484732Y-70007394D01*
X115426390Y-69973710D01*
X115426381Y-69973706D01*
X115299094Y-69939600D01*
X115299092Y-69939600D01*
X115167308Y-69939600D01*
X115167306Y-69939600D01*
X115040018Y-69973706D01*
X115040009Y-69973710D01*
X114925885Y-70039600D01*
X114832700Y-70132785D01*
X114766810Y-70246909D01*
X114766806Y-70246918D01*
X114732700Y-70374205D01*
X114732700Y-70505995D01*
X114733171Y-70509576D01*
X114718506Y-70564282D01*
X114712129Y-70571553D01*
X114305759Y-70977926D01*
X114253433Y-70999600D01*
X114103786Y-70999600D01*
X114051460Y-70977926D01*
X114029786Y-70925600D01*
X114032307Y-70906448D01*
X114050946Y-70836886D01*
X114057000Y-70814292D01*
X114057000Y-70682508D01*
X114057000Y-70682506D01*
X114056999Y-70682505D01*
X114045393Y-70639192D01*
X114022892Y-70555214D01*
X113957000Y-70441086D01*
X113863814Y-70347900D01*
X113810349Y-70317032D01*
X113749690Y-70282010D01*
X113749681Y-70282006D01*
X113622394Y-70247900D01*
X113622392Y-70247900D01*
X113490608Y-70247900D01*
X113427852Y-70264715D01*
X113371700Y-70257322D01*
X113337221Y-70212388D01*
X113334700Y-70193236D01*
X113334700Y-70182506D01*
X113334699Y-70182505D01*
X113300593Y-70055218D01*
X113300592Y-70055214D01*
X113234700Y-69941086D01*
X113141514Y-69847900D01*
X113040228Y-69789422D01*
X113005750Y-69744490D01*
X113013143Y-69688337D01*
X113024899Y-69673016D01*
X113397242Y-69300674D01*
X113449568Y-69279000D01*
X114801795Y-69279000D01*
X114854121Y-69300674D01*
X114860498Y-69307945D01*
X114862696Y-69310809D01*
X114862698Y-69310811D01*
X114862700Y-69310814D01*
X114955886Y-69404000D01*
X115070014Y-69469892D01*
X115197305Y-69503999D01*
X115197306Y-69504000D01*
X115197308Y-69504000D01*
X115329094Y-69504000D01*
X115329094Y-69503999D01*
X115456386Y-69469892D01*
X115570514Y-69404000D01*
X115663700Y-69310814D01*
X115729592Y-69196686D01*
X115763699Y-69069394D01*
X115763700Y-69069394D01*
X115763700Y-68937606D01*
X115763699Y-68937605D01*
X115760879Y-68927082D01*
X115729592Y-68810314D01*
X115663700Y-68696186D01*
X115640090Y-68672576D01*
X115618416Y-68620250D01*
X115640090Y-68567924D01*
X115653800Y-68554214D01*
X115719692Y-68440086D01*
X115753799Y-68312794D01*
X115753800Y-68312794D01*
X115753800Y-68181006D01*
X115753799Y-68181005D01*
X115736232Y-68115445D01*
X115719692Y-68053714D01*
X115653800Y-67939586D01*
X115560614Y-67846400D01*
X115490175Y-67805732D01*
X115446490Y-67780510D01*
X115446481Y-67780506D01*
X115319194Y-67746400D01*
X115319192Y-67746400D01*
X115299300Y-67746400D01*
X115246974Y-67724726D01*
X115225300Y-67672400D01*
X115225300Y-61714002D01*
X115225300Y-61714000D01*
X115218262Y-61697008D01*
X115193967Y-61638355D01*
X115183359Y-61612744D01*
X115183357Y-61612741D01*
X113425516Y-59854900D01*
X111665169Y-58094554D01*
X111643496Y-58042229D01*
X111644129Y-58032570D01*
X111644600Y-58028992D01*
X111644600Y-57897209D01*
X111644600Y-57897208D01*
X111612699Y-57778151D01*
X111620092Y-57722000D01*
X111665025Y-57687521D01*
X111684178Y-57685000D01*
X112078017Y-57685000D01*
X112130343Y-57706674D01*
X112152017Y-57759000D01*
X112149495Y-57778153D01*
X112122900Y-57877405D01*
X112122900Y-58009194D01*
X112157006Y-58136481D01*
X112157010Y-58136490D01*
X112196630Y-58205114D01*
X112222900Y-58250614D01*
X112316086Y-58343800D01*
X112430214Y-58409692D01*
X112557505Y-58443799D01*
X112557506Y-58443800D01*
X112557508Y-58443800D01*
X112689292Y-58443800D01*
X112692870Y-58443329D01*
X112747578Y-58457988D01*
X112754855Y-58464370D01*
X115742630Y-61452146D01*
X115764304Y-61504472D01*
X115763671Y-61514131D01*
X115763200Y-61517708D01*
X115763200Y-61649494D01*
X115797306Y-61776781D01*
X115797310Y-61776790D01*
X115814627Y-61806784D01*
X115863200Y-61890914D01*
X115956386Y-61984100D01*
X116070514Y-62049992D01*
X116197805Y-62084099D01*
X116197806Y-62084100D01*
X116197808Y-62084100D01*
X116329594Y-62084100D01*
X116329594Y-62084099D01*
X116456886Y-62049992D01*
X116571014Y-61984100D01*
X116664200Y-61890914D01*
X116730092Y-61776786D01*
X116764199Y-61649494D01*
X116764200Y-61649494D01*
X116764200Y-61517706D01*
X116764199Y-61517705D01*
X116763241Y-61514131D01*
X116730092Y-61390414D01*
X116664200Y-61276286D01*
X116571014Y-61183100D01*
X116570394Y-61182742D01*
X116456890Y-61117210D01*
X116456881Y-61117206D01*
X116329594Y-61083100D01*
X116329592Y-61083100D01*
X116197808Y-61083100D01*
X116197807Y-61083100D01*
X116194231Y-61083571D01*
X116139523Y-61068912D01*
X116132246Y-61062530D01*
X113144470Y-58074755D01*
X113122796Y-58022429D01*
X113123429Y-58012770D01*
X113123900Y-58009192D01*
X113123900Y-57877406D01*
X113123899Y-57877405D01*
X113097305Y-57778153D01*
X113104697Y-57722000D01*
X113149630Y-57687522D01*
X113168783Y-57685000D01*
X118908295Y-57685000D01*
X118960621Y-57706674D01*
X118966998Y-57713945D01*
X118969196Y-57716809D01*
X118969198Y-57716811D01*
X118969200Y-57716814D01*
X119062386Y-57810000D01*
X119176514Y-57875892D01*
X119303805Y-57909999D01*
X119303806Y-57910000D01*
X119303808Y-57910000D01*
X119435594Y-57910000D01*
X119435594Y-57909999D01*
X119562886Y-57875892D01*
X119677014Y-57810000D01*
X119770200Y-57716814D01*
X119836092Y-57602686D01*
X119870199Y-57475394D01*
X119870200Y-57475394D01*
X119870200Y-57343606D01*
X119870199Y-57343605D01*
X119836093Y-57216318D01*
X119836092Y-57216314D01*
X119770200Y-57102186D01*
X119677014Y-57009000D01*
X119646934Y-56991633D01*
X119562890Y-56943110D01*
X119562881Y-56943106D01*
X119435594Y-56909000D01*
X119435592Y-56909000D01*
X119303808Y-56909000D01*
X119303806Y-56909000D01*
X119176518Y-56943106D01*
X119176509Y-56943110D01*
X119062385Y-57009000D01*
X118969196Y-57102190D01*
X118966998Y-57105055D01*
X118917945Y-57133368D01*
X118908295Y-57134000D01*
X107620780Y-57134000D01*
X107568454Y-57112326D01*
X107546780Y-57060000D01*
X107568454Y-57007674D01*
X107592461Y-56991633D01*
X107611958Y-56983557D01*
X107689457Y-56906058D01*
X107689456Y-56906058D01*
X107724417Y-56871097D01*
X107724416Y-56871097D01*
X112300174Y-52295340D01*
X112352499Y-52273667D01*
X112404825Y-52295341D01*
X113874741Y-53765257D01*
X113874744Y-53765259D01*
X113896330Y-53774200D01*
X113976000Y-53807200D01*
X113976001Y-53807200D01*
X120774270Y-53807200D01*
X120826596Y-53828874D01*
X120845748Y-53862047D01*
X120858806Y-53910782D01*
X120858808Y-53910787D01*
X120891486Y-53967386D01*
X120924700Y-54024914D01*
X121017886Y-54118100D01*
X121132014Y-54183992D01*
X121259305Y-54218099D01*
X121259306Y-54218100D01*
X121259308Y-54218100D01*
X121391094Y-54218100D01*
X121391094Y-54218099D01*
X121518386Y-54183992D01*
X121632514Y-54118100D01*
X121725700Y-54024914D01*
X121725703Y-54024909D01*
X121727902Y-54022045D01*
X121776955Y-53993732D01*
X121786605Y-53993100D01*
X122930199Y-53993100D01*
X122930200Y-53993100D01*
X123031458Y-53951157D01*
X123069043Y-53913570D01*
X123121369Y-53891896D01*
X123131027Y-53892529D01*
X123134605Y-53893000D01*
X123134608Y-53893000D01*
X123266394Y-53893000D01*
X123266394Y-53892999D01*
X123393686Y-53858892D01*
X123507814Y-53793000D01*
X123601000Y-53699814D01*
X123666892Y-53585686D01*
X123700999Y-53458394D01*
X123701000Y-53458394D01*
X123701000Y-53326608D01*
X123676307Y-53234452D01*
X123683700Y-53178300D01*
X123728634Y-53143821D01*
X123747786Y-53141300D01*
X133893998Y-53141300D01*
X133894000Y-53141300D01*
X133995258Y-53099357D01*
X134072757Y-53021858D01*
X134072756Y-53021858D01*
X134107717Y-52986897D01*
X134107716Y-52986897D01*
X135916046Y-51178568D01*
X135968371Y-51156895D01*
X135978037Y-51157529D01*
X135981604Y-51157998D01*
X135981608Y-51158000D01*
X135981612Y-51158000D01*
X136113394Y-51158000D01*
X136113394Y-51157999D01*
X136240686Y-51123892D01*
X136354814Y-51058000D01*
X136448000Y-50964814D01*
X136513892Y-50850686D01*
X136547999Y-50723394D01*
X136548000Y-50723394D01*
X136548000Y-50591606D01*
X136547999Y-50591605D01*
X136530800Y-50527418D01*
X136513892Y-50464314D01*
X136448000Y-50350186D01*
X136354814Y-50257000D01*
X136306473Y-50229090D01*
X136240690Y-50191110D01*
X136240681Y-50191106D01*
X136113394Y-50157000D01*
X136113392Y-50157000D01*
X135981608Y-50157000D01*
X135981606Y-50157000D01*
X135854318Y-50191106D01*
X135854309Y-50191110D01*
X135740185Y-50257000D01*
X135647000Y-50350185D01*
X135581110Y-50464309D01*
X135581106Y-50464318D01*
X135547000Y-50591605D01*
X135547000Y-50723395D01*
X135547471Y-50726976D01*
X135532806Y-50781682D01*
X135526429Y-50788953D01*
X133746759Y-52568626D01*
X133694433Y-52590300D01*
X121377400Y-52590300D01*
X121276144Y-52632240D01*
X121276141Y-52632242D01*
X120673859Y-53234526D01*
X120621533Y-53256200D01*
X120036967Y-53256200D01*
X119984641Y-53234526D01*
X119962967Y-53182200D01*
X119984641Y-53129874D01*
X120257101Y-52857414D01*
X121290557Y-51823958D01*
X121301061Y-51798600D01*
X121332500Y-51722700D01*
X121332500Y-50884704D01*
X121354174Y-50832378D01*
X121361456Y-50825993D01*
X121364312Y-50823801D01*
X121364311Y-50823801D01*
X121364314Y-50823800D01*
X121457500Y-50730614D01*
X121523392Y-50616486D01*
X121557499Y-50489194D01*
X121557500Y-50489194D01*
X121557500Y-50357406D01*
X121557499Y-50357405D01*
X121555564Y-50350185D01*
X121523392Y-50230114D01*
X121457500Y-50115986D01*
X121364314Y-50022800D01*
X121364311Y-50022798D01*
X121364309Y-50022796D01*
X121361439Y-50020593D01*
X121333131Y-49971538D01*
X121332500Y-49961894D01*
X121332500Y-48376566D01*
X121354173Y-48324241D01*
X121699944Y-47978469D01*
X121752270Y-47956796D01*
X121761927Y-47957429D01*
X121765505Y-47957900D01*
X121765508Y-47957900D01*
X121897294Y-47957900D01*
X121897294Y-47957899D01*
X122024586Y-47923792D01*
X122138714Y-47857900D01*
X122231900Y-47764714D01*
X122297792Y-47650586D01*
X122331899Y-47523294D01*
X122331900Y-47523294D01*
X122331900Y-47391506D01*
X122331899Y-47391505D01*
X122327501Y-47375093D01*
X122297792Y-47264214D01*
X122231900Y-47150086D01*
X122194437Y-47112623D01*
X122172763Y-47060299D01*
X122194436Y-47007973D01*
X122209758Y-46996215D01*
X122305914Y-46940700D01*
X122399100Y-46847514D01*
X122464992Y-46733386D01*
X122499099Y-46606094D01*
X122499100Y-46606094D01*
X122499100Y-46474306D01*
X122499099Y-46474305D01*
X122464993Y-46347018D01*
X122464992Y-46347014D01*
X122399100Y-46232886D01*
X122305914Y-46139700D01*
X122195697Y-46076066D01*
X122191790Y-46073810D01*
X122191781Y-46073806D01*
X122064494Y-46039700D01*
X122064492Y-46039700D01*
X121932708Y-46039700D01*
X121932706Y-46039700D01*
X121805418Y-46073806D01*
X121805409Y-46073810D01*
X121691285Y-46139700D01*
X121598100Y-46232885D01*
X121532210Y-46347009D01*
X121532206Y-46347018D01*
X121498100Y-46474305D01*
X121498100Y-46606095D01*
X121498571Y-46609676D01*
X121483906Y-46664382D01*
X121477529Y-46671653D01*
X119113842Y-49035343D01*
X119036342Y-49112843D01*
X118994400Y-49214100D01*
X118994400Y-50259194D01*
X118972726Y-50311520D01*
X118965461Y-50317893D01*
X118962590Y-50320096D01*
X118869400Y-50413285D01*
X118803510Y-50527409D01*
X118803506Y-50527418D01*
X118769400Y-50654705D01*
X118769400Y-50786494D01*
X118803506Y-50913781D01*
X118803510Y-50913790D01*
X118869400Y-51027914D01*
X118962587Y-51121101D01*
X118965444Y-51123293D01*
X118993766Y-51172340D01*
X118994400Y-51182004D01*
X118994400Y-52239394D01*
X118972726Y-52291720D01*
X118965461Y-52298093D01*
X118962590Y-52300296D01*
X118869400Y-52393485D01*
X118803510Y-52507609D01*
X118803506Y-52507618D01*
X118781424Y-52590031D01*
X118746946Y-52634964D01*
X118690793Y-52642356D01*
X118657620Y-52623204D01*
X115321070Y-49286655D01*
X115299396Y-49234329D01*
X115300029Y-49224670D01*
X115300500Y-49221092D01*
X115300500Y-49089306D01*
X115300499Y-49089305D01*
X115295054Y-49068985D01*
X115266392Y-48962014D01*
X115200500Y-48847886D01*
X115107314Y-48754700D01*
X114993190Y-48688810D01*
X114993181Y-48688806D01*
X114865894Y-48654700D01*
X114865892Y-48654700D01*
X114734108Y-48654700D01*
X114734106Y-48654700D01*
X114606818Y-48688806D01*
X114606809Y-48688810D01*
X114492685Y-48754700D01*
X114399500Y-48847885D01*
X114333610Y-48962009D01*
X114333606Y-48962018D01*
X114299500Y-49089305D01*
X114299500Y-49221094D01*
X114333606Y-49348381D01*
X114333610Y-49348390D01*
X114353601Y-49383015D01*
X114399500Y-49462514D01*
X114492686Y-49555700D01*
X114606814Y-49621592D01*
X114734105Y-49655699D01*
X114734106Y-49655700D01*
X114734108Y-49655700D01*
X114865892Y-49655700D01*
X114869470Y-49655229D01*
X114924178Y-49669888D01*
X114931455Y-49676270D01*
X118385058Y-53129874D01*
X118406732Y-53182200D01*
X118385058Y-53234526D01*
X118332732Y-53256200D01*
X114175568Y-53256200D01*
X114123242Y-53234526D01*
X112649674Y-51760958D01*
X112628000Y-51708632D01*
X112628000Y-47023004D01*
X112649674Y-46970678D01*
X112656956Y-46964293D01*
X112659812Y-46962101D01*
X112659811Y-46962101D01*
X112659814Y-46962100D01*
X112753000Y-46868914D01*
X112818892Y-46754786D01*
X112852999Y-46627494D01*
X112853000Y-46627494D01*
X112853000Y-46495706D01*
X112852999Y-46495705D01*
X112849760Y-46483618D01*
X112818892Y-46368414D01*
X112753000Y-46254286D01*
X112659814Y-46161100D01*
X112571778Y-46110272D01*
X112537300Y-46065340D01*
X112544693Y-46009187D01*
X112556449Y-45993865D01*
X113110042Y-45440274D01*
X113162368Y-45418600D01*
X117724695Y-45418600D01*
X117777021Y-45440274D01*
X117783398Y-45447545D01*
X117785596Y-45450409D01*
X117785598Y-45450411D01*
X117785600Y-45450414D01*
X117878786Y-45543600D01*
X117992914Y-45609492D01*
X118120205Y-45643599D01*
X118120206Y-45643600D01*
X118120208Y-45643600D01*
X118251994Y-45643600D01*
X118251994Y-45643599D01*
X118379286Y-45609492D01*
X118493414Y-45543600D01*
X118586600Y-45450414D01*
X118652492Y-45336286D01*
X118686599Y-45208994D01*
X118686600Y-45208994D01*
X118686600Y-45077206D01*
X118686599Y-45077205D01*
X118652493Y-44949918D01*
X118652492Y-44949914D01*
X118586600Y-44835786D01*
X118493414Y-44742600D01*
X118379290Y-44676710D01*
X118379281Y-44676706D01*
X118251994Y-44642600D01*
X118251992Y-44642600D01*
X118120208Y-44642600D01*
X118120206Y-44642600D01*
X117992918Y-44676706D01*
X117992909Y-44676710D01*
X117878785Y-44742600D01*
X117785596Y-44835790D01*
X117783398Y-44838655D01*
X117734345Y-44866968D01*
X117724695Y-44867600D01*
X112962800Y-44867600D01*
X112891372Y-44897187D01*
X112891371Y-44897187D01*
X112861543Y-44909541D01*
X110172126Y-47598958D01*
X110119800Y-47620632D01*
X110067474Y-47598958D01*
X110045800Y-47546632D01*
X110045800Y-47069100D01*
X110042154Y-47060299D01*
X110003857Y-46967842D01*
X109926358Y-46890343D01*
X109844270Y-46808255D01*
X109822596Y-46755929D01*
X109823229Y-46746270D01*
X109823700Y-46742692D01*
X109823700Y-46610905D01*
X109789593Y-46483618D01*
X109789592Y-46483614D01*
X109723700Y-46369486D01*
X109630514Y-46276300D01*
X109555319Y-46232886D01*
X109516390Y-46210410D01*
X109516381Y-46210406D01*
X109389094Y-46176300D01*
X109389092Y-46176300D01*
X109257308Y-46176300D01*
X109257306Y-46176300D01*
X109130018Y-46210406D01*
X109130009Y-46210410D01*
X109015885Y-46276300D01*
X108922700Y-46369485D01*
X108856810Y-46483609D01*
X108856806Y-46483618D01*
X108822700Y-46610905D01*
X108822700Y-46742694D01*
X108856806Y-46869981D01*
X108856807Y-46869984D01*
X108856808Y-46869986D01*
X108922700Y-46984114D01*
X109015886Y-47077300D01*
X109130014Y-47143192D01*
X109257305Y-47177299D01*
X109257306Y-47177300D01*
X109257308Y-47177300D01*
X109389092Y-47177300D01*
X109392670Y-47176829D01*
X109447378Y-47191488D01*
X109454655Y-47197870D01*
X109473126Y-47216341D01*
X109494800Y-47268667D01*
X109494800Y-50107418D01*
X109473126Y-50159744D01*
X109420800Y-50181418D01*
X109368474Y-50159744D01*
X109352433Y-50135737D01*
X109342294Y-50111260D01*
X109342293Y-50111258D01*
X109340702Y-50107418D01*
X109340257Y-50106342D01*
X109340257Y-50106341D01*
X106485969Y-47252054D01*
X106464296Y-47199729D01*
X106464929Y-47190070D01*
X106465400Y-47186492D01*
X106465400Y-47054706D01*
X106465399Y-47054705D01*
X106454315Y-47013340D01*
X106431292Y-46927414D01*
X106365400Y-46813286D01*
X106272214Y-46720100D01*
X106188302Y-46671653D01*
X106158090Y-46654210D01*
X106158081Y-46654206D01*
X106030794Y-46620100D01*
X106030792Y-46620100D01*
X105899008Y-46620100D01*
X105899006Y-46620100D01*
X105771718Y-46654206D01*
X105771709Y-46654210D01*
X105657585Y-46720100D01*
X105564400Y-46813285D01*
X105498510Y-46927409D01*
X105498506Y-46927418D01*
X105464400Y-47054705D01*
X105464400Y-47186494D01*
X105498506Y-47313781D01*
X105498510Y-47313790D01*
X105532638Y-47372901D01*
X105564400Y-47427914D01*
X105657586Y-47521100D01*
X105771714Y-47586992D01*
X105899005Y-47621099D01*
X105899006Y-47621100D01*
X105899008Y-47621100D01*
X106030792Y-47621100D01*
X106034370Y-47620629D01*
X106089078Y-47635288D01*
X106096355Y-47641670D01*
X108809526Y-50354841D01*
X108831200Y-50407167D01*
X108831200Y-52247216D01*
X108809526Y-52299542D01*
X108757200Y-52321216D01*
X108738050Y-52318695D01*
X108644392Y-52293600D01*
X108512608Y-52293600D01*
X108512607Y-52293600D01*
X108509031Y-52294071D01*
X108454323Y-52279412D01*
X108447046Y-52273030D01*
X105449659Y-49275644D01*
X105449657Y-49275642D01*
X105419828Y-49263287D01*
X105348400Y-49233700D01*
X105348399Y-49233700D01*
X103968305Y-49233700D01*
X103915979Y-49212026D01*
X103909602Y-49204755D01*
X103907403Y-49201890D01*
X103907401Y-49201888D01*
X103907400Y-49201886D01*
X103814214Y-49108700D01*
X103745426Y-49068985D01*
X103700090Y-49042810D01*
X103700081Y-49042806D01*
X103572794Y-49008700D01*
X103572792Y-49008700D01*
X103441008Y-49008700D01*
X103441006Y-49008700D01*
X103313718Y-49042806D01*
X103313709Y-49042810D01*
X103199585Y-49108700D01*
X103106400Y-49201885D01*
X103040510Y-49316009D01*
X103040506Y-49316018D01*
X103006400Y-49443305D01*
X103006400Y-49575094D01*
X103040506Y-49702381D01*
X103040510Y-49702390D01*
X103083470Y-49776798D01*
X103106400Y-49816514D01*
X103199586Y-49909700D01*
X103313714Y-49975592D01*
X103441005Y-50009699D01*
X103441006Y-50009700D01*
X103441008Y-50009700D01*
X103572794Y-50009700D01*
X103572794Y-50009699D01*
X103700086Y-49975592D01*
X103814214Y-49909700D01*
X103907400Y-49816514D01*
X103907403Y-49816509D01*
X103909602Y-49813645D01*
X103958655Y-49785332D01*
X103968305Y-49784700D01*
X105148833Y-49784700D01*
X105201159Y-49806374D01*
X108057430Y-52662646D01*
X108079104Y-52714972D01*
X108078471Y-52724631D01*
X108078000Y-52728208D01*
X108078000Y-52859994D01*
X108112106Y-52987281D01*
X108112110Y-52987290D01*
X108176812Y-53099357D01*
X108178000Y-53101414D01*
X108271186Y-53194600D01*
X108385314Y-53260492D01*
X108512605Y-53294599D01*
X108512606Y-53294600D01*
X108512608Y-53294600D01*
X108644394Y-53294600D01*
X108644394Y-53294599D01*
X108738048Y-53269505D01*
X108794199Y-53276897D01*
X108828678Y-53321830D01*
X108831200Y-53340983D01*
X108831200Y-53671400D01*
X108809526Y-53723726D01*
X108757200Y-53745400D01*
X108702506Y-53745400D01*
X108575218Y-53779506D01*
X108575209Y-53779510D01*
X108461085Y-53845400D01*
X108367900Y-53938585D01*
X108302010Y-54052709D01*
X108302006Y-54052718D01*
X108267900Y-54180005D01*
X108267900Y-54180008D01*
X108267900Y-54311792D01*
X108285125Y-54376076D01*
X108303177Y-54443447D01*
X108295784Y-54499600D01*
X108250851Y-54534079D01*
X108231698Y-54536600D01*
X107709568Y-54536600D01*
X107657242Y-54514926D01*
X107548470Y-54406154D01*
X107526796Y-54353828D01*
X107527429Y-54344169D01*
X107527900Y-54340591D01*
X107527900Y-54208806D01*
X107527899Y-54208805D01*
X107521250Y-54183992D01*
X107493792Y-54081514D01*
X107427900Y-53967386D01*
X107334714Y-53874200D01*
X107220590Y-53808310D01*
X107220581Y-53808306D01*
X107093294Y-53774200D01*
X107093292Y-53774200D01*
X106961508Y-53774200D01*
X106961506Y-53774200D01*
X106834218Y-53808306D01*
X106834209Y-53808310D01*
X106720085Y-53874200D01*
X106626900Y-53967385D01*
X106561010Y-54081509D01*
X106561006Y-54081518D01*
X106526900Y-54208805D01*
X106526900Y-54340594D01*
X106561006Y-54467881D01*
X106561010Y-54467890D01*
X106599225Y-54534079D01*
X106626900Y-54582014D01*
X106720086Y-54675200D01*
X106834214Y-54741092D01*
X106961505Y-54775199D01*
X106961506Y-54775200D01*
X106961508Y-54775200D01*
X107093291Y-54775200D01*
X107093292Y-54775200D01*
X107093292Y-54775199D01*
X107096869Y-54774729D01*
X107151577Y-54789388D01*
X107158854Y-54795770D01*
X107408741Y-55045657D01*
X107408740Y-55045657D01*
X107425021Y-55052400D01*
X107438399Y-55057941D01*
X107510000Y-55087600D01*
X108550033Y-55087600D01*
X108602359Y-55109274D01*
X108624033Y-55161600D01*
X108602359Y-55213926D01*
X107453975Y-56362309D01*
X107401649Y-56383983D01*
X107349323Y-56362309D01*
X107336514Y-56349500D01*
X107222390Y-56283610D01*
X107222381Y-56283606D01*
X107095094Y-56249500D01*
X107095092Y-56249500D01*
X106963308Y-56249500D01*
X106963306Y-56249500D01*
X106836018Y-56283606D01*
X106836009Y-56283610D01*
X106721885Y-56349500D01*
X106628696Y-56442690D01*
X106626498Y-56445555D01*
X106577445Y-56473868D01*
X106567795Y-56474500D01*
X105747767Y-56474500D01*
X105695441Y-56452826D01*
X103236770Y-53994155D01*
X103215096Y-53941829D01*
X103215729Y-53932170D01*
X103216200Y-53928592D01*
X103216200Y-53796806D01*
X103216199Y-53796805D01*
X103215518Y-53794265D01*
X103182092Y-53669514D01*
X103116200Y-53555386D01*
X103023014Y-53462200D01*
X102986686Y-53441226D01*
X102908890Y-53396310D01*
X102908881Y-53396306D01*
X102781594Y-53362200D01*
X102781592Y-53362200D01*
X102649808Y-53362200D01*
X102649806Y-53362200D01*
X102522518Y-53396306D01*
X102522509Y-53396310D01*
X102408385Y-53462200D01*
X102315200Y-53555385D01*
X102249308Y-53669512D01*
X102249306Y-53669519D01*
X102249050Y-53670474D01*
X102248747Y-53670868D01*
X102247453Y-53673993D01*
X102246615Y-53673645D01*
X102214562Y-53715400D01*
X102158408Y-53722782D01*
X102125249Y-53703633D01*
X96684974Y-48263358D01*
X96663300Y-48211032D01*
X96663300Y-47433804D01*
X96684974Y-47381478D01*
X96692256Y-47375093D01*
X96695112Y-47372901D01*
X96695111Y-47372901D01*
X96695114Y-47372900D01*
X96788300Y-47279714D01*
X96854192Y-47165586D01*
X96888299Y-47038294D01*
X96888300Y-47038294D01*
X96888300Y-46906506D01*
X96888299Y-46906505D01*
X96883968Y-46890343D01*
X96854192Y-46779214D01*
X96788300Y-46665086D01*
X96695114Y-46571900D01*
X96580990Y-46506010D01*
X96580981Y-46506006D01*
X96453694Y-46471900D01*
X96453692Y-46471900D01*
X96321908Y-46471900D01*
X96321906Y-46471900D01*
X96194618Y-46506006D01*
X96194609Y-46506010D01*
X96080485Y-46571900D01*
X95987300Y-46665085D01*
X95921410Y-46779209D01*
X95921406Y-46779218D01*
X95887300Y-46906505D01*
X95887300Y-47038294D01*
X95921406Y-47165581D01*
X95921410Y-47165590D01*
X95987300Y-47279714D01*
X96080487Y-47372901D01*
X96083344Y-47375093D01*
X96111666Y-47424140D01*
X96112300Y-47433804D01*
X96112300Y-48410599D01*
X96152355Y-48507299D01*
X96152357Y-48507305D01*
X96154242Y-48511857D01*
X97072112Y-49429727D01*
X97093786Y-49482053D01*
X97072112Y-49534379D01*
X97038939Y-49553531D01*
X96979318Y-49569506D01*
X96979309Y-49569510D01*
X96865185Y-49635400D01*
X96772000Y-49728585D01*
X96706110Y-49842709D01*
X96706106Y-49842718D01*
X96672000Y-49970005D01*
X96672000Y-50101794D01*
X96706106Y-50229081D01*
X96706110Y-50229090D01*
X96772000Y-50343214D01*
X96865187Y-50436401D01*
X96868044Y-50438593D01*
X96896366Y-50487640D01*
X96897000Y-50497304D01*
X96897000Y-54852832D01*
X96875326Y-54905158D01*
X95350554Y-56429929D01*
X95298228Y-56451603D01*
X95288578Y-56450971D01*
X95284997Y-56450500D01*
X95284992Y-56450500D01*
X95153208Y-56450500D01*
X95153206Y-56450500D01*
X95025918Y-56484606D01*
X95025909Y-56484610D01*
X94911785Y-56550500D01*
X94818600Y-56643685D01*
X94752710Y-56757809D01*
X94752706Y-56757818D01*
X94718600Y-56885105D01*
X94718600Y-57016897D01*
X94719071Y-57020478D01*
X94704406Y-57075183D01*
X94698029Y-57082454D01*
X94171642Y-57608843D01*
X94094142Y-57686343D01*
X94052200Y-57787600D01*
X94052200Y-59638694D01*
X94030526Y-59691020D01*
X94023261Y-59697393D01*
X94020390Y-59699596D01*
X93927200Y-59792785D01*
X93861310Y-59906909D01*
X93861306Y-59906918D01*
X93827200Y-60034205D01*
X93827200Y-60165994D01*
X93861306Y-60293281D01*
X93861310Y-60293290D01*
X93892097Y-60346614D01*
X93927200Y-60407414D01*
X94020386Y-60500600D01*
X94044787Y-60514688D01*
X94103030Y-60548315D01*
X94137509Y-60593249D01*
X94130116Y-60649401D01*
X94118356Y-60664727D01*
X93107330Y-61675753D01*
X93055004Y-61697427D01*
X93035852Y-61694906D01*
X93007092Y-61687200D01*
X92875308Y-61687200D01*
X92875306Y-61687200D01*
X92748018Y-61721306D01*
X92748009Y-61721310D01*
X92633885Y-61787200D01*
X92540699Y-61880386D01*
X92492910Y-61963158D01*
X92447977Y-61997636D01*
X92391824Y-61990242D01*
X92376499Y-61978483D01*
X88561919Y-58163904D01*
X88540245Y-58111578D01*
X88550158Y-58074579D01*
X88605292Y-57979086D01*
X88639399Y-57851794D01*
X88639400Y-57851794D01*
X88639400Y-57720006D01*
X88639399Y-57720005D01*
X88630379Y-57686343D01*
X88605292Y-57592714D01*
X88539400Y-57478586D01*
X88446214Y-57385400D01*
X88374088Y-57343758D01*
X88332090Y-57319510D01*
X88332081Y-57319506D01*
X88204794Y-57285400D01*
X88204792Y-57285400D01*
X88073008Y-57285400D01*
X88073006Y-57285400D01*
X87945718Y-57319506D01*
X87945709Y-57319510D01*
X87831585Y-57385400D01*
X87738400Y-57478585D01*
X87681021Y-57577968D01*
X87636087Y-57612447D01*
X87579935Y-57605054D01*
X87564609Y-57593294D01*
X87152774Y-57181459D01*
X87131100Y-57129133D01*
X87131100Y-56986200D01*
X87094679Y-56898273D01*
X87089226Y-56885108D01*
X87089157Y-56884941D01*
X83876720Y-53672505D01*
X89597300Y-53672505D01*
X89597300Y-53804294D01*
X89631406Y-53931581D01*
X89631410Y-53931590D01*
X89652077Y-53967386D01*
X89697300Y-54045714D01*
X89790486Y-54138900D01*
X89904614Y-54204792D01*
X90031905Y-54238899D01*
X90031906Y-54238900D01*
X90031908Y-54238900D01*
X90163694Y-54238900D01*
X90163694Y-54238899D01*
X90290986Y-54204792D01*
X90405114Y-54138900D01*
X90498300Y-54045714D01*
X90498303Y-54045709D01*
X90500502Y-54042845D01*
X90549555Y-54014532D01*
X90559205Y-54013900D01*
X91260798Y-54013900D01*
X91260800Y-54013900D01*
X91362058Y-53971957D01*
X91439557Y-53894458D01*
X95303744Y-50030269D01*
X95356069Y-50008596D01*
X95365725Y-50009229D01*
X95369304Y-50009700D01*
X95369308Y-50009700D01*
X95501094Y-50009700D01*
X95501094Y-50009699D01*
X95628386Y-49975592D01*
X95742514Y-49909700D01*
X95835700Y-49816514D01*
X95901592Y-49702386D01*
X95935699Y-49575094D01*
X95935700Y-49575094D01*
X95935700Y-49443306D01*
X95935699Y-49443305D01*
X95935401Y-49442194D01*
X95901592Y-49316014D01*
X95835700Y-49201886D01*
X95742514Y-49108700D01*
X95673726Y-49068985D01*
X95628390Y-49042810D01*
X95628381Y-49042806D01*
X95501094Y-49008700D01*
X95501092Y-49008700D01*
X95369308Y-49008700D01*
X95369306Y-49008700D01*
X95242018Y-49042806D01*
X95242009Y-49042810D01*
X95127885Y-49108700D01*
X95034700Y-49201885D01*
X94968810Y-49316009D01*
X94968806Y-49316018D01*
X94934700Y-49443305D01*
X94934700Y-49575097D01*
X94935171Y-49578678D01*
X94920506Y-49633383D01*
X94914129Y-49640654D01*
X91113559Y-53441226D01*
X91061233Y-53462900D01*
X90559205Y-53462900D01*
X90506879Y-53441226D01*
X90500502Y-53433955D01*
X90498303Y-53431090D01*
X90498301Y-53431088D01*
X90498300Y-53431086D01*
X90405114Y-53337900D01*
X90377280Y-53321830D01*
X90290990Y-53272010D01*
X90290981Y-53272006D01*
X90163694Y-53237900D01*
X90163692Y-53237900D01*
X90031908Y-53237900D01*
X90031906Y-53237900D01*
X89904618Y-53272006D01*
X89904609Y-53272010D01*
X89790485Y-53337900D01*
X89697300Y-53431085D01*
X89631410Y-53545209D01*
X89631406Y-53545218D01*
X89597300Y-53672505D01*
X83876720Y-53672505D01*
X82146760Y-51942545D01*
X86064200Y-51942545D01*
X86064200Y-52089454D01*
X86092858Y-52233535D01*
X86092861Y-52233546D01*
X86149078Y-52369266D01*
X86149079Y-52369268D01*
X86149080Y-52369269D01*
X86230699Y-52491420D01*
X86334580Y-52595301D01*
X86456731Y-52676920D01*
X86456732Y-52676920D01*
X86456733Y-52676921D01*
X86552025Y-52716392D01*
X86592458Y-52733140D01*
X86736545Y-52761800D01*
X86883455Y-52761800D01*
X87027542Y-52733140D01*
X87163269Y-52676920D01*
X87285420Y-52595301D01*
X87389301Y-52491420D01*
X87470920Y-52369269D01*
X87527140Y-52233542D01*
X87555800Y-52089455D01*
X87555800Y-51942545D01*
X87527140Y-51798458D01*
X87509613Y-51756143D01*
X87470921Y-51662733D01*
X87389303Y-51540583D01*
X87389301Y-51540580D01*
X87285420Y-51436699D01*
X87163269Y-51355080D01*
X87163268Y-51355079D01*
X87163266Y-51355078D01*
X87027546Y-51298861D01*
X87027535Y-51298858D01*
X86883455Y-51270200D01*
X86736545Y-51270200D01*
X86592464Y-51298858D01*
X86592453Y-51298861D01*
X86456733Y-51355078D01*
X86334583Y-51436696D01*
X86230696Y-51540583D01*
X86149078Y-51662733D01*
X86092861Y-51798453D01*
X86092858Y-51798464D01*
X86064200Y-51942545D01*
X82146760Y-51942545D01*
X80114760Y-49910545D01*
X86064200Y-49910545D01*
X86064200Y-50057454D01*
X86092858Y-50201535D01*
X86092861Y-50201546D01*
X86149078Y-50337266D01*
X86195784Y-50407167D01*
X86230699Y-50459420D01*
X86334580Y-50563301D01*
X86456731Y-50644920D01*
X86456732Y-50644920D01*
X86456733Y-50644921D01*
X86569185Y-50691500D01*
X86592458Y-50701140D01*
X86736545Y-50729800D01*
X86883455Y-50729800D01*
X87027542Y-50701140D01*
X87163269Y-50644920D01*
X87285420Y-50563301D01*
X87389301Y-50459420D01*
X87470920Y-50337269D01*
X87527140Y-50201542D01*
X87555800Y-50057455D01*
X87555800Y-49910545D01*
X87527140Y-49766458D01*
X87511453Y-49728586D01*
X87470921Y-49630733D01*
X87430010Y-49569506D01*
X87389301Y-49508580D01*
X87285420Y-49404699D01*
X87220530Y-49361341D01*
X87163266Y-49323078D01*
X87027546Y-49266861D01*
X87027535Y-49266858D01*
X86883455Y-49238200D01*
X86736545Y-49238200D01*
X86592464Y-49266858D01*
X86592453Y-49266861D01*
X86456733Y-49323078D01*
X86334583Y-49404696D01*
X86230696Y-49508583D01*
X86149078Y-49630733D01*
X86092861Y-49766453D01*
X86092858Y-49766464D01*
X86064200Y-49910545D01*
X80114760Y-49910545D01*
X79989989Y-49785774D01*
X79968316Y-49733449D01*
X79986685Y-49689099D01*
X79984549Y-49687460D01*
X79987500Y-49683614D01*
X80023308Y-49621593D01*
X80053392Y-49569486D01*
X80087499Y-49442194D01*
X80087500Y-49442194D01*
X80087500Y-49310406D01*
X80087499Y-49310405D01*
X80078184Y-49275642D01*
X80053392Y-49183114D01*
X79987500Y-49068986D01*
X79894314Y-48975800D01*
X79870427Y-48962009D01*
X79780190Y-48909910D01*
X79780181Y-48909906D01*
X79652894Y-48875800D01*
X79652892Y-48875800D01*
X79521108Y-48875800D01*
X79521106Y-48875800D01*
X79393818Y-48909906D01*
X79393809Y-48909910D01*
X79279685Y-48975800D01*
X79186500Y-49068985D01*
X79138086Y-49152841D01*
X79093152Y-49187320D01*
X79037000Y-49179927D01*
X79002521Y-49134993D01*
X79000000Y-49115841D01*
X79000000Y-43374500D01*
X79021674Y-43322174D01*
X79074000Y-43300500D01*
X141926000Y-43300500D01*
X141978326Y-43322174D01*
G37*
%TD.AperFunction*%
%TD*%
M02*
