M48
; DRILL file KiCad 10.0.6 date 2026-09-06T06:00:06
; FORMAT={-:-/ absolute / metric / decimal}
; #@! TF.CreationDate,2026-09-06T06:00:06+08:00
; #@! TF.GenerationSoftware,Kicad,Pcbnew,10.0.6
; #@! TF.FileFunction,MixedPlating,1,2
FMAT,2
METRIC
; #@! TA.AperFunction,Plated,PTH,ViaDrill
T1C0.300
; #@! TA.AperFunction,NonPlated,NPTH,ComponentDrill
T2C0.991
%
G90
G05
T1
X44.344Y-97.26
X46.658Y-73.0
X49.599Y-70.377
X54.093Y-103.617
X57.825Y-111.5
X63.592Y-61.82
X64.682Y-104.158
X69.764Y-60.898
X70.662Y-117.0
X71.013Y-61.425
X71.319Y-53.643
X72.0Y-57.168
X72.043Y-117.0
X73.271Y-62.255
X74.06Y-60.51
X74.144Y-106.937
X74.903Y-57.537
X74.906Y-52.095
X74.933Y-117.619
X74.935Y-114.377
X75.974Y-56.805
X76.279Y-119.754
X76.71Y-114.705
X77.582Y-57.895
X79.587Y-49.376
X80.195Y-53.225
X80.204Y-108.7
X81.197Y-62.255
X82.613Y-64.032
X83.345Y-111.654
X83.596Y-103.077
X83.982Y-64.184
X84.29Y-58.5
X86.329Y-57.259
X88.139Y-57.786
X90.098Y-53.738
X92.216Y-104.158
X92.941Y-62.188
X94.13Y-65.474
X94.328Y-60.1
X94.53Y-103.617
X95.219Y-56.951
X95.435Y-49.509
X95.786Y-62.48
X96.388Y-46.972
X97.172Y-50.036
X97.229Y-59.996
X97.283Y-61.763
X97.578Y-63.73
X98.117Y-65.522
X100.0Y-61.2
X100.586Y-70.573
X101.263Y-64.0
X101.432Y-76.492
X101.437Y-107.025
X101.779Y-79.679
X101.855Y-60.0
X102.551Y-77.618
X102.643Y-82.53
X102.716Y-53.863
X103.029Y-71.602
X103.11Y-70.469
X103.507Y-49.509
X103.814Y-74.939
X103.833Y-59.239
X103.872Y-107.442
X103.954Y-108.325
X104.037Y-106.375
X104.617Y-72.938
X104.631Y-107.605
X104.884Y-58.712
X104.902Y-97.5
X105.183Y-118.27
X105.279Y-83.197
X105.581Y-79.679
X105.815Y-58.371
X105.908Y-72.25
X105.965Y-47.121
X106.096Y-74.824
X106.634Y-105.725
X106.635Y-79.595
X107.027Y-54.275
X107.029Y-56.75
X107.162Y-109.448
X108.159Y-73.193
X108.159Y-76.843
X108.167Y-69.137
X108.342Y-57.968
X108.528Y-61.121
X108.578Y-52.794
X108.637Y-60.355
X108.679Y-68.159
X108.768Y-54.246
X109.25Y-67.648
X109.323Y-46.677
X109.693Y-60.362
X109.741Y-110.2
X109.77Y-52.25
X109.98Y-75.413
X110.336Y-73.849
X110.361Y-109.729
X110.752Y-60.353
X111.144Y-57.963
X111.415Y-60.911
X111.492Y-75.075
X111.948Y-68.731
X111.968Y-74.03
X112.135Y-82.531
X112.352Y-46.562
X112.623Y-57.943
X112.834Y-70.248
X112.838Y-97.5
X112.841Y-107.025
X112.967Y-72.083
X113.556Y-70.748
X113.573Y-73.069
X113.705Y-78.786
X113.72Y-71.835
X114.424Y-94.7
X114.424Y-106.136
X114.672Y-77.015
X114.784Y-109.767
X114.8Y-49.155
X114.902Y-73.061
X115.071Y-96.257
X115.186Y-105.83
X115.192Y-107.675
X115.233Y-70.44
X115.253Y-68.247
X115.263Y-69.004
X115.368Y-111.912
X115.477Y-67.0
X115.614Y-108.334
X115.843Y-72.757
X116.161Y-106.452
X116.203Y-96.398
X116.264Y-61.584
X116.556Y-71.206
X117.909Y-69.839
X118.186Y-45.143
X118.193Y-77.015
X118.485Y-78.786
X118.658Y-107.736
X118.776Y-106.682
X118.787Y-75.075
X119.27Y-50.721
X119.27Y-52.701
X119.307Y-107.285
X119.37Y-57.409
X119.397Y-59.0
X119.502Y-74.153
X119.763Y-68.803
X121.057Y-50.423
X121.325Y-53.718
X121.831Y-47.457
X121.999Y-46.54
X123.019Y-119.0
X123.09Y-70.44
X123.2Y-53.392
X123.403Y-102.432
X123.782Y-69.839
X127.444Y-111.5
X127.53Y-113.084
X130.821Y-64.043
X131.63Y-60.039
X133.952Y-50.99
X134.597Y-103.166
X136.047Y-50.657
X138.727Y-61.943
X139.109Y-110.603
X139.46Y-111.5
X140.013Y-58.398
X140.018Y-50.191
X142.586Y-53.051
X143.965Y-119.786
X144.162Y-47.931
X144.473Y-108.7
X148.682Y-115.73
X148.686Y-55.27
X148.879Y-118.27
X149.051Y-57.864
X149.152Y-52.73
X149.468Y-57.188
X150.017Y-114.46
X152.904Y-56.54
X153.163Y-63.855
X154.257Y-62.586
X154.498Y-59.131
X154.629Y-54.079
X154.68Y-53.274
X157.617Y-61.573
X160.026Y-59.5
X170.24Y-69.5
X174.35Y-95.656
T2
X79.19Y-51.0
X86.81Y-49.984
X86.81Y-52.016
M30
