M48
; DRILL file KiCad 10.0.6 date 2026-09-09T02:22:37
; FORMAT={-:-/ absolute / metric / decimal}
; #@! TF.CreationDate,2026-09-09T02:22:37+08:00
; #@! TF.GenerationSoftware,Kicad,Pcbnew,10.0.6
; #@! TF.FileFunction,Plated,1,4,PTH
FMAT,2
METRIC
; #@! TA.AperFunction,Plated,PTH,ViaDrill
T1C0.300
%
G90
G05
T1
X45.203Y-78.918
X46.536Y-87.489
X46.577Y-76.346
X46.792Y-71.707
X47.065Y-73.76
X47.695Y-91.743
X48.166Y-94.269
X48.471Y-68.91
X49.75Y-96.25
X50.35Y-98.356
X50.873Y-67.911
X51.333Y-65.727
X51.745Y-69.112
X52.007Y-66.697
X52.919Y-66.388
X52.963Y-59.143
X53.354Y-63.297
X53.58Y-65.727
X54.755Y-62.253
X54.81Y-62.985
X55.237Y-66.581
X55.316Y-67.974
X55.543Y-65.965
X55.636Y-104.907
X56.325Y-64.462
X57.176Y-105.391
X57.343Y-62.208
X57.368Y-58.386
X57.997Y-65.501
X58.075Y-66.454
X60.15Y-106.5
X60.36Y-66.988
X60.85Y-60.5
X60.882Y-61.535
X61.234Y-59.392
X61.66Y-62.515
X61.711Y-58.23
X62.25Y-64.25
X62.576Y-66.532
X62.978Y-106.012
X63.218Y-64.421
X63.422Y-58.792
X65.075Y-58.913
X65.22Y-63.753
X65.299Y-105.947
X65.344Y-66.554
X66.546Y-59.87
X67.105Y-60.233
X67.841Y-58.608
X68.065Y-107.249
X68.723Y-60.518
X69.783Y-64.123
X70.822Y-65.41
X71.013Y-61.6
X71.093Y-58.392
X71.915Y-65.27
X72.162Y-58.659
X72.164Y-61.782
X73.586Y-62.953
X75.8Y-58.5
X75.8Y-60.95
X75.8Y-63.0
X75.824Y-61.697
X76.5Y-60.95
X77.181Y-64.492
X77.25Y-62.25
X77.9Y-64.35
X78.55Y-58.5
X79.142Y-62.194
X79.217Y-61.218
X79.221Y-58.323
X79.601Y-64.941
X80.359Y-65.471
X80.85Y-106.7
X81.45Y-61.2
X81.5Y-60.1
X81.656Y-107.217
X82.25Y-66.85
X82.388Y-64.614
X82.727Y-66.342
X82.736Y-62.175
X82.966Y-65.384
X84.088Y-60.526
X84.488Y-61.588
X85.75Y-106.1
X87.113Y-66.795
X87.217Y-58.896
X88.35Y-104.9
X88.562Y-105.976
X89.117Y-58.241
X89.846Y-63.38
X90.694Y-63.881
X90.8Y-66.994
X90.982Y-61.211
X91.222Y-57.938
X92.02Y-58.489
X93.285Y-60.664
X94.639Y-61.512
X95.124Y-59.221
X95.27Y-60.795
X95.52Y-62.003
X95.8Y-60.4
X96.1Y-67.5
X96.713Y-60.555
X96.984Y-65.344
X97.139Y-66.297
X97.25Y-100.0
X97.324Y-99.156
X98.25Y-94.25
X98.871Y-94.714
X98.958Y-58.94
X99.005Y-61.032
X99.006Y-63.914
X99.067Y-63.114
X99.35Y-92.65
X100.096Y-63.082
X100.325Y-66.453
X100.672Y-63.815
X100.782Y-59.78
X100.8Y-70.65
X100.813Y-67.181
X101.1Y-73.9
X101.137Y-65.756
X101.26Y-60.224
X101.85Y-71.75
X101.927Y-74.189
X102.012Y-59.244
X102.067Y-79.111
X102.147Y-62.835
X102.45Y-61.55
X102.487Y-64.09
X102.55Y-70.2
X102.79Y-76.602
X103.05Y-70.7
X103.222Y-66.246
X103.3Y-73.2
X103.5Y-59.7
X103.5Y-65.279
X103.644Y-67.263
X104.05Y-59.3
X104.215Y-67.919
X104.69Y-61.032
X105.122Y-66.755
X105.942Y-67.915
X106.349Y-66.676
X106.694Y-67.721
X106.7Y-59.7
X106.75Y-72.7
X106.977Y-61.567
X107.086Y-66.004
X107.438Y-65.05
X107.83Y-59.986
X107.998Y-68.311
X108.039Y-65.834
X108.22Y-72.913
X108.56Y-59.979
X108.71Y-66.01
X108.713Y-69.294
X109.122Y-68.349
X109.205Y-63.319
X109.484Y-66.015
X109.65Y-60.3
X109.734Y-69.653
X110.0Y-71.107
X110.25Y-65.93
X110.256Y-59.977
X110.291Y-64.336
X110.904Y-65.86
X111.105Y-62.577
X111.514Y-72.727
X111.665Y-62.216
X111.688Y-65.966
X111.724Y-63.734
X112.2Y-61.7
X112.383Y-65.941
X112.505Y-63.732
X113.009Y-60.753
X113.1Y-62.25
X113.463Y-70.747
X113.506Y-67.528
X113.584Y-68.2
X113.95Y-59.3
X114.116Y-70.837
X114.811Y-70.297
X115.135Y-68.636
X115.251Y-67.951
X115.418Y-72.925
X115.679Y-65.477
X115.7Y-59.9
X116.0Y-72.05
X116.57Y-68.48
X116.7Y-62.2
X116.838Y-64.216
X116.943Y-67.51
X116.95Y-59.65
X117.162Y-73.979
X117.2Y-60.65
X117.55Y-61.25
X117.55Y-62.25
X117.55Y-63.25
X117.561Y-58.004
X117.563Y-79.042
X117.655Y-76.541
X118.05Y-59.5
X118.25Y-60.75
X118.25Y-61.75
X118.25Y-62.75
X118.3Y-64.15
X119.098Y-65.12
X119.15Y-83.75
X119.178Y-71.677
X119.218Y-63.938
X119.219Y-60.039
X119.293Y-87.581
X119.357Y-59.355
X119.486Y-88.478
X119.529Y-67.444
X120.05Y-65.45
X120.085Y-92.585
X120.65Y-95.4
X120.768Y-64.797
X121.25Y-65.24
X121.507Y-68.225
X121.688Y-97.631
X122.175Y-59.207
X122.3Y-65.2
X122.65Y-64.5
X122.656Y-96.701
X122.901Y-58.267
X122.95Y-63.75
X123.589Y-63.917
X123.778Y-61.487
X123.787Y-62.139
X124.53Y-60.712
X124.543Y-64.068
X125.045Y-58.853
X125.182Y-101.012
X125.5Y-57.6
X125.908Y-64.446
X126.7Y-68.7
X126.88Y-62.114
X126.982Y-60.525
X127.721Y-64.967
X128.2Y-67.644
X128.95Y-64.4
X129.15Y-65.1
X129.336Y-58.962
X130.4Y-67.45
X130.977Y-61.09
X130.996Y-60.068
X131.226Y-63.514
X131.302Y-105.384
X131.657Y-62.475
X131.76Y-61.145
X132.193Y-62.985
X132.594Y-58.458
X132.7Y-57.65
X132.707Y-60.439
X133.088Y-65.619
X134.032Y-105.861
X134.16Y-64.788
X135.011Y-58.501
X135.381Y-65.898
X135.495Y-60.621
X135.496Y-62.647
X136.047Y-60.251
X136.584Y-58.794
X137.129Y-58.394
X137.165Y-63.385
X137.4Y-107.75
X137.567Y-65.421
X138.393Y-106.523
X140.271Y-65.921
X140.778Y-59.977
X140.778Y-60.686
X141.743Y-63.083
X142.254Y-64.099
X142.747Y-65.004
X144.21Y-58.4
X146.506Y-60.5
X147.507Y-60.624
X147.668Y-59.914
X147.75Y-63.05
X147.835Y-64.331
X147.931Y-65.495
X148.989Y-59.939
X149.004Y-58.859
X151.282Y-59.417
X151.318Y-63.121
X151.482Y-60.63
X152.69Y-58.192
X152.743Y-65.77
X153.242Y-63.387
X153.314Y-61.89
X153.894Y-63.085
X154.1Y-105.8
X154.111Y-61.784
X154.408Y-106.921
X154.722Y-60.1
X155.422Y-64.717
X156.639Y-64.883
X157.025Y-63.275
X157.034Y-65.411
X157.3Y-59.85
X157.429Y-66.077
X158.05Y-60.3
X158.75Y-105.6
X158.77Y-59.891
X159.0Y-64.7
X159.45Y-59.9
X159.469Y-105.621
X160.05Y-63.2
X160.363Y-61.224
X160.85Y-60.75
X161.195Y-63.329
X161.847Y-63.559
X162.198Y-66.886
X163.086Y-65.6
X163.338Y-62.941
X163.498Y-63.877
X164.521Y-61.847
X164.892Y-66.055
X164.942Y-104.794
X165.173Y-62.048
X165.746Y-67.162
X165.873Y-65.326
X166.52Y-63.877
X166.55Y-68.7
X167.992Y-68.082
X168.111Y-63.139
X168.612Y-100.408
X168.836Y-68.586
X169.398Y-101.026
X169.908Y-98.37
X171.464Y-94.143
X171.95Y-94.6
X172.159Y-71.892
X172.326Y-91.183
X172.502Y-91.838
X174.047Y-73.884
X174.261Y-78.958
M30
