%TF.GenerationSoftware,KiCad,Pcbnew,10.0.6*%
%TF.CreationDate,2026-09-18T17:44:17+08:00*%
%TF.ProjectId,ir_glasses_EVT_E6_F302,69725f67-6c61-4737-9365-735f4556545f,EVT E6*%
%TF.SameCoordinates,Original*%
%TF.FileFunction,Paste,Top*%
%TF.FilePolarity,Positive*%
%FSLAX46Y46*%
G04 Gerber Fmt 4.6, Leading zero omitted, Abs format (unit mm)*
G04 Created by KiCad (PCBNEW 10.0.6) date 2026-09-18 17:44:17*
%MOMM*%
%LPD*%
G01*
G04 APERTURE LIST*
G04 Aperture macros list*
%AMRoundRect*
0 Rectangle with rounded corners*
0 $1 Rounding radius*
0 $2 $3 $4 $5 $6 $7 $8 $9 X,Y pos of 4 corners*
0 Add a 4 corners polygon primitive as box body*
4,1,4,$2,$3,$4,$5,$6,$7,$8,$9,$2,$3,0*
0 Add four circle primitives for the rounded corners*
1,1,$1+$1,$2,$3*
1,1,$1+$1,$4,$5*
1,1,$1+$1,$6,$7*
1,1,$1+$1,$8,$9*
0 Add four rect primitives between the rounded corners*
20,1,$1+$1,$2,$3,$4,$5,0*
20,1,$1+$1,$4,$5,$6,$7,0*
20,1,$1+$1,$6,$7,$8,$9,0*
20,1,$1+$1,$8,$9,$2,$3,0*%
%AMRotRect*
0 Rectangle, with rotation*
0 The origin of the aperture is its center*
0 $1 length*
0 $2 width*
0 $3 Rotation angle, in degrees counterclockwise*
0 Add horizontal line*
21,1,$1,$2,0,0,$3*%
%AMFreePoly0*
4,1,7,0.125000,-0.150000,-0.475000,-0.150000,-0.475000,0.150000,-0.125000,0.150000,-0.125000,0.500000,0.125000,0.500000,0.125000,-0.150000,0.125000,-0.150000,$1*%
%AMFreePoly1*
4,1,7,0.125000,-0.500000,-0.125000,-0.500000,-0.125000,-0.150000,-0.475000,-0.150000,-0.475000,0.150000,0.125000,0.150000,0.125000,-0.500000,0.125000,-0.500000,$1*%
%AMFreePoly2*
4,1,7,0.475000,-0.150000,0.125000,-0.150000,0.125000,-0.500000,-0.125000,-0.500000,-0.125000,0.150000,0.475000,0.150000,0.475000,-0.150000,0.475000,-0.150000,$1*%
%AMFreePoly3*
4,1,7,0.125000,0.150000,0.475000,0.150000,0.475000,-0.150000,-0.125000,-0.150000,-0.125000,0.500000,0.125000,0.500000,0.125000,0.150000,0.125000,0.150000,$1*%
G04 Aperture macros list end*
%ADD10RoundRect,0.135000X0.185000X-0.135000X0.185000X0.135000X-0.185000X0.135000X-0.185000X-0.135000X0*%
%ADD11RoundRect,0.140000X0.170000X-0.140000X0.170000X0.140000X-0.170000X0.140000X-0.170000X-0.140000X0*%
%ADD12RotRect,1.000000X1.500000X351.519000*%
%ADD13RoundRect,0.135000X-0.135000X-0.185000X0.135000X-0.185000X0.135000X0.185000X-0.135000X0.185000X0*%
%ADD14RoundRect,0.150000X-0.512500X-0.150000X0.512500X-0.150000X0.512500X0.150000X-0.512500X0.150000X0*%
%ADD15RoundRect,0.100000X-0.637500X-0.100000X0.637500X-0.100000X0.637500X0.100000X-0.637500X0.100000X0*%
%ADD16RoundRect,0.112500X0.187500X0.112500X-0.187500X0.112500X-0.187500X-0.112500X0.187500X-0.112500X0*%
%ADD17RotRect,1.000000X1.500000X176.212000*%
%ADD18RoundRect,0.140000X-0.140000X-0.170000X0.140000X-0.170000X0.140000X0.170000X-0.140000X0.170000X0*%
%ADD19RoundRect,0.150000X-0.587500X-0.150000X0.587500X-0.150000X0.587500X0.150000X-0.587500X0.150000X0*%
%ADD20RotRect,0.900000X1.300000X102.150000*%
%ADD21RoundRect,0.250000X-0.325000X-1.100000X0.325000X-1.100000X0.325000X1.100000X-0.325000X1.100000X0*%
%ADD22RotRect,0.900000X1.300000X6.530000*%
%ADD23RoundRect,0.225000X0.250000X-0.225000X0.250000X0.225000X-0.250000X0.225000X-0.250000X-0.225000X0*%
%ADD24RotRect,1.000000X1.500000X289.645000*%
%ADD25RotRect,1.000000X1.500000X168.750000*%
%ADD26RoundRect,0.087500X-0.225000X-0.087500X0.225000X-0.087500X0.225000X0.087500X-0.225000X0.087500X0*%
%ADD27RoundRect,0.087500X-0.087500X-0.225000X0.087500X-0.225000X0.087500X0.225000X-0.087500X0.225000X0*%
%ADD28RotRect,0.900000X1.300000X11.779000*%
%ADD29RotRect,1.000000X1.500000X69.734000*%
%ADD30RoundRect,0.150000X-0.400000X-0.150000X0.400000X-0.150000X0.400000X0.150000X-0.400000X0.150000X0*%
%ADD31RoundRect,0.140000X0.140000X0.170000X-0.140000X0.170000X-0.140000X-0.170000X0.140000X-0.170000X0*%
%ADD32RotRect,1.000000X1.500000X64.946000*%
%ADD33RoundRect,0.218750X-0.218750X-0.256250X0.218750X-0.256250X0.218750X0.256250X-0.218750X0.256250X0*%
%ADD34RotRect,0.900000X1.300000X87.410000*%
%ADD35RoundRect,0.212500X-0.212500X-0.212500X0.212500X-0.212500X0.212500X0.212500X-0.212500X0.212500X0*%
%ADD36RoundRect,0.062500X-0.375000X-0.062500X0.375000X-0.062500X0.375000X0.062500X-0.375000X0.062500X0*%
%ADD37RoundRect,0.062500X-0.062500X-0.375000X0.062500X-0.375000X0.062500X0.375000X-0.062500X0.375000X0*%
%ADD38RotRect,1.000000X1.500000X271.476000*%
%ADD39RotRect,0.900000X1.300000X296.814000*%
%ADD40RotRect,1.000000X1.500000X295.054000*%
%ADD41RotRect,1.000000X1.500000X352.613000*%
%ADD42R,0.300000X1.250000*%
%ADD43R,2.000000X3.000000*%
%ADD44RotRect,0.900000X1.300000X257.850000*%
%ADD45RoundRect,0.100000X0.100000X-0.637500X0.100000X0.637500X-0.100000X0.637500X-0.100000X-0.637500X0*%
%ADD46RotRect,1.000000X1.500000X7.387000*%
%ADD47RoundRect,0.140000X-0.170000X0.140000X-0.170000X-0.140000X0.170000X-0.140000X0.170000X0.140000X0*%
%ADD48RotRect,0.900000X1.300000X185.257000*%
%ADD49RotRect,1.000000X1.500000X255.208000*%
%ADD50RotRect,0.900000X1.300000X74.093000*%
%ADD51RotRect,1.000000X1.500000X8.481000*%
%ADD52R,0.450000X1.450000*%
%ADD53RotRect,0.900000X1.300000X285.907000*%
%ADD54RotRect,0.900000X1.300000X60.632000*%
%ADD55RoundRect,0.225000X-0.225000X-0.250000X0.225000X-0.250000X0.225000X0.250000X-0.225000X0.250000X0*%
%ADD56RotRect,0.900000X1.300000X172.509000*%
%ADD57RoundRect,0.150000X0.150000X0.200000X-0.150000X0.200000X-0.150000X-0.200000X0.150000X-0.200000X0*%
%ADD58RotRect,1.000000X1.500000X106.613000*%
%ADD59R,0.300000X1.600000*%
%ADD60RoundRect,0.150000X-0.150000X-0.200000X0.150000X-0.200000X0.150000X0.200000X-0.150000X0.200000X0*%
%ADD61RotRect,0.900000X1.300000X186.998000*%
%ADD62RotRect,1.000000X1.500000X185.141000*%
%ADD63RotRect,0.900000X1.300000X272.760000*%
%ADD64FreePoly0,0.000000*%
%ADD65R,0.600000X0.250000*%
%ADD66FreePoly1,0.000000*%
%ADD67R,0.300000X2.400000*%
%ADD68FreePoly2,0.000000*%
%ADD69FreePoly3,0.000000*%
%ADD70RotRect,0.900000X1.300000X348.221000*%
%ADD71RotRect,0.900000X1.300000X174.743000*%
%ADD72RotRect,1.000000X1.500000X88.524000*%
%ADD73RoundRect,0.135000X0.135000X0.185000X-0.135000X0.185000X-0.135000X-0.185000X0.135000X-0.185000X0*%
%ADD74RotRect,1.000000X1.500000X191.250000*%
%ADD75RotRect,0.900000X1.300000X353.470000*%
%ADD76RoundRect,0.075000X-0.662500X-0.075000X0.662500X-0.075000X0.662500X0.075000X-0.662500X0.075000X0*%
%ADD77RoundRect,0.075000X-0.075000X-0.662500X0.075000X-0.662500X0.075000X0.662500X-0.075000X0.662500X0*%
%ADD78RoundRect,0.160000X-0.245000X-0.160000X0.245000X-0.160000X0.245000X0.160000X-0.245000X0.160000X0*%
%ADD79RoundRect,0.075000X-0.150000X-0.075000X0.150000X-0.075000X0.150000X0.075000X-0.150000X0.075000X0*%
G04 APERTURE END LIST*
D10*
%TO.C,R5*%
X115800000Y-61510000D03*
X115800000Y-60490000D03*
%TD*%
D11*
%TO.C,CF10*%
X132388000Y-66730000D03*
X132388000Y-65770000D03*
%TD*%
%TO.C,CF12*%
X148362000Y-59355000D03*
X148362000Y-58395000D03*
%TD*%
D12*
%TO.C,PD10*%
X135053283Y-106212726D03*
X132481715Y-105829274D03*
%TD*%
D13*
%TO.C,R2*%
X84490000Y-59500000D03*
X85510000Y-59500000D03*
%TD*%
D14*
%TO.C,U6*%
X85862500Y-61050000D03*
X85862500Y-62000000D03*
X85862500Y-62950000D03*
X88137500Y-62950000D03*
X88137500Y-61050000D03*
%TD*%
D15*
%TO.C,U5*%
X150137500Y-59450000D03*
X150137500Y-60100000D03*
X150137500Y-60750000D03*
X150137500Y-61400000D03*
X150137500Y-62050000D03*
X150137500Y-62700000D03*
X150137500Y-63350000D03*
X155862500Y-63350000D03*
X155862500Y-62700000D03*
X155862500Y-62050000D03*
X155862500Y-61400000D03*
X155862500Y-60750000D03*
X155862500Y-60100000D03*
X155862500Y-59450000D03*
%TD*%
D16*
%TO.C,D17*%
X159850000Y-59650000D03*
X157750000Y-59650000D03*
%TD*%
D17*
%TO.C,PD7*%
X78733840Y-65915715D03*
X81328160Y-66087483D03*
%TD*%
D18*
%TO.C,C16*%
X118770000Y-58462000D03*
X119730000Y-58462000D03*
%TD*%
D19*
%TO.C,U11*%
X166062500Y-66050000D03*
X166062500Y-67950000D03*
X167937500Y-67000000D03*
%TD*%
D11*
%TO.C,C17*%
X104257500Y-68730000D03*
X104257500Y-67770000D03*
%TD*%
D18*
%TO.C,CF14*%
X149658000Y-64775000D03*
X150618000Y-64775000D03*
%TD*%
D20*
%TO.C,D13*%
X173160410Y-72704999D03*
X173686590Y-75148999D03*
%TD*%
D21*
%TO.C,C28*%
X120525000Y-67300000D03*
X123475000Y-67300000D03*
%TD*%
D10*
%TO.C,R18*%
X98000000Y-65010000D03*
X98000000Y-63990000D03*
%TD*%
D22*
%TO.C,D2*%
X82549691Y-106460746D03*
X80065909Y-106745054D03*
%TD*%
D23*
%TO.C,C27*%
X84000000Y-64025000D03*
X84000000Y-62475000D03*
%TD*%
D18*
%TO.C,C36*%
X130320000Y-67000000D03*
X131280000Y-67000000D03*
%TD*%
D13*
%TO.C,R20*%
X136490000Y-62600000D03*
X137510000Y-62600000D03*
%TD*%
D24*
%TO.C,PD9*%
X121643148Y-96016032D03*
X120769050Y-93567368D03*
%TD*%
D13*
%TO.C,RF13*%
X149628000Y-58025000D03*
X150648000Y-58025000D03*
%TD*%
D18*
%TO.C,C24*%
X102320000Y-69000000D03*
X103280000Y-69000000D03*
%TD*%
D11*
%TO.C,CF7*%
X71612000Y-63505000D03*
X71612000Y-62545000D03*
%TD*%
D25*
%TO.C,PD14*%
X160686778Y-66572683D03*
X163236820Y-67079917D03*
%TD*%
D26*
%TO.C,U10*%
X108837500Y-70550000D03*
X108837500Y-71050000D03*
X108837500Y-71550000D03*
X108837500Y-72050000D03*
D27*
X109500000Y-72212500D03*
X110000000Y-72212500D03*
X110500000Y-72212500D03*
D26*
X111162500Y-72050000D03*
X111162500Y-71550000D03*
X111162500Y-71050000D03*
X111162500Y-70550000D03*
D27*
X110500000Y-70387500D03*
X110000000Y-70387500D03*
X109500000Y-70387500D03*
%TD*%
D28*
%TO.C,D11*%
X160454578Y-105302628D03*
X158007222Y-105812972D03*
%TD*%
D18*
%TO.C,CF6*%
X65408000Y-64775000D03*
X66368000Y-64775000D03*
%TD*%
%TO.C,CF5*%
X63658000Y-58025000D03*
X64618000Y-58025000D03*
%TD*%
D29*
%TO.C,PD1*%
X99222493Y-93574177D03*
X98321907Y-96013223D03*
%TD*%
D30*
%TO.C,U19*%
X93650000Y-66350000D03*
X93650000Y-67300000D03*
X93650000Y-68250000D03*
X96350000Y-68250000D03*
X96350000Y-67300000D03*
X96350000Y-66350000D03*
%TD*%
D11*
%TO.C,C22*%
X68000000Y-65730000D03*
X68000000Y-64770000D03*
%TD*%
D18*
%TO.C,C38*%
X136520000Y-58200000D03*
X137480000Y-58200000D03*
%TD*%
D13*
%TO.C,R6*%
X112640000Y-69000000D03*
X113660000Y-69000000D03*
%TD*%
D31*
%TO.C,C4*%
X62537500Y-61400000D03*
X61577500Y-61400000D03*
%TD*%
D13*
%TO.C,R27*%
X103490000Y-70000000D03*
X104510000Y-70000000D03*
%TD*%
D32*
%TO.C,PD12*%
X170655314Y-97390118D03*
X169554286Y-99745482D03*
%TD*%
D33*
%TO.C,D20*%
X58212500Y-57900000D03*
X59787500Y-57900000D03*
%TD*%
D34*
%TO.C,D8*%
X102147986Y-77504677D03*
X102035014Y-80002123D03*
%TD*%
D10*
%TO.C,RF12*%
X147112000Y-59385000D03*
X147112000Y-58365000D03*
%TD*%
D35*
%TO.C,U1*%
X120475000Y-61475000D03*
X120475000Y-62525000D03*
X121525000Y-61475000D03*
X121525000Y-62525000D03*
D36*
X119062500Y-60750000D03*
X119062500Y-61250000D03*
X119062500Y-61750000D03*
X119062500Y-62250000D03*
X119062500Y-62750000D03*
X119062500Y-63250000D03*
D37*
X119750000Y-63937500D03*
X120250000Y-63937500D03*
X120750000Y-63937500D03*
X121250000Y-63937500D03*
X121750000Y-63937500D03*
X122250000Y-63937500D03*
D36*
X122937500Y-63250000D03*
X122937500Y-62750000D03*
X122937500Y-62250000D03*
X122937500Y-61750000D03*
X122937500Y-61250000D03*
X122937500Y-60750000D03*
D37*
X122250000Y-60062500D03*
X121750000Y-60062500D03*
X121250000Y-60062500D03*
X120750000Y-60062500D03*
X120250000Y-60062500D03*
X119750000Y-60062500D03*
%TD*%
D18*
%TO.C,C19*%
X98270000Y-67000000D03*
X99230000Y-67000000D03*
%TD*%
D11*
%TO.C,C15*%
X87750000Y-65480000D03*
X87750000Y-64520000D03*
%TD*%
D13*
%TO.C,RF4*%
X82102000Y-58375000D03*
X83122000Y-58375000D03*
%TD*%
D18*
%TO.C,C14*%
X170020000Y-68050000D03*
X170980000Y-68050000D03*
%TD*%
D38*
%TO.C,PD5*%
X45927486Y-79878969D03*
X45860514Y-77279831D03*
%TD*%
D11*
%TO.C,C8*%
X91000000Y-66980000D03*
X91000000Y-66020000D03*
%TD*%
D39*
%TO.C,D9*%
X123817068Y-100331693D03*
X122689330Y-98100507D03*
%TD*%
D40*
%TO.C,PD4*%
X50445714Y-99745482D03*
X49344686Y-97390118D03*
%TD*%
D13*
%TO.C,R17*%
X60990000Y-58000000D03*
X62010000Y-58000000D03*
%TD*%
D10*
%TO.C,RF3*%
X82112000Y-62635000D03*
X82112000Y-61615000D03*
%TD*%
%TO.C,RF1*%
X72888000Y-59385000D03*
X72888000Y-58365000D03*
%TD*%
D41*
%TO.C,PD3*%
X66881010Y-106617942D03*
X64302590Y-106283658D03*
%TD*%
D42*
%TO.C,J1*%
X166000000Y-63050000D03*
X165500000Y-63050000D03*
X165000000Y-63050000D03*
X164500000Y-63050000D03*
X164000000Y-63050000D03*
D43*
X167540000Y-60725000D03*
X162460000Y-60725000D03*
%TD*%
D13*
%TO.C,RF2*%
X74128000Y-63875000D03*
X75148000Y-63875000D03*
%TD*%
D11*
%TO.C,C5*%
X143837500Y-64730000D03*
X143837500Y-63770000D03*
%TD*%
D13*
%TO.C,RF7*%
X69352000Y-64775000D03*
X70372000Y-64775000D03*
%TD*%
D44*
%TO.C,D5*%
X46313410Y-75148999D03*
X46839590Y-72704999D03*
%TD*%
D45*
%TO.C,U8*%
X130475000Y-64262500D03*
X131125000Y-64262500D03*
X131775000Y-64262500D03*
X132425000Y-64262500D03*
X133075000Y-64262500D03*
X133725000Y-64262500D03*
X134375000Y-64262500D03*
X135025000Y-64262500D03*
X135025000Y-58537500D03*
X134375000Y-58537500D03*
X133725000Y-58537500D03*
X133075000Y-58537500D03*
X132425000Y-58537500D03*
X131775000Y-58537500D03*
X131125000Y-58537500D03*
X130475000Y-58537500D03*
%TD*%
%TO.C,U7*%
X92225000Y-64462500D03*
X92875000Y-64462500D03*
X93525000Y-64462500D03*
X94175000Y-64462500D03*
X94825000Y-64462500D03*
X95475000Y-64462500D03*
X96125000Y-64462500D03*
X96775000Y-64462500D03*
X96775000Y-58737500D03*
X96125000Y-58737500D03*
X95475000Y-58737500D03*
X94825000Y-58737500D03*
X94175000Y-58737500D03*
X93525000Y-58737500D03*
X92875000Y-58737500D03*
X92225000Y-58737500D03*
%TD*%
D46*
%TO.C,PD11*%
X155697410Y-106283658D03*
X153118990Y-106617942D03*
%TD*%
D47*
%TO.C,C3*%
X76250000Y-63770000D03*
X76250000Y-64730000D03*
%TD*%
D31*
%TO.C,C29*%
X104130000Y-65300000D03*
X103170000Y-65300000D03*
%TD*%
D18*
%TO.C,C1*%
X84520000Y-58250000D03*
X85480000Y-58250000D03*
%TD*%
D13*
%TO.C,RF10*%
X138378000Y-64000000D03*
X139398000Y-64000000D03*
%TD*%
D11*
%TO.C,C21*%
X88750000Y-65480000D03*
X88750000Y-64520000D03*
%TD*%
D48*
%TO.C,D6*%
X61660758Y-66412629D03*
X64150242Y-66183571D03*
%TD*%
D18*
%TO.C,C35*%
X54770000Y-64000000D03*
X55730000Y-64000000D03*
%TD*%
D11*
%TO.C,CF1*%
X72888000Y-61355000D03*
X72888000Y-60395000D03*
%TD*%
%TO.C,CF9*%
X142638000Y-64730000D03*
X142638000Y-63770000D03*
%TD*%
D49*
%TO.C,PD16*%
X117842396Y-75233417D03*
X118506204Y-72719583D03*
%TD*%
D23*
%TO.C,C40*%
X113800000Y-72575000D03*
X113800000Y-71025000D03*
%TD*%
D11*
%TO.C,C31*%
X92000000Y-66980000D03*
X92000000Y-66020000D03*
%TD*%
D13*
%TO.C,R1*%
X125240000Y-68250000D03*
X126260000Y-68250000D03*
%TD*%
D11*
%TO.C,CF13*%
X148388000Y-61505000D03*
X148388000Y-60545000D03*
%TD*%
%TO.C,C11*%
X104338000Y-64180000D03*
X104338000Y-63220000D03*
%TD*%
%TO.C,CF4*%
X83362000Y-60605000D03*
X83362000Y-59645000D03*
%TD*%
%TO.C,C18*%
X116000000Y-58730000D03*
X116000000Y-57770000D03*
%TD*%
%TO.C,C33*%
X54600000Y-68280000D03*
X54600000Y-67320000D03*
%TD*%
D15*
%TO.C,U2*%
X74637500Y-58550000D03*
X74637500Y-59200000D03*
X74637500Y-59850000D03*
X74637500Y-60500000D03*
X74637500Y-61150000D03*
X74637500Y-61800000D03*
X74637500Y-62450000D03*
X80362500Y-62450000D03*
X80362500Y-61800000D03*
X80362500Y-61150000D03*
X80362500Y-60500000D03*
X80362500Y-59850000D03*
X80362500Y-59200000D03*
X80362500Y-58550000D03*
%TD*%
D50*
%TO.C,D12*%
X171852496Y-92773265D03*
X171167304Y-95177535D03*
%TD*%
D11*
%TO.C,CF3*%
X82112000Y-60605000D03*
X82112000Y-59645000D03*
%TD*%
%TO.C,CF8*%
X71612000Y-60255000D03*
X71612000Y-59295000D03*
%TD*%
D13*
%TO.C,R10*%
X129740000Y-66000000D03*
X130760000Y-66000000D03*
%TD*%
D18*
%TO.C,C32*%
X100420000Y-67200000D03*
X101380000Y-67200000D03*
%TD*%
%TO.C,C37*%
X136520000Y-63600000D03*
X137480000Y-63600000D03*
%TD*%
D13*
%TO.C,R28*%
X128390000Y-60400000D03*
X129410000Y-60400000D03*
%TD*%
D51*
%TO.C,PD2*%
X87518284Y-105829274D03*
X84946716Y-106212726D03*
%TD*%
D10*
%TO.C,R15*%
X50200000Y-68510000D03*
X50200000Y-67490000D03*
%TD*%
%TO.C,R7*%
X106500000Y-72510000D03*
X106500000Y-71490000D03*
%TD*%
D13*
%TO.C,R13*%
X87740000Y-58500000D03*
X88760000Y-58500000D03*
%TD*%
D52*
%TO.C,U16*%
X99525000Y-63400000D03*
X100175000Y-63400000D03*
X100825000Y-63400000D03*
X101475000Y-63400000D03*
X101475000Y-59000000D03*
X100825000Y-59000000D03*
X100175000Y-59000000D03*
X99525000Y-59000000D03*
%TD*%
D53*
%TO.C,D4*%
X48832696Y-95177535D03*
X48147504Y-92773265D03*
%TD*%
D54*
%TO.C,D1*%
X97411820Y-98040841D03*
X96185780Y-100219559D03*
%TD*%
D55*
%TO.C,C25*%
X146725000Y-65250000D03*
X148275000Y-65250000D03*
%TD*%
D56*
%TO.C,D7*%
X83672668Y-66468636D03*
X86151332Y-66794562D03*
%TD*%
D18*
%TO.C,C7*%
X87658000Y-59550000D03*
X88618000Y-59550000D03*
%TD*%
D57*
%TO.C,D19*%
X52960000Y-57965000D03*
X54360000Y-57965000D03*
%TD*%
D58*
%TO.C,PD8*%
X101461022Y-72820765D03*
X102204378Y-75312235D03*
%TD*%
D59*
%TO.C,U12*%
X51425000Y-67900000D03*
X52075000Y-67900000D03*
X52725000Y-67900000D03*
X53375000Y-67900000D03*
X53375000Y-64500000D03*
X52725000Y-64500000D03*
X52075000Y-64500000D03*
X51425000Y-64500000D03*
%TD*%
D60*
%TO.C,D18*%
X164000000Y-64650000D03*
X162600000Y-64650000D03*
%TD*%
D11*
%TO.C,C9*%
X127250000Y-66730000D03*
X127250000Y-65770000D03*
%TD*%
D61*
%TO.C,D15*%
X133830012Y-66731093D03*
X136311388Y-66426507D03*
%TD*%
D62*
%TO.C,PD15*%
X138699330Y-66094589D03*
X141288870Y-65861611D03*
%TD*%
D18*
%TO.C,C13*%
X102270000Y-71250000D03*
X103230000Y-71250000D03*
%TD*%
D23*
%TO.C,C26*%
X128500000Y-67775000D03*
X128500000Y-66225000D03*
%TD*%
D63*
%TO.C,D16*%
X117990491Y-79937150D03*
X117870109Y-77440050D03*
%TD*%
D18*
%TO.C,C46*%
X100020000Y-68200000D03*
X100980000Y-68200000D03*
%TD*%
D11*
%TO.C,C23*%
X152000000Y-65730000D03*
X152000000Y-64770000D03*
%TD*%
D64*
%TO.C,U14*%
X136275000Y-59800000D03*
D65*
X136100000Y-60275000D03*
X136100000Y-60725000D03*
D66*
X136275000Y-61200000D03*
D67*
X136750000Y-60500000D03*
X137250000Y-60500000D03*
D68*
X137725000Y-61200000D03*
D65*
X137900000Y-60725000D03*
X137900000Y-60275000D03*
D69*
X137725000Y-59800000D03*
%TD*%
D18*
%TO.C,C20*%
X105520000Y-70500000D03*
X106480000Y-70500000D03*
%TD*%
D70*
%TO.C,D3*%
X61992778Y-105812972D03*
X59545422Y-105302628D03*
%TD*%
D10*
%TO.C,R19*%
X91200000Y-65110000D03*
X91200000Y-64090000D03*
%TD*%
D71*
%TO.C,D14*%
X155849757Y-66183571D03*
X158339241Y-66412629D03*
%TD*%
D11*
%TO.C,C48*%
X159800000Y-64780000D03*
X159800000Y-63820000D03*
%TD*%
D10*
%TO.C,R12*%
X107650000Y-71260000D03*
X107650000Y-70240000D03*
%TD*%
D18*
%TO.C,C10*%
X103170000Y-59500000D03*
X104130000Y-59500000D03*
%TD*%
D11*
%TO.C,CF11*%
X147112000Y-62605000D03*
X147112000Y-61645000D03*
%TD*%
%TO.C,C34*%
X56750000Y-64980000D03*
X56750000Y-64020000D03*
%TD*%
D10*
%TO.C,R16*%
X49200000Y-68910000D03*
X49200000Y-67890000D03*
%TD*%
D18*
%TO.C,C44*%
X101220000Y-65250000D03*
X102180000Y-65250000D03*
%TD*%
D72*
%TO.C,PD13*%
X174139486Y-77279831D03*
X174072514Y-79878969D03*
%TD*%
D10*
%TO.C,RF14*%
X148388000Y-63535000D03*
X148388000Y-62515000D03*
%TD*%
D13*
%TO.C,R3*%
X85490000Y-64500000D03*
X86510000Y-64500000D03*
%TD*%
D15*
%TO.C,U4*%
X139637500Y-58550000D03*
X139637500Y-59200000D03*
X139637500Y-59850000D03*
X139637500Y-60500000D03*
X139637500Y-61150000D03*
X139637500Y-61800000D03*
X139637500Y-62450000D03*
X145362500Y-62450000D03*
X145362500Y-61800000D03*
X145362500Y-61150000D03*
X145362500Y-60500000D03*
X145362500Y-59850000D03*
X145362500Y-59200000D03*
X145362500Y-58550000D03*
%TD*%
D13*
%TO.C,RF9*%
X140378000Y-64000000D03*
X141398000Y-64000000D03*
%TD*%
%TO.C,R11*%
X103140000Y-66300000D03*
X104160000Y-66300000D03*
%TD*%
D10*
%TO.C,RF5*%
X62388000Y-60285000D03*
X62388000Y-59265000D03*
%TD*%
D18*
%TO.C,CF15*%
X153632000Y-64775000D03*
X154592000Y-64775000D03*
%TD*%
D73*
%TO.C,R14*%
X103310000Y-68000000D03*
X102290000Y-68000000D03*
%TD*%
D13*
%TO.C,R9*%
X115740000Y-63250000D03*
X116760000Y-63250000D03*
%TD*%
%TO.C,R4*%
X98490000Y-66000000D03*
X99510000Y-66000000D03*
%TD*%
D31*
%TO.C,C2*%
X117880000Y-60100000D03*
X116920000Y-60100000D03*
%TD*%
D33*
%TO.C,FB1*%
X88212500Y-67000000D03*
X89787500Y-67000000D03*
%TD*%
D74*
%TO.C,PD6*%
X56763179Y-67079917D03*
X59313221Y-66572683D03*
%TD*%
D13*
%TO.C,RF8*%
X69352000Y-58025000D03*
X70372000Y-58025000D03*
%TD*%
D75*
%TO.C,D10*%
X139934091Y-106745054D03*
X137450309Y-106460746D03*
%TD*%
D15*
%TO.C,U3*%
X64137500Y-59450000D03*
X64137500Y-60100000D03*
X64137500Y-60750000D03*
X64137500Y-61400000D03*
X64137500Y-62050000D03*
X64137500Y-62700000D03*
X64137500Y-63350000D03*
X69862500Y-63350000D03*
X69862500Y-62700000D03*
X69862500Y-62050000D03*
X69862500Y-61400000D03*
X69862500Y-60750000D03*
X69862500Y-60100000D03*
X69862500Y-59450000D03*
%TD*%
D76*
%TO.C,U9*%
X105837500Y-60250000D03*
X105837500Y-60750000D03*
X105837500Y-61250000D03*
X105837500Y-61750000D03*
X105837500Y-62250000D03*
X105837500Y-62750000D03*
X105837500Y-63250000D03*
X105837500Y-63750000D03*
X105837500Y-64250000D03*
X105837500Y-64750000D03*
X105837500Y-65250000D03*
X105837500Y-65750000D03*
D77*
X107250000Y-67162500D03*
X107750000Y-67162500D03*
X108250000Y-67162500D03*
X108750000Y-67162500D03*
X109250000Y-67162500D03*
X109750000Y-67162500D03*
X110250000Y-67162500D03*
X110750000Y-67162500D03*
X111250000Y-67162500D03*
X111750000Y-67162500D03*
X112250000Y-67162500D03*
X112750000Y-67162500D03*
D76*
X114162500Y-65750000D03*
X114162500Y-65250000D03*
X114162500Y-64750000D03*
X114162500Y-64250000D03*
X114162500Y-63750000D03*
X114162500Y-63250000D03*
X114162500Y-62750000D03*
X114162500Y-62250000D03*
X114162500Y-61750000D03*
X114162500Y-61250000D03*
X114162500Y-60750000D03*
X114162500Y-60250000D03*
D77*
X112750000Y-58837500D03*
X112250000Y-58837500D03*
X111750000Y-58837500D03*
X111250000Y-58837500D03*
X110750000Y-58837500D03*
X110250000Y-58837500D03*
X109750000Y-58837500D03*
X109250000Y-58837500D03*
X108750000Y-58837500D03*
X108250000Y-58837500D03*
X107750000Y-58837500D03*
X107250000Y-58837500D03*
%TD*%
D13*
%TO.C,RF16*%
X155352000Y-58025000D03*
X156372000Y-58025000D03*
%TD*%
%TO.C,R29*%
X153590000Y-65800000D03*
X154610000Y-65800000D03*
%TD*%
D18*
%TO.C,C6*%
X149507500Y-65750000D03*
X150467500Y-65750000D03*
%TD*%
D14*
%TO.C,U13*%
X116362500Y-65650000D03*
X116362500Y-66600000D03*
X116362500Y-67550000D03*
X118637500Y-67550000D03*
X118637500Y-65650000D03*
%TD*%
D18*
%TO.C,CF16*%
X153382000Y-58025000D03*
X154342000Y-58025000D03*
%TD*%
D10*
%TO.C,R8*%
X116900000Y-62260000D03*
X116900000Y-61240000D03*
%TD*%
D11*
%TO.C,C12*%
X104412000Y-72480000D03*
X104412000Y-71520000D03*
%TD*%
D18*
%TO.C,C30*%
X106820000Y-69000000D03*
X107780000Y-69000000D03*
%TD*%
D47*
%TO.C,C49*%
X97700000Y-67920000D03*
X97700000Y-68880000D03*
%TD*%
D10*
%TO.C,RF6*%
X62388000Y-63535000D03*
X62388000Y-62515000D03*
%TD*%
D13*
%TO.C,RF11*%
X144852000Y-63875000D03*
X145872000Y-63875000D03*
%TD*%
D11*
%TO.C,CF2*%
X72888000Y-63355000D03*
X72888000Y-62395000D03*
%TD*%
D18*
%TO.C,C45*%
X108720000Y-69250000D03*
X109680000Y-69250000D03*
%TD*%
D78*
%TO.C,U18*%
X158500000Y-61700000D03*
X158500000Y-62500000D03*
D79*
X157525000Y-61450000D03*
X157525000Y-62100000D03*
X157525000Y-62750000D03*
X159475000Y-62750000D03*
X159475000Y-62100000D03*
X159475000Y-61450000D03*
%TD*%
D18*
%TO.C,C47*%
X101220000Y-66250000D03*
X102180000Y-66250000D03*
%TD*%
D13*
%TO.C,RF15*%
X157602000Y-64250000D03*
X158622000Y-64250000D03*
%TD*%
M02*
